<svg width="375" height="586" viewBox="0 0 375 586" fill="none" xmlns="http://www.w3.org/2000/svg">
<g opacity="0.3">
<path d="M310.829 397.631C310.829 398.492 312.604 399.247 315.24 399.657C316.578 399.869 317.625 400.916 317.837 402.253C318.248 404.902 319.003 406.663 319.864 406.663C320.725 406.663 321.48 404.889 321.89 402.253C322.102 400.916 323.149 399.869 324.487 399.657C327.136 399.247 328.911 398.492 328.911 397.631C328.911 396.757 327.136 396.002 324.487 395.592C323.149 395.38 322.089 394.334 321.89 392.996C321.48 390.347 320.725 388.573 319.864 388.573C319.003 388.573 318.248 390.347 317.837 392.996C317.625 394.334 316.578 395.38 315.24 395.592C312.604 396.016 310.829 396.77 310.829 397.631Z" fill="white"/>
<path d="M83 576.058C83 576.919 84.7751 577.674 87.4113 578.085C88.7493 578.297 89.7958 579.343 90.0077 580.68C90.4184 583.329 91.1735 585.09 92.0346 585.09C92.8956 585.09 93.6507 583.316 94.0614 580.68C94.2733 579.343 95.3199 578.297 96.6578 578.085C99.3073 577.674 101.082 576.919 101.082 576.058C101.082 575.184 99.3073 574.43 96.6578 574.019C95.3199 573.807 94.2601 572.761 94.0614 571.423C93.6507 568.775 92.8956 567 92.0346 567C91.1735 567 90.4184 568.775 90.0077 571.423C89.7958 572.761 88.7493 573.807 87.4113 574.019C84.7751 574.443 83 575.198 83 576.058Z" fill="white"/>
<path d="M327.587 180.335C327.587 181.195 329.362 181.95 331.998 182.361C333.336 182.573 334.383 183.619 334.595 184.956C335.005 187.605 335.76 189.367 336.621 189.367C337.482 189.367 338.238 187.592 338.648 184.956C338.86 183.619 339.907 182.573 341.245 182.361C343.894 181.95 345.669 181.195 345.669 180.335C345.669 179.46 343.894 178.706 341.245 178.295C339.907 178.083 338.847 177.037 338.648 175.699C338.238 173.051 337.482 171.276 336.621 171.276C335.76 171.276 335.005 173.051 334.595 175.699C334.383 177.037 333.336 178.083 331.998 178.295C329.349 178.719 327.587 179.46 327.587 180.335Z" fill="white"/>
<path d="M4.18289 271.409C4.18289 272.27 5.95799 273.025 8.59418 273.435C9.93215 273.647 10.9787 274.693 11.1906 276.031C11.6013 278.68 12.3564 280.441 13.2175 280.441C14.0785 280.441 14.8336 278.666 15.2443 276.031C15.4563 274.693 16.5028 273.647 17.8407 273.435C20.4902 273.025 22.2653 272.27 22.2653 271.409C22.2653 270.535 20.4902 269.78 17.8407 269.37C16.5028 269.158 15.443 268.111 15.2443 266.774C14.8336 264.125 14.0785 262.351 13.2175 262.351C12.3564 262.351 11.6013 264.125 11.1906 266.774C10.9787 268.111 9.93215 269.158 8.59418 269.37C5.94474 269.78 4.18289 270.535 4.18289 271.409Z" fill="white"/>
<path d="M88.0907 11.2568C88.0907 12.3295 90.2897 13.2698 93.5882 13.7863C95.2441 14.0512 96.5556 15.349 96.8206 17.0177C97.3372 20.302 98.2778 22.5137 99.3508 22.5137C100.424 22.5137 101.364 20.3153 101.881 17.0177C102.146 15.3623 103.444 14.0512 105.113 13.7863C108.412 13.2698 110.611 12.3295 110.611 11.2568C110.611 10.1709 108.399 9.24385 105.113 8.72736C103.444 8.46249 102.133 7.16465 101.881 5.49599C101.364 2.19839 100.424 0 99.3508 0C98.2778 0 97.3372 2.19839 96.8206 5.49599C96.5556 7.16465 95.2441 8.46249 93.5882 8.72736C90.2897 9.24385 88.0907 10.1841 88.0907 11.2568Z" fill="white"/>
<path d="M71.227 373.369C69.6247 373.369 68.3258 372.071 68.3258 370.469C68.3258 368.867 69.6247 367.569 71.227 367.569C72.8292 367.569 74.1281 368.867 74.1281 370.469C74.1281 372.071 72.8292 373.369 71.227 373.369Z" fill="white"/>
<path d="M201.905 544.666C200.302 544.666 199.003 543.368 199.003 541.766C199.003 540.164 200.302 538.866 201.905 538.866C203.507 538.866 204.806 540.164 204.806 541.766C204.806 543.368 203.507 544.666 201.905 544.666Z" fill="white"/>
<path d="M369.686 87.459C368.084 87.459 366.785 86.1605 366.785 84.5587C366.785 82.957 368.084 81.6584 369.686 81.6584C371.289 81.6584 372.588 82.957 372.588 84.5587C372.588 86.1605 371.289 87.459 369.686 87.459Z" fill="white"/>
<path d="M52.0053 49.0401C50.4031 49.0401 49.1042 47.7416 49.1042 46.1398C49.1042 44.538 50.4031 43.2395 52.0053 43.2395C53.6076 43.2395 54.9064 44.538 54.9064 46.1398C54.9064 47.7416 53.6076 49.0401 52.0053 49.0401Z" fill="white"/>
<path d="M318.155 60.3367C316.553 60.3367 315.254 59.0382 315.254 57.4364C315.254 55.8346 316.553 54.5361 318.155 54.5361C319.757 54.5361 321.056 55.8346 321.056 57.4364C321.056 59.0382 319.757 60.3367 318.155 60.3367Z" fill="white"/>
<path d="M30.0282 132.235C29.2087 132.235 28.5445 131.571 28.5445 130.751C28.5445 129.932 29.2087 129.268 30.0282 129.268C30.8476 129.268 31.5118 129.932 31.5118 130.751C31.5118 131.571 30.8476 132.235 30.0282 132.235Z" fill="white"/>
<path d="M35.9231 414C35.1037 414 34.4395 413.336 34.4395 412.517C34.4395 411.698 35.1037 411.033 35.9231 411.033C36.7426 411.033 37.4068 411.698 37.4068 412.517C37.4068 413.336 36.7426 414 35.9231 414Z" fill="white"/>
<path d="M166.601 585.297C165.781 585.297 165.117 584.633 165.117 583.814C165.117 582.994 165.781 582.33 166.601 582.33C167.42 582.33 168.084 582.994 168.084 583.814C168.084 584.633 167.42 585.297 166.601 585.297Z" fill="white"/>
<path d="M196.161 374.045C195.342 374.045 194.678 373.381 194.678 372.561C194.678 371.742 195.342 371.078 196.161 371.078C196.981 371.078 197.645 371.742 197.645 372.561C197.645 373.381 196.981 374.045 196.161 374.045Z" fill="white"/>
<path d="M326.839 545.342C326.019 545.342 325.355 544.678 325.355 543.858C325.355 543.039 326.019 542.375 326.839 542.375C327.658 542.375 328.323 543.039 328.323 543.858C328.323 544.678 327.658 545.342 326.839 545.342Z" fill="white"/>
<path d="M357.393 18.0374C356.574 18.0374 355.909 17.3734 355.909 16.5542C355.909 15.735 356.574 15.0709 357.393 15.0709C358.212 15.0709 358.877 15.735 358.877 16.5542C358.877 17.3734 358.212 18.0374 357.393 18.0374Z" fill="white"/>
<path d="M362.771 341.718C361.952 341.718 361.288 341.054 361.288 340.235C361.288 339.415 361.952 338.751 362.771 338.751C363.591 338.751 364.255 339.415 364.255 340.235C364.255 341.054 363.591 341.718 362.771 341.718Z" fill="white"/>
<path d="M8.80615 356.67C7.98673 356.67 7.32247 356.006 7.32247 355.186C7.32247 354.367 7.98673 353.703 8.80615 353.703C9.62556 353.703 10.2898 354.367 10.2898 355.186C10.2898 356.006 9.62556 356.67 8.80615 356.67Z" fill="white"/>
<path d="M139.484 527.966C138.664 527.966 138 527.302 138 526.483C138 525.664 138.664 525 139.484 525C140.303 525 140.967 525.664 140.967 526.483C140.967 527.302 140.303 527.966 139.484 527.966Z" fill="white"/>
</g>
</svg>
