<svg width="2257" height="1804" viewBox="0 0 2257 1804" fill="none" xmlns="http://www.w3.org/2000/svg">
<g clip-path="url(#clip0_152_1983)">
<path d="M1547.1 694.5C1550.1 700.5 1553 706.6 1555.8 712.6C1706 1037.5 1571.5 1425.1 1249.1 1586C926.7 1746.9 536.1 1621.2 366.8 1305.8C363.6 1299.9 360.6 1293.9 357.6 1287.9C320.1 1212.7 298.1 1133.8 290.6 1054.8C265.3 792.2 399 529.2 646.4 401.1C649.4 399.5 652.5 398 655.6 396.4C658.7 394.9 661.8 393.3 664.9 391.9C916.1 271.3 1206.6 322.7 1401.2 500.8C1459.7 554.3 1509.5 619.2 1547.1 694.5Z" fill="#00BDFF"/>
<path d="M1302.4 1360.4C1299.3 1327.6 1281 1296.9 1253.8 1278.7C1218.8 1255.4 1210.9 1204.4 1206 1167.8C1202.1 1138.3 1183.5 1115.3 1154.7 1135.7C1088.6 1182.5 992.6 1111.3 973.8 1043.1C957.4 970.1 974.7 906.2 1011.8 844.2C1037.5 801.1 1091.7 788.1 1135.1 809.4C1186.3 834.5 1266.2 756.9 1274.5 706.3C1275.4 700.5 1276.1 692.7 1274 688.1C1253.3 641.5 1182.3 638.5 1158.5 681.7C1143.1 709.7 1111.4 719.9 1083 704.7C1030.8 676.9 1014.4 700.1 996.7 751.3C991 767.8 990.9 797.6 970.5 785C950.4 772.5 933.2 747.7 943.6 724C969.1 666.3 992.8 605 1008 542.8C1009 538.7 1013 533.2 1015.9 532.9C1080.6 526.1 1073.9 442.6 1086.6 396.1C1091.1 379.7 1087.7 372.2 1077.1 365.7C1066.3 359.1 1061.3 366.6 1057.1 378.1C1050.1 397.4 1043.2 416.9 1036.1 436.2C1032.4 446.1 1031.1 461.1 1020.1 459.5C1007.2 457.6 1000.6 441.9 1001.3 427.6C1003.5 386.7 1014.3 341.1 1039.2 308.1C1058 283.1 1094.4 265 1123.3 284.2C1159.2 308.1 1187.1 305.6 1226.4 285.5C1242.9 277 1260.6 267.9 1278.1 262.6C1307.6 253.7 1328.6 230 1336.1 200C1344 170.1 1368.1 148.6 1398 142.9C1416.9 139.3 1429.1 128.9 1434.6 106.1C1444.4 65.5002 1476.4 34.9002 1515 21.9002C1572.4 2.50015 1619.8 5.70015 1661.4 48.6002C1672.8 60.3002 1684.6 55.7002 1695.7 53.4002C1724.7 47.2002 1755.7 42.4002 1783.3 35.5002C1804.2 30.3002 1834.2 40.2002 1847.6 56.9002C1856.7 68.2002 1867.3 69.4002 1877.7 67.9002C1892 65.8002 1907.5 65.6002 1921 64.0002C1953.7 60.2002 1967.6 66.9002 1984.8 96.4002C1991.6 125.3 1972.4 163.9 1945.3 170.9C1937.4 172.9 1927.9 174.3 1918.9 174.4C1893.6 174.8 1889.4 190.7 1897.9 222.7C1916.1 291.4 1893.3 392.4 1820.1 417.9C1802.3 424.1 1792.5 431 1800.8 459.3C1805.1 474.1 1807.6 491.5 1800.3 506.8C1783.6 541.8 1774.6 581.3 1785.4 618.9C1793.9 648.5 1765.5 670.8 1738.9 655.2C1710 638.2 1681.8 618.9 1654.9 598.5C1634.1 582.7 1622.3 587.7 1613.5 615.4C1605.9 639.3 1593.3 663.6 1587.5 686.7C1580.1 716.2 1555.4 736.5 1528.3 713.9C1497.4 694.2 1480.8 686.7 1449 694.8C1437.7 697.6 1425.1 693.3 1414.1 685C1403 676.6 1390.1 667.2 1384.3 690.1C1378.8 711.6 1396.6 710.2 1404.6 716.8C1419.1 728.7 1434.9 738 1450.1 747.7C1476.8 764.7 1479.7 791.6 1462.4 816.8C1445.5 841.4 1413.6 861.7 1384.2 841.3C1364.3 828.7 1344.8 815.5 1325.1 802.8C1315.7 796.8 1306.9 786.2 1298.3 807.8C1289.2 830.7 1302.4 832.4 1311.1 838.3C1345.7 861.7 1380.4 884.7 1415.8 906.8C1446.2 925.8 1456.4 964.5 1440.3 996C1407 1061 1413.2 1131.4 1436.9 1204.5C1446.6 1234.4 1453.9 1263.9 1460.4 1294.8C1473.7 1356.1 1444.9 1447.6 1377.2 1464.1C1350.2 1470.1 1328 1451.3 1320.2 1426.6C1313.3 1405.2 1308 1382.4 1302.4 1360.4Z" fill="#5CE205"/>
<path d="M27.1998 940.5C-1.00017 882.4 3.29983 836.9 68.0998 811.9C163.9 770.3 258.4 725.9 351.5 679C367.2 671.1 383.3 661.6 397.3 678.9C409.1 693.5 408.3 711.9 402.3 731.4C391.6 766 417.3 774.6 441.5 786.4C461.8 796.3 484.2 783.6 501 766.8C515.7 752 500.7 733.7 497.7 717.3C495.6 705.8 489 693.6 497.8 683.5C506.8 673.1 516.1 682.9 523.8 688.3C539.3 699 554.1 700.7 571.2 690.9C586.3 682.3 602.4 682.8 613.9 700.2C625.3 717.4 623.5 738.4 616.6 757.6C588.5 835.5 556.9 914.5 529.4 990.2C517.6 1022.7 481.4 1033.9 452.6 1045.9C423.7 1058 422.9 1090.2 435.5 1114.5C440.7 1124.5 446.4 1131.8 455.6 1128.1C492.2 1113.3 522.7 1140 549.7 1158.8C570.4 1173.2 598.8 1182.2 623.7 1169.2C653.4 1153.7 677.8 1155.4 707.2 1173C730.2 1186.8 762.6 1207.6 791.3 1199.5C828.7 1188.9 848.2 1297.1 840.7 1325C820.1 1401.4 792.1 1483 763.3 1558.1C747.7 1598.9 745.1 1640.1 758.5 1680.1C765.2 1700.1 770.5 1723.7 775.5 1745.9C778.6 1759.6 788.5 1776.4 781.1 1787.1C771.9 1800.4 758.2 1786.5 747.6 1780.1C711.6 1758.5 689.1 1718 678.5 1678.8C670.7 1649.7 661.5 1619.8 655.5 1590.5C643.5 1532.2 622.8 1470.4 569.1 1436.6C520.4 1403.1 502.7 1300.5 517.4 1249C521.3 1235.5 538.7 1221.1 525.3 1206C511.3 1190.3 492.7 1169.8 473.8 1177.3C435.1 1192.7 392.6 1168.5 362.7 1145.4C333.6 1122.9 304.1 1100.3 271.7 1082.4C224 1056.5 210.7 1000.4 194.2 954.5C180.2 915.5 123.3 871.9 81.4998 877.2C50.6998 881.1 40.7998 915.9 27.1998 940.5Z" fill="#5CE205"/>
<path d="M2169.1 897.9C2169.5 899.1 2170.1 900.2 2170.2 901.4C2171.8 919.8 2192.6 938.6 2176 954.9C2160.2 970.4 2128.4 986.5 2105.8 974.2C2071.4 963.2 2057.7 965.4 2028 981.8C2004 995.1 1973.1 994.6 1954.6 971.2C1933.2 945.8 1935.2 910.8 1946 881.6C1962.9 836 2007.3 788.5 2058.3 791.4C2108.8 794.3 2154 852.3 2169.1 897.9Z" fill="#5CE205"/>
<path d="M674.7 346.4C686.7 339.8 699.5 332.8 710.8 326.8C735 314 776.8 278.1 798.8 316.7C830.3 371.9 837.1 423.3 816.9 479.9C799.8 528.1 778.9 579.8 762.5 630.8C748.8 673.5 731.7 678.9 703.9 654.7C687.9 640.8 669.4 628.1 663.1 605.8C652.7 569.2 625.9 541.8 593.3 524.1C575.3 514.3 555.9 499.7 562.1 466.1C567.5 437.1 573.8 400.6 602.9 385.8C626.5 373.8 650.8 359.8 674.8 346.6C674.8 346.6 674.8 346.5 674.7 346.4Z" fill="#5CE205"/>
<path d="M481.5 618.6C460.9 631.2 443.2 640.1 424.1 632.1C416 628.7 409.3 622.2 407.7 612.3C405.5 598.8 416.3 596.2 423.4 592C435.3 584.9 447.7 579 459.8 572.2C481.3 560.1 505.9 553.6 513 586C519.6 615.8 489.1 606.7 481.5 618.6Z" fill="#5CE205"/>
<path d="M1780.9 733.7C1810.3 731.1 1853.7 753.3 1867.9 775.3C1877 789.4 1864.1 797.5 1856.7 798.8C1834.6 802.6 1782.7 775.2 1769.7 755.1C1765 747.6 1769 738.7 1780.9 733.7Z" fill="#5CE205"/>
<path d="M1467.8 1207.3C1463 1182.1 1460.9 1149.2 1484.8 1133.3C1502.7 1121.3 1505.2 1147.6 1508.7 1162.2C1514.8 1187.2 1517.3 1220.1 1492.4 1236.3C1472.5 1249.1 1474.8 1220.3 1467.8 1207.3Z" fill="#5CE205"/>
<path d="M1980.6 293.1C1985.2 323.9 1956.8 382.7 1933 388.6C1926.7 390.2 1916 382.9 1919.3 374.7C1929.6 345.9 1938.1 310.9 1963.6 292.9C1968.2 289.7 1978.4 285 1980.6 293.1Z" fill="#5CE205"/>
<path d="M1968 761.3C1959.1 760.9 1942.5 782.5 1936.9 754.2C1930.9 724 1950.5 713 1970.7 708.7C1981.5 706.4 1997.7 690.2 2003.2 710.9C2011.6 737 1992.6 757 1968 761.3Z" fill="#5CE205"/>
<path d="M2238.4 909.3C2236.9 918.9 2256.7 932.1 2237.2 937.2C2216.8 942.5 2206.3 923.9 2201.6 904.3C2198.9 893 2184.8 875.1 2200.8 870.2C2228.4 861.6 2229.4 891.8 2238.4 909.3Z" fill="#5CE205"/>
<path d="M953.8 517.5C959.3 538.7 969.1 570.3 946.1 584.5C931.7 593.4 929.6 570.4 927.3 558.3C923.2 536.9 911.4 504.5 932.4 488.6C950.5 475 945.5 511.7 953.8 517.5Z" fill="#5CE205"/>
<path d="M1884.5 646.7C1889.9 668.4 1895.6 690.4 1873.8 697.6C1856.4 703.3 1858 680.9 1853.6 669.2C1845.9 648.8 1850.2 629.1 1865 621.8C1882.9 612.9 1879 638.4 1884.5 646.7Z" fill="#5CE205"/>
<path d="M915.2 571.9C918.5 585.9 916.8 597 905.2 602.4C897.3 606 891.2 603.5 888.3 592.6C884.7 579 887.4 567 896.7 559.6C906.8 551.7 911.8 560.6 915.2 571.9Z" fill="#5CE205"/>
<path d="M1366.9 1475.8C1338.8 1475.8 1317.5 1454.1 1309.9 1429.7C1304.3 1411.9 1299.7 1393.1 1295.1 1375L1291.8 1361.4C1289 1331.6 1272.6 1304 1247.8 1287.6C1210.6 1262.8 1201.2 1213.5 1195.4 1169.2C1193.4 1154.4 1187.4 1142.8 1180 1139.6C1174.9 1137.4 1168.4 1139 1160.8 1144.4C1134.7 1162.9 1101.5 1166.4 1067.5 1154.2C1019.9 1137.2 976.2 1091.7 963.5 1046L963.4 1045.5C947.7 975.6 960.1 909.9 1002.6 838.8C1030.5 792 1089.5 775.3 1139.7 799.9C1156.4 808.1 1176 801.5 1189.5 794.5C1224.2 776.6 1259 734.6 1263.9 704.6C1265.1 697 1264.5 693.2 1264.2 692.4C1254.7 671 1233.2 662.6 1216.3 661.9C1195.3 661 1176.8 670.6 1167.8 686.9C1149.6 720 1111 731.8 1078 714.2C1059.7 704.4 1046.3 701.5 1037.1 705.1C1024.5 710 1015.9 728.6 1006.7 754.9C1005.6 758.1 1004.7 762 1003.7 766.3C1000.9 778.6 997.7 792.6 986.3 797.4C979.8 800.1 972.6 799 964.7 794.2C939.8 778.8 921.2 748.3 933.7 719.9C964.2 650.9 984.4 593.9 997.5 540.4C999.1 533.7 1005.7 523.4 1014.6 522.5C1053.2 518.5 1061.5 482.2 1069 431.5C1071 417.8 1073 404.8 1076.1 393.4C1079.7 380.1 1076.6 378.1 1071.3 374.9C1070.9 374.7 1070.6 374.5 1070.3 374.4C1069.6 375.4 1068.4 377.5 1066.8 381.9C1064.4 388.5 1062 395.2 1059.6 401.8C1055 414.6 1050.4 427.3 1045.7 440C1045 441.8 1044.4 443.9 1043.8 445.9C1041.3 454.6 1036 472.7 1018.1 470.1C998.7 467.2 989.3 445.8 990.3 427.2C991.8 398.2 999.1 343.3 1030.3 301.8C1052.6 272.1 1094.7 252.8 1128.8 275.4C1159.3 295.7 1182.6 295.9 1221.1 276.1L1221.8 275.7C1238 267.4 1256.4 257.9 1274.5 252.4C1299.6 244.8 1318.5 224.3 1325.2 197.5C1334.1 163.9 1361 139.1 1395.5 132.5C1411.3 129.5 1419.5 121.1 1423.8 103.6C1434.1 61.1001 1466.7 26.8001 1511.2 11.8001C1577.4 -10.5999 1627.5 -1.19988 1668.6 41.2001C1674.3 47.0001 1679 46.2001 1689.1 43.9001C1690.4 43.6001 1691.7 43.3001 1693 43.0001C1704.8 40.5001 1717 38.1001 1728.8 35.9001C1746.1 32.6001 1764 29.2001 1780.2 25.2001C1805 19.0001 1839.4 30.5001 1855.4 50.2001C1860.7 56.8001 1866.2 58.8001 1875.7 57.4001C1884.2 56.2001 1892.9 55.6001 1901.3 55.0001C1907.7 54.6001 1913.7 54.1001 1919.3 53.5001C1956.4 49.2001 1974.4 58.4001 1993.5 91.1001L1994.3 92.5001L1994.7 94.0001C2003.1 129.7 1979.8 172.9 1947.5 181.3C1938.5 183.6 1928.3 185 1918.6 185.2C1914.1 185.3 1908.4 186 1906.1 189C1903.8 192 1902.3 199.9 1907.7 220.2C1925.9 288.7 1906.6 399.2 1823.1 428.2C1809.7 432.9 1804.1 434.8 1810.5 456.5C1817 478.5 1816.6 496.5 1809.4 511.5C1791.1 549.9 1786.3 585.1 1795.1 616.1C1800.3 634.1 1794.9 651.9 1781.2 662.6C1767.5 673.2 1749 673.9 1733 664.5C1705.4 648.3 1676.8 629 1647.9 607C1638.3 599.7 1634.4 600.1 1633.4 600.4C1632.2 600.8 1627.9 603.2 1623 618.7C1619.6 629.5 1615.2 640.3 1611 650.7C1605.5 664.2 1600.3 677 1597.2 689.4C1591.8 711.1 1578.8 727.2 1562.5 732.5C1549.1 736.9 1534.5 733.4 1521.4 722.7C1492.6 704.4 1478.9 698.2 1450.9 705.3C1437.1 708.8 1421.5 704.6 1407 693.6C1404.5 691.7 1399.1 687.6 1396.3 686.7C1395.8 687.5 1394.9 689.3 1394 692.8C1392.3 699.6 1392.4 699.7 1400.1 702.9C1403.5 704.3 1407.3 705.9 1410.7 708.6C1422.2 718 1435 726 1447.3 733.8C1449.9 735.5 1452.6 737.1 1455.2 738.8C1469.9 748.2 1479.3 760.9 1482.3 775.5C1485.4 790.9 1481.4 807.3 1470.6 822.9C1457.2 842.3 1438 856 1419.2 859.4C1404.6 862.1 1390.2 858.9 1377.5 850.1C1367.4 843.7 1357 836.9 1346.6 830.1C1337.3 824 1328 817.9 1318.6 811.9C1317.2 811 1315.8 810 1314.4 809C1313.2 808.1 1311.5 806.9 1310.3 806.2C1309.6 807.2 1308.7 808.9 1307.5 811.8C1303.4 822.2 1304.4 822.8 1310.9 826.4C1312.7 827.4 1314.6 828.4 1316.3 829.6C1344.6 848.8 1382.1 873.8 1420.6 897.9C1455.6 919.8 1467.8 964.1 1448.9 1000.9C1420.6 1056.2 1419.7 1119.8 1446.2 1201.3C1454.9 1228.2 1462.5 1257.3 1470 1292.7C1483.8 1356 1455.8 1455.8 1378.9 1474.5C1375.2 1475.4 1370.9 1475.8 1366.9 1475.8ZM1312.9 1358.6L1315.7 1369.9C1320.1 1387.8 1324.7 1406.2 1330.1 1423.4C1335.8 1441.5 1352.1 1458.7 1374.6 1453.7C1437.8 1438.3 1461.4 1350.6 1449.7 1297C1442.2 1261.8 1435.1 1234.2 1426.5 1207.7C1398.2 1120.5 1399.5 1051.7 1430.5 991.1C1444.3 964.1 1435.4 931.8 1409.9 915.8C1371.1 891.5 1333.4 866.3 1304.9 847.1C1303.7 846.3 1302.4 845.6 1301.2 844.9C1292.8 840.3 1277.2 831.7 1288.2 803.9C1290.9 797.1 1295.6 787.7 1304.8 785C1314.1 782.3 1321.7 787.7 1327.2 791.6C1328.3 792.4 1329.4 793.2 1330.5 793.9C1339.9 799.9 1349.3 806.1 1358.7 812.3C1369 819 1379.2 825.8 1389.6 832.4C1398 838.2 1406.6 840.2 1415.7 838.5C1429.1 836 1443.2 825.7 1453.4 810.8C1460.8 800 1463.7 789.2 1461.8 779.6C1460 770.7 1454 762.9 1444.2 756.6C1441.6 755 1439 753.3 1436.4 751.7C1423.5 743.6 1410.2 735.2 1397.7 725C1396.8 724.2 1394.5 723.3 1392.4 722.4C1384.3 719 1367.5 712.1 1373.8 687.4C1374.9 683.1 1378.2 670.1 1389.6 666.2C1401.3 662.1 1412.3 670.4 1420.3 676.5C1429.4 683.4 1438.8 686.3 1446.1 684.5C1481.9 675.5 1501.2 684.2 1533.8 705L1534.9 705.8C1542.5 712.2 1549.7 714.3 1556.3 712.2C1565.3 709.3 1573.4 698.3 1576.9 684.2C1580.4 670.4 1586.1 656.3 1591.6 642.7C1595.7 632.6 1599.9 622.2 1603.1 612.2C1606.8 600.5 1613.3 584.5 1627.3 580.1C1637.1 577 1648.2 580.2 1661.1 590C1689.3 611.4 1717.2 630.3 1744.1 646C1752.7 651 1761.8 650.9 1768.5 645.6C1775.3 640.3 1777.8 631.4 1775 621.8C1764.7 585.7 1769.9 545.5 1790.5 502.2C1795.3 492.1 1795.3 479 1790.4 462.3C1780.4 428.2 1793.5 415.9 1816.4 407.9C1880.8 385.5 1905.5 293.8 1887.4 225.5C1883.1 209.4 1879.5 189.2 1889.4 176C1895.4 168.1 1905.1 164 1918.5 163.8C1926.4 163.7 1935.1 162.5 1942.4 160.6C1962.8 155.3 1979.2 124.2 1974.5 100.3C1960 75.8001 1950.3 71.2001 1921.9 74.5001C1915.8 75.2001 1909.2 75.7001 1902.9 76.1001C1894.9 76.7001 1886.6 77.2001 1878.9 78.3001C1862.1 80.7001 1849 75.8001 1839 63.4001C1828.1 49.8001 1802.6 41.4001 1785.5 45.6001C1768.7 49.8001 1750.5 53.2001 1732.9 56.6001C1721.2 58.8001 1709.1 61.1001 1697.6 63.6001C1696.4 63.8001 1695.3 64.1001 1694.1 64.4001C1683.6 66.9001 1667.7 70.6001 1653.4 55.9001C1617.7 19.1001 1577.2 11.9001 1518.1 31.9001C1480.6 44.5001 1453.2 73.2001 1444.6 108.5C1438.4 134.1 1423.7 148.7 1399.6 153.3C1373.2 158.3 1352.7 177.2 1346 202.7C1337.5 236.7 1313.2 263 1280.8 272.7C1264.5 277.6 1247.8 286.2 1231.6 294.5L1230.9 294.9C1193.3 314.2 1159.6 321.3 1117.1 293C1092.5 276.6 1061.5 295.7 1047.4 314.4C1019.6 351.4 1013.1 401.5 1011.7 428.1C1011.2 437.8 1015.2 447 1020.5 448.7C1021.6 446.7 1022.8 442.5 1023.6 439.8C1024.3 437.2 1025.1 434.7 1025.9 432.4C1030.6 419.8 1035.1 407.1 1039.7 394.4C1042.1 387.7 1044.5 381.1 1046.9 374.4C1050 365.9 1054.4 356.7 1063.5 353.5C1069.4 351.4 1075.8 352.4 1082.5 356.5C1098 366 1102.2 378.6 1096.7 398.8C1093.9 409 1092.1 421.3 1090.1 434.4C1083.4 479.6 1075.1 535.7 1019.3 543.1C1018.8 543.8 1018.3 544.7 1018.2 545.2C1004.8 599.9 984.2 658 953.2 728.2C944.7 747.5 962.1 767.3 976 775.9C977 776.5 977.7 776.9 978.2 777.1C980 774.1 981.9 766 982.9 761.4C983.9 756.8 985 752.1 986.5 747.8C997.9 715 1009 693.1 1029.2 685.1C1044.8 679 1063.4 682.2 1087.8 695.3C1110.6 707.4 1136.3 699.6 1149 676.5C1161.9 653.1 1188 639.3 1217 640.5C1246.7 641.7 1272.2 658.3 1283.5 683.7C1286 689.4 1286.4 697.6 1284.7 707.9C1278.6 744.8 1240.2 792 1199 813.3C1173.4 826.5 1149.6 828.4 1130.1 818.9C1089.9 799.2 1042.8 812.4 1020.6 849.6C981.1 915.7 969.4 976.3 983.8 1040.5C994.6 1079.3 1033.5 1119.6 1074.3 1134.1C1093.6 1141 1122.2 1145.4 1148.2 1127C1165.8 1114.5 1179.7 1116.3 1188.2 1120.1C1202.9 1126.5 1213.1 1143.4 1216.1 1166.4C1221.3 1206 1229.4 1250 1259.2 1269.8C1289.4 1289.7 1309.3 1322.8 1312.9 1358.6Z" fill="#54A520"/>
<path d="M771.5 1803.2C762.4 1803.2 754.2 1797.5 747.5 1792.9C745.6 1791.6 743.7 1790.3 741.9 1789.2C707.8 1768.8 680.9 1729.5 668 1681.5C665.9 1673.7 663.7 1665.8 661.5 1657.9C655.5 1636.5 649.3 1614.3 644.9 1592.5C634.4 1541.4 615.6 1478.4 563.2 1445.5C509 1408.2 491.8 1298.8 506.9 1246C508.4 1240.8 511.1 1236.1 513.7 1231.5C520.2 1220.1 520.7 1217.2 517.1 1213C503.3 1197.4 488.8 1182.6 477.5 1187.1C443.2 1200.7 402.3 1189.5 356 1153.8C327.7 1132 298.5 1109.5 266.3 1091.7C221.1 1067.2 204.7 1018.7 190.1 976C188 969.9 186 963.9 183.9 958.1C171.7 924.1 119.4 883.1 82.6001 887.8C63.7001 890.2 54.4001 909.5 44.5001 929.9C41.9001 935.2 39.3001 940.7 36.5001 945.7L26.6001 963.6L17.6001 945.2C-0.499945 907.8 -4.59994 877.7 5.10006 853C13.8001 831 33.7001 813.8 64.2001 802C157.7 761.4 252.9 716.7 346.6 669.5L349 668.3C364 660.7 386.8 649.1 405.4 672.2C418.1 687.9 420.4 708.3 412.3 734.5C405.5 756.6 415.9 762.5 440 773.9C442 774.8 444 775.8 446 776.7C464.2 785.5 485.1 767.4 493.3 759.1C498.2 754.2 497.4 749.1 492.1 735.2C490.1 730 488.1 724.6 487.1 719C486.7 716.7 486 714.4 485.4 712C482.7 702.1 479.1 688.4 489.6 676.3C503.8 659.9 520.4 672.3 526.6 677.1C527.6 677.9 528.7 678.7 529.7 679.4C542.5 688.2 552.9 688.9 565.8 681.5C587.8 669 609 673.7 622.6 694.1C634.5 712 635.8 735.1 626.5 761C612 801.2 596.4 842.1 581.3 881.8C567.2 918.8 552.6 957 539.3 993.7C527.2 1027.1 493.4 1040.7 466.2 1051.7C462.9 1053 459.7 1054.3 456.6 1055.6C448.5 1059 443 1064.5 440.3 1072C436.5 1082.5 438.1 1096.6 444.8 1109.5C448.4 1116.5 450.4 1118 450.9 1118.3C450.9 1118.3 451.1 1118.2 451.4 1118.1C489.6 1102.7 521.5 1125.6 547.1 1143.9C550 1146 552.8 1148 555.6 1149.9C563.8 1155.6 592.6 1173.2 618.6 1159.6C651.2 1142.5 679.3 1143.8 712.5 1163.7L715.6 1165.6C736.5 1178.2 765.2 1195.6 788.1 1189.1C795.7 1186.9 807.2 1186.8 818.9 1198.3C846.1 1225.1 857.1 1303.4 850.6 1327.6C832 1396.7 805.1 1477.7 772.9 1561.8C757.6 1601.6 756.1 1640.3 768.2 1676.7C775.3 1697.9 780.9 1723.2 785.4 1743.5C786.1 1746.7 787.4 1750.4 788.7 1754.3C792.7 1766.1 797.7 1780.9 789.4 1793C784.7 1799.8 779 1802.1 775.1 1802.8C774 1803.1 772.7 1803.2 771.5 1803.2ZM481.7 1165C502.8 1165 521.2 1185.7 532.9 1198.9C547.4 1215.3 537.8 1232 532.1 1242.1C530 1245.7 528.1 1249.2 527.3 1251.9C513.8 1299.2 529.7 1396.8 574.8 1427.8C633.6 1464.8 654.3 1533 665.6 1588.3C669.9 1609.3 676 1631.1 681.9 1652.2C684.1 1660.2 686.3 1668.1 688.5 1676C700 1718.8 723.4 1753.4 752.8 1771C754.9 1772.3 757.2 1773.8 759.6 1775.5C762.9 1777.8 769.1 1782 771.4 1782.1C771.4 1782 771.7 1781.7 772.1 1781.1C774.4 1777.8 771.3 1768.6 768.8 1761.3C767.4 1757 765.9 1752.6 764.9 1748.3C760.5 1728.5 755 1703.8 748.2 1683.6C734.4 1642.4 736.1 1598.9 753.2 1554.4C785.2 1471 811.8 1390.8 830.2 1322.3C835.3 1303.3 824.5 1233.8 804.1 1213.7C798.8 1208.5 795.5 1209.4 794 1209.8C762.2 1218.8 728.9 1198.7 704.7 1184.1L701.6 1182.2C674.9 1166.1 654.4 1165.2 628.5 1178.7C603.8 1191.6 572 1187.4 543.5 1167.6C540.6 1165.6 537.7 1163.5 534.8 1161.4C511.2 1144.5 486.8 1127 459.4 1138C446.2 1143.3 435 1137.1 425.9 1119.4C416.5 1101.3 414.4 1080.9 420.3 1064.9C425.1 1051.8 434.8 1041.9 448.4 1036.2C451.6 1034.9 454.9 1033.5 458.3 1032.2C484 1021.9 510.5 1011.2 519.4 986.7C532.8 949.9 547.4 911.6 561.5 874.5C576.6 835 592.1 794.1 606.6 754.1C611.5 740.6 615.1 721.4 605 706.2C600.4 699.3 592.4 691.1 576.4 700.3C556.4 711.7 537.1 710.7 517.6 697.2C516.4 696.4 515.1 695.4 513.8 694.4C511.8 692.9 508.2 690.2 506.5 689.7C506.3 689.8 506 690.1 505.6 690.6C502.8 693.8 503.5 697.8 505.9 706.9C506.6 709.7 507.4 712.6 508 715.6C508.7 719.3 510.3 723.6 512 728.1C517 741.2 523.8 759.1 508.4 774.5C484.3 798.7 458.2 806.6 436.7 796.2C434.8 795.3 432.8 794.4 430.9 793.4C409.2 783.1 379.5 769.1 392 728.5C397.9 709.3 396.9 695.7 388.9 685.8C382 677.3 376.3 678.5 358.7 687.5L356.2 688.8C262.1 736.2 166.6 781 72.3001 822C46.8001 831.9 31.4001 844.6 24.9001 861.1C19.2001 875.6 20.2001 893.6 28.0001 915.6C38.4001 894.4 52.0001 870.6 79.9001 867C127.4 860.9 188.8 909 203.9 951.2C206 957.1 208.1 963.2 210.2 969.4C224.1 1010.4 238.5 1052.7 276.4 1073.3C310 1091.9 339.9 1114.9 368.8 1137.2C408.8 1168 442.6 1178.2 469.5 1167.6C473.7 1165.7 477.8 1165 481.7 1165Z" fill="#54A520"/>
<path d="M1995.6 1001.3C1976.3 1001.3 1958.3 993.3 1946.2 977.9C1925.4 953.2 1921.6 916.7 1935.9 878C1954.6 827.3 2002.9 777.6 2058.8 780.8C2116.9 784 2164.2 849.3 2179.2 894.5L2179.4 895.1C2179.8 896.2 2180.6 898.1 2180.8 900.4C2181.2 905 2183.6 910.3 2186.1 916C2191.5 928.2 2199.6 946.5 2183.4 962.4C2166.8 978.6 2130.2 998.6 2101.6 984C2071.5 974.4 2061 975.6 2033 991.1C2020.8 998 2008 1001.3 1995.6 1001.3ZM2053.9 802C2010.3 802 1971.1 844.3 1955.9 885.4C1950.4 900.2 1940.1 937.6 1962.7 964.5C1978.5 984.5 2004.2 982.9 2022.8 972.7C2056 954.3 2072.9 952.7 2109 964.2L2110.8 965C2128.3 974.5 2155.6 960.1 2168.5 947.4C2173.4 942.6 2172.5 938.2 2166.6 924.8C2163.7 918.3 2160.5 910.9 2159.6 903.1L2159.5 902.9C2159.3 902.4 2159.1 901.8 2158.9 901.3C2143.7 855.5 2100.7 804.6 2057.5 802.1C2056.4 802 2055.1 802 2053.9 802Z" fill="#54A520"/>
<path d="M731.9 679.7C718.3 679.7 705.7 670.4 697 662.8C694.8 660.9 692.5 659 690.3 657.1C675.8 644.9 659.3 631 652.9 608.7C641.7 569.4 611.6 546.1 588.3 533.4C576 526.7 543.4 509 551.7 464.1L551.9 462.8C557.3 433.4 564.7 393.2 598.1 376.2C614.5 367.8 631.7 358.3 648.3 349.1C653 346.5 657.8 343.8 662.5 341.2L673.9 334.7C684.7 328.8 695.9 322.6 706 317.3C709.7 315.3 714 312.7 718.7 309.9C737.3 298.5 760.5 284.3 782.1 289.9C792.9 292.7 801.6 299.9 808.2 311.4C841.9 370.4 847.9 425.1 827.1 483.5C820.9 501.1 814.3 518.7 807.3 537.3C795.4 569 783.2 601.9 772.8 634.1C764.2 661 754 674.7 739.9 678.7C737 679.4 734.4 679.7 731.9 679.7ZM687.2 351.7L687.3 351.9L680 355.9C672.9 359.8 665.8 363.8 658.6 367.7C641.8 377 624.5 386.7 607.7 395.2C583.7 407.4 577.9 438.9 572.8 466.7L572.6 468C568 492.8 579.1 504.2 598.4 514.7C625.3 529.3 660.1 556.5 673.3 602.8C677.9 618.8 690.5 629.5 703.9 640.7C706.3 642.7 708.6 644.6 710.9 646.6C721.1 655.5 729.1 659.4 734 658C737.5 657 744.6 651.7 752.4 627.4C762.9 594.7 775.3 561.6 787.2 529.7C794.1 511.1 800.7 493.6 806.9 476.2C825.7 423.4 820.4 375.7 789.6 321.8C786 315.4 781.7 311.7 776.7 310.4C763.7 307.1 744.8 318.7 729.7 328C724.8 331 720.2 333.8 715.9 336.1C706.8 341 696.9 346.4 687.2 351.7Z" fill="#54A520"/>
<path d="M438.9 645.8C432.7 645.8 426.4 644.6 420 641.9C407.5 636.7 399.2 626.5 397.2 614C394.1 595.1 408 588 414.7 584.6C415.8 584 416.9 583.5 417.9 582.9C425.1 578.6 432.4 574.8 439.5 571C444.5 568.4 449.5 565.7 454.5 562.9C474.6 551.6 490.4 548.8 502.8 554.4C513.1 559 520 568.9 523.3 583.7C529.7 612.7 508.6 618.6 498.4 621.4C495.7 622.2 491.2 623.4 490.3 624.4L489 626.5L487 627.7C471.2 637.3 455.6 645.8 438.9 645.8ZM489.3 573C484.6 573 477 574.8 465 581.5C459.8 584.4 454.6 587.1 449.5 589.9C442.3 593.7 435.6 597.2 428.9 601.2C427.5 602 426 602.8 424.5 603.6C417.7 607.1 417.7 607.5 418.3 610.7C419.4 617.3 424.3 620.7 428.3 622.4C441.4 627.9 454.2 622.8 474.3 610.6C479.3 604.7 486.8 602.7 492.9 601C503.6 598 504.8 597.7 502.7 588.4C501 580.5 498.1 575.7 494.3 574C493.1 573.4 491.5 573 489.3 573Z" fill="#54A520"/>
<path d="M1852.5 809.7C1823.9 809.7 1774.5 781.9 1760.8 760.8C1757.1 755.1 1756.2 748.6 1758.1 742.3C1760.5 734.5 1767.1 728 1776.8 723.9L1778.3 723.3L1780 723.2C1811.9 720.4 1859.9 743.4 1876.9 769.6C1883.9 780.4 1881.8 789.2 1879.9 793.5C1875.9 802.6 1866.4 808 1858.6 809.3C1856.7 809.6 1854.7 809.7 1852.5 809.7ZM1783.6 744.2C1780.1 745.9 1778.7 747.8 1778.5 748.6C1778.5 748.7 1778.4 748.8 1778.7 749.3C1790.1 766.9 1837.9 791.3 1855 788.3C1857.1 787.9 1859.9 786.2 1860.4 784.9C1860.7 784.3 1860.2 782.7 1859.1 781.1C1847.7 763.5 1809.7 742.9 1783.6 744.2Z" fill="#54A520"/>
<path d="M1483.7 1250C1481.5 1250 1479.3 1249.6 1477.2 1248.8C1467.1 1244.8 1464.3 1233.5 1461.9 1223.6C1460.9 1219.3 1459.8 1214.9 1458.4 1212.3L1457.6 1210.9L1457.3 1209.3C1454.3 1193.9 1445.4 1146.8 1478.8 1124.4C1488 1118.2 1495.3 1119.1 1499.8 1120.9C1511.8 1125.8 1515 1141.2 1517.7 1153.7C1518.1 1155.8 1518.6 1157.8 1519 1159.6C1531.5 1211 1514.6 1234.5 1498.2 1245.1C1493.1 1248.4 1488.2 1250 1483.7 1250ZM1478 1203.9C1480.1 1208.4 1481.4 1213.6 1482.6 1218.5C1483.3 1221.3 1484.3 1225.5 1485.3 1228C1485.7 1227.8 1486.1 1227.5 1486.6 1227.2C1502.1 1217.2 1506 1196.1 1498.3 1164.6C1497.8 1162.6 1497.3 1160.4 1496.8 1158.1C1495.8 1153.6 1494 1144.7 1491.9 1141.3C1491.5 1141.5 1491.1 1141.7 1490.6 1142.1C1476.3 1151.7 1472.1 1172 1478 1203.9Z" fill="#54A520"/>
<path d="M1931.2 399.5C1924.8 399.5 1917.9 396.4 1913.2 391.1C1908.1 385.3 1906.6 377.7 1909.4 370.8C1910.7 367.1 1912.2 362.8 1913.6 358.5C1922.6 331.8 1932.8 301.6 1957.5 284.2C1960.5 282.1 1971.1 275.4 1980.7 278.9C1985.7 280.7 1989.3 284.8 1990.8 290.3L1991.1 291.5C1996.2 325.7 1966 391.3 1935.6 398.9C1934.2 399.3 1932.7 399.5 1931.2 399.5ZM1929.6 377.5C1930 377.8 1930.5 378.1 1931 378.3C1946.6 373.4 1970.4 329.6 1970.5 301.2C1970.2 301.4 1970 301.5 1969.7 301.7C1950.7 315.1 1942.1 340.7 1933.7 365.4C1932.4 369.5 1931 373.5 1929.6 377.5Z" fill="#54A520"/>
<path d="M1947.5 779.5C1945 779.5 1942.4 779 1939.8 777.8C1929.8 773.1 1927.3 760.5 1926.5 756.4C1923 738.8 1923.8 707.9 1968.5 698.4C1970 698.1 1972.9 696.7 1975.4 695.5C1982.4 692.1 1992 687.4 2001.3 691.7C2007.2 694.4 2011.3 699.9 2013.5 708C2017.9 721.6 2016.5 734.9 2009.6 746.4C2001.7 759.6 1987.2 768.8 1970 771.9L1968.9 772.1H1968.4C1967.4 772.5 1965.4 773.5 1964 774.3C1959.6 776.4 1953.8 779.5 1947.5 779.5ZM1992.1 711.3C1990.1 711.8 1986.8 713.5 1984.6 714.5C1980.8 716.3 1977 718.2 1972.9 719.1C1945.7 724.9 1944.7 739.1 1947.3 752.2C1947.9 755.1 1948.5 756.8 1948.9 757.8C1950.4 757.2 1952.4 756.1 1953.8 755.4C1957.7 753.3 1962.1 750.9 1967 750.7C1977.7 748.6 1986.7 743 1991.3 735.4C1995.1 729.2 1995.7 722 1993.1 714.2L1992.9 713.7C1992.6 712.6 1992.3 711.8 1992.1 711.3Z" fill="#54A520"/>
<path d="M2230.4 948.7C2224.5 948.7 2219 947.2 2214 944.2C2200.7 936.2 2194.3 919.4 2191.3 906.7C2190.8 904.7 2189.5 901.7 2188.2 898.7C2184.6 890.4 2180.1 880.1 2184.4 870.8C2186 867.2 2189.7 862.4 2197.6 860C2228.6 850.4 2238 877.5 2243 892.1C2244.6 896.7 2246.1 901 2247.8 904.5L2249.4 907.6L2249 910.4C2249.3 911.5 2250.6 913.8 2251.5 915.3C2254.5 920.7 2258.7 928.1 2255.3 936.2C2251.8 944.4 2242.9 946.8 2240 947.5C2236.6 948.3 2233.5 948.7 2230.4 948.7ZM2204 880.3C2204.5 882.9 2206.5 887.6 2207.7 890.3C2209.4 894.1 2211.1 898 2212 901.9C2214.9 914 2219.6 922.8 2225 926.1C2226.6 927.1 2229.2 928.2 2233.8 927.2C2233.5 926.7 2233.2 926.2 2233 925.7C2230.8 921.8 2228.2 917.1 2227.8 911.7C2226 907.6 2224.5 903.3 2223 899.1C2215.9 878.8 2213.2 877.4 2204 880.3Z" fill="#54A520"/>
<path d="M940.2 594.5C937.8 594.5 935.8 593.9 934.3 593.2C924.5 588.8 922.1 574.9 920.2 563.8C920 562.4 919.7 561 919.5 559.8C918.9 556.6 918.1 553.1 917.3 549.5C912.4 528.1 905.8 498.8 927.6 482.3C933.4 477.9 938.9 476.6 943.9 478.5C952.2 481.7 954.1 491.4 956 500.9C956.6 504.2 957.7 509.6 958.7 511.2L960.8 512.6L962.4 518.7C968.3 541 977.2 574.6 950.3 591.2C946.5 593.7 943.1 594.5 940.2 594.5ZM938.1 494.4C937.9 494.6 937.6 494.8 937.3 495C924.7 504.6 927.6 522.9 932.9 545.9C933.8 549.7 934.6 553.4 935.2 556.8C935.4 558.1 935.7 559.6 936 561.1C936.8 565.5 938.5 575.6 940.7 578.4C941 578.3 941.4 578.1 942 577.7C957.5 568.1 953.5 547.1 947.1 522.8L946.8 521.7C943.1 517.4 941.8 510.8 940.5 504C939.8 501.2 939 496.9 938.1 494.4Z" fill="#54A520"/>
<path d="M1868.6 709.2C1865 709.2 1861.7 708.3 1858.8 706.6C1849.8 701.3 1847.5 690.3 1845.7 681.5C1845 678.2 1844.4 675.1 1843.6 673C1833.8 647 1840.6 622 1860.2 612.3C1867.3 608.8 1873.7 608.4 1879.2 611.1C1888.1 615.5 1890 625.5 1891.6 633.6C1892.1 636.1 1892.8 639.8 1893.4 640.9L1894.4 642.4L1895 645C1900.2 665.9 1907.9 697.5 1877.1 707.7C1874.1 708.7 1871.3 709.2 1868.6 709.2ZM1869.4 631.5C1860.2 636.3 1857.8 650.2 1863.5 665.5C1864.9 669.2 1865.7 673.3 1866.5 677.3C1867.2 680.5 1868.2 685.7 1869.3 687.8C1869.6 687.7 1869.9 687.7 1870.3 687.5C1880.1 684.3 1880.9 677.3 1874.4 650.7C1872.3 646.7 1871.4 642.1 1870.6 637.6C1870.4 635.9 1869.9 633.4 1869.4 631.5Z" fill="#54A520"/>
<path d="M899 611.9C896 611.9 893.6 611.2 891.9 610.3C886.5 607.8 882.8 602.5 880.7 594.6C876.2 577.6 880.3 562.5 891.9 553.4C898.8 548 904.5 548.2 908.1 549.3C916.5 551.9 920.5 561.5 922.9 569.6L923 570.1C927.6 589.8 922.8 603.1 908.5 609.6C904.9 611.3 901.7 611.9 899 611.9ZM903.4 564.8C903 565 902.5 565.3 901.7 565.9C893.4 572.5 894 583 896 590.6C897 594.4 898.2 595.8 898.6 595.9C898.8 596 899.8 596.1 901.8 595.1C905.1 593.6 911.3 590.7 907.5 573.9C905.6 567.8 904.1 565.6 903.4 564.8Z" fill="#54A520"/>
<g opacity="0.4">
<path d="M1033.7 467.3C1181.2 463.6 1380.1 548 1424.8 723.7C1467.2 890.4 1308.5 782.7 1218.8 683.1C1144.9 600.9 932.4 469.9 1033.7 467.3Z" fill="white"/>
</g>
<g opacity="0.6">
<path d="M635.8 454.2C638.8 452.6 641.9 451.1 645 449.5C648.1 448 651.2 446.4 654.3 444.9C905.5 324.3 1196 375.7 1390.6 553.8C1449.1 607.3 1499 672.3 1536.5 747.5C1539.5 753.5 1542.4 759.6 1545.2 765.6C1602.3 889.2 1618.3 1021.8 1598.3 1147.6C1632.6 1006.5 1621 853.6 1555.8 712.4C1553 706.3 1550.1 700.3 1547.1 694.3C1509.6 619.1 1459.7 554.1 1401.2 500.6C1206.6 322.5 916.1 271.2 664.9 391.7C661.8 393.2 658.7 394.7 655.6 396.3C652.5 397.8 649.4 399.4 646.4 401C451.9 501.8 327.8 685.9 295.8 887.6C339.7 707.1 458.5 546.1 635.8 454.2Z" fill="white"/>
</g>
<path d="M952.3 1671.7C577.1 1671.7 271.8 1366.4 271.8 991.2C271.8 616 577.1 310.7 952.3 310.7C1327.5 310.7 1632.8 616 1632.8 991.2C1632.8 1256.2 1477.1 1499 1236.3 1609.8C1191 1631.1 1157.8 1641.2 1104.8 1654.6L1104.5 1654.7C1054.9 1666 1003.7 1671.7 952.3 1671.7ZM952.3 342.3C594.5 342.3 303.4 633.4 303.4 991.2C303.4 1349 594.5 1640.1 952.3 1640.1C1001.3 1640.1 1050 1634.6 1097.2 1623.9C1149.1 1610.9 1179.6 1601.6 1222.9 1581.2C1452.7 1475.5 1601.2 1244 1601.2 991.3C1601.2 633.4 1310.1 342.3 952.3 342.3Z" fill="#371A45"/>
<g opacity="0.35">
<path d="M1243.7 1538.2C921.3 1699.1 530.7 1573.4 361.4 1258C358.2 1252.1 355.2 1246.1 352.2 1240.1C314.7 1164.9 292.7 1086 285.2 1007C279.8 950.6 281.7 894.2 290.5 839.2C300.9 904.2 321.2 968.8 352.2 1030.8C355.2 1036.8 358.2 1042.8 361.4 1048.7C530.7 1364.1 921.3 1489.8 1243.7 1328.9C1443.3 1229.4 1570.9 1042.9 1603.5 838.3C1648.3 1117.6 1510.2 1405.2 1243.7 1538.2Z" fill="#371A45"/>
</g>
</g>
<defs>
<clipPath id="clip0_152_1983">
<rect width="2256.5" height="1803.2" fill="white"/>
</clipPath>
</defs>
</svg>
