<svg width="1380" height="1370" viewBox="0 0 1380 1370" fill="none" xmlns="http://www.w3.org/2000/svg">
<g clip-path="url(#clip0_21_6750)">
<path d="M281.918 1315.83C281.918 1318.68 276.044 1321.18 267.32 1322.54C262.893 1323.24 259.43 1326.7 258.728 1331.13C257.369 1339.89 254.87 1345.72 252.021 1345.72C249.172 1345.72 246.673 1339.85 245.314 1331.13C244.612 1326.7 241.149 1323.24 236.722 1322.54C227.954 1321.18 222.08 1318.68 222.08 1315.83C222.08 1312.94 227.954 1310.44 236.722 1309.08C241.149 1308.38 244.656 1304.92 245.314 1300.49C246.673 1291.73 249.172 1285.86 252.021 1285.86C254.87 1285.86 257.369 1291.73 258.728 1300.49C259.43 1304.92 262.893 1308.38 267.32 1309.08C276.044 1310.49 281.918 1312.98 281.918 1315.83Z" fill="white"/>
<path d="M226.464 596.759C226.464 599.608 220.59 602.106 211.866 603.464C207.439 604.166 203.975 607.628 203.274 612.054C201.915 620.819 199.416 626.648 196.567 626.648C193.717 626.648 191.219 620.775 189.86 612.054C189.158 607.628 185.695 604.166 181.268 603.464C172.5 602.106 166.626 599.608 166.626 596.759C166.626 593.867 172.5 591.369 181.268 590.01C185.695 589.309 189.202 585.847 189.86 581.421C191.219 572.656 193.717 566.783 196.567 566.783C199.416 566.783 201.915 572.656 203.274 581.421C203.975 585.847 207.439 589.309 211.866 590.01C220.634 591.413 226.464 593.867 226.464 596.759Z" fill="white"/>
<path d="M1296.67 898.141C1296.67 900.989 1290.79 903.487 1282.07 904.846C1277.64 905.547 1274.18 909.009 1273.48 913.436C1272.12 922.201 1269.62 928.029 1266.77 928.029C1263.92 928.029 1261.42 922.157 1260.06 913.436C1259.36 909.009 1255.9 905.547 1251.47 904.846C1242.7 903.487 1236.83 900.989 1236.83 898.141C1236.83 895.248 1242.7 892.75 1251.47 891.392C1255.9 890.691 1259.4 887.228 1260.06 882.802C1261.42 874.037 1263.92 868.165 1266.77 868.165C1269.62 868.165 1272.12 874.037 1273.48 882.802C1274.18 887.228 1277.64 890.691 1282.07 891.392C1290.83 892.75 1296.67 895.248 1296.67 898.141Z" fill="white"/>
<path d="M1019 37.2509C1019 40.8007 1011.72 43.9122 1000.81 45.6214C995.327 46.4979 990.987 50.7927 990.11 56.3146C988.401 67.1831 985.288 74.5018 981.737 74.5018C978.187 74.5018 975.074 67.2269 973.364 56.3146C972.488 50.8365 968.192 46.4979 962.668 45.6214C951.753 43.9122 944.476 40.8007 944.476 37.2509C944.476 33.6573 951.796 30.5896 962.668 28.8804C968.192 28.0039 972.531 23.7091 973.364 18.1872C975.074 7.27488 978.187 0 981.737 0C985.288 0 988.401 7.27488 990.11 18.1872C990.987 23.7091 995.327 28.0039 1000.81 28.8804C1011.72 30.5896 1019 33.7011 1019 37.2509Z" fill="white"/>
<path d="M1366.76 306.509C1372.06 306.509 1376.36 302.212 1376.36 296.911C1376.36 291.611 1372.06 287.314 1366.76 287.314C1361.46 287.314 1357.16 291.611 1357.16 296.911C1357.16 302.212 1361.46 306.509 1366.76 306.509Z" fill="white"/>
<path d="M1370.4 1075.94C1375.7 1075.94 1380 1071.64 1380 1066.34C1380 1061.04 1375.7 1056.74 1370.4 1056.74C1365.1 1056.74 1360.8 1061.04 1360.8 1066.34C1360.8 1071.64 1365.1 1075.94 1370.4 1075.94Z" fill="white"/>
<path d="M1074.8 1235.55C1080.11 1235.55 1084.4 1231.25 1084.4 1225.95C1084.4 1220.65 1080.11 1216.35 1074.8 1216.35C1069.5 1216.35 1065.2 1220.65 1065.2 1225.95C1065.2 1231.25 1069.5 1235.55 1074.8 1235.55Z" fill="white"/>
<path d="M87.1487 289.417C92.4509 289.417 96.7491 285.12 96.7491 279.82C96.7491 274.519 92.4509 270.222 87.1487 270.222C81.8466 270.222 77.5483 274.519 77.5483 279.82C77.5483 285.12 81.8466 289.417 87.1487 289.417Z" fill="white"/>
<path d="M1138.41 162.282C1143.71 162.282 1148.01 157.985 1148.01 152.685C1148.01 147.384 1143.71 143.087 1138.41 143.087C1133.11 143.087 1128.81 147.384 1128.81 152.685C1128.81 157.985 1133.11 162.282 1138.41 162.282Z" fill="white"/>
<path d="M257.676 199.665C262.978 199.665 267.276 195.368 267.276 190.067C267.276 184.767 262.978 180.47 257.676 180.47C252.374 180.47 248.076 184.767 248.076 190.067C248.076 195.368 252.374 199.665 257.676 199.665Z" fill="white"/>
<path d="M54.5774 1274.29C59.8796 1274.29 64.1778 1269.99 64.1778 1264.69C64.1778 1259.39 59.8796 1255.09 54.5774 1255.09C49.2753 1255.09 44.9771 1259.39 44.9771 1264.69C44.9771 1269.99 49.2753 1274.29 54.5774 1274.29Z" fill="white"/>
<path d="M1211.14 437.588C1213.85 437.588 1216.05 435.391 1216.05 432.68C1216.05 429.969 1213.85 427.772 1211.14 427.772C1208.43 427.772 1206.23 429.969 1206.23 432.68C1206.23 435.391 1208.43 437.588 1211.14 437.588Z" fill="white"/>
<path d="M1191.63 1370C1194.34 1370 1196.54 1367.8 1196.54 1365.09C1196.54 1362.38 1194.34 1360.18 1191.63 1360.18C1188.92 1360.18 1186.72 1362.38 1186.72 1365.09C1186.72 1367.8 1188.92 1370 1191.63 1370Z" fill="white"/>
<path d="M661.374 1237.78C664.086 1237.78 666.284 1235.58 666.284 1232.87C666.284 1230.16 664.086 1227.96 661.374 1227.96C658.663 1227.96 656.464 1230.16 656.464 1232.87C656.464 1235.58 658.663 1237.78 661.374 1237.78Z" fill="white"/>
<path d="M127.83 59.689C130.541 59.689 132.739 57.4915 132.739 54.7807C132.739 52.0699 130.541 49.8723 127.83 49.8723C125.118 49.8723 122.92 52.0699 122.92 54.7807C122.92 57.4915 125.118 59.689 127.83 59.689Z" fill="white"/>
<path d="M4.90978 470.895C7.62138 470.895 9.81957 468.698 9.81957 465.987C9.81957 463.276 7.62138 461.078 4.90978 461.078C2.19818 461.078 0 463.276 0 465.987C0 468.698 2.19818 470.895 4.90978 470.895Z" fill="white"/>
<path d="M110.032 1130.81C112.743 1130.81 114.942 1128.61 114.942 1125.9C114.942 1123.19 112.743 1120.99 110.032 1120.99C107.32 1120.99 105.122 1123.19 105.122 1125.9C105.122 1128.61 107.32 1130.81 110.032 1130.81Z" fill="white"/>
<path d="M1281.37 1180.28C1284.08 1180.28 1286.28 1178.09 1286.28 1175.38C1286.28 1172.66 1284.08 1170.47 1281.37 1170.47C1278.65 1170.47 1276.46 1172.66 1276.46 1175.38C1276.46 1178.09 1278.65 1180.28 1281.37 1180.28Z" fill="white"/>
<path d="M1025.49 669.07C1025.49 669.07 1055.34 693.173 1066.74 767.763C1078.14 842.352 1099.97 964.447 1099.97 964.447C1099.97 964.447 1105.32 1088.87 996.467 1087.81C887.619 1086.76 907.127 988.463 907.127 988.463L938.558 750.54" fill="white"/>
<g opacity="0.3">
<path d="M1025.49 669.07C1025.49 669.07 1055.34 693.173 1066.74 767.763C1078.14 842.352 1099.97 964.447 1099.97 964.447C1099.97 964.447 1105.32 1088.87 996.467 1087.81C887.619 1086.76 907.127 988.463 907.127 988.463L938.558 750.54" fill="#0B3D91"/>
</g>
<path d="M997.87 1094.39C997.388 1094.39 996.905 1094.39 996.423 1094.39C960.696 1094.04 934.218 1083.56 917.691 1063.23C892.835 1032.68 899.893 991.224 900.639 987.411L932.026 749.663C932.508 746.07 935.796 743.528 939.391 744.01C942.985 744.492 945.528 747.779 945.046 751.372L913.614 989.296C913.614 989.427 913.571 989.559 913.527 989.734C913.439 990.129 906.25 1028.48 927.905 1054.99C941.846 1072.08 964.904 1080.89 996.467 1081.2C1024.17 1081.42 1046.44 1073.13 1062.62 1056.44C1093.87 1024.18 1093.48 970.276 1093.35 965.105C1091.86 956.647 1071.12 840.161 1060.16 768.727C1049.38 698.169 1021.5 674.373 1021.24 674.153C1018.43 671.831 1018.03 667.711 1020.31 664.906C1022.59 662.102 1026.71 661.663 1029.52 663.942C1030.84 664.994 1061.48 690.5 1073.14 766.755C1084.4 840.424 1106.1 962.081 1106.32 963.308C1106.37 963.615 1106.41 963.878 1106.41 964.184C1106.54 966.77 1108.69 1027.69 1072.04 1065.55C1053.67 1084.7 1028.69 1094.39 997.87 1094.39Z" fill="#0B3D91"/>
<path d="M1104.83 914.663C1085.54 924.041 1065.6 930.834 1044.91 934.734C1036.14 936.356 1027.15 935.523 1018.87 932.28C1009.05 928.467 997.169 923.691 999.755 924.173L957.408 839.065L925.582 775.038L1010.1 731.257L1038.81 720.432C1047.32 717.233 1056.79 718.066 1064.63 722.623L1076.47 729.591C1086.9 735.683 1094.36 745.807 1097.16 757.552L1103.65 784.854L1103.74 785.073L1124.56 872.723C1128.46 889.551 1120.4 907.081 1104.83 914.663Z" fill="white"/>
<g opacity="0.3">
<path d="M1104.83 914.663C1085.54 924.041 1065.6 930.834 1044.91 934.734C1036.14 936.356 1027.15 935.523 1018.87 932.28C1009.05 928.467 997.168 923.691 999.755 924.173L957.408 839.065C961.967 817.109 967.271 798.747 967.271 798.747C1037.41 921.894 1103.61 784.81 1103.61 784.81L1103.69 785.03L1124.52 872.679C1128.46 889.551 1120.4 907.081 1104.83 914.663Z" fill="#0B3D91"/>
</g>
<path d="M993.705 884.029C1017.33 1017.34 1004.01 1141.15 930.185 1249.53C914.359 1272.75 888.32 1287.17 860.176 1287.65C838.959 1288.05 817.391 1284.37 795.604 1276.48H795.56C783.417 1272.14 771.143 1266.49 758.824 1259.52C755.23 1257.5 751.635 1255.35 747.997 1253.12C741.07 1323.59 665.232 1345.9 640.332 1276.48C638.798 1272.23 637.614 1267.89 636.694 1263.46C633.406 1247.42 634.107 1230.77 638.359 1214.86L659.489 1135.98L661.111 1129.97L557.786 1132.25L534.816 1152.15L469.41 1245.19C460.687 1257.59 447.404 1266.22 432.412 1268.5C424.565 1269.69 415.227 1269.86 404.443 1268.06C383.051 1264.47 363.587 1253.38 348.989 1237.34C332.988 1219.81 317.382 1202.28 305.152 1184.27C279.594 1146.58 268.942 1106.79 300.68 1061.12C300.68 1061.12 340.485 1013.71 407.819 1064.19L449.157 1015.5C445.519 1016.34 441.837 1016.99 438.198 1017.52C438.198 1017.52 438.154 1017.48 438.154 1017.52C395.106 1023.74 354.469 1008.75 344.561 968.435C340.923 953.623 341.405 935.348 347.499 913.436C351.926 897.571 362.622 883.942 377.396 876.667C388.355 871.233 402.339 868.778 418.121 876.185C418.121 876.185 445.65 841.081 475.504 901.954C501.675 909.623 525.215 906.073 546.652 893.408C508.601 819.213 483.877 750.189 534.027 710.396L938.514 555.126L1066.83 608.548L1071.03 610.301C1071.03 610.301 1048.24 708.512 967.14 775.081C972.093 791.472 976.608 807.731 980.641 823.858C985.858 844.061 990.198 864.177 993.705 884.029Z" fill="white"/>
<g opacity="0.3">
<path d="M598.38 733.623C663.303 761.54 854.039 790.858 929.79 637.779C938.733 619.679 943.599 599.827 944.739 579.668L947.72 526.771L839.179 496.313L692.499 537.99" fill="#0B3D91"/>
</g>
<g opacity="0.3">
<path d="M930.185 1249.53C914.36 1272.75 888.32 1287.17 860.177 1287.65C838.959 1288.05 817.391 1284.37 795.604 1276.48C839.792 1280.73 805.599 1232.22 805.599 1232.22C777.894 1199.87 770.135 1161.09 770.135 1161.09C901.033 1276.35 987.919 1125.06 925.494 969.969C905.987 1002.4 869.602 1015.42 869.602 1015.42L701.661 1039.3L665.057 1012.44L993.661 883.942C1017.33 1017.34 1004.01 1141.15 930.185 1249.53Z" fill="#0B3D91"/>
</g>
<path d="M652.694 739.058C833.669 739.058 980.379 592.391 980.379 411.469C980.379 230.547 833.669 83.8802 652.694 83.8802C471.719 83.8802 325.01 230.547 325.01 411.469C325.01 592.391 471.719 739.058 652.694 739.058Z" fill="white"/>
<g opacity="0.3">
<path d="M980.423 411.469C980.423 592.377 833.699 739.058 652.739 739.058C575.804 739.058 505.094 712.544 449.202 668.193C482.956 679.938 519.21 686.337 556.954 686.337C737.915 686.337 884.638 539.656 884.638 358.748C884.638 254.708 836.11 162.019 760.491 101.98C888.54 146.549 980.423 268.294 980.423 411.469Z" fill="#0B3D91"/>
</g>
<path d="M920.673 485.532C877.317 696.022 594.084 746.026 464.326 679.588C441.749 671.392 415.798 640.408 394.098 608.855C367.621 570.377 347.499 531.022 347.499 531.022C324.967 411.469 361.746 315.099 455.208 247.39C521.533 199.314 605.087 182.266 685.836 196.29C752.556 207.86 806.783 232.796 845.711 272.019C864.254 290.732 879.29 312.732 890.556 338.063L920.673 485.532Z" fill="#0B3D91"/>
<path d="M920.672 485.532C877.317 696.022 594.084 746.026 464.326 679.588C441.749 671.392 415.798 640.409 394.098 608.855C397.518 601.887 384.41 594.305 384.41 594.305C483.789 696.504 932.421 620.162 845.711 272.019C864.254 290.732 879.29 312.732 890.556 338.063L920.672 485.532Z" fill="#020202"/>
<path d="M652.695 746.727C467.789 746.727 317.339 596.321 317.339 411.469C317.339 226.617 467.789 76.2109 652.695 76.2109C837.601 76.2109 988.05 226.617 988.05 411.469C988.094 596.365 837.644 746.727 652.695 746.727ZM652.695 91.5495C476.249 91.5495 332.682 235.075 332.682 411.469C332.682 587.863 476.249 731.388 652.695 731.388C829.14 731.388 972.707 587.863 972.707 411.469C972.707 235.075 829.184 91.5495 652.695 91.5495Z" fill="#0B3D91"/>
<path d="M595.399 713.113C545.512 713.113 498.343 703.823 461.564 684.978C458.583 683.444 457.399 679.763 458.934 676.783C460.468 673.803 464.15 672.62 467.131 674.153C544.548 713.815 670.493 709.169 766.584 663.11C822.696 636.201 893.756 583.612 914.491 485.489L884.682 339.903C851.629 265.884 784.382 219.561 684.784 202.25C604.342 188.27 521.972 206.501 458.802 252.298C366.788 318.955 331.367 412.389 353.505 529.883C354.119 533.17 351.97 536.369 348.639 536.983C345.307 537.64 342.151 535.449 341.537 532.118C330.139 471.552 333.734 416.158 352.19 367.557C370.689 318.955 404.137 276.84 451.657 242.394C517.457 194.756 603.202 175.737 686.888 190.286C791.002 208.386 861.404 257.25 896.08 335.609C896.255 336.003 896.387 336.441 896.474 336.836L926.634 484.305C926.81 485.094 926.81 485.927 926.634 486.759C905.242 590.536 830.631 645.93 771.801 674.11C717.925 699.966 654.755 713.113 595.399 713.113Z" fill="#0B3D91"/>
<path d="M1010.8 393.326C1015.36 448.851 989.059 495.305 952.104 497.102C915.149 498.899 889.899 453.015 885.339 397.489C880.78 341.963 898.71 297.7 935.665 295.947C972.62 294.151 1006.24 337.756 1010.8 393.326Z" fill="white"/>
<g opacity="0.3">
<path d="M1010.8 393.326C1015.36 448.851 989.059 495.349 952.104 497.102C922.601 498.505 900.507 469.536 890.512 429.481C900.025 438.421 911.247 443.329 923.829 442.716C960.783 440.963 987.086 394.509 982.527 338.939C981.869 330.788 980.554 322.899 978.713 315.405C995.81 333.111 1008.13 361.202 1010.8 393.326Z" fill="#0B3D91"/>
</g>
<path d="M950.087 504.771C912.475 504.771 882.841 461.385 877.668 398.059C874.468 358.66 882.227 325.135 899.017 306.027C908.661 295.071 921.155 288.935 935.27 288.278C976.214 286.394 1013.56 333.154 1018.43 392.712C1021.37 428.517 1012.03 462.525 993.442 483.692C981.957 496.752 967.797 504.026 952.454 504.771C951.665 504.771 950.876 504.771 950.087 504.771ZM937.857 303.529C937.243 303.529 936.629 303.529 936.015 303.573C926.064 304.055 917.472 308.262 910.59 316.15C896.518 332.146 890.118 361.553 893.011 396.832C896.869 444.031 918.261 491.01 951.753 489.389C962.844 488.863 973.277 483.385 981.957 473.524C997.826 455.469 1005.76 425.712 1003.17 393.939C999.01 343.541 969.945 303.529 937.857 303.529Z" fill="#0B3D91"/>
<path d="M976.828 494.122C976.346 494.122 975.863 494.078 975.381 493.947C946.624 486.584 925.363 448.851 921.198 397.839C916.858 344.768 933.78 305.939 964.334 298.927C967.447 298.226 970.559 300.154 971.26 303.266C971.962 306.378 970.033 309.489 966.921 310.19C942.328 315.844 928.914 349.895 932.727 396.875C936.454 442.234 954.734 476.724 978.231 482.728C981.343 483.516 983.184 486.672 982.395 489.783C981.781 492.413 979.414 494.122 976.828 494.122Z" fill="#0B3D91"/>
<g opacity="0.35">
<path d="M426.801 576.994C408.521 412.302 480.721 304.931 656.859 263.473C661.901 262.29 662.295 255.322 657.385 253.569C602.895 234.023 537.139 242.175 481.422 275.92C407.688 320.621 367.752 406.166 380.991 491.317C385.988 523.441 398.35 553.066 417.376 580.456C420.444 584.883 427.371 582.297 426.801 576.994Z" fill="white"/>
</g>
<g opacity="0.35">
<path d="M835.891 345.776L846.85 363.437C850.094 368.652 850.84 375.138 848.648 380.879C843.563 394.333 833.261 403.274 817.129 407.086C809.15 408.971 800.865 405.596 796.218 398.847L783.944 381.011C779.209 374.13 779.209 364.971 783.988 358.134C790.914 348.23 800.032 340.429 813.709 336.879C822.258 334.688 831.244 338.282 835.891 345.776Z" fill="white"/>
</g>
<g opacity="0.35">
<path d="M843.518 438.684C861.448 439.298 875.52 454.548 874.336 472.429C873.021 492.413 869.339 512.178 863.289 531.767C858.598 546.975 843.212 556.134 827.693 552.716C811.78 549.166 801.391 533.652 804.503 517.656C807.659 501.265 809.72 485.05 810.465 469.098C811.254 451.612 826.027 438.07 843.518 438.684Z" fill="white"/>
</g>
<path d="M331.192 354.497C330.446 354.497 329.701 354.365 328.956 354.103C325.493 352.875 323.695 349.063 324.923 345.644C347.148 283.151 384.191 233.585 435.042 198.306C480.282 166.928 535.693 148.083 595.356 143.788C731.207 134.059 863.728 198.92 917.692 301.469C919.401 304.712 918.13 308.744 914.886 310.409C911.642 312.119 907.609 310.848 905.943 307.605C854.347 209.525 727.043 147.601 596.276 156.98C472.216 165.876 377.878 236.258 337.46 350.027C336.496 352.788 333.953 354.497 331.192 354.497Z" fill="#0B3D91"/>
<path d="M614.468 742.958C611.137 742.958 608.419 740.285 608.375 736.954C608.331 733.579 611.005 730.819 614.381 730.775C783.286 728.583 903.357 640.408 935.665 494.955C936.41 491.668 939.654 489.608 942.942 490.309C946.23 491.054 948.29 494.297 947.589 497.584C931.106 571.867 891.214 633.791 832.209 676.695C774.124 718.942 698.855 741.818 614.556 742.914C614.556 742.958 614.512 742.958 614.468 742.958Z" fill="#0B3D91"/>
<path d="M1101.68 487.899C1098.21 492.501 1095.89 497.803 1095.06 503.501C1089.1 544.082 1081.12 580.194 1071.12 611.66C1045.08 607.715 1020.97 601.405 999.185 592.245C980.729 584.576 963.896 574.847 948.903 562.883C960.783 531.417 968.236 498.899 968.981 464.76C942.766 437.588 958.46 398.979 981.036 393.632C984.061 379.17 991.031 367.907 1002.34 360.15C1012.12 353.445 1024.08 350.728 1035.92 351.517C1052.93 352.656 1066.91 356.469 1078.22 362.21C1130.7 388.636 1125.66 455.907 1101.68 487.899Z" fill="white"/>
<path d="M1071.12 618.277C1070.82 618.277 1070.46 618.233 1070.16 618.189C1019.13 610.52 976.959 593.648 944.783 568.054C942.547 566.257 941.714 563.277 942.722 560.604C954.953 528.305 961.353 497.76 962.318 467.302C950.043 453.321 945.747 434.915 950.832 417.561C954.865 403.843 964.29 392.887 975.469 388.549C979.327 374.043 987.086 362.692 998.615 354.76C1009.14 347.529 1022.55 344.067 1036.36 344.987C1086.6 348.362 1108.25 373.342 1117.63 393.676C1133.33 427.816 1124.12 468.879 1106.94 491.799C1104.04 495.612 1102.2 499.995 1101.55 504.421C1095.54 545.265 1087.43 582.034 1077.39 613.632C1076.51 616.436 1073.97 618.277 1071.12 618.277ZM956.75 560.692C985.727 582.604 1021.76 596.891 1066.56 604.341C1075.59 574.628 1083 540.445 1088.57 502.58C1089.53 496.007 1092.25 489.564 1096.42 483.999C1110.88 464.672 1119.08 428.385 1105.67 399.242C1094.4 374.7 1070.11 360.501 1035.48 358.178C1024.61 357.477 1014.18 360.107 1006.07 365.672C996.292 372.377 990.198 381.975 987.48 395.079C986.954 397.577 985.025 399.549 982.571 400.118C974.154 402.091 966.701 410.417 963.501 421.33C959.424 435.178 963.194 449.377 973.759 460.333C974.987 461.604 975.644 463.27 975.6 465.023C974.899 496.313 968.718 527.692 956.75 560.692Z" fill="#0B3D91"/>
<path d="M980.554 387.628C993.53 386.27 1006.64 389.075 1018.08 395.122C1020.93 396.656 1023.69 398.365 1026.36 400.294C1028.99 402.266 1031.49 404.457 1033.77 406.867C1038.33 411.732 1042.28 417.736 1043.86 425.055C1044.6 428.692 1044.69 432.636 1043.77 436.361C1042.93 440.086 1041.09 443.636 1039.03 446.31C1035.44 451.656 1029.08 457.09 1021.45 458.098C1017.68 458.712 1013.91 458.011 1010.58 456.827C1007.21 455.644 1004.4 453.584 1001.86 451.481C996.993 446.967 993.574 441.445 991.514 435.616C991.075 434.433 991.733 433.118 992.916 432.68C993.968 432.329 995.064 432.724 995.634 433.644L995.678 433.688C998.615 438.465 1002.25 442.672 1006.59 445.477C1010.85 448.325 1015.71 449.553 1019.74 448.501C1021.72 447.887 1023.65 447.098 1025.27 445.521C1025.71 445.214 1026.1 444.776 1026.45 444.337L1027.59 443.066C1028.25 442.015 1029.08 441.051 1029.7 439.999C1032.37 436.011 1032.85 432.023 1031.8 427.816C1030.7 423.608 1027.94 419.533 1024.44 415.939C1020.88 412.389 1016.54 409.365 1011.9 406.867C1002.56 402.003 991.908 399.417 981.431 399.724H981.343C978.012 399.812 975.206 397.226 975.118 393.895C975.074 390.652 977.442 387.979 980.554 387.628Z" fill="#0B3D91"/>
<path d="M1039.38 435.178C1043.77 438.202 1048.68 440.481 1053.76 441.664C1058.85 442.891 1064.15 442.891 1069.02 441.489C1073.88 440.086 1078.27 437.194 1081.64 433.162C1085.06 429.13 1087.43 424.09 1089.05 418.744L1089.1 418.612C1089.67 416.816 1091.59 415.764 1093.39 416.333C1095.14 416.859 1096.15 418.656 1095.71 420.409C1094.27 426.545 1091.9 432.724 1087.96 438.07C1084.05 443.461 1078.36 447.843 1071.87 450.122C1065.38 452.445 1058.37 452.839 1051.79 451.7C1045.17 450.56 1038.9 448.106 1033.25 444.732C1030.53 443.11 1029.61 439.604 1031.23 436.887C1032.85 434.17 1036.36 433.25 1039.08 434.871C1039.16 435.047 1039.25 435.134 1039.38 435.178Z" fill="#0B3D91"/>
<g opacity="0.3">
<path d="M1101.68 487.899C1098.21 492.501 1095.89 497.803 1095.06 503.501C1089.1 544.082 1081.12 580.194 1071.12 611.66C1045.08 607.715 1020.97 601.405 999.185 592.245C1000.32 591.194 1001.51 590.229 1002.82 589.265C1059.64 547.939 1048.72 466.469 1048.72 466.469C1009.71 475.058 996.949 440.393 996.949 440.393C1034.12 442.409 1021.5 404.851 1021.5 404.851L1033.95 419.62C1066.17 443.899 1089.49 405.114 1078.18 362.166C1130.7 388.636 1125.66 455.907 1101.68 487.899Z" fill="#0B3D91"/>
</g>
<path d="M690.132 1326.31C669.747 1326.31 645.637 1314.08 633.143 1279.06C625.691 1258.25 624.945 1235.37 630.951 1212.89L651.072 1137.91L560.767 1139.92L540.602 1157.41L475.723 1249.7C465.684 1263.99 450.297 1273.63 433.595 1276.17C423.907 1277.62 413.649 1277.49 403.216 1275.73C380.684 1271.96 359.423 1260.22 343.334 1242.65C298.269 1193.34 242.201 1131.99 294.412 1056.87C294.543 1056.7 294.675 1056.48 294.85 1056.3C295.288 1055.78 337.723 1006.74 406.591 1053.94L430.088 1026.28C398.964 1028.74 371.522 1020.24 354.25 1002.09C340.397 987.543 326.72 960.021 340.222 911.507C345.307 893.145 357.669 877.982 374.108 869.874C387.917 863.037 402.427 862.161 416.411 867.245C421.233 863.081 429.869 857.515 441.048 858.699C455.689 860.233 469.06 872.635 480.896 895.555C500.666 900.639 518.947 898.93 536.525 890.296C500.316 818.38 475.942 746.858 529.336 704.436C532.668 701.807 537.49 702.333 540.12 705.663C542.75 708.994 542.224 713.815 538.893 716.444C495.099 751.241 513.072 810.974 553.578 889.989C555.419 893.583 554.148 898.009 550.641 900.069C526.706 914.224 500.71 917.38 473.4 909.404C471.339 908.79 469.63 907.344 468.665 905.416C459.24 886.177 448.895 875.001 439.513 873.95C430.79 872.942 424.214 880.962 424.17 881.049C421.935 883.81 418.121 884.687 414.921 883.197C403.611 877.894 392.169 878.025 380.859 883.591C368.321 889.77 358.896 901.428 354.951 915.583C345.789 948.495 349.384 974.746 365.341 991.487C382.569 1009.59 413.299 1015.81 447.492 1008.1C450.736 1007.4 454.024 1008.8 455.733 1011.6C457.443 1014.41 457.136 1018 455.032 1020.54L413.693 1069.23C411.063 1072.3 406.504 1072.83 403.26 1070.42C344.605 1026.46 310.062 1062.31 306.774 1065.95C265.26 1126.07 302.127 1174.81 354.644 1232.26C368.409 1247.29 386.558 1257.37 405.715 1260.57C414.57 1262.06 423.206 1262.19 431.272 1260.96C443.853 1259.08 455.47 1251.76 463.142 1240.85L528.547 1147.81C528.898 1147.28 529.336 1146.85 529.818 1146.41L552.789 1126.51C554.148 1125.33 555.858 1124.67 557.655 1124.63L660.98 1122.35C663.391 1122.22 665.714 1123.4 667.205 1125.28C668.695 1127.17 669.221 1129.67 668.564 1131.99L645.812 1216.88C640.595 1236.34 641.209 1256.06 647.609 1273.94C656.727 1299.49 674.262 1313.25 694.428 1310.75C714.023 1308.34 736.774 1289.06 740.369 1252.46C740.632 1249.83 742.21 1247.51 744.621 1246.33C746.989 1245.14 749.794 1245.28 752.074 1246.68C788.766 1269.47 825.107 1280.64 860.089 1280.03C885.515 1279.55 909.362 1266.57 923.872 1245.23C1006.64 1123.75 1018.43 970.67 959.907 777.273C959.03 774.293 959.994 771.093 962.362 769.121C1040.57 704.962 1063.45 609.512 1063.67 608.548C1064.63 604.428 1068.75 601.887 1072.88 602.807C1077 603.771 1079.58 607.891 1078.62 612.01C1077.7 616.042 1055.03 710.396 976.039 777.667C1003.7 870.531 1015.23 952.045 1011.33 1026.77C1006.86 1112.31 982.395 1186.59 936.541 1253.86C919.226 1279.28 890.731 1294.8 860.352 1295.37C825.501 1296.02 789.73 1285.99 753.827 1265.57C746.726 1298.35 724.237 1322.49 696.313 1325.96C694.296 1326.18 692.236 1326.31 690.132 1326.31Z" fill="#0B3D91"/>
<path d="M557.611 762.767C560.592 776.484 563.924 790.157 567.562 803.699C571.245 817.241 575.234 830.651 579.968 843.667V843.711C581.108 846.866 579.486 850.328 576.33 851.468C573.174 852.607 569.71 850.986 568.571 847.83C568.527 847.655 568.439 847.48 568.395 847.304C564.713 833.412 561.864 819.476 559.409 805.496C556.954 791.516 554.806 777.579 553.052 763.512C552.877 762.241 553.797 761.101 555.025 760.926C556.252 760.795 557.348 761.583 557.611 762.767Z" fill="#0B3D91"/>
<path d="M449.158 1021.55C447.755 1021.55 446.308 1021.07 445.168 1020.06C442.67 1017.87 442.407 1014.06 444.642 1011.56L453.98 1000.91C464.72 988.726 478.748 980.312 494.573 976.631L591.278 953.973C594.522 953.228 597.766 955.244 598.512 958.487C599.257 961.73 597.24 964.973 593.996 965.718L497.291 988.376C483.921 991.487 472.085 998.587 463.01 1008.89L453.673 1019.53C452.489 1020.85 450.823 1021.55 449.158 1021.55Z" fill="#0B3D91"/>
<path d="M548.975 976.061C548.624 976.061 548.317 976.017 547.967 975.973C544.679 975.404 542.443 972.292 543.013 969.005C550.597 924.041 541.128 895.643 541.04 895.336C539.945 892.181 541.61 888.762 544.767 887.667C547.923 886.571 551.342 888.236 552.438 891.392C552.877 892.663 563.047 922.726 554.937 971.021C554.411 973.957 551.868 976.061 548.975 976.061Z" fill="#0B3D91"/>
<path d="M442.407 907.475C444.029 909.798 445.563 912.252 446.878 914.838C448.193 917.467 449.377 920.009 450.122 923.471C450.692 926.846 450.561 930.44 449.465 933.814C448.281 937.145 446.352 940.212 443.853 942.754C441.311 945.252 438.155 947.093 434.735 948.32C431.316 949.591 427.458 949.81 423.776 949.24C421.891 948.977 420.137 948.364 418.384 947.663C417.507 947.312 416.762 946.83 415.929 946.392L414.745 945.69C414.395 945.471 414.132 945.252 413.781 944.989L410.142 942.228C408.959 941.22 407.819 940.125 406.679 939.073C402.296 934.647 398.394 929.081 396.509 922.595C394.536 916.153 394.712 909.228 396.29 903.137C399.49 890.866 406.372 881.093 413.562 872.24C415.666 869.655 419.436 869.26 422.066 871.32C424.653 873.424 425.047 877.193 422.987 879.822V879.866L422.899 879.954C416.28 888.017 410.362 896.87 408.082 906.029C406.942 910.543 406.899 915.057 408.17 919.089C409.441 923.165 412.071 926.89 415.491 930.089L418.165 932.455L421.102 934.647C421.321 934.822 421.628 935.041 421.803 935.173L422.417 935.479C422.811 935.655 423.206 935.961 423.601 936.137C424.433 936.444 425.223 936.838 426.099 936.969C429.431 937.846 433.464 936.926 436.576 934.603C438.111 933.42 439.426 931.93 440.346 930.177C441.267 928.424 441.705 926.451 441.793 924.348C441.837 922.376 441.267 919.659 440.653 917.161C439.996 914.619 439.207 912.077 438.374 909.491C437.979 908.264 438.637 906.95 439.864 906.555C440.785 906.248 441.837 906.643 442.407 907.475Z" fill="#0B3D91"/>
<path d="M437.979 941.352C440.478 948.89 440.346 957.041 438.154 964.228C435.962 971.459 431.885 977.945 426.362 982.941C420.926 987.893 413.737 991.4 406.153 991.575C402.383 991.706 398.657 991.005 395.237 989.646C391.818 988.288 388.793 986.316 386.119 984.037C385.155 983.204 385.023 981.758 385.856 980.794C386.645 979.874 387.96 979.742 388.925 980.4L388.969 980.443C394.01 984.037 399.972 985.965 405.671 985.176C411.37 984.475 416.63 981.32 420.532 977.025C424.477 972.73 427.151 967.296 428.247 961.73C429.343 956.165 428.817 950.467 426.669 945.603C425.31 942.535 426.713 938.985 429.737 937.627C432.806 936.268 436.357 937.671 437.716 940.694C437.804 940.87 437.847 941.045 437.935 941.22L437.979 941.352Z" fill="#0B3D91"/>
<path d="M427.809 1275.08C425.441 1275.08 423.162 1273.67 422.197 1271.31C420.926 1268.2 422.417 1264.69 425.529 1263.46C439.689 1257.72 447.448 1249.04 449.157 1236.95C456.259 1186.9 361.877 1095.75 350.523 1086.63C334.698 1077.21 321.152 1074.58 310.193 1078.83C294.192 1085.05 288.318 1104.29 288.23 1104.51C287.266 1107.71 283.934 1109.51 280.734 1108.59C277.534 1107.67 275.693 1104.29 276.657 1101.14C276.964 1100.13 284.154 1076.11 305.722 1067.65C320.407 1061.91 337.679 1064.85 357.011 1076.46C358.107 1077.12 466.298 1173.49 461.476 1235.59C460.073 1253.69 449.508 1266.84 430.088 1274.68C429.343 1274.9 428.554 1275.08 427.809 1275.08Z" fill="#0B3D91"/>
<path d="M412.115 1059.2C419.655 1066.6 425.968 1074.89 431.404 1083.47C436.839 1092.11 441.486 1101.09 445.607 1110.21C446.177 1111.48 445.607 1112.97 444.336 1113.54C443.196 1114.06 441.837 1113.63 441.179 1112.57C435.963 1104.25 430.308 1096.23 424.039 1088.82C417.814 1081.46 410.975 1074.71 403.479 1069.14C400.542 1066.95 399.928 1062.83 402.12 1059.94C404.312 1057 408.433 1056.39 411.326 1058.58C411.545 1058.76 411.764 1058.93 411.984 1059.15L412.115 1059.2Z" fill="#0B3D91"/>
<path d="M533.588 1158.55C531.44 1158.55 529.512 1157.01 529.073 1154.82C520.393 1108.63 500.36 1074.84 471.076 1057.09C448.982 1043.68 429.124 1043.99 428.949 1043.99C428.905 1043.99 428.861 1043.99 428.861 1043.99C426.362 1043.99 424.346 1042.02 424.258 1039.52C424.214 1036.98 426.187 1034.87 428.729 1034.83C429.606 1034.79 451.043 1034.39 475.329 1048.99C497.51 1062.26 526.399 1091.14 538.06 1153.16C538.542 1155.65 536.876 1158.06 534.377 1158.5C534.158 1158.5 533.895 1158.55 533.588 1158.55Z" fill="#0B3D91"/>
<path d="M287.354 1156.79C285.644 1156.79 283.978 1156.09 282.751 1154.69C280.603 1152.15 280.866 1148.34 283.408 1146.19L356.836 1083.21C359.379 1081.06 363.192 1081.33 365.34 1083.87C367.488 1086.41 367.225 1090.22 364.683 1092.37L291.255 1155.35C290.159 1156.31 288.757 1156.79 287.354 1156.79Z" fill="#0B3D91"/>
<path d="M314.489 1203.16C312.823 1203.16 311.157 1202.46 309.974 1201.1C307.782 1198.6 308.001 1194.79 310.5 1192.6C310.5 1192.6 330.928 1174.59 351.4 1156.57C361.658 1147.55 371.916 1138.56 379.631 1131.81C394.405 1118.93 394.361 1118.93 397.035 1119.1L396.64 1125.11L392.081 1129.1L396.64 1125.11L400.147 1130.02C397.21 1132.3 349.691 1174.1 318.434 1201.67C317.339 1202.68 315.892 1203.16 314.489 1203.16Z" fill="#0B3D91"/>
<path d="M344.342 1238.26C342.545 1238.26 340.792 1237.47 339.608 1235.94C337.548 1233.31 337.986 1229.54 340.616 1227.48L419.83 1165.16C422.461 1163.1 426.231 1163.54 428.291 1166.17C430.351 1168.8 429.913 1172.57 427.283 1174.63L348.069 1236.99C346.973 1237.87 345.658 1238.26 344.342 1238.26Z" fill="#0B3D91"/>
<path d="M387.566 1269.55C385.944 1269.55 384.278 1268.9 383.095 1267.58C380.859 1265.13 381.034 1261.32 383.489 1259.08L445.081 1202.81C447.535 1200.57 451.349 1200.75 453.629 1203.2C455.865 1205.66 455.689 1209.47 453.234 1211.71L391.643 1267.98C390.459 1269.03 389.013 1269.55 387.566 1269.55Z" fill="#0B3D91"/>
<path d="M659.533 1086.02L671.106 1093.38C675.139 1095.48 678.997 1097.89 683.074 1099.91L689.211 1102.76C691.271 1103.68 693.288 1104.73 695.392 1105.47L701.705 1107.89L704.861 1109.11L708.105 1110.08C712.401 1111.35 716.653 1112.79 721.037 1113.63C725.377 1114.63 729.717 1115.77 734.144 1116.47L740.72 1117.79L747.383 1118.75L754.046 1119.72L760.797 1120.24C778.771 1121.65 797.051 1120.59 815.156 1118.1C833.26 1115.51 851.234 1111.44 868.988 1106.4C870.215 1106.04 871.487 1106.75 871.837 1107.97C872.188 1109.11 871.53 1110.34 870.435 1110.78C852.943 1117.26 835.014 1122.7 816.602 1126.47C798.191 1130.28 779.297 1132.25 760.227 1131.81L753.082 1131.64L745.936 1130.98C743.569 1130.72 741.158 1130.59 738.791 1130.24L731.733 1128.96C729.41 1128.44 726.999 1128.13 724.719 1127.47L717.793 1125.42C713.146 1124.19 708.762 1122.17 704.291 1120.46C686.581 1113.19 670.317 1102.63 656.684 1089.65C655.763 1088.78 655.719 1087.33 656.596 1086.41C657.385 1085.58 658.612 1085.49 659.489 1086.06L659.533 1086.02Z" fill="#0B3D91"/>
<path d="M660.717 1137.55C658.174 1137.55 655.807 1135.93 654.974 1133.39C653.922 1130.24 655.632 1126.82 658.832 1125.77L706.001 1110.21C709.157 1109.16 712.576 1110.87 713.628 1114.06C714.681 1117.22 712.971 1120.64 709.771 1121.69L662.602 1137.25C661.988 1137.47 661.33 1137.55 660.717 1137.55Z" fill="#0B3D91"/>
<path d="M811.035 1244.05C808.843 1242.38 806.695 1240.67 804.547 1238.88C803.495 1238 802.399 1237.12 801.391 1236.16L798.453 1233.22C796.568 1231.21 794.508 1229.28 792.755 1227.13C791.045 1224.98 789.248 1222.79 787.582 1220.6C780.918 1211.66 775.526 1201.76 771.669 1191.33C767.723 1180.94 764.392 1170.34 762.068 1159.51C759.701 1148.64 758.167 1137.77 757.86 1126.38C757.772 1123.05 760.403 1120.29 763.734 1120.2C767.066 1120.11 769.828 1122.74 769.915 1126.07V1126.2C770.178 1136.33 771.625 1146.8 773.817 1156.92C776.053 1167.09 779.077 1177.08 783.11 1186.64L786.354 1193.69C787.45 1196.02 788.678 1198.3 789.817 1200.62C790.87 1202.98 792.141 1205.22 793.368 1207.5C794.64 1209.73 795.648 1212.19 797.051 1214.34C802.048 1223.45 808.141 1231.86 814.235 1240.76L814.323 1240.89C815.024 1241.94 814.761 1243.39 813.709 1244.09C812.876 1244.71 811.78 1244.62 811.035 1244.05Z" fill="#0B3D91"/>
<path d="M770.529 1270.34C768.162 1270.34 766.146 1268.55 765.97 1266.14C762.288 1223.58 785.916 1209.25 786.881 1208.68C789.073 1207.41 791.878 1208.16 793.15 1210.35C794.421 1212.54 793.719 1215.34 791.528 1216.61C790.651 1217.14 771.932 1229.02 775.088 1265.39C775.308 1267.93 773.423 1270.12 770.924 1270.34C770.792 1270.34 770.661 1270.34 770.529 1270.34Z" fill="#0B3D91"/>
<path d="M744.315 1258.6L713.234 1232.83C712.182 1231.95 712.006 1230.37 712.883 1229.28C713.672 1228.36 714.987 1228.1 715.996 1228.67L751.635 1247.64C754.835 1249.35 756.063 1253.34 754.353 1256.58C752.644 1259.78 748.611 1261.01 745.41 1259.3C745.06 1259.12 744.665 1258.86 744.315 1258.6Z" fill="#0B3D91"/>
<path d="M892.353 950.467C882.139 963.571 870.741 973.87 857.765 980.794C790.694 995.957 717.486 1007.04 640.069 1015.28C622.973 1017.12 606.972 1006.52 601.931 990.041L594.917 967.121L566.685 875.177C564.45 867.902 565.414 860.013 569.359 853.484L584.22 828.898C587.903 822.806 593.821 818.38 600.791 816.715C676.147 798.396 751.723 785.906 827.518 779.727C835.496 779.069 843.255 780.954 849.919 784.767C855.661 788.053 860.615 792.83 864.078 798.79C884.813 833.938 896.123 875.44 900.858 921.236C901.91 931.667 898.841 942.185 892.353 950.467Z" fill="white"/>
<path d="M636.343 1022.08C617.887 1022.08 601.229 1009.98 595.706 992.013L560.46 877.149C557.699 868.077 558.882 858.217 563.792 850.109L578.653 825.523C583.212 817.942 590.752 812.42 599.3 810.36C675.621 791.822 752.249 779.289 827.035 773.197C844.176 771.795 860.966 780.516 869.777 795.46C889.898 829.555 902.217 870.488 907.433 920.579C908.704 932.718 905.197 944.77 897.614 954.543C886.567 968.698 874.248 979.523 860.966 986.623C860.439 986.886 859.87 987.105 859.3 987.236C795.429 1001.7 723.974 1013 640.858 1021.86C639.324 1021.99 637.833 1022.08 636.343 1022.08ZM830.586 786.169C829.753 786.169 828.877 786.213 828.044 786.257C753.915 792.304 677.988 804.707 602.325 823.069C597.152 824.34 592.637 827.671 589.831 832.272L574.971 856.858C571.99 861.766 571.288 867.727 572.954 873.248L608.243 988.113C612.364 1001.52 625.471 1010.2 639.412 1008.71C721.607 999.945 792.316 988.77 855.442 974.527C866.796 968.26 877.448 958.794 887.136 946.348C892.66 939.292 895.159 930.571 894.282 921.85C889.241 873.687 877.492 834.507 858.379 802.077C852.549 792.261 841.852 786.169 830.586 786.169Z" fill="#0B3D91"/>
<path d="M851.409 987.981C850.883 987.981 850.313 987.893 849.787 987.762C846.762 986.886 845.009 983.686 845.886 980.662C853.952 953.272 844.351 881.005 822.082 838.89C818.224 831.571 810.334 827.101 802.048 827.496C743.701 830.432 674.569 841.037 590.708 859.97C585.141 861.854 581.371 865.053 579.091 869.611C573.787 880.392 578.872 895.555 578.916 895.687C579.968 898.667 578.39 901.954 575.409 903.005C572.428 904.057 569.14 902.479 568.088 899.499C567.825 898.711 561.337 879.778 568.79 864.571C572.428 857.121 578.697 851.862 587.333 849.013C587.508 848.97 587.684 848.882 587.903 848.882C672.509 829.774 742.386 819.037 801.478 816.101C814.191 815.488 826.29 822.324 832.208 833.587C854.127 875.045 866.533 950.949 856.845 983.949C856.187 986.36 853.864 987.981 851.409 987.981Z" fill="#0B3D91"/>
<path d="M778.069 1001.96C775.658 1001.96 773.466 1000.34 772.765 997.929L755.712 935.085C754.748 931.535 751.767 928.862 748.128 928.336L681.233 917.993C673.649 916.81 667.248 911.332 664.969 904.013L645.9 843.009C644.979 840.117 646.601 837.049 649.494 836.129C652.388 835.209 655.456 836.83 656.377 839.723L675.446 900.726C676.498 904.101 679.435 906.599 682.898 907.169L749.794 917.511C757.685 918.738 764.173 924.523 766.277 932.236L783.33 995.081C784.119 998.017 782.409 1001 779.472 1001.79C779.034 1001.92 778.552 1001.96 778.069 1001.96Z" fill="#0B3D91"/>
<g opacity="0.3">
<path d="M892.353 950.467C882.139 963.571 870.741 973.87 857.765 980.794C790.694 995.957 717.486 1007.04 640.069 1015.28C622.972 1017.12 606.972 1006.52 601.93 990.041L594.917 967.121C741.509 999.419 812.131 948.89 814.936 824.34L849.831 784.723C855.573 788.01 860.527 792.786 863.99 798.747C884.725 833.894 896.035 875.396 900.77 921.193C901.91 931.667 898.841 942.184 892.353 950.467Z" fill="#0B3D91"/>
</g>
<path d="M998.79 895.818C965.649 912.296 931.543 920.185 896.474 919.483C889.591 919.352 883.585 914.838 881.7 908.22L881.174 906.511L879.772 872.985C877.185 864.001 877.054 854.623 886.347 853.264C915.324 849.013 939.347 838.013 964.991 828.898C968.718 827.583 972.4 826.225 976.038 824.778C984.85 821.316 994.713 826.4 996.905 835.647L1007.03 878.244C1008.78 885.3 1005.32 892.575 998.79 895.818Z" fill="white"/>
<path d="M906.6 925.443C891.082 925.443 877.448 915.276 873.152 900.376L868.462 884.073C865.744 874.651 867.19 864.527 872.407 856.201C877.624 847.874 886.216 842.089 895.904 840.424C919.401 836.348 941.363 830.739 961.134 823.858C970.383 820.659 980.598 821.492 989.19 826.181C997.738 830.87 1003.96 839.021 1006.24 848.531L1010.54 866.499C1014.44 882.802 1006.07 899.499 990.636 906.292C963.808 918.081 935.927 924.523 907.784 925.443C907.389 925.443 906.995 925.443 906.6 925.443ZM972.575 833.982C970.077 833.982 967.534 834.42 965.079 835.253C944.695 842.352 922.118 848.093 897.964 852.3C891.608 853.396 885.997 857.165 882.621 862.599C879.202 868.077 878.281 874.519 880.078 880.742L884.769 897.045C887.619 906.993 896.868 913.698 907.345 913.392C933.955 912.515 960.301 906.424 985.727 895.248C995.765 890.822 1001.24 879.91 998.746 869.304L994.45 851.336C992.96 845.069 989.014 839.898 983.359 836.786C979.984 834.902 976.302 833.982 972.575 833.982Z" fill="#0B3D91"/>
<g opacity="0.3">
<path d="M998.79 895.818C965.649 912.296 931.543 920.185 896.474 919.483C889.591 919.352 883.585 914.838 881.7 908.22L881.174 906.511C957.802 897.965 965.868 851.818 964.991 828.898C968.718 827.583 972.4 826.225 976.038 824.778C984.85 821.316 994.713 826.4 996.905 835.647L1007.03 878.244C1008.78 885.3 1005.32 892.575 998.79 895.818Z" fill="#0B3D91"/>
</g>
<path d="M786.712 901.235C798.706 896.284 804.131 881.861 798.828 869.02C793.525 856.179 779.502 849.782 767.508 854.733C755.513 859.683 750.089 874.106 755.392 886.947C760.695 899.789 774.717 906.185 786.712 901.235Z" fill="#22A7F0"/>
<g opacity="0.5">
<path d="M762.945 896.958C757.641 884.117 763.077 869.699 775.044 864.746C783.11 861.416 792.053 863.256 798.673 868.647C793.237 856.069 779.384 849.802 767.548 854.711C755.537 859.663 750.145 874.081 755.449 886.922C757.203 891.129 759.877 894.679 763.164 897.308C763.077 897.22 762.989 897.089 762.945 896.958Z" fill="white"/>
</g>
<path d="M778.288 908.396C774.255 908.396 770.179 907.519 766.321 905.722C759.131 902.436 753.476 896.519 750.364 889.025C743.92 873.424 750.671 855.719 765.444 849.627C780.217 843.535 797.445 851.292 803.933 866.894C810.377 882.495 803.626 900.157 788.853 906.292C785.434 907.738 781.883 908.396 778.288 908.396ZM775.965 858.523C773.817 858.523 771.669 858.918 769.609 859.794C760.447 863.563 756.326 874.826 760.49 884.862C762.507 889.77 766.189 893.671 770.836 895.774C775.351 897.834 780.261 897.966 784.645 896.169C793.807 892.4 797.928 881.137 793.763 871.101C790.563 863.344 783.33 858.523 775.965 858.523Z" fill="#0B3D91"/>
<path d="M969.595 780.559L945.265 786.87C944.037 787.177 942.766 786.432 942.415 785.205C942.152 784.197 942.591 783.189 943.424 782.663L964.816 769.472C967.666 767.719 971.436 768.595 973.233 771.444C974.987 774.293 974.11 778.061 971.26 779.858C970.734 780.165 970.165 780.428 969.595 780.559Z" fill="#0B3D91"/>
<path d="M1036.1 942.097C1029.39 942.097 1022.73 940.826 1016.41 938.372C1011.9 936.619 1006.99 934.647 1003.17 933.113C996.028 930.177 991.294 928.248 993.004 922.332C993.836 919.44 996.817 916.942 1000.89 917.687C1002.08 917.906 1003.13 918.432 1003.96 919.177C1005.76 919.965 1010.23 921.85 1021.19 926.145C1028.34 928.949 1036.1 929.651 1043.64 928.248C1063.23 924.567 1082.83 918.037 1101.9 908.746C1114.52 902.611 1121.32 888.061 1118.03 874.213L1090.67 759.042C1088.31 749.093 1081.86 740.416 1073.05 735.245L1061.21 728.321C1055.08 724.727 1047.71 724.113 1041.05 726.611L1012.34 737.436C1008.92 738.707 1005.15 736.998 1003.88 733.623C1002.6 730.249 1004.31 726.436 1007.69 725.165L1036.4 714.341C1046.79 710.44 1058.23 711.404 1067.83 717.014L1079.67 723.938C1091.59 730.906 1100.27 742.607 1103.43 756.062L1130.78 871.233C1135.47 891.041 1125.74 911.814 1107.59 920.623C1087.43 930.396 1066.74 937.364 1046 941.22C1042.76 941.79 1039.43 942.097 1036.1 942.097Z" fill="#0B3D91"/>
<path d="M1090.8 752.424C1090.72 752.38 1090.19 752.161 1089.8 751.986C1089.4 751.811 1088.96 751.679 1088.53 751.548C1087.65 751.241 1086.73 751.022 1085.81 750.803C1083.97 750.364 1082.04 750.058 1080.11 749.926C1076.25 749.619 1072.31 749.882 1068.45 750.715C1067.48 750.89 1066.52 751.109 1065.55 751.416L1064.11 751.811L1062.57 752.336L1056.44 754.572L1044.12 759.042L1031.8 763.512C1031.32 763.687 1030.75 763.906 1030.27 764.081L1028.95 764.651C1028.07 765.002 1027.28 765.528 1026.41 765.966C1024.79 766.974 1023.25 768.113 1021.94 769.516C1016.5 774.906 1013.74 783.101 1015.14 790.902L1035.04 894.547L1009.49 792.042C1007.25 782.575 1010.01 772.014 1016.68 764.607C1018.34 762.723 1020.23 761.145 1022.29 759.655C1023.34 758.998 1024.39 758.297 1025.49 757.727L1027.15 756.894C1027.68 756.631 1028.16 756.456 1028.69 756.237L1040.92 751.022L1053.15 745.807L1059.29 743.177L1060.82 742.52L1062.53 741.95C1063.67 741.556 1064.81 741.205 1065.99 740.898C1070.68 739.671 1075.59 739.014 1080.5 739.145C1082.96 739.189 1085.41 739.452 1087.87 739.89C1089.1 740.109 1090.32 740.372 1091.55 740.723C1092.16 740.898 1092.78 741.074 1093.39 741.249C1094.05 741.468 1094.57 741.643 1095.45 742.038L1095.67 742.125C1098.61 743.352 1099.97 746.727 1098.74 749.663C1097.51 752.599 1094.14 753.958 1091.2 752.731C1091.2 752.599 1091.02 752.512 1090.8 752.424Z" fill="#0B3D91"/>
<g opacity="0.3">
<path d="M967.227 775.038C972.181 791.428 976.696 807.687 980.729 823.814L888.364 845.508L878.106 827.014C946.01 831.352 905.767 763.161 905.767 763.161C988.839 710.703 1020.36 597.11 1020.36 597.11L1066.87 608.504L1071.08 610.257C1071.12 610.257 1048.33 708.468 967.227 775.038Z" fill="#0B3D91"/>
</g>
<g opacity="0.3">
<path d="M758.825 1259.52C755.23 1257.5 751.635 1255.35 747.997 1253.12C741.071 1323.59 665.232 1345.9 640.332 1276.48C638.798 1272.23 637.614 1267.89 636.694 1263.46C636.738 1263.51 636.738 1263.51 636.738 1263.51C692.674 1325.91 721.519 1235.37 721.519 1235.37L733.268 1243.26L758.825 1259.52Z" fill="#0B3D91"/>
</g>
<g opacity="0.3">
<path d="M654.711 1153.94C654.711 1153.94 732.303 1126.91 775.921 1178.92L763.866 1128.44L713.058 1117.7L695.611 1123.75L663.084 1131.55" fill="#0B3D91"/>
</g>
<g opacity="0.3">
<path d="M703.502 1114.37L676.673 1126.29L659.489 1135.98L661.111 1129.97L557.787 1132.25L534.816 1152.15L469.41 1245.19C460.687 1257.59 447.404 1266.22 432.412 1268.5C424.565 1269.69 415.227 1269.86 404.443 1268.06C383.051 1264.47 363.587 1253.38 348.989 1237.34C332.989 1219.81 317.382 1202.28 305.152 1184.27C305.196 1184.32 305.196 1184.32 305.24 1184.36C424.565 1281.56 407.819 1138.26 407.819 1138.26C407.819 1138.26 435.217 1175.99 437.058 1178.97C456.61 1211 475.153 1136.9 475.153 1136.9L525.654 1080.32L644.278 1076.51L665.057 1093.25L703.502 1114.37Z" fill="#0B3D91"/>
</g>
<g opacity="0.3">
<path d="M590.533 952.834L587.596 960.985L479.624 988.463L450.955 1013.44C450.955 1013.44 445.87 1015.06 438.198 1017.52C438.198 1017.52 438.154 1017.48 438.154 1017.52C395.106 1023.74 354.469 1008.75 344.562 968.435C402.909 1000.73 410.887 931.71 410.887 931.71L436.883 941.045V964.447L501.149 956.34C572.297 957.085 578.521 914.005 578.521 914.005L590.533 952.834Z" fill="#0B3D91"/>
</g>
</g>
<defs>
<clipPath id="clip0_21_6750">
<rect width="1380" height="1370" fill="white"/>
</clipPath>
</defs>
</svg>
