<svg width="647" height="699" viewBox="0 0 647 699" fill="none" xmlns="http://www.w3.org/2000/svg">
<g clip-path="url(#clip0_19_2042)">
<path d="M204.901 389.857C266.981 381.26 323.109 466.924 335.842 487.86C337.597 490.773 340.585 492.715 343.976 493.165C366.432 496.102 382.295 495.7 394.152 493.213C394.152 493.213 394.152 493.213 394.176 493.213C421.919 487.458 427.682 470.382 444.257 458.421C455.473 450.298 468.894 449.706 482.481 449.919C482.481 449.919 482.481 449.919 482.505 449.919C498.203 450.18 514.114 451.553 527.109 443.69C529.029 442.53 530.689 441.298 532.16 439.996C544.372 429.243 544.087 413.825 560.117 401.96C568.345 395.849 578.968 394.026 589.592 394.404C605.74 394.973 621.936 400.681 629.761 404.328C631.421 405.086 633.27 403.641 632.891 401.865L624.876 360.75L517.553 310.991L236.32 287.307L204.901 389.857Z" fill="#E81818"/>
<g opacity="0.2">
<path d="M204.901 389.857C266.981 381.26 323.109 466.924 335.842 487.86C337.597 490.773 340.585 492.715 343.976 493.165C366.432 496.102 382.295 495.7 394.152 493.213C394.152 493.213 394.152 493.213 394.176 493.213C421.919 487.458 427.682 470.382 444.257 458.421C455.473 450.298 468.894 449.706 482.481 449.919C482.481 449.919 482.481 449.919 482.505 449.919C498.203 450.18 514.114 451.553 527.109 443.69C529.029 442.53 530.689 441.298 532.16 439.996C544.372 429.243 544.087 413.825 560.117 401.96C568.345 395.849 578.968 394.026 589.592 394.404C605.74 394.973 621.936 400.681 629.761 404.328C631.421 405.086 633.27 403.641 632.891 401.865L624.876 360.75L517.553 310.991L236.32 287.307L204.901 389.857Z" fill="#0B3D91"/>
</g>
<g opacity="0.35">
<path d="M410.419 470.311C410.253 481.916 402.119 488.026 394.176 491.223C421.919 485.468 427.682 468.392 444.257 456.432C455.473 448.309 468.894 447.716 482.482 447.93C459.955 443.382 429.958 434.169 407.17 415.672C366.479 382.634 317.655 382.61 317.441 382.61C384.027 399.52 410.751 447.456 410.419 470.311Z" fill="#0B3D91"/>
</g>
<g opacity="0.35">
<path d="M363.041 332.401C361.832 343.603 441.032 320.417 530.974 416.478C536.689 422.564 535.693 431.327 532.16 439.996C544.372 429.243 544.087 413.825 560.117 401.96C568.345 395.849 578.968 394.026 589.592 394.405C573.372 386.139 555.611 376.973 539.226 368.187C460.547 325.959 363.823 325.272 363.041 332.401Z" fill="#0B3D91"/>
</g>
<path d="M372.123 499.205C363.871 499.205 354.409 498.565 343.43 497.121C338.83 496.529 334.799 493.9 332.38 489.921C326.144 479.642 309.118 453.282 286.046 430.617C257.638 402.717 230.511 390.331 205.423 393.812L199.186 394.665L233.38 283.02L518.596 307.083L628.409 358.003L636.827 401.107C637.278 403.428 636.4 405.773 634.527 407.241C632.654 408.686 630.188 408.97 628.03 407.975C621.082 404.731 609.368 400.704 597.298 399.094C587.031 397.72 572.637 397.673 562.488 405.181C554.449 411.149 550.94 417.97 547.241 425.193C543.233 433.009 539.084 441.109 529.148 447.124C516.533 454.774 501.712 454.395 487.39 454.04C472.309 453.661 458.081 453.33 446.557 461.666C441.506 465.313 437.522 469.458 433.325 473.84C421.35 486.368 409.02 499.205 372.123 499.205ZM213.675 385.263C225.958 385.263 238.668 388.531 251.568 395.02C264.752 401.652 278.244 411.717 291.689 424.933C315.402 448.214 332.855 475.237 339.257 485.776C340.395 487.671 342.316 488.902 344.474 489.187C400.483 496.505 413.62 482.792 427.539 468.298C431.808 463.845 436.218 459.25 441.862 455.177C455.591 445.253 471.858 445.656 487.603 446.035C501.381 446.367 514.399 446.698 524.998 440.28C532.99 435.448 536.286 429.006 540.103 421.546C543.874 414.18 548.166 405.82 557.722 398.739C567.61 391.42 581.292 388.863 598.365 391.136C609.653 392.652 620.679 396.133 628.291 399.307L621.319 363.521L516.509 314.922L239.213 291.546L210.497 385.334C211.541 385.286 212.608 385.263 213.675 385.263Z" fill="#0B3D91"/>
<path d="M199.163 271.652C259.582 304.383 463.63 243.042 614.703 337.351C628.646 346.066 642.423 371.408 642.969 401.912C643.064 406.72 637.42 409.396 633.721 406.317C612.735 388.744 556.228 345.64 488.196 328.138C401.74 305.922 215.477 306.941 205.66 287.094C201.629 278.947 199.163 271.652 199.163 271.652Z" fill="#E81818"/>
<g opacity="0.5">
<path d="M199.186 270.468C199.186 270.468 201.629 277.762 205.684 285.933C205.921 286.407 206.253 286.881 206.703 287.331C278.458 308.906 468.112 259.384 610.625 348.34C623.572 356.416 636.353 378.821 638.558 406.341C641.001 405.796 643.064 403.665 643.016 400.752C642.471 370.247 628.718 344.906 614.751 336.19C463.63 241.858 259.582 303.175 199.186 270.468Z" fill="white"/>
</g>
<path d="M637.325 411.646C635.12 411.646 632.962 410.888 631.16 409.373C610.245 391.87 554.355 349.263 487.2 331.998C446.936 321.648 384.098 316.319 328.657 311.606C297.143 308.93 267.384 306.42 244.999 303.246C232.906 301.541 223.8 299.765 217.113 297.822C208.553 295.336 203.905 292.565 202.056 288.846C197.93 280.533 195.463 273.191 195.345 272.884L192.096 263.221L201.06 268.076C210.806 273.357 225.294 276.412 246.612 277.691C266.317 278.876 290.29 278.402 315.663 277.928C360.314 277.076 410.94 276.105 463.108 282.783C523.884 290.575 574.155 307.296 616.814 333.916C624.639 338.795 631.99 347.985 637.491 359.732C643.443 372.426 646.715 386.992 646.976 401.818C647.047 405.631 644.937 409.017 641.499 410.675C640.171 411.338 638.748 411.646 637.325 411.646ZM206.419 279.136C207.249 281.054 208.197 283.162 209.264 285.317C209.383 285.554 210.616 287.591 219.366 290.149C225.673 291.996 234.423 293.678 246.137 295.336C268.309 298.462 297.95 300.972 329.345 303.649C385.094 308.385 448.288 313.738 489.216 324.253C557.959 341.921 615.012 385.381 636.329 403.239C637.017 403.807 637.705 403.617 638.06 403.452C638.416 403.286 638.985 402.86 638.985 401.983C638.748 388.27 635.713 374.842 630.259 363.166C625.469 352.958 619.043 344.787 612.593 340.761C518.596 282.073 401.432 284.346 315.853 285.981C268.996 286.881 230.819 287.615 206.419 279.136Z" fill="#0B3D91"/>
<path d="M150.694 282.286L145.999 302.701L137.391 340.027L136.917 342.087L125.559 391.255L106.565 473.697C106.565 473.697 93.1196 481.821 76.8053 485.468C56.199 490.087 31.0398 487.647 22.6693 452.761C13.0419 412.665 51.575 353.621 78.6074 318.404C80.9076 315.419 83.1129 312.601 85.2233 309.972C91.8865 301.612 97.3642 295.265 100.423 291.783C102.154 289.817 103.126 288.752 103.126 288.752L150.694 282.286Z" fill="white"/>
<g opacity="0.25">
<path d="M22.6693 452.785C37.6557 515.239 106.565 473.697 106.565 473.697L102.818 447.243C102.818 447.243 40.1218 485.042 21.3414 434.359C20.8908 440.825 21.2702 447.006 22.6693 452.785Z" fill="#0B3D91"/>
</g>
<path d="M62.056 491.247C55.5114 491.247 49.5358 490.134 44.2716 487.931C31.5141 482.603 22.9302 471.092 18.7567 453.708C15.2473 439.119 17.4762 421.12 25.3488 400.231C31.5379 383.842 41.1889 365.558 54.0886 345.9C75.9517 312.577 99.9252 286.336 100.162 286.075L101.135 285.01L155.887 277.526L110.074 476.279L108.628 477.155C108.248 477.392 99.3086 482.745 87.0255 486.795C79.7457 489.21 72.7979 490.655 66.3717 491.105C64.9253 491.2 63.4788 491.247 62.056 491.247ZM105.142 292.541C100.494 297.728 79.8168 321.317 60.7519 350.377C48.1841 369.537 38.7939 387.276 32.842 403.096C25.5623 422.446 23.4281 438.859 26.5582 451.837C30.0914 466.569 37.0866 476.232 47.3542 480.518C51.9782 482.46 56.9815 483.218 62.0323 483.218C79.5797 483.218 97.8622 473.911 103.055 471.069L145.477 287.046L105.142 292.541Z" fill="#0B3D91"/>
<path d="M207.699 462.116C199.779 507.92 195.084 544.18 191.954 572.979C183.797 647.725 186.05 672.096 169.285 682.209C158.614 688.651 140.545 694.24 114.983 694.216C79.2477 694.216 50.0574 692.558 50.3657 666.862C50.6028 646.47 85.7924 637.281 85.7924 637.281C80.3148 600.784 79.6508 548.585 80.0065 512.539C80.2437 488.358 80.9313 471.424 80.9313 471.424L207.699 462.116Z" fill="white"/>
<g opacity="0.25">
<path d="M207.699 462.116C203.976 483.597 200.989 502.971 198.522 520.449C198.356 521.61 198.19 522.77 198.048 523.931C197.882 525.091 197.716 526.228 197.574 527.365C197.479 528.123 197.36 528.88 197.266 529.615C197.171 530.325 197.052 531.036 196.981 531.746C196.768 533.38 196.554 535.015 196.317 536.625C195.819 540.533 195.321 544.346 194.871 548.041C194.657 549.722 194.444 551.38 194.254 553.014C194.23 553.18 194.207 553.369 194.183 553.535C193.756 557.111 193.329 560.593 192.95 563.98C192.808 565.164 192.689 566.348 192.547 567.532C192.381 568.882 192.239 570.232 192.096 571.558C192.049 572.032 192.001 572.529 191.93 573.003C183.773 647.749 186.026 672.119 169.261 682.232C158.59 688.674 140.521 694.264 114.959 694.24C81.9984 694.24 54.6577 692.843 50.8162 672.475C62.6488 678.04 81.2633 678.609 102.107 678.609C127.669 678.632 145.738 673.043 156.409 666.601C166.321 660.609 169.593 649.643 172.296 626.244C175.474 598.7 159.681 572.245 133.692 562.488C106.162 552.161 88.3297 534.825 80.0065 512.539C80.2436 488.358 80.9313 471.424 80.9313 471.424L192.049 463.277L207.699 462.116Z" fill="#0B3D91"/>
</g>
<path d="M115.054 698.219C115.03 698.219 114.983 698.219 114.959 698.219C87.974 698.195 64.7119 697.248 53.3535 685.785C48.5873 680.977 46.2397 674.582 46.3345 666.814C46.5717 647.559 71.8731 637.518 81.3344 634.439C76.995 603.034 75.9754 561.398 75.928 531.486C75.8568 497.95 76.9239 471.519 76.9239 471.258C77.0187 469.056 78.892 467.327 81.0973 467.421C83.3026 467.516 85.0336 469.387 84.9388 471.59C84.8913 472.632 80.7653 576.769 89.7762 636.689L90.3215 640.241L86.8358 641.141C86.7646 641.165 78.2992 643.415 69.9998 647.986C62.9334 651.87 54.4917 658.312 54.3969 666.885C54.3257 672.522 55.867 676.856 59.1157 680.148C68.2688 689.408 90.7721 690.19 115.006 690.19C115.03 690.19 115.078 690.19 115.101 690.19C143.983 690.19 160.155 683.037 167.222 678.751C172.652 675.482 175.806 670.272 178.082 660.799C180.524 650.686 181.876 635.789 183.773 615.16C186.761 582.713 191.266 533.641 203.763 461.382C204.142 459.203 206.205 457.735 208.411 458.114C210.592 458.493 212.062 460.553 211.683 462.756C199.258 534.707 194.752 583.566 191.764 615.894C189.844 636.854 188.445 651.988 185.884 662.67C183.085 674.298 178.746 681.143 171.371 685.595C163.546 690.356 145.88 698.219 115.054 698.219Z" fill="#0B3D91"/>
<g opacity="0.35">
<path d="M191.503 556.567C191.693 552.848 191.93 549.012 192.215 545.033C191.93 549.012 191.693 552.848 191.503 556.567Z" fill="#0B3D91"/>
</g>
<g opacity="0.35">
<path d="M192.476 541.788C192.642 539.609 192.831 537.407 193.021 535.157C192.831 537.407 192.642 539.633 192.476 541.788Z" fill="#0B3D91"/>
</g>
<g opacity="0.35">
<path d="M194.041 524.783C194.254 522.723 194.491 520.615 194.728 518.46C194.491 520.591 194.254 522.699 194.041 524.783Z" fill="#0B3D91"/>
</g>
<g opacity="0.35">
<path d="M194.847 517.465C195.131 515.049 195.44 512.586 195.748 510.076C195.44 512.586 195.131 515.049 194.847 517.465Z" fill="#0B3D91"/>
</g>
<g opacity="0.25">
<path d="M192.95 563.956C193.329 560.569 193.732 557.111 194.183 553.511C193.756 557.088 193.329 560.569 192.95 563.956Z" fill="#0B3D91"/>
</g>
<path d="M321.307 463.276C321.307 463.324 321.307 463.347 321.307 463.395C321.235 464.508 321.164 465.597 321.069 466.687C318.935 490.56 310.731 507.778 297.736 521.799C290.338 529.828 281.351 536.838 271.083 543.422C248.414 557.964 220.243 557.987 191.527 556.59C124.136 554.056 86.2192 526.701 76.829 485.515C75.1929 478.292 74.4103 470.618 74.5052 462.613C74.5763 456.692 75.1217 450.582 76.1414 444.306C76.829 439.995 77.5167 435.709 78.2044 431.469C81.8324 408.52 85.1522 386.399 88.6854 363.473C90.7484 350.021 92.8825 336.261 95.2063 321.909C95.3723 320.89 95.5383 319.895 95.6806 318.877C96.8425 311.677 98.0281 304.477 99.3323 297.538C99.688 295.62 100.067 293.725 100.447 291.83C102.273 282.807 104.336 274.328 106.873 267.01L107.158 266.607L120.294 248.608C163.143 223.74 283.177 238.566 284.481 257.607C285.334 269.994 287.54 282.167 290.314 294.246C290.836 296.449 291.358 298.651 291.903 300.83C292.045 301.422 292.187 302.014 292.353 302.606C293.563 307.012 294.843 311.701 296.195 316.58C296.195 316.627 296.219 316.698 296.242 316.746C301.151 334.461 306.818 354.782 311.632 375.221C316.09 394.239 319.813 413.351 321.425 430.522C321.449 430.782 321.473 431.067 321.496 431.327C322.611 443.145 322.658 454.016 321.307 463.276Z" fill="white"/>
<g opacity="0.25">
<path d="M76.0228 481.679C83.9191 524.996 122.025 553.961 191.503 556.59C220.219 557.988 248.414 557.988 271.059 543.422C281.327 536.838 290.314 529.828 297.712 521.799C311.3 507.115 319.694 488.95 321.307 463.277C322.516 455.129 322.611 445.703 321.852 435.519C321.71 437.177 321.496 438.788 321.259 440.351C319.576 466.024 322.302 484.805 308.265 499.489C300.629 507.518 279.999 513.912 269.376 520.496C245.995 535.038 216.9 535.062 187.259 533.665C129.115 531.509 92.2185 512.041 76.0228 481.679Z" fill="#0B3D91"/>
</g>
<path d="M105.782 266.205C107.632 262.865 109.624 259.597 111.616 256.352C112.611 254.742 113.631 253.107 114.651 251.521C115.67 249.91 116.69 248.323 117.733 246.713L118.018 246.287L118.729 245.837C122.286 243.516 126.057 241.692 129.922 240.152C133.787 238.613 137.723 237.405 141.707 236.387C149.651 234.374 157.713 233.095 165.799 232.313C173.861 231.508 181.947 231.2 190.033 231.224C198.096 231.247 206.158 231.603 214.196 232.218C222.235 232.834 230.25 233.734 238.217 234.918C246.209 236.126 254.152 237.642 262.049 239.797C265.985 240.887 269.921 242.118 273.834 243.729C275.778 244.534 277.723 245.434 279.667 246.523C280.639 247.068 281.588 247.66 282.56 248.347C283.509 249.034 284.457 249.815 285.382 250.763C285.619 251 285.832 251.26 286.07 251.521C286.283 251.805 286.52 252.065 286.734 252.373C287.16 252.965 287.563 253.652 287.872 254.41C288.204 255.168 288.441 256.044 288.536 256.968L288.559 257.299L288.583 257.489L288.607 257.844L288.654 258.578L288.773 260.023L288.915 261.468L289.057 262.912L289.223 264.357C289.65 268.218 290.196 272.078 290.836 275.939C292.116 283.636 293.824 291.309 295.697 298.959C295.934 299.906 296.171 300.854 296.408 301.801L297.191 304.643L298.756 310.375L301.933 321.861C306.178 337.185 310.375 352.555 314.145 368.092C316.042 375.86 317.821 383.652 319.433 391.491C321.046 399.33 322.492 407.217 323.678 415.175C324.863 423.133 325.765 431.161 326.191 439.261C326.429 443.311 326.452 447.385 326.381 451.482L326.263 454.561L326.239 455.319L326.191 456.1L326.073 457.64C325.954 459.7 325.646 461.761 325.409 463.821L325.433 463.49C325.101 468.629 324.508 473.768 323.512 478.86C322.54 483.952 321.212 488.997 319.457 493.923C317.702 498.849 315.473 503.61 312.889 508.157C311.561 510.407 310.185 512.633 308.644 514.765C307.909 515.854 307.103 516.873 306.32 517.938L306.036 518.341L305.727 518.72L305.111 519.478C304.708 519.975 304.305 520.496 303.878 520.994C303.024 521.988 302.194 522.983 301.293 523.93C300.843 524.404 300.416 524.901 299.965 525.375L298.614 526.772C298.376 527.009 298.163 527.246 297.926 527.459L297.238 528.146L295.839 529.496L294.416 530.822L293.705 531.485C293.468 531.699 293.231 531.912 292.97 532.125C289.105 535.535 285.05 538.733 280.876 541.693C279.833 542.427 278.79 543.161 277.723 543.872L276.134 544.938L274.545 545.98L273.739 546.501L273.336 546.761L272.909 547.022L271.225 548.064C270.656 548.396 270.087 548.727 269.518 549.059C269.234 549.224 268.949 549.39 268.664 549.532L267.787 549.982L266.91 550.432L266.483 550.669L266.032 550.882L264.254 551.735C263.045 552.28 261.859 552.824 260.626 553.298C259.417 553.819 258.183 554.245 256.95 554.719C255.717 555.145 254.484 555.572 253.228 555.951C251.971 556.353 250.714 556.685 249.457 557.04C248.2 557.348 246.944 557.68 245.663 557.964C244.406 558.248 243.126 558.485 241.845 558.745C240.565 558.958 239.284 559.195 238.028 559.385C236.747 559.598 235.467 559.74 234.186 559.906C232.906 560.048 231.625 560.214 230.345 560.308C227.784 560.569 225.223 560.735 222.686 560.853C212.489 561.351 202.316 561.043 192.31 560.569C189.796 560.45 187.283 560.356 184.745 560.19C183.465 560.119 182.208 560.024 180.951 559.906L179.054 559.764L177.157 559.574C172.083 559.077 167.032 558.437 162.005 557.585C151.927 555.88 141.944 553.393 132.293 549.745C131.7 549.509 131.084 549.296 130.491 549.059L128.689 548.324L127.788 547.969L126.91 547.59L125.132 546.809C122.784 545.743 120.437 544.63 118.16 543.398C115.86 542.19 113.631 540.864 111.402 539.514C110.311 538.804 109.197 538.117 108.13 537.359C107.584 536.98 107.039 536.625 106.517 536.246L104.929 535.085C102.842 533.499 100.803 531.888 98.8581 530.135L98.123 529.496L97.4116 528.833C96.9374 528.383 96.4394 527.933 95.9889 527.483L94.5898 526.086C94.3527 525.849 94.1393 525.612 93.9022 525.375L93.2382 524.664C92.3371 523.717 91.4835 522.722 90.6061 521.728C89.7761 520.709 88.9225 519.715 88.14 518.649C87.3337 517.63 86.5749 516.541 85.7924 515.475C85.0573 514.386 84.2985 513.296 83.6346 512.183C82.9232 511.07 82.2829 509.933 81.619 508.796C81.0025 507.636 80.3622 506.499 79.7931 505.315C79.2003 504.154 78.6549 502.947 78.1095 501.739C77.6115 500.531 77.0662 499.323 76.6156 498.091C76.1414 496.86 75.7145 495.628 75.2877 494.397C75.0743 493.781 74.8846 493.142 74.6949 492.526C74.6 492.218 74.5052 491.91 74.4103 491.578L74.1495 490.631C73.4381 488.121 72.8453 485.563 72.3711 483.005L72.0154 481.087L71.7071 479.144C71.6122 478.505 71.5174 477.866 71.4463 477.202C71.3751 476.563 71.2803 475.9 71.2091 475.26L71.0194 473.318C70.9483 472.679 70.9246 472.016 70.8772 471.376C70.7823 470.074 70.7349 468.795 70.6875 467.492C70.6163 464.911 70.5926 462.305 70.7112 459.724C70.7349 458.421 70.8297 457.142 70.9009 455.863C70.9483 455.224 70.9957 454.584 71.0431 453.945C71.0906 453.306 71.138 452.666 71.2091 452.027L71.4225 450.108C71.4937 449.469 71.5885 448.829 71.6597 448.19C71.7545 447.55 71.8257 446.911 71.9205 446.272L72.2051 444.353C72.2999 443.714 72.3948 443.098 72.5133 442.482L72.8216 440.635L73.4381 436.916C73.865 434.43 74.3155 431.967 74.766 429.503L76.1651 422.09L77.6353 414.701L79.1292 407.336L82.117 392.604C83.1129 387.702 84.1562 382.823 85.2233 377.968L86.0295 374.321L86.8595 370.673C87.4049 368.257 87.974 365.818 88.5431 363.402C89.1122 360.987 89.705 358.571 90.2978 356.155C90.8906 353.739 91.5309 351.324 92.1711 348.908C92.8114 346.492 93.499 344.076 94.1867 341.684C94.8981 339.269 95.6095 336.877 96.4631 334.485V334.461C96.724 333.75 97.4828 333.395 98.1941 333.632C98.7395 333.821 99.0952 334.342 99.0952 334.887C99.1189 337.421 99.0241 339.955 98.9055 342.466C98.7632 344.976 98.5498 347.487 98.3127 349.997C98.0756 352.508 97.7673 354.995 97.4353 357.481C97.1034 359.968 96.724 362.455 96.3208 364.942C95.894 367.405 95.4672 369.892 95.0166 372.355C94.5424 374.818 94.0681 377.281 93.5702 379.72C92.5505 384.623 91.4597 389.502 90.3215 394.381C89.207 399.259 88.0688 404.115 87.0018 408.97C86.7172 410.178 86.4801 411.409 86.2192 412.617L85.4604 416.264L84.014 423.583L82.6386 430.901C82.2118 433.34 81.7613 435.78 81.3344 438.243L80.7179 441.914L80.4096 443.761C80.3148 444.377 80.1962 444.993 80.1251 445.585L79.8643 447.385C79.7694 447.977 79.6983 448.593 79.6271 449.185C79.556 449.777 79.4611 450.392 79.4137 450.985L79.224 452.785C79.1529 453.377 79.1054 453.992 79.058 454.584C79.0106 455.177 78.9632 455.792 78.9157 456.384C78.8446 457.592 78.7498 458.8 78.726 460.008C78.6312 462.424 78.6549 464.816 78.7023 467.232C78.7498 468.439 78.7972 469.624 78.892 470.831C78.9395 471.424 78.9632 472.039 79.0343 472.631L79.2003 474.431C79.2477 475.023 79.3426 475.616 79.4137 476.208C79.4848 476.8 79.556 477.392 79.6508 477.984L79.9117 479.76L80.2437 481.513C80.6942 483.858 81.2159 486.179 81.8798 488.476L82.117 489.328C82.1881 489.613 82.2829 489.897 82.3778 490.181C82.5675 490.749 82.7335 491.318 82.9232 491.886C83.3026 492.999 83.682 494.136 84.1325 495.249C84.5356 496.363 85.0099 497.452 85.4842 498.541C85.9821 499.607 86.4564 500.697 87.0018 501.762C87.5234 502.828 88.0925 503.87 88.6617 504.912C89.2545 505.931 89.8473 506.973 90.4875 507.968C91.1041 508.986 91.7917 509.957 92.432 510.928C93.1196 511.875 93.8073 512.87 94.5424 513.794C95.2538 514.741 96.0126 515.641 96.7714 516.565C97.5539 517.441 98.3127 518.365 99.1427 519.217L99.7592 519.857C99.9489 520.07 100.162 520.283 100.376 520.496L101.632 521.751C102.059 522.178 102.486 522.557 102.937 522.983L103.577 523.599L104.241 524.191C105.996 525.778 107.893 527.27 109.79 528.714L111.236 529.78C111.71 530.135 112.208 530.467 112.706 530.799C113.679 531.485 114.698 532.125 115.718 532.764C117.757 534.02 119.82 535.251 121.954 536.364C124.065 537.501 126.246 538.543 128.452 539.538L130.111 540.272L130.941 540.627L131.771 540.959L133.455 541.646C134.024 541.859 134.593 542.072 135.162 542.285C144.244 545.719 153.753 548.088 163.38 549.722C168.218 550.551 173.079 551.167 177.964 551.64L179.789 551.806L181.639 551.948C182.872 552.043 184.081 552.138 185.314 552.209C187.757 552.374 190.223 552.469 192.737 552.588L196.483 552.753L200.206 552.895C202.672 552.99 205.162 553.038 207.628 553.085C212.56 553.156 217.493 553.109 222.377 552.872C232.147 552.398 241.822 551.119 250.951 548.301C252.089 547.969 253.228 547.567 254.342 547.188C255.457 546.761 256.571 546.382 257.662 545.909C258.776 545.482 259.843 544.985 260.934 544.488L262.523 543.706L262.926 543.517L263.329 543.304L264.112 542.901L264.894 542.498C265.155 542.356 265.416 542.214 265.677 542.072C266.198 541.788 266.696 541.48 267.218 541.196L268.736 540.272L269.115 540.035L269.494 539.775L270.253 539.277L271.795 538.283L273.312 537.264C274.332 536.577 275.328 535.867 276.324 535.18C284.267 529.543 291.666 523.196 297.831 515.878C298.234 515.428 298.59 514.954 298.969 514.481L299.538 513.794L299.823 513.438L300.084 513.083C300.795 512.136 301.53 511.188 302.194 510.194C303.593 508.252 304.826 506.239 306.036 504.178C308.383 500.057 310.399 495.723 312.011 491.223C315.212 482.223 316.92 472.679 317.536 462.992V462.921L317.56 462.661C317.773 460.766 318.058 458.919 318.177 457L318.295 455.579L318.343 454.869L318.366 454.158L318.485 451.292C318.556 447.432 318.532 443.572 318.295 439.687C317.892 431.919 317.038 424.127 315.876 416.359C314.714 408.591 313.292 400.846 311.703 393.125C310.114 385.404 308.359 377.684 306.486 370.01C302.763 354.639 298.566 339.34 294.322 324.04L291.144 312.553L289.555 306.775L288.773 303.862C288.512 302.891 288.275 301.896 288.038 300.925C286.117 293.133 284.386 285.27 283.058 277.312C282.394 273.333 281.825 269.307 281.374 265.281L281.208 263.765L281.066 262.249L280.924 260.734L280.805 259.218L280.758 258.46L280.734 258.081L280.711 257.892C280.711 257.868 280.711 257.868 280.711 257.868C280.711 257.797 280.687 257.702 280.616 257.56C280.545 257.418 280.473 257.228 280.307 257.015C280.236 256.921 280.141 256.802 280.047 256.684C279.928 256.565 279.857 256.447 279.738 256.328C279.288 255.855 278.695 255.357 278.031 254.884C277.367 254.41 276.632 253.96 275.873 253.534C274.332 252.681 272.672 251.9 270.941 251.189C267.479 249.768 263.803 248.608 260.081 247.589C252.611 245.552 244.928 244.084 237.174 242.9C229.42 241.739 221.595 240.934 213.77 240.413C209.857 240.152 205.921 239.987 202.008 239.892C198.072 239.797 194.159 239.75 190.247 239.797C182.398 239.892 174.573 240.247 166.795 240.934C159.017 241.621 151.311 242.663 143.77 244.273C140 245.102 136.277 246.05 132.649 247.21C130.823 247.779 129.044 248.418 127.29 249.105C125.535 249.815 123.828 250.55 122.144 251.402L123.116 250.526C121.907 251.994 120.697 253.463 119.488 254.931C118.279 256.399 117.046 257.844 115.789 259.289C113.299 262.178 110.786 265.044 108.177 267.839C107.679 268.383 106.826 268.407 106.28 267.91C105.569 267.412 105.498 266.749 105.782 266.205Z" fill="#0B3D91"/>
<path d="M142.157 601.779C134.878 601.779 127.693 601.234 120.674 600.168C106.233 597.966 92.4557 593.489 79.722 586.858C78.2755 586.1 77.7064 584.324 78.4652 582.856C79.224 581.411 81.0025 580.842 82.4727 581.6C109.908 595.905 137.367 596.9 155.555 595.218C175.379 593.395 188.848 588.066 188.99 588.019C190.508 587.403 192.239 588.137 192.831 589.676C193.448 591.192 192.713 592.921 191.195 593.513C190.626 593.75 176.944 599.15 156.314 601.092C151.571 601.542 146.853 601.779 142.157 601.779Z" fill="#0B3D91"/>
<path d="M210.924 514.433C210.687 511.023 214.766 598.629 222.733 653.978C228.448 693.695 264.87 697.816 323.132 693.719C344.569 692.203 361.002 685.808 359.342 668.898C357.113 646.162 323.796 637.541 323.796 637.541C323.796 637.541 322.8 568.551 316.256 471.471" fill="white"/>
<g opacity="0.25">
<path d="M210.924 514.362C210.924 515.878 215.003 600.168 222.757 654.001C228.471 693.719 264.894 697.864 323.132 693.719C344.569 692.203 361.002 685.832 359.342 668.898C359.294 668.496 359.247 668.117 359.199 667.738C352.607 672.048 342.719 674.203 331.456 674.985C273.194 679.106 236.771 674.985 231.056 635.268C225.128 594.129 215.501 538.757 211.043 514.41L210.924 514.457C210.924 514.41 210.924 514.386 210.924 514.362Z" fill="#0B3D91"/>
</g>
<path d="M209.596 514.528C209.596 514.528 209.572 514.433 209.596 514.528C214.979 514.22 211.09 514.41 212.299 514.386L212.347 514.552C212.371 514.67 212.394 514.789 212.418 514.883L212.584 515.57C212.703 516.044 212.797 516.494 212.892 516.968C213.082 517.891 213.272 518.815 213.461 519.762C213.817 521.61 214.149 523.481 214.434 525.352C215.026 529.07 215.524 532.812 215.927 536.53C216.141 538.401 216.307 540.272 216.497 542.143L216.757 544.938L216.995 547.733C217.303 551.475 217.611 555.217 217.872 558.959C218.417 566.443 218.82 573.927 219.318 581.411C219.579 585.153 219.84 588.895 220.125 592.637C220.433 596.379 220.765 600.097 221.097 603.839C222.472 618.76 224.013 633.681 226.005 648.483L226.385 651.254L226.574 652.651L226.669 653.338L226.764 654.001C227.025 655.754 227.381 657.459 227.784 659.164C228.614 662.551 229.823 665.772 231.412 668.756C233.001 671.74 234.992 674.44 237.387 676.809C239.782 679.153 242.557 681.143 245.568 682.777C248.58 684.411 251.852 685.737 255.243 686.756C258.634 687.798 262.143 688.556 265.724 689.172C269.305 689.764 272.933 690.166 276.584 690.45C280.236 690.735 283.935 690.9 287.611 690.971C295.009 691.114 302.455 690.9 309.901 690.545C313.624 690.356 317.347 690.143 321.093 689.882C322.99 689.764 324.769 689.622 326.571 689.432C328.373 689.243 330.175 689.006 331.93 688.722C333.708 688.437 335.439 688.082 337.17 687.679C338.878 687.277 340.561 686.779 342.174 686.211C345.399 685.074 348.41 683.559 350.71 681.569C353.01 679.58 354.504 677.14 355.073 674.298C355.358 672.877 355.429 671.361 355.311 669.798C355.216 668.235 354.907 666.696 354.433 665.204C353.485 662.219 351.801 659.425 349.619 656.914C347.438 654.404 344.782 652.178 341.913 650.236C339.02 648.27 335.89 646.588 332.641 645.12C331.029 644.386 329.369 643.699 327.685 643.083C326.855 642.775 326.002 642.467 325.172 642.207C324.745 642.065 324.318 641.946 323.915 641.804L323.298 641.615L322.729 641.449L319.765 640.62L319.718 637.612C319.599 630.72 319.433 623.805 319.244 616.889L318.935 606.515L318.58 596.142C318.105 582.311 317.536 568.479 316.896 554.648L316.398 544.275C316.232 540.817 316.066 537.359 315.876 533.901C315.497 526.986 315.212 520.07 314.667 513.178L314.264 507.991C314.122 506.262 313.979 504.534 313.861 502.805C313.624 499.347 313.481 495.889 313.41 492.431C313.339 488.973 313.339 485.492 313.553 482.01C313.647 480.258 313.813 478.529 314.003 476.776C314.216 475.024 314.454 473.271 314.857 471.519C315.023 470.761 315.782 470.287 316.517 470.476C316.991 470.595 317.37 470.926 317.513 471.353C318.129 473.058 318.603 474.763 319.03 476.468C319.457 478.174 319.836 479.879 320.168 481.608C320.809 485.042 321.307 488.476 321.639 491.934C321.994 495.392 322.255 498.849 322.445 502.307C322.634 505.765 322.729 509.247 322.848 512.704C322.919 514.433 322.966 516.162 323.061 517.891C323.132 519.62 323.251 521.349 323.346 523.078L323.891 533.475C324.081 536.933 324.247 540.391 324.413 543.872L324.911 554.269C325.551 568.124 326.12 581.979 326.594 595.834L326.95 606.231L327.258 616.628C327.448 623.568 327.614 630.483 327.733 637.47L324.721 633.657L325.148 633.775L325.527 633.87L326.262 634.083C326.737 634.225 327.211 634.391 327.685 634.533C328.634 634.841 329.559 635.173 330.483 635.504C332.333 636.191 334.159 636.949 335.961 637.754C339.565 639.388 343.075 641.283 346.418 643.533C349.762 645.807 352.939 648.436 355.69 651.609C357.065 653.196 358.322 654.925 359.413 656.772C360.504 658.62 361.405 660.633 362.069 662.717C362.733 664.801 363.159 666.98 363.302 669.159C363.468 671.338 363.373 673.611 362.922 675.861C362.472 678.111 361.618 680.361 360.385 682.351C359.176 684.364 357.634 686.116 355.951 687.585C354.267 689.053 352.418 690.261 350.544 691.256C348.671 692.25 346.75 693.056 344.829 693.742C342.909 694.429 340.964 694.974 339.02 695.448C337.075 695.898 335.131 696.277 333.187 696.608C331.242 696.916 329.298 697.153 327.377 697.366C325.456 697.556 323.488 697.721 321.615 697.84C317.845 698.1 314.05 698.337 310.28 698.503C302.716 698.882 295.104 699.071 287.445 698.929C283.627 698.858 279.786 698.692 275.944 698.384C272.103 698.1 268.238 697.65 264.396 697.011C260.555 696.371 256.69 695.519 252.896 694.358C249.101 693.198 245.331 691.706 241.727 689.764C238.146 687.822 234.732 685.382 231.768 682.469C228.78 679.556 226.29 676.146 224.345 672.498C222.401 668.851 220.978 664.967 220.006 661.059C219.508 659.093 219.129 657.128 218.82 655.162L218.702 654.428L218.607 653.717L218.417 652.32L218.038 649.501C216.022 634.51 214.457 619.518 213.082 604.526L211.066 582.027C210.379 574.519 209.691 567.035 209.193 559.527C208.932 555.761 208.743 552.019 208.577 548.254L208.458 545.435L208.363 542.617C208.292 540.746 208.245 538.851 208.245 536.98C208.197 533.215 208.268 529.449 208.458 525.659C208.553 523.765 208.671 521.87 208.837 519.975C208.932 519.028 209.027 518.081 209.122 517.133C209.169 516.66 209.241 516.186 209.312 515.712L209.406 515.002C209.43 514.883 209.43 514.765 209.454 514.647L209.478 514.457C210.687 514.386 206.798 514.457 212.205 514.173C212.228 514.339 212.205 514.291 212.205 514.362C212.205 514.741 211.896 515.025 211.517 515.025C211.469 515.025 211.422 515.025 211.375 515.002L209.596 514.528Z" fill="#0B3D91"/>
<path d="M257.425 596.142C255.646 596.142 253.891 596.118 252.16 596.047C238.265 595.503 225.531 592.732 214.291 587.829C212.797 587.166 212.11 585.437 212.774 583.921C213.438 582.429 215.169 581.742 216.686 582.406C240.66 592.874 267.668 590.884 286.141 587.403C306.249 583.59 320.737 577.219 320.88 577.171C322.374 576.508 324.128 577.171 324.792 578.687C325.456 580.203 324.792 581.932 323.275 582.595C322.658 582.856 308.004 589.298 287.231 593.253C276.916 595.171 266.933 596.142 257.425 596.142Z" fill="#0B3D91"/>
<path d="M84.5357 633.468C84.6779 633.42 84.7491 633.42 84.8439 633.396L85.1048 633.325L85.6027 633.207C85.9347 633.136 86.2667 633.065 86.5987 633.018C87.2389 632.899 87.9029 632.781 88.5431 632.686C89.8236 632.496 91.1041 632.331 92.3846 632.189C94.9455 631.928 97.5065 631.786 100.044 631.762C105.142 631.691 110.193 632.047 115.172 632.828C116.429 633.018 117.662 633.231 118.895 633.468C119.512 633.586 120.128 633.728 120.745 633.846L121.67 634.036L122.594 634.249C125.037 634.817 127.432 635.528 129.803 636.286C134.522 637.849 139.122 639.767 143.485 642.041C138.838 640.383 134.095 639.128 129.305 638.228C126.91 637.825 124.515 637.446 122.097 637.233L121.195 637.138L120.294 637.067C119.702 637.02 119.085 636.973 118.492 636.949C117.283 636.902 116.074 636.831 114.888 636.831C110.074 636.736 105.284 637.067 100.565 637.778C98.2179 638.133 95.894 638.583 93.5939 639.128C92.4557 639.412 91.3175 639.72 90.203 640.052C89.6576 640.217 89.0885 640.383 88.5668 640.573C88.306 640.667 88.0214 640.762 87.7843 640.857C87.642 640.904 87.5235 640.952 87.4049 640.999L87.2152 641.07C87.1678 641.094 87.0966 641.117 87.0729 641.117C85.247 642.491 82.6387 642.136 81.2633 640.312C79.888 638.488 80.2437 635.883 82.0695 634.51C82.4964 634.202 82.9469 633.965 83.4212 633.823L84.5357 633.468Z" fill="#0B3D91"/>
<path d="M322.587 641.354C322.563 641.354 322.492 641.307 322.445 641.283L322.255 641.212L321.852 641.07C321.567 640.975 321.283 640.881 320.998 640.786C320.429 640.596 319.836 640.431 319.267 640.265C318.082 639.933 316.896 639.625 315.687 639.341C313.268 638.773 310.826 638.323 308.336 637.967C303.38 637.257 298.353 636.902 293.278 636.996C288.227 637.044 283.153 637.541 278.102 638.394C273.075 639.27 268.072 640.549 263.187 642.207C267.811 639.933 272.648 637.991 277.628 636.428C282.608 634.912 287.729 633.728 292.946 632.994C298.163 632.236 303.451 631.904 308.786 631.975C311.442 632.023 314.122 632.165 316.801 632.425C318.129 632.568 319.481 632.733 320.832 632.923C321.496 633.018 322.184 633.136 322.848 633.254C323.18 633.325 323.536 633.373 323.868 633.444L324.389 633.562L324.65 633.633C324.745 633.657 324.84 633.681 324.958 633.704L325.717 633.918C327.899 634.51 329.179 636.76 328.586 638.938C327.994 641.117 325.741 642.396 323.559 641.804C323.251 641.709 322.895 641.544 322.587 641.354Z" fill="#0B3D91"/>
<g opacity="0.7">
<path d="M119.021 233.205C124.803 230.951 127.36 223.671 124.732 216.946C122.103 210.22 115.285 206.595 109.502 208.85C103.72 211.104 101.163 218.384 103.792 225.109C106.42 231.835 113.239 235.46 119.021 233.205Z" fill="white"/>
</g>
<path d="M105.804 450.287C112.389 443.711 112.389 433.049 105.804 426.473C99.2204 419.897 88.5455 419.897 81.9615 426.473C75.3774 433.049 75.3774 443.711 81.9615 450.287C88.5455 456.863 99.2204 456.863 105.804 450.287Z" fill="white"/>
<g opacity="0.35">
<path d="M77.0424 438.361C77.0424 447.645 84.583 455.201 93.8784 455.201C103.174 455.201 110.738 447.669 110.738 438.361C110.738 435.804 110.169 433.341 109.126 431.162C106.422 436.846 100.613 440.801 93.8784 440.801C87.1677 440.801 81.3581 436.846 78.6549 431.162C77.6115 433.364 77.0424 435.804 77.0424 438.361Z" fill="#0B3D91"/>
</g>
<path d="M93.8784 459.203C82.3778 459.203 73.0113 449.848 73.0113 438.361C73.0113 426.875 82.3778 417.52 93.8784 417.52C105.379 417.52 114.746 426.875 114.746 438.361C114.746 449.872 105.379 459.203 93.8784 459.203ZM93.8784 425.549C86.8121 425.549 81.0499 431.304 81.0499 438.361C81.0499 445.419 86.8121 451.174 93.8784 451.174C100.945 451.174 106.707 445.419 106.707 438.361C106.707 431.304 100.945 425.549 93.8784 425.549Z" fill="#0B3D91"/>
<g opacity="0.25">
<path d="M321.307 463.277C321.307 463.324 321.307 463.348 321.307 463.395C307.624 468.44 280.616 473.745 230.368 469.505L229.847 478.316C229.23 488.831 220.101 496.931 209.572 496.292L120.674 491.01C110.145 490.371 102.036 481.276 102.652 470.761L103.245 460.932L105.474 423.512C106.09 412.972 115.22 404.896 125.748 405.512L214.647 410.794C215.951 410.865 217.232 411.078 218.441 411.409C227.049 413.707 233.19 421.83 232.645 431.043L232.076 440.659C232.076 440.659 290.765 443.69 321.425 430.522C321.449 430.783 321.473 431.067 321.496 431.327C322.611 443.145 322.658 454.016 321.307 463.277Z" fill="#0B3D91"/>
</g>
<path d="M111.449 480.116L200.348 485.397C210.877 486.037 220.006 477.937 220.623 467.421L223.444 420.172C223.99 410.959 217.848 402.836 209.241 400.539C208.031 400.207 206.751 399.994 205.447 399.923L116.548 394.641C106.019 394.002 96.8899 402.102 96.2734 412.617L94.0444 450.037L93.4516 459.866C92.8113 470.382 100.921 479.5 111.449 480.116Z" fill="white"/>
<g opacity="0.25">
<path d="M111.449 480.116L200.348 485.397C210.877 486.037 220.006 477.937 220.623 467.421L223.444 420.172C223.99 410.959 217.848 402.836 209.24 400.539C204 403.594 200.657 405.536 200.657 405.536C194.064 443.217 182.137 461.477 134.925 459.44C114.556 458.564 101.893 454.703 94.0207 450.037L93.4279 459.866C92.8113 470.382 100.921 479.5 111.449 480.116Z" fill="#0B3D91"/>
</g>
<path d="M201.51 489.447C201.06 489.447 200.585 489.423 200.111 489.4L111.212 484.118C98.455 483.36 88.6853 472.371 89.4441 459.629L92.266 412.357C92.6216 406.199 95.396 400.539 100.044 396.418C104.691 392.297 110.643 390.236 116.809 390.591L205.707 395.873C211.873 396.228 217.54 398.999 221.666 403.641C225.792 408.283 227.855 414.228 227.499 420.386L224.677 467.658C223.895 479.95 213.675 489.447 201.51 489.447ZM200.585 481.395C204.617 481.632 208.505 480.282 211.541 477.582C214.576 474.882 216.378 471.187 216.615 467.161L219.437 419.888C219.674 415.862 218.322 411.978 215.619 408.946C212.916 405.915 209.217 404.115 205.186 403.878L116.287 398.597C112.256 398.36 108.367 399.71 105.332 402.41C102.296 405.11 100.494 408.804 100.257 412.83L97.4353 460.103C96.9373 468.44 103.316 475.616 111.663 476.113L200.585 481.395Z" fill="#0B3D91"/>
<path d="M107.893 479.547C109.031 479.855 110.216 480.045 111.449 480.116L200.348 485.397C208.055 485.847 215.026 481.632 218.441 475.19C219.698 472.845 220.457 470.216 220.623 467.398L221.879 446.414L222.306 439.498L223.468 420.172C224.108 409.657 215.975 400.539 205.47 399.923L186.263 398.786C195.013 400.989 201.297 409.183 200.751 418.491L199.234 444.022L197.93 465.763C197.289 476.279 188.16 484.379 177.655 483.739L107.893 479.547Z" fill="white"/>
<g opacity="0.25">
<path d="M107.893 479.547C109.031 479.855 110.216 480.045 111.449 480.116L200.348 485.397C210.877 486.037 220.006 477.937 220.623 467.421L222.306 439.498C219.769 444.306 215.406 450.109 208.932 450.369C205.375 450.511 202.056 447.764 199.21 443.998L197.906 465.74C197.266 476.255 188.136 484.355 177.632 483.716L107.893 479.547Z" fill="#0B3D91"/>
</g>
<path d="M201.51 489.447C201.036 489.447 200.585 489.423 200.111 489.4L111.212 484.118C109.766 484.047 108.296 483.81 106.873 483.431L108.13 475.545L177.869 479.689C181.876 479.926 185.765 478.576 188.824 475.876C191.859 473.176 193.661 469.482 193.898 465.456L196.72 418.183C197.147 410.936 192.333 404.375 185.267 402.599L186.476 394.712L205.684 395.849C218.465 396.607 228.234 407.596 227.452 420.362L224.63 467.611C224.274 473.769 221.5 479.429 216.852 483.55C212.584 487.387 207.178 489.447 201.51 489.447ZM195.013 481.063L200.585 481.395C204.593 481.631 208.482 480.282 211.541 477.582C214.576 474.882 216.378 471.187 216.615 467.161L219.437 419.888C219.935 411.552 213.556 404.375 205.209 403.854L200.253 403.57C203.384 407.809 205.067 413.115 204.735 418.68L201.913 465.953C201.558 471.708 199.139 477.037 195.013 481.063Z" fill="#0B3D91"/>
<path d="M164.234 440.398C164.139 442.151 165.846 456.385 165.846 456.385C165.846 456.385 170.328 456.622 175.829 456.929C182.706 457.308 188.634 450.487 189.108 441.748C189.583 432.985 184.39 425.596 177.537 425.217C172.913 424.956 167.554 424.672 167.554 424.672C167.554 424.672 164.376 437.556 164.234 440.398Z" fill="#22A7F0"/>
<g opacity="0.35">
<path d="M164.234 440.398C164.139 442.151 165.846 456.385 165.846 456.385C165.846 456.385 170.328 456.622 175.829 456.929C182.706 457.308 188.634 450.487 189.108 441.748C189.583 432.985 184.39 425.596 177.537 425.217C172.913 424.956 167.554 424.672 167.554 424.672C167.554 424.672 164.376 437.556 164.234 440.398Z" fill="#0B3D91"/>
</g>
<path d="M176.351 459.298C176.138 459.298 175.901 459.298 175.687 459.274L163.736 458.635L163.499 456.645C163.096 453.258 161.791 442.056 161.886 440.256C162.052 437.272 164.945 425.43 165.254 424.08L165.728 422.185L177.655 422.825C181.71 423.038 185.409 425.217 188.018 428.959C190.508 432.512 191.741 437.082 191.48 441.843C191.219 446.603 189.512 451.032 186.642 454.3C183.797 457.545 180.169 459.298 176.351 459.298ZM167.957 454.135L175.924 454.561C178.509 454.703 181.022 453.495 183.062 451.198C185.22 448.735 186.524 445.324 186.713 441.606C186.903 437.888 185.978 434.383 184.105 431.683C182.35 429.172 179.955 427.704 177.371 427.562L169.356 427.135C168.17 432.062 166.653 438.835 166.558 440.517C166.558 441.488 167.222 447.859 167.957 454.135Z" fill="#0B3D91"/>
<path d="M179.151 441.179C179.622 432.414 174.439 425.01 167.573 424.642C160.707 424.273 154.759 431.08 154.287 439.844C153.816 448.609 158.999 456.012 165.865 456.381C172.731 456.749 178.679 449.943 179.151 441.179Z" fill="#22A7F0"/>
<g opacity="0.35">
<path d="M165.846 456.385C172.699 456.764 178.651 449.943 179.125 441.204C179.22 439.19 179.054 437.248 178.604 435.448C176.944 442.411 171.727 447.361 165.846 447.053C160.558 446.769 156.266 442.317 154.796 436.277C154.512 437.414 154.346 438.622 154.275 439.877C153.777 448.617 158.97 456.006 165.846 456.385Z" fill="#0B3D91"/>
</g>
<g opacity="0.7">
<path d="M154.464 443.998C155.626 436.183 161.199 430.404 167.554 430.735C173.292 431.043 177.869 436.277 178.936 443.146C179.031 442.53 179.102 441.867 179.125 441.203C179.6 432.441 174.407 425.051 167.554 424.672C160.677 424.293 154.749 431.114 154.275 439.854C154.18 441.275 154.251 442.672 154.464 443.998Z" fill="white"/>
</g>
<path d="M166.368 458.777C166.155 458.777 165.917 458.777 165.704 458.753C157.547 458.327 151.334 449.777 151.88 439.735C152.14 434.975 153.848 430.546 156.717 427.277C159.705 423.843 163.617 422.091 167.672 422.304C171.727 422.517 175.426 424.696 178.035 428.438C180.524 431.991 181.758 436.561 181.497 441.322C181.236 446.082 179.529 450.511 176.659 453.779C173.838 457.024 170.209 458.777 166.368 458.777ZM167.008 427.017C164.566 427.017 162.195 428.201 160.274 430.404C158.116 432.867 156.812 436.277 156.622 439.996C156.219 447.432 160.416 453.732 165.965 454.04C168.55 454.182 171.063 452.974 173.102 450.677C175.26 448.214 176.564 444.803 176.754 441.085C176.944 437.367 176.019 433.862 174.146 431.162C172.391 428.651 169.996 427.183 167.411 427.041C167.269 427.017 167.151 427.017 167.008 427.017Z" fill="#0B3D91"/>
<path d="M139.098 484.426C139.051 484.426 139.027 484.426 138.98 484.426C137.32 484.355 136.016 482.981 136.087 481.324L136.917 458.398C137.107 452.808 135.162 447.432 131.439 443.264L130.277 441.961C125.369 436.49 122.832 429.125 123.306 421.807L125.037 395.162C125.155 393.505 126.578 392.249 128.238 392.368C129.898 392.486 131.155 393.907 131.036 395.565L129.305 422.209C128.926 427.941 130.918 433.696 134.759 437.959L135.921 439.261C140.711 444.59 143.201 451.482 142.94 458.635L142.11 481.56C142.063 483.147 140.711 484.426 139.098 484.426Z" fill="#0B3D91"/>
<path d="M332.689 433.364C331.859 441.559 324.626 445.68 324.626 445.68C324.626 445.68 306.083 465.787 221.168 458.611C221.168 458.611 207.177 443.193 222.899 429.764C222.899 429.764 292.591 433.364 319.765 415.672C326.002 411.599 333.661 423.891 332.689 433.364Z" fill="white"/>
<g opacity="0.25">
<path d="M332.689 433.364C331.835 441.559 324.603 445.68 324.603 445.68C324.603 445.68 306.059 465.787 221.144 458.611C221.144 458.611 209.786 446.106 219.034 433.814C219.034 433.885 219.034 433.956 219.058 434.027C219.674 441.393 225.768 447.101 233.143 447.598C310.873 452.808 328.183 434.027 328.183 434.027C328.183 434.027 330.507 432.701 332.689 430.048C332.807 431.162 332.807 432.275 332.689 433.364Z" fill="#0B3D91"/>
</g>
<path d="M255.551 464.177C244.857 464.177 233.261 463.656 220.812 462.59L219.247 462.448L218.18 461.287C217.872 460.956 210.806 453.022 211.446 442.885C211.825 436.822 214.789 431.375 220.267 426.709L221.476 425.667L223.065 425.738C223.753 425.762 291.784 429.054 317.536 412.286C320.524 410.344 324.105 410.344 327.353 412.333C333.21 415.909 337.479 425.714 336.649 433.743C335.748 442.601 329.013 447.574 327.069 448.83C325.433 450.345 319.599 454.916 305.727 458.682C292.306 462.353 275.494 464.177 255.551 464.177ZM223.231 454.751C265.463 458.161 290.267 454.585 303.688 450.961C317.228 447.29 321.639 443.003 321.686 442.956L322.136 442.482L322.634 442.198C322.919 442.009 328.112 438.764 328.705 432.938L332.689 433.34L328.705 432.938C329.25 427.514 326.144 420.978 323.204 419.201C322.421 418.728 322.184 418.87 321.947 419.036C310.09 426.756 289.721 431.564 261.385 433.364C244.051 434.454 229.254 434.051 224.369 433.862C221.358 436.775 219.698 439.972 219.484 443.382C219.129 448.285 221.785 452.737 223.231 454.751Z" fill="#0B3D91"/>
<path d="M60.5859 396.323C66.8223 389.573 77.9435 376.476 97.0322 398.549C112.256 416.122 108.248 459.44 93.2619 470.05C85.2233 475.734 76.7342 466 75.4063 477.913C75.4063 477.913 57.8352 466.095 53.7566 449.303C46.9511 421.214 56.3413 400.918 60.5859 396.323Z" fill="white"/>
<g opacity="0.25">
<path d="M93.2619 470.05C85.2233 475.734 76.7579 465.977 75.4062 477.913C75.4062 477.913 57.8352 466.095 53.7566 449.303C50.8636 437.39 50.8873 426.875 52.2153 418.349C52.5947 420.93 53.4009 423.512 53.7566 426.283C53.9937 428.296 54.3257 430.191 54.6814 431.967C57.3135 444.922 70.1183 453.187 83.0891 450.653C86.6698 449.943 90.3215 449.114 93.2619 447.03C99.6643 442.482 104.051 431.991 105.806 420.078C108.794 439.451 103.695 462.685 93.2619 470.05Z" fill="#0B3D91"/>
</g>
<path d="M75.4062 481.916C74.6237 481.916 73.8412 481.679 73.1535 481.229C72.3947 480.708 54.2308 468.345 49.844 450.227C45.9788 434.264 47.283 421.238 49.0852 413.115C51.2905 403.12 55.0608 396.347 57.598 393.599L58.0248 393.126C61.8189 389.005 68.1502 382.113 77.3744 382.255C84.7727 382.373 92.1948 386.826 100.044 395.92C110.098 407.525 111.805 427.159 110.027 441.653C109.197 448.451 107.561 454.869 105.284 460.15C102.7 466.142 99.4509 470.548 95.562 473.295C90.9143 476.587 86.1243 476.09 82.9469 475.758C81.9746 475.663 80.5519 475.521 80.0539 475.64C79.9353 475.829 79.5797 476.516 79.3662 478.339C79.2003 479.737 78.3466 480.945 77.0661 481.537C76.5682 481.797 75.9753 481.916 75.4062 481.916ZM63.5262 399.047C61.89 400.823 58.8074 406.483 56.9341 414.867C55.3216 422.162 54.136 433.885 57.6454 448.356C60.1116 458.516 68.2687 466.853 73.3669 471.234C74.0546 470.192 75.0031 469.221 76.2836 468.558C78.7497 467.279 81.4292 467.563 83.7768 467.8C86.4326 468.084 88.7565 468.321 90.9143 466.782C96.2971 462.969 100.565 452.974 102.059 440.706C104.004 424.625 100.826 409.112 93.9732 401.178C87.7842 394.026 82.1643 390.378 77.2558 390.284C71.6359 390.189 67.3676 394.831 63.953 398.549L63.5262 399.047Z" fill="#0B3D91"/>
<g opacity="0.25">
<path d="M260.033 316.059L272.34 332.708C252.445 343.698 229.871 350.613 205.684 352.295C181.473 353.976 158.14 350.234 136.893 342.087C121.978 336.379 108.106 328.516 95.6568 318.83C92.0525 316.035 88.5668 313.075 85.2233 309.996C91.8865 301.635 97.3642 295.288 100.423 291.807C102.249 282.783 104.312 274.304 106.849 266.986L107.134 266.583L120.271 248.584C163.119 223.716 283.153 238.542 284.457 257.584C285.311 269.97 287.516 282.144 290.29 294.222C290.812 296.425 291.334 298.627 291.879 300.806C275.019 311.772 260.033 316.059 260.033 316.059Z" fill="#0B3D91"/>
</g>
<path d="M38.3908 215.214C40.1929 215.214 41.6868 213.745 41.6868 211.945L41.8291 117.495C41.8291 115.695 40.3589 114.203 38.5568 114.203C19.5392 114.179 4.10226 129.55 4.05484 148.544L4.00741 180.754C3.9837 199.748 19.3732 215.166 38.3908 215.214Z" fill="white"/>
<path d="M38.4145 215.924C38.3908 215.924 38.3908 215.924 38.4145 215.924V215.214V215.924C29.0243 215.9 20.2032 212.253 13.5636 205.598C6.92406 198.943 3.29602 190.133 3.29602 180.754L3.34345 148.544C3.36716 139.165 7.01891 130.355 13.6822 123.724C20.3454 117.092 29.1665 113.469 38.5568 113.469C39.6238 113.469 40.6198 113.895 41.3786 114.653C42.1374 115.411 42.5405 116.405 42.5405 117.471L42.3982 211.922C42.3982 212.987 41.9714 213.982 41.2126 214.74C40.4775 215.521 39.4815 215.924 38.4145 215.924ZM38.5093 114.937C29.5222 114.937 21.0805 118.418 14.7018 124.766C8.3231 131.113 4.81363 139.568 4.78992 148.568L4.74249 180.778C4.71878 189.777 8.22825 198.232 14.5832 204.603C20.9382 210.974 29.4037 214.479 38.4145 214.503C39.1021 214.503 39.7424 214.243 40.2166 213.745C40.6909 213.272 40.9754 212.632 40.9754 211.945L41.1177 117.495C41.1177 116.808 40.8569 116.168 40.3589 115.695C39.8847 115.221 39.2444 114.937 38.5568 114.937C38.533 114.937 38.5093 114.937 38.5093 114.937Z" fill="#0B3D91"/>
<g opacity="0.35">
<path d="M4.03113 165.644L4.00741 180.754C3.9837 199.748 19.3732 215.166 38.3908 215.214C40.1929 215.214 41.6631 213.745 41.6868 211.922L41.7343 186.817C41.2126 187.954 40.0744 188.759 38.7465 188.759H36.4938C21.4836 188.735 8.70252 179.096 4.03113 165.644Z" fill="#0B3D91"/>
</g>
<path d="M38.4145 219.216C38.3908 219.216 38.3908 219.216 38.4145 219.216C28.1232 219.192 18.4721 215.19 11.2398 207.919C3.96 200.648 -0.0237295 191.009 -1.68182e-05 180.754L0.0474085 148.544C0.0711212 138.289 4.07856 128.65 11.3583 121.403C18.6144 114.179 28.2655 110.2 38.5093 110.2C38.5331 110.2 38.5568 110.2 38.5805 110.2C40.5249 110.2 42.3508 110.958 43.7261 112.332C45.1015 113.705 45.8603 115.553 45.8603 117.495L45.718 211.945C45.718 213.887 44.9592 215.711 43.5839 217.085C42.1848 218.458 40.3589 219.216 38.4145 219.216ZM37.8217 118.229C21.3888 118.584 8.10971 132.06 8.086 148.568L8.03858 180.778C8.01486 188.901 11.1686 196.527 16.9071 202.282C22.4796 207.848 29.8305 211.022 37.6794 211.211L37.8217 118.229Z" fill="#0B3D91"/>
<path d="M350.663 114.7C348.861 114.7 347.367 116.168 347.367 117.968L347.225 212.419C347.225 214.219 348.695 215.711 350.497 215.711C369.514 215.735 384.951 200.364 384.999 181.37L385.046 149.16C385.094 130.166 369.68 114.747 350.663 114.7Z" fill="white"/>
<path d="M350.568 216.421C350.544 216.421 350.521 216.421 350.521 216.421C349.454 216.421 348.458 215.995 347.699 215.237C346.94 214.479 346.537 213.485 346.537 212.419L346.679 117.968C346.679 115.766 348.481 113.966 350.687 113.966C360.077 113.99 368.898 117.637 375.537 124.292C382.177 130.947 385.805 139.757 385.805 149.136L385.758 181.346C385.686 200.696 369.918 216.421 350.568 216.421ZM350.663 115.434C349.264 115.434 348.102 116.571 348.102 117.992L347.96 212.443C347.96 213.129 348.22 213.769 348.718 214.243C349.193 214.716 349.833 215 350.521 215C350.544 215 350.568 215 350.568 215C369.135 215 384.264 199.938 384.287 181.37L384.335 149.16C384.359 140.16 380.849 131.705 374.494 125.334C368.139 118.963 359.674 115.434 350.663 115.434Z" fill="#0B3D91"/>
<g opacity="0.35">
<path d="M347.272 186.225L347.224 212.419C347.224 214.219 348.695 215.687 350.521 215.711C360.504 215.711 369.514 211.495 375.822 204.722C381.513 198.611 384.999 190.393 385.022 181.37L385.046 167.799C379.64 179.688 367.594 187.977 353.651 187.954H350.189C348.908 187.93 347.841 187.243 347.272 186.225Z" fill="#0B3D91"/>
</g>
<path d="M350.568 219.713C350.544 219.713 350.521 219.713 350.497 219.713C348.552 219.713 346.727 218.956 345.351 217.582C343.976 216.208 343.217 214.361 343.217 212.419L343.359 117.968C343.359 113.966 346.632 110.698 350.663 110.698C360.93 110.721 370.581 114.724 377.838 121.995C385.094 129.266 389.077 138.905 389.054 149.16L389.006 181.37C388.982 191.625 384.975 201.264 377.695 208.511C370.439 215.735 360.812 219.713 350.568 219.713ZM351.398 118.726L351.256 211.685C367.689 211.329 380.968 197.853 380.991 181.346L381.039 149.136C381.062 141.013 377.909 133.386 372.17 127.631C366.598 122.066 359.247 118.916 351.398 118.726Z" fill="#0B3D91"/>
<path d="M194.515 325.887C283.503 325.887 355.642 253.836 355.642 164.957C355.642 76.0773 283.503 4.02625 194.515 4.02625C105.527 4.02625 33.3874 76.0773 33.3874 164.957C33.3874 253.836 105.527 325.887 194.515 325.887Z" fill="white"/>
<path d="M194.278 326.622C176.422 326.622 158.899 323.709 142.015 317.906C122.215 311.109 104.146 300.688 88.2822 286.904C72.4184 273.12 59.5899 256.684 50.1048 238.045C40.3115 218.742 34.573 197.924 33.0554 176.159C31.5378 154.394 34.3359 132.984 41.3786 112.497C48.1841 92.7216 58.6177 74.6746 72.4184 58.8303C86.2192 42.9859 102.676 30.173 121.338 20.6996C140.64 10.9419 161.507 5.21043 183.299 3.69467C205.091 2.17892 226.527 4.97359 247.039 12.0076C266.839 18.8049 284.908 29.2257 300.771 43.0096C316.635 56.7935 329.464 73.2299 338.949 91.869C348.742 111.171 354.481 131.989 355.998 153.754C357.516 175.52 354.718 196.93 347.675 217.416C340.869 237.192 330.436 255.239 316.635 271.083C302.834 286.928 286.378 299.741 267.716 309.214C248.39 318.995 227.547 324.727 205.755 326.243C201.913 326.48 198.072 326.622 194.278 326.622ZM194.634 4.73675C190.911 4.73675 187.164 4.85517 183.394 5.11569C140.64 8.07615 101.609 27.4968 73.4855 59.7776C45.3623 92.0585 31.5141 133.363 34.4782 176.041C40.3589 260.426 110.975 325.177 194.396 325.177C198.119 325.177 201.866 325.058 205.636 324.798C293.871 318.664 360.67 242 354.552 153.849C348.671 69.4879 278.055 4.73675 194.634 4.73675Z" fill="#0B3D91"/>
<g opacity="0.35">
<path d="M33.7668 153.778C33.2451 161.12 33.2451 168.557 33.7668 176.112C39.9558 264.784 116.903 331.666 205.684 325.508C294.464 319.327 361.428 242.473 355.263 153.802C355.097 151.244 354.86 148.71 354.552 146.199C349.145 225.113 286.188 289.936 204.972 295.572C118.753 301.541 43.6787 238.637 33.7668 153.778Z" fill="#0B3D91"/>
</g>
<path d="M194.278 329.914C176.066 329.914 158.187 326.929 140.948 321.032C120.745 314.117 102.32 303.459 86.1244 289.415C69.9523 275.346 56.8392 258.578 47.1882 239.56C37.1814 219.879 31.3244 198.611 29.7831 176.42C28.2417 154.204 31.0873 132.344 38.2722 111.479C45.1963 91.3006 55.867 72.8984 69.9286 56.7224C84.0139 40.5701 100.802 27.4731 119.844 17.8338C139.549 7.79193 160.819 1.94206 183.062 0.402624C205.304 -1.13681 227.191 1.70523 248.082 8.88138C268.285 15.797 286.71 26.4547 302.906 40.4991C319.078 54.5672 332.191 71.3352 341.842 90.3532C351.848 110.034 357.705 131.302 359.247 153.494C360.788 175.709 357.943 197.569 350.758 218.435C343.834 238.613 333.163 257.015 319.101 273.191C305.016 289.343 288.227 302.441 269.186 312.08C249.481 322.074 228.187 327.924 205.968 329.464C202.056 329.772 198.143 329.914 194.278 329.914ZM194.634 8.02877C190.982 8.02877 187.33 8.14719 183.631 8.40771C141.754 11.3208 103.529 30.3388 75.999 61.9565C48.4212 93.5742 34.8576 134.026 37.7742 175.828C43.5127 258.46 112.683 321.885 194.396 321.885C198.048 321.885 201.7 321.766 205.399 321.506C291.832 315.514 357.255 240.389 351.256 154.086C345.493 71.43 276.347 8.02877 194.634 8.02877Z" fill="#0B3D91"/>
<path d="M34.573 180.209C36.2803 211.661 48.0892 240.295 66.8934 263.505C80.9787 280.912 136.585 309.664 203.123 306.656C264.823 303.862 319.149 267.981 331.29 249.152C347.462 224.048 356.093 194.301 354.386 162.849C349.857 79.6245 276.395 49.0252 188.089 53.8093C99.7591 58.5934 30.0439 96.9847 34.573 180.209Z" fill="#0B3D91"/>
<path d="M193.329 310.872C159.752 310.872 131.937 303.222 113.916 296.472C91.3411 288.017 72.1339 276.341 63.7633 266.015C43.7498 241.289 32.2729 211.708 30.5656 180.422C29.4274 159.652 32.8183 140.752 40.596 124.316C47.9233 108.827 59.2105 95.3979 74.1257 84.3849C101.277 64.3249 140.616 52.3883 187.852 49.8305C235.087 47.2726 275.494 54.8988 304.66 71.88C320.666 81.2113 333.353 93.3374 342.316 107.95C351.848 123.463 357.255 141.865 358.369 162.636C360.077 193.922 351.872 224.592 334.657 251.331C327.59 262.297 309.142 276.483 287.635 287.496C268.712 297.183 238.692 309.072 203.312 310.682C199.921 310.801 196.602 310.872 193.329 310.872ZM38.5805 179.972C40.1929 209.553 51.0533 237.571 69.9997 260.97C82.5912 276.507 136.134 305.662 202.933 302.654C236.889 301.114 265.724 289.675 283.959 280.344C307.103 268.502 322.706 255.05 327.899 246.973C344.189 221.656 351.967 192.643 350.355 163.062C348.292 125.168 331.55 96.8189 300.605 78.7956C272.79 62.596 233.949 55.3488 188.279 57.8119C142.608 60.2987 104.786 71.7142 78.892 90.8269C50.0811 112.095 36.5175 142.078 38.5805 179.972Z" fill="#0B3D91"/>
<g opacity="0.35">
<path d="M61.4395 100.869C42.8962 120.55 32.7471 146.768 34.573 180.185C36.2803 211.637 48.0892 240.271 66.8697 263.481C80.955 280.888 136.561 309.64 203.123 306.633C226.622 305.567 249.054 299.717 268.475 291.807C186.595 293.749 118.848 258.413 101.372 236.837C77.5404 207.422 62.554 171.067 60.3724 131.16C59.8033 120.503 60.1827 110.413 61.4395 100.869Z" fill="#111A28"/>
</g>
<path d="M44.3664 110.484C43.2993 110.484 42.2322 110.058 41.4497 109.229C40.1218 107.808 40.0269 105.653 41.1177 104.137C47.8521 93.5505 56.4361 83.8639 66.6563 75.3141C76.5919 67.0011 88.1399 59.7066 100.968 53.6672C113.489 47.7463 127.29 42.9859 141.968 39.5281C156.504 36.0939 171.94 33.915 187.828 33.0387C204 32.1624 219.745 32.6835 234.637 34.6019C249.671 36.5439 263.922 39.907 276.988 44.5964C290.338 49.3805 302.526 55.6093 313.244 63.0696C324.247 70.7432 333.779 79.7903 341.557 89.9743C342.909 91.6085 342.766 94.0005 341.201 95.4689C339.589 96.9847 337.028 96.8899 335.534 95.2558L338.474 92.5321L335.534 95.2558L335.392 95.1137L335.25 94.9479C306.439 57.1961 252.872 37.5386 188.279 41.0438C124.017 44.5253 72.8215 69.1564 47.7573 108.613L47.4727 109.04L47.0933 109.395C46.3345 110.129 45.3386 110.484 44.3664 110.484Z" fill="#0B3D91"/>
<path d="M446.296 245.837C443.569 302.63 384.738 359.305 311.656 375.22C309.379 375.718 307.079 376.168 304.779 376.594L272.34 332.708L260.033 316.059C260.033 316.059 275.019 311.772 291.95 300.83C297.665 297.112 303.617 292.659 309.284 287.33C324.057 273.428 336.246 259.336 346.466 245.505C363.468 222.437 374.992 200.056 383.932 180.28C394.081 157.804 426.069 165.004 408.925 207.919C408.901 207.895 447.458 221.324 446.296 245.837Z" fill="white"/>
<g opacity="0.25">
<path d="M446.296 245.837C443.569 302.63 384.738 359.305 311.656 375.221C309.379 375.718 307.079 376.168 304.779 376.594C304.779 376.594 287.919 367.334 287.919 364.184C287.919 358.902 296.645 360.466 306.178 359.566C362.472 354.142 435.91 294.033 446.106 241.787C446.296 243.089 446.343 244.463 446.296 245.837Z" fill="#0B3D91"/>
</g>
<path d="M259.677 314.756L266.696 310.896C269.02 309.617 271.344 308.314 273.62 307.012C275.921 305.709 278.197 304.383 280.45 303.033L282.133 302.014L283.817 300.996C284.931 300.309 286.022 299.599 287.137 298.888C291.524 296.046 295.768 293.014 299.823 289.77C300.345 289.367 300.819 288.941 301.341 288.538C301.839 288.136 302.336 287.709 302.834 287.283L304.305 286.028L305.751 284.725C305.988 284.512 306.225 284.299 306.486 284.062L307.221 283.375L308.668 282.002L311.561 279.254C313.529 277.454 315.355 275.536 317.228 273.641L320.026 270.799C320.951 269.828 321.828 268.857 322.729 267.862C326.357 263.978 329.796 259.928 333.21 255.831C339.992 247.637 346.3 239.063 352.18 230.205C358.038 221.324 363.468 212.158 368.447 202.756L370.297 199.203C370.914 198.019 371.53 196.835 372.123 195.651L373.901 192.075C374.186 191.483 374.494 190.89 374.779 190.275L375.632 188.475L377.363 184.851C377.932 183.643 378.478 182.435 379.047 181.204L379.877 179.38L380.304 178.457L380.802 177.414C381.489 176.041 382.296 174.691 383.197 173.412C385.023 170.854 387.323 168.533 390.097 166.78C391.496 165.904 393.014 165.17 394.626 164.625C396.239 164.081 397.946 163.773 399.701 163.702C401.455 163.631 403.258 163.867 404.989 164.365C406.72 164.886 408.356 165.691 409.802 166.757C411.249 167.823 412.506 169.078 413.525 170.475C414.545 171.872 415.327 173.365 415.944 174.88C416.56 176.396 416.987 177.935 417.295 179.475C417.604 181.014 417.77 182.554 417.841 184.046C417.912 185.562 417.912 187.054 417.793 188.522L417.77 189.067L417.722 189.612L417.627 190.701L417.485 191.79L417.414 192.335L417.319 192.88C416.418 198.635 414.711 204.059 412.648 209.245L410.253 203.964L410.822 204.177L411.344 204.366L412.363 204.769C413.027 205.03 413.691 205.314 414.355 205.598C415.659 206.166 416.964 206.758 418.244 207.351C420.805 208.582 423.342 209.908 425.808 211.377C430.741 214.29 435.483 217.653 439.704 221.845C441.814 223.929 443.759 226.25 445.442 228.832C447.126 231.413 448.501 234.279 449.355 237.358C449.782 238.897 450.09 240.484 450.232 242.095C450.256 242.497 450.303 242.9 450.327 243.302L450.351 244.51C450.351 244.913 450.327 245.316 450.327 245.718C450.327 245.931 450.304 246.097 450.304 246.287L450.28 246.831C450.138 249.697 449.806 252.539 449.379 255.357C447.671 266.655 443.972 277.549 438.921 287.662C437.641 290.196 436.313 292.683 434.89 295.122C434.203 296.354 433.444 297.538 432.709 298.746L431.571 300.522L431.001 301.422L430.409 302.298L429.223 304.051L428.014 305.78L427.397 306.633L426.781 307.485L425.524 309.19L424.243 310.872L423.603 311.701L422.939 312.53L421.611 314.164L420.26 315.774C413.027 324.372 404.917 332.164 396.191 339.198C391.852 342.726 387.323 346.019 382.675 349.145C378.027 352.271 373.261 355.184 368.376 357.908C363.491 360.631 358.512 363.165 353.414 365.463C348.315 367.76 343.217 370.034 337.977 372.023C332.736 374.013 327.353 375.576 321.852 376.689C321.164 376.831 320.477 376.949 319.789 377.068C319.101 377.186 318.414 377.281 317.702 377.376C316.327 377.589 314.904 377.707 313.505 377.826C310.707 378.039 307.885 378.086 305.016 377.826C304.257 377.755 303.688 377.068 303.759 376.31C303.807 375.836 304.091 375.434 304.494 375.221L304.542 375.197C305.799 374.534 307.079 373.989 308.36 373.444C309.64 372.9 310.897 372.402 312.177 371.905C313.458 371.407 314.714 370.934 315.995 370.484C316.635 370.247 317.275 370.034 317.916 369.821C318.556 369.584 319.196 369.371 319.813 369.157L335.06 363.994C340.134 362.266 345.185 360.418 350.07 358.192C354.955 355.989 359.745 353.55 364.44 350.945C369.135 348.34 373.712 345.545 378.17 342.537C382.628 339.529 386.943 336.379 391.117 332.992C399.464 326.266 407.194 318.806 414.071 310.635L415.351 309.096L416.608 307.533L417.224 306.751L417.841 305.969L419.05 304.383L420.236 302.772L420.829 301.967L421.398 301.162L422.56 299.527L423.674 297.87L424.22 297.041L424.765 296.212L425.832 294.53C426.52 293.393 427.231 292.28 427.895 291.12C429.247 288.846 430.48 286.501 431.689 284.133C436.432 274.66 439.846 264.57 441.411 254.197C441.791 251.615 442.099 249.01 442.217 246.405L442.241 245.908C442.241 245.742 442.265 245.576 442.265 245.434L442.289 244.581L442.265 243.729L442.194 242.876C442.075 241.763 441.885 240.65 441.577 239.537C440.344 235.155 437.522 231.058 433.965 227.529C430.409 223.977 426.164 220.945 421.659 218.292C419.406 216.966 417.082 215.735 414.711 214.598C413.525 214.029 412.316 213.485 411.13 212.964C410.537 212.703 409.921 212.466 409.328 212.206L408.427 211.85L407.976 211.685L407.573 211.543L403.637 210.098L405.178 206.261C407.099 201.477 408.617 196.551 409.375 191.648L409.447 191.198L409.494 190.748L409.613 189.825L409.707 188.901L409.755 188.451L409.779 188.001C409.873 186.793 409.873 185.585 409.826 184.425C409.802 184.141 409.802 183.833 409.779 183.548L409.707 182.672L409.589 181.82C409.541 181.535 409.494 181.251 409.447 180.991C409.233 179.878 408.925 178.835 408.522 177.841C408.119 176.87 407.644 175.97 407.075 175.188C406.506 174.407 405.842 173.743 405.107 173.222C404.372 172.678 403.566 172.299 402.712 172.038C401.859 171.801 400.934 171.659 400.009 171.707C398.136 171.778 396.167 172.441 394.389 173.554C392.611 174.667 391.022 176.23 389.741 178.054C389.101 178.978 388.508 179.949 387.987 180.967L387.607 181.749L387.18 182.672L386.327 184.52C385.758 185.751 385.189 186.983 384.619 188.214L382.865 191.885L381.987 193.732C381.703 194.348 381.395 194.94 381.086 195.556L379.26 199.203C378.668 200.435 378.027 201.619 377.411 202.827L375.537 206.451C370.439 216.066 364.891 225.469 358.867 234.563C352.844 243.658 346.371 252.468 339.399 260.876C335.89 265.068 332.357 269.212 328.634 273.215L327.258 274.731C326.808 275.228 326.357 275.749 325.883 276.246L323.061 279.207C321.188 281.173 319.315 283.186 317.37 285.08L314.477 287.97L313.031 289.415L312.296 290.125C312.059 290.362 311.798 290.599 311.537 290.836L309.996 292.28L308.431 293.678C307.909 294.151 307.387 294.601 306.842 295.051C306.297 295.501 305.775 295.951 305.229 296.378C303.072 298.13 300.819 299.788 298.519 301.375L296.788 302.535C296.195 302.914 295.626 303.293 295.033 303.672C294.44 304.051 293.847 304.406 293.255 304.762C292.662 305.117 292.069 305.472 291.452 305.827C289.057 307.225 286.615 308.551 284.125 309.759C281.635 310.967 279.098 312.08 276.49 313.051C273.905 314.022 271.273 314.874 268.593 315.585C267.265 315.94 265.914 316.248 264.539 316.509C263.851 316.651 263.163 316.769 262.476 316.864C262.12 316.911 261.788 316.959 261.432 317.006C261.076 317.053 260.744 317.101 260.365 317.124C259.606 317.195 258.966 316.627 258.895 315.893C258.847 315.348 259.132 314.827 259.606 314.59L259.677 314.756Z" fill="#0B3D91"/>
<g opacity="0.35">
<path d="M398.468 222.461C382.177 228.548 377.695 244.676 379.142 249.815C384.69 269.473 428.511 298.983 441.577 261.61C441.577 261.61 431.665 262.249 429.626 255.073" fill="#0B3D91"/>
</g>
<path d="M398.468 222.461C395.029 230.916 388.271 231.84 386.682 242.284C383.6 262.486 435.791 287.307 445.585 253.25C445.585 253.25 442.929 251.023 440.89 243.847" fill="white"/>
<g opacity="0.35">
<path d="M398.491 222.461L398.468 222.484C398.468 222.484 398.468 222.461 398.491 222.461Z" fill="#0B3D91"/>
</g>
<g opacity="0.35">
<path d="M444.897 255.357C433.562 286.241 383.695 262.036 386.682 242.284C387.915 234.184 392.231 231.816 395.717 227.221C395.243 228.453 394.863 229.874 394.602 231.508C392.113 248.134 427.018 267.91 444.897 255.357Z" fill="#0B3D91"/>
</g>
<g opacity="0.35">
<path d="M398.468 222.484C397.685 224.379 396.76 225.895 395.741 227.221C396.452 225.327 397.4 223.811 398.468 222.484Z" fill="#0B3D91"/>
</g>
<path d="M399.724 222.958C399.297 225.611 398.064 228.216 396.594 230.442L396.049 231.247L395.764 231.65L395.503 232.029L394.436 233.521C393.772 234.492 393.156 235.392 392.682 236.292C392.421 236.742 392.255 237.192 392.041 237.618C391.947 237.832 391.875 238.068 391.781 238.305C391.709 238.542 391.591 238.755 391.543 238.992C391.472 239.229 391.401 239.466 391.354 239.679C391.33 239.797 391.283 239.916 391.259 240.034L391.188 240.389C391.093 240.887 390.974 241.337 390.927 241.858C390.856 242.355 390.761 242.9 390.785 243.255C390.761 243.445 390.785 243.658 390.785 243.847C390.785 244.037 390.808 244.25 390.832 244.439C390.927 245.244 391.117 246.097 391.425 246.95C391.733 247.802 392.113 248.679 392.611 249.531C393.108 250.408 393.678 251.236 394.294 252.089C395.575 253.771 397.092 255.334 398.8 256.778C400.483 258.223 402.38 259.478 404.325 260.615C405.321 261.16 406.316 261.705 407.336 262.178C408.356 262.676 409.399 263.102 410.466 263.505C411.533 263.907 412.6 264.262 413.667 264.594C414.758 264.902 415.825 265.186 416.916 265.399C417.177 265.447 417.461 265.518 417.746 265.565L418.576 265.707C419.121 265.778 419.667 265.873 420.212 265.92C421.303 266.039 422.394 266.086 423.461 266.086C424.528 266.086 425.595 265.991 426.638 265.873C427.682 265.731 428.701 265.518 429.673 265.234C430.646 264.949 431.594 264.57 432.495 264.144C433.396 263.718 434.226 263.197 435.032 262.605C438.21 260.284 440.392 256.684 441.648 252.539L441.767 252.16C441.791 252.089 441.814 251.994 441.838 251.876C441.885 251.639 441.957 251.402 442.004 251.142C442.099 250.621 442.194 250.1 442.265 249.579C442.407 248.513 442.502 247.447 442.502 246.381C442.549 244.25 442.289 242.166 441.743 240.224L441.719 240.153C441.127 238.021 442.383 235.818 444.518 235.226C446.652 234.634 448.857 235.889 449.45 238.021C450.232 240.839 450.564 243.705 450.517 246.5C450.493 247.897 450.398 249.294 450.185 250.668C450.09 251.355 449.971 252.042 449.829 252.752C449.758 253.107 449.687 253.439 449.592 253.818C449.545 254.007 449.497 254.197 449.426 254.41L449.26 254.907L448.952 255.902C448.857 256.234 448.715 256.565 448.596 256.897C448.478 257.228 448.359 257.56 448.217 257.892L447.79 258.863L447.576 259.36C447.505 259.526 447.41 259.668 447.339 259.834L446.841 260.781C446.675 261.089 446.486 261.397 446.296 261.728C446.106 262.036 445.94 262.344 445.727 262.652L445.11 263.552C444.897 263.86 444.684 264.144 444.446 264.428C444.02 265.02 443.498 265.565 443.024 266.11C442.004 267.176 440.913 268.194 439.728 269.07C438.518 269.947 437.261 270.728 435.934 271.368C434.606 272.007 433.23 272.528 431.855 272.931C430.456 273.333 429.057 273.641 427.658 273.807C426.259 273.996 424.836 274.091 423.461 274.091C422.062 274.091 420.686 274.044 419.335 273.902C418.647 273.854 417.983 273.736 417.295 273.641L416.299 273.475C415.967 273.428 415.636 273.357 415.304 273.286C413.976 273.025 412.671 272.694 411.367 272.315C410.087 271.936 408.806 271.51 407.549 271.036C406.293 270.562 405.06 270.041 403.85 269.473C402.641 268.905 401.455 268.289 400.293 267.626C399.132 266.962 397.993 266.252 396.879 265.518C396.333 265.139 395.764 264.76 395.219 264.357C394.958 264.168 394.674 263.955 394.413 263.765L393.606 263.149C391.472 261.468 389.457 259.597 387.631 257.418C386.73 256.328 385.9 255.144 385.141 253.889L384.596 252.918L384.098 251.9C383.789 251.213 383.481 250.502 383.244 249.744C382.746 248.252 382.438 246.666 382.367 245.008C382.343 244.605 382.343 244.179 382.367 243.752C382.39 243.326 382.414 242.924 382.462 242.497C382.556 241.621 382.746 240.958 382.912 240.247C383.007 239.892 383.054 239.537 383.197 239.181L383.552 238.116L383.742 237.595C383.813 237.429 383.884 237.239 383.955 237.074C384.098 236.718 384.264 236.387 384.406 236.032C384.548 235.676 384.762 235.368 384.928 235.037C385.117 234.705 385.283 234.374 385.497 234.066C385.71 233.758 385.924 233.45 386.137 233.142C386.256 233 386.35 232.834 386.469 232.692L386.825 232.266C387.062 231.982 387.275 231.697 387.512 231.437L388.247 230.679C388.485 230.419 388.722 230.205 388.983 229.969C389.22 229.732 389.48 229.495 389.718 229.305L390.429 228.666L391.14 228.074L392.516 226.913C392.729 226.724 392.943 226.534 393.156 226.345C393.274 226.25 393.369 226.155 393.488 226.061L393.796 225.777L394.413 225.208C394.602 224.995 394.792 224.805 395.006 224.592L395.314 224.284C395.409 224.19 395.503 224.071 395.598 223.977L396.167 223.337C396.547 222.887 396.879 222.413 397.258 221.963L397.329 221.869C397.804 221.277 398.681 221.206 399.25 221.679C399.629 222.011 399.795 222.484 399.724 222.958Z" fill="#0B3D91"/>
<g opacity="0.25">
<path d="M346.442 245.481C336.506 273.452 319.006 298.035 296.219 316.58C288.797 322.643 280.805 328.043 272.34 332.708L260.033 316.059C260.033 316.059 275.019 311.772 291.95 300.83C297.665 297.112 303.617 292.659 309.284 287.33C324.057 273.404 336.246 259.313 346.442 245.481Z" fill="#0B3D91"/>
</g>
<g opacity="0.5">
<path d="M321.225 182.916C323.953 168.948 317.954 156.025 307.825 154.051C297.697 152.077 287.273 161.801 284.545 175.768C281.816 189.736 287.815 202.66 297.944 204.634C308.073 206.607 318.496 196.884 321.225 182.916Z" fill="white"/>
</g>
<g opacity="0.5">
<path d="M288.911 233.384C291.037 227.212 288.464 220.732 283.163 218.911C277.863 217.09 271.843 220.617 269.717 226.789C267.591 232.961 270.165 239.44 275.465 241.261C280.765 243.083 286.785 239.556 288.911 233.384Z" fill="white"/>
</g>
<g opacity="0.5">
<path d="M70.3317 227.955C70.3317 227.955 44.1292 149.515 86.1244 117.305C128.119 85.0955 189.369 84.1481 188.018 88.0796C188.018 88.0796 120.508 105.677 94.9455 159.699C75.2165 201.359 70.3317 227.955 70.3317 227.955Z" fill="white"/>
</g>
<path d="M413.027 321.08C412.98 321.08 412.956 321.08 412.909 321.08C397.282 320.511 383.457 316.817 371.838 310.067C362.519 304.643 354.599 297.254 348.315 288.136C337.668 272.646 335.463 257.607 335.368 256.968C335.131 255.357 336.269 253.842 337.882 253.629C339.494 253.392 341.012 254.528 341.225 256.139C341.273 256.4 343.43 270.681 353.319 284.986C366.527 304.075 386.635 314.235 413.098 315.182C414.734 315.23 416.015 316.603 415.944 318.238C415.92 319.824 414.616 321.08 413.027 321.08Z" fill="#0B3D91"/>
</g>
<defs>
<clipPath id="clip0_19_2042">
<rect width="647" height="699" fill="white"/>
</clipPath>
</defs>
</svg>
