<svg width="2627" height="2174" viewBox="0 0 2627 2174" fill="none" xmlns="http://www.w3.org/2000/svg">
<g clip-path="url(#clip0_152_2189)">
<path d="M2608.1 1162C2581.7 1267.1 2542.5 1368.1 2491.8 1462.7C2398.3 1637.5 2265.8 1790.6 2102.9 1908.5C1962.4 2010.3 1799.3 2085.8 1619.2 2126.1C910.3 2284.9 206.8 1838.9 48.1003 1130C-40.0997 736.3 58.3003 344.1 284.8 46.1002C327.1 -9.59978 416 16.8002 420.3 86.6002C421.8 110.2 423.9 133.8 426.6 157.5C431.9 202.9 439.6 248.5 449.8 293.9C471.4 390.2 502.9 481.6 543.2 567.2C550.4 582.5 557.9 597.5 565.6 612.5C584.5 649 605 684.4 627 718.6C642.9 743.4 659.6 767.5 677 790.9C685.4 802.3 694.1 813.5 702.9 824.6C724.9 852.4 748.1 879.1 772.3 904.9C785.4 919 798.9 932.8 812.7 946.2C822.4 955.6 832.2 964.9 842.2 974.1C878.8 1007.8 917.3 1039.4 957.5 1068.7C961.2 1071.4 964.9 1074.1 968.6 1076.7C991 1092.7 1014 1108.1 1037.4 1122.6C1042.9 1126 1048.3 1129.3 1053.8 1132.6C1077.1 1146.8 1101 1160.1 1125.1 1172.7C1138.2 1179.6 1151.4 1186.2 1164.7 1192.5C1167.5 1193.9 1170.3 1195.2 1173.1 1196.5C1175.1 1197.4 1177 1198.4 1179 1199.3C1183.3 1201.3 1187.6 1203.3 1191.9 1205.2C1214.8 1215.6 1238.1 1225.3 1261.6 1234.4C1268.7 1237.2 1275.8 1239.8 1282.9 1242.4C1290.6 1245.2 1298.3 1248 1306 1250.6C1326.3 1257.6 1346.9 1264.1 1367.6 1270.1C1399.8 1279.5 1432.4 1287.6 1465.3 1294.5C1499.1 1301.5 1533.2 1307.3 1567.7 1311.6C1613.4 1317.4 1659.7 1320.8 1706.3 1321.8C1750 1322.7 1794.2 1321.4 1838.5 1317.7C1847.5 1317 1856.6 1316.2 1865.7 1315.2C1885.2 1313.2 1904.8 1310.8 1924.3 1307.9C1956.5 1303.2 1988.7 1297.3 2021 1290C2023.1 1289.5 2025.3 1289.1 2027.3 1288.5C2119.4 1267.4 2207.1 1237.1 2289.4 1198.8C2360.9 1165.6 2428.4 1126.3 2491.5 1081.9C2548.4 1042 2625 1094.4 2608.1 1162Z" fill="#FFDA22"/>
<g opacity="0.35">
<path d="M199.9 172.5C50.1002 443.8 -4.99976 768.8 68.1002 1095C226.9 1803.8 930.3 2249.9 1639.2 2091.1C1819.3 2050.8 1982.4 1975.3 2123 1873.5C2224.6 1800 2314.3 1712.7 2390.2 1615C2351.4 1651 2310.4 1684.8 2267.1 1716.1C2126.5 1817.9 1963.5 1893.4 1783.3 1933.8C1360.5 2028.5 939.5 1908 635 1644.8C651.6 1639.1 666.9 1630.5 680.3 1619C677.9 1621.1 675.4 1623.1 672.9 1625C666.9 1620 660.9 1615 655 1609.9C675 1603.1 693.1 1592 708.4 1576.6C712.3 1572.7 715.8 1568.5 719.2 1564.2C719.2 1564.2 719.2 1564.2 719.2 1564.3C750.7 1486.2 723 1374.6 644.3 1289.1C547.7 1184.2 410.8 1158.5 338.6 1231.7C333.3 1237.1 328.5 1242.8 324.3 1248.8C275.1 1152.4 237.1 1048.3 212.4 937.8C139.2 611.8 194 287.2 343.3 16.1001C321.8 16.5001 300.2 25.8001 284.8 46.2001C223.7 126.7 172 214 130.6 306.4C151.1 260.4 174.3 215.7 199.9 172.5Z" fill="#371A45"/>
</g>
<g opacity="0.35">
<path d="M1991.63 1703.43C2073.47 1702.52 2139.18 1645.2 2138.41 1575.4C2137.64 1505.59 2070.66 1449.74 1988.82 1450.65C1906.98 1451.56 1841.27 1508.88 1842.04 1578.68C1842.81 1648.48 1909.79 1704.33 1991.63 1703.43Z" fill="#371A45"/>
</g>
<g opacity="0.35">
<path d="M1382.16 1417.04C1391.85 1357.29 1321.93 1296.23 1225.98 1280.66C1130.04 1265.09 1044.39 1300.9 1034.7 1360.65C1025 1420.4 1094.92 1481.46 1190.87 1497.03C1286.82 1512.6 1372.46 1476.79 1382.16 1417.04Z" fill="#371A45"/>
</g>
<path d="M1356.56 1448.4C1362.67 1410.79 1299.73 1369.28 1216 1355.69C1132.26 1342.1 1059.43 1361.57 1053.32 1399.19C1047.22 1436.81 1110.15 1478.32 1193.89 1491.91C1277.63 1505.5 1350.46 1486.02 1356.56 1448.4Z" fill="#FFDA22"/>
<path d="M2047.73 1706.91C2106.43 1688.65 2142.06 1635.45 2127.33 1588.09C2112.6 1540.74 2053.07 1517.15 1994.37 1535.41C1935.67 1553.67 1900.03 1606.87 1914.77 1654.23C1929.5 1701.59 1989.03 1725.17 2047.73 1706.91Z" fill="#FFDA22"/>
<path d="M1413.3 1854.2C1413.3 1866.5 1411.7 1878.9 1408.5 1891.1C1385.4 1977.7 1286.6 2024.8 1187.9 1996.3C1113.7 1974.9 1060.6 1916.9 1048.6 1852.8L1413.3 1854.2Z" fill="#FFDA22"/>
<path d="M1418 1854.1C1422 1899 1400.9 1946 1365.1 1975.4C1347.4 1990.4 1326.4 2001.2 1304.4 2008.1C1282.3 2014.7 1259.1 2017.6 1236.2 2016.5C1213.3 2015.3 1190.5 2010.8 1169.3 2002.4C1148 1994.1 1128 1982.6 1110.5 1968.1C1092.8 1953.8 1078 1936 1066.5 1916.7C1055 1897.2 1047.7 1875.4 1045.1 1853.4C1044.9 1851.4 1046.3 1849.5 1048.4 1849.3C1050.3 1849.1 1051.9 1850.3 1052.4 1852V1852.1C1063.8 1893 1089.9 1927.8 1123.2 1952C1156.5 1976 1196.7 1990.4 1237.4 1991.8C1257.7 1992.6 1278.1 1990.5 1297.5 1984.8C1317 1979.4 1335.3 1970.4 1351.5 1958.3C1367.6 1946.2 1381.3 1930.9 1391 1913C1396.1 1904.2 1399.7 1894.6 1403.1 1884.8C1406.1 1874.9 1408 1864.7 1408.9 1854.2C1409.1 1851.6 1411.4 1849.8 1413.9 1850C1416 1850.1 1417.8 1851.9 1418 1854.1Z" fill="#371A45"/>
<path d="M473.4 1115.3C427.2 1109 382.5 1116.1 344.4 1138.6C275.2 1179.4 247 1258.8 254.2 1351.5C258.9 1412.4 280.5 1477.8 319.6 1539.4C418.3 1694.7 591.1 1765.8 705.7 1698.3C748.3 1673.2 776.9 1632.4 790.8 1583.1C814.3 1499.9 792.5 1395 730.5 1297.5L473.4 1115.3Z" fill="#FFDA22"/>
<path d="M344.4 1138.6C326.5 1151.3 311 1166.9 299.1 1184.6C287.2 1202.3 278.4 1221.8 272.9 1242.3C267.3 1262.7 264.6 1283.8 264.2 1304.9C263.9 1326 265 1347.3 268.5 1368.1C270.1 1378.5 272.3 1388.9 274.9 1399.1C277.4 1409.4 280.4 1419.5 283.6 1429.6C290.3 1449.6 298.5 1469.2 308.1 1488C327.3 1525.7 351.4 1560.9 379.9 1592C394.1 1607.6 409.4 1622.2 425.7 1635.5C441.9 1648.9 459.3 1660.9 477.4 1671.4C495.5 1681.9 514.6 1690.8 534.3 1697.6C539.2 1699.4 544.2 1700.7 549.2 1702.3C554.2 1703.5 559.3 1704.9 564.3 1706C569.4 1707.1 574.5 1708.2 579.6 1708.9C584.7 1709.8 589.9 1710.4 595 1710.9C615.7 1713.1 636.4 1711.4 656.7 1707.3C676.8 1702.8 696.4 1694.9 713.9 1683.5C731.6 1672.3 747.1 1657.5 760 1640.4C772.8 1623.2 782.9 1603.8 790.6 1583.3C786.3 1604.8 778.6 1625.9 767.4 1645.3C756.2 1664.7 741 1682.1 723.1 1696.3C705.1 1710.4 684.1 1720.8 662 1727.7C639.8 1734.2 616.5 1736.9 593.5 1735.9C570.5 1735.1 547.6 1731.2 525.7 1724.4C503.8 1717.7 482.7 1708.7 462.6 1698C422.4 1676.3 386.8 1647.2 356.2 1613.8C325.7 1580.3 300.2 1542.4 280.9 1501.5C261.9 1460.5 248.1 1416.7 243.7 1371.5C239.1 1326.6 242.4 1280.3 258 1237.6C266.1 1216.4 277.3 1196.4 292.1 1179.4C306.7 1162.2 324.6 1148.2 344.4 1138.6Z" fill="#371A45"/>
<path d="M1987.5 1713.8C1955.5 1715.3 1922.7 1707.7 1894.1 1691.3C1880 1682.9 1866.9 1672.4 1855.8 1659.8C1844.9 1647.1 1836 1632.4 1830.5 1616.2C1819 1583.9 1822.9 1546.7 1838.8 1516.5C1846.7 1501.3 1857.8 1488 1870.4 1476.8C1883 1465.6 1897.2 1456.1 1912.5 1449.3C1927.8 1442.5 1944 1437.9 1960.4 1435.1C1976.9 1432.7 1993.6 1432.4 2010.1 1434C2026.6 1436.1 2042.8 1440 2058.3 1446C2073.8 1452.1 2088.2 1460.8 2101.2 1471.2C2127.4 1491.7 2146.2 1522.3 2151.1 1555.3C2153.5 1571.8 2152.7 1588.6 2148.1 1604.4C2145.8 1612.3 2142.9 1619.9 2139.1 1627.1C2135.5 1634.4 2130.4 1640.8 2125.9 1647.4C2124.7 1649.1 2122.4 1649.5 2120.7 1648.4C2119.1 1647.3 2118.6 1645.3 2119.5 1643.6L2119.8 1643.1C2123.4 1636.4 2127.4 1630 2130.1 1623C2132.9 1616.1 2135 1608.9 2136.4 1601.7C2137.7 1594.4 2138.5 1587.1 2138.4 1579.8C2138 1572.5 2137.6 1565.2 2135.8 1558.1C2129.7 1529.7 2112.1 1504.5 2088.6 1487.5C2041.9 1452.7 1975.2 1447.7 1922.9 1471.9C1896.9 1484.1 1873.8 1503.3 1860.5 1528.1C1847 1552.6 1843.3 1582.4 1851.6 1609.4C1859.7 1636.5 1879.1 1660.2 1903.5 1676.5C1928 1693 1957.5 1702.2 1987.8 1704.5C1990.4 1704.7 1992.3 1706.9 1992.1 1709.5C1991.7 1711.9 1989.8 1713.7 1987.5 1713.8Z" fill="#371A45"/>
<path d="M2184.3 1498.8C2202.5 1524.4 2213.3 1555.8 2214.4 1588C2215.6 1620.3 2206.3 1652.7 2190 1680.6C2173.8 1708.8 2149.8 1731.8 2122.8 1749.2C2095.6 1766.4 2065.1 1778.1 2033.5 1783.7C2001.9 1789.1 1969.5 1789.1 1938.1 1783C1906.7 1777 1876.4 1764.8 1849.9 1746.9C1823.4 1729.1 1800.4 1705.6 1785.1 1677.6C1769.9 1649.6 1762.3 1617.5 1764.6 1586.2C1764.7 1584.1 1766.5 1582.6 1768.6 1582.7C1770.5 1582.8 1772 1584.4 1772.1 1586.2V1586.3C1773.5 1616.2 1782.9 1645 1798.6 1669.5C1814.3 1694.2 1836.5 1714.1 1861.2 1729.4C1910.9 1759.9 1972.3 1769.5 2029.3 1759C2057.8 1753.7 2085.4 1743.6 2109.9 1728.3C2122.3 1721 2133.5 1711.8 2144.2 1702.1C2146.8 1699.7 2149.1 1696.9 2151.6 1694.3C2154 1691.6 2156.7 1689.2 2158.8 1686.3L2165.3 1677.8C2166.4 1676.4 2167.5 1675 2168.6 1673.5L2171.4 1668.9L2177.1 1659.8C2178.9 1656.7 2180.2 1653.4 2181.8 1650.2C2185.2 1643.9 2187.3 1637 2189.7 1630.3C2191.1 1627 2191.8 1623.4 2192.6 1620L2195.1 1609.5C2195.8 1602.4 2197 1595.2 2197.3 1588C2198.5 1559.1 2190.9 1529.8 2176.8 1503.6C2175.6 1501.3 2176.4 1498.5 2178.7 1497.3C2180.4 1496.3 2183 1497 2184.3 1498.8Z" fill="#371A45"/>
<g opacity="0.35">
<path d="M1113.5 1852.3C1120.2 1890.2 1153.2 1923.8 1200.1 1935.3C1262.6 1950.7 1326.3 1921.3 1342.3 1869.5C1344.6 1862.2 1345.8 1854.8 1345.9 1847.5C1349.8 1766.2 1280.1 1729.9 1222.2 1728.6C1156.9 1727.3 1102.2 1768.4 1113.5 1852.3Z" fill="#371A45"/>
</g>
<path d="M1119.9 1856.8C1126.6 1894.7 1159.6 1928.3 1206.5 1939.8C1269 1955.2 1332.7 1925.8 1348.7 1874C1351 1866.7 1352.2 1859.3 1352.3 1852C1335.8 1826.4 1307.3 1806 1271.5 1797.1C1208.1 1781.7 1143.5 1808 1119.9 1856.8Z" fill="#FFDA22"/>
<path d="M1257.4 1728.2C1282.1 1733.5 1305.6 1746.1 1324 1764.5C1333.1 1773.8 1341 1784.5 1346.9 1796.4C1352.8 1808.3 1356.6 1821.4 1357.9 1834.9C1359.3 1848.3 1357.9 1862.4 1353.5 1875.3C1349.4 1888.4 1342.6 1900.7 1333.6 1911.2C1315.4 1931.9 1289.9 1945 1263.5 1949.5C1210.5 1958.5 1154.4 1935.4 1124.1 1891.8C1109 1870.2 1100.8 1843.1 1103.8 1816.7C1105.3 1803.6 1109.4 1790.9 1115.9 1779.6C1122.3 1768.3 1131.2 1758.6 1141.2 1751C1142.8 1749.8 1145.2 1750.1 1146.4 1751.7C1147.5 1753.2 1147.3 1755.3 1146 1756.6C1129.3 1773.2 1119.6 1795.4 1119.3 1817.8C1118.6 1840.2 1127.2 1862 1140.7 1879.6C1168.2 1914.8 1216 1932.8 1259.2 1925C1280.7 1921.1 1301 1910.9 1315.1 1895C1329.2 1879.2 1337 1858 1335.8 1836.4C1334.9 1814.8 1325.6 1793.4 1311 1776.1C1296.5 1758.6 1276.7 1745.3 1254.7 1736.9H1254.6C1252.2 1736 1251 1733.3 1251.9 1730.9C1252.9 1728.9 1255.2 1727.7 1257.4 1728.2Z" fill="#371A45"/>
<g opacity="0.35">
<path d="M687.541 1612.03C765.705 1547.18 756.718 1407.4 667.466 1299.82C578.214 1192.25 442.497 1157.61 364.332 1222.46C286.168 1287.31 295.156 1427.09 384.407 1534.66C473.659 1642.24 609.376 1676.88 687.541 1612.03Z" fill="#371A45"/>
</g>
<path d="M657.054 1625.05C711.681 1571.67 687.345 1458.18 602.697 1371.55C518.049 1284.93 405.144 1257.99 350.516 1311.37C295.888 1364.75 320.225 1478.25 404.873 1564.87C489.521 1651.49 602.426 1678.44 657.054 1625.05Z" fill="#FFDA22"/>
<path d="M565.5 1643C588.3 1644.9 611.3 1642.7 632.1 1635.2C653 1627.8 671.5 1614.9 685.6 1598.5C699.8 1582.1 709.7 1562.1 715.1 1540.8C720.6 1519.5 722.5 1497.2 720.9 1474.9C717.8 1430.3 703.1 1386.5 680.5 1347.5C658.2 1308.3 628 1273.4 592.1 1246.6C556.4 1219.8 513.9 1201.3 470.6 1199C449.1 1197.8 427.6 1201.5 408.3 1210.3C389.1 1219.1 372.1 1232.7 359.5 1250.1C346.8 1267.4 338.5 1288.2 333.8 1309.9C329.1 1331.7 328.3 1354.5 330.3 1377.1C334.4 1422.5 350.1 1467.1 373 1507.6C374.3 1509.9 373.5 1512.8 371.2 1514.1C369 1515.3 366.3 1514.7 364.9 1512.7C337.4 1473.5 317.7 1427.9 310.4 1379.4C306.8 1355.2 306.5 1330.2 310.5 1305.5C314.4 1280.8 323.2 1256.4 337.7 1235C352.1 1213.6 372.3 1195.6 395.9 1184.4C419.4 1173 445.8 1168.1 471.4 1168.8C497.1 1169.5 522.2 1175.3 545.5 1184.6C557.2 1189.2 568.5 1194.7 579.4 1200.7C590.3 1206.9 600.7 1213.7 610.8 1221C650.9 1250.5 683.3 1289.1 707.6 1332C719.7 1353.5 729.3 1376.4 736.5 1400.1C743.6 1423.8 748.1 1448.4 748.9 1473.4C749.8 1498.3 747 1523.6 739.7 1547.8C732.3 1571.9 719.7 1594.9 702 1613.4C684.2 1631.8 661.7 1645.4 637.4 1652.1C625.3 1655.4 612.9 1657.3 600.5 1657.6C588.1 1658 575.8 1656.8 563.8 1654.7C560.6 1654.1 558.4 1651.1 559 1647.8C559.5 1644.8 562.3 1642.7 565.3 1642.9L565.5 1643Z" fill="#371A45"/>
<g opacity="0.35">
<path d="M1838.5 1317.9C1838 1319.3 1837.5 1320.7 1836.9 1322.1C1836.3 1330.5 1834.9 1339.1 1832.3 1347.9C1804.5 1437.6 1694.6 1471.2 1610.8 1451.1C1571.6 1441.1 1532.8 1430.3 1494.4 1418.7C1493.8 1422.1 1492.7 1425.5 1491 1428.7L1458.8 1493.2C1443.2 1524.5 1400.9 1535 1364.5 1516.8C1328 1498.6 1311.1 1458.4 1326.7 1427.2L1354.3 1372C1206.7 1318 1065.2 1250.9 930.3 1170.1C929.1 1175.6 926.6 1181 922.8 1185.7L877.2 1241.5C855.1 1268.5 811.5 1269.6 780 1243.7C748.4 1217.9 740.8 1175 763 1147.9L808.6 1092.2C784.7 1075.9 760.9 1059.1 737.4 1041.9C685.4 1003.2 663.5 935.6 686.2 878.5C687.7 860 693.2 841.6 703.1 824.8C725.1 852.6 748.3 879.3 772.5 905.1C785.6 919.2 799.1 933 812.9 946.4C822.6 955.8 832.4 965.1 842.4 974.3C879 1008 917.5 1039.6 957.7 1068.9C961.4 1071.6 965.1 1074.3 968.8 1076.9C991.2 1092.9 1014.2 1108.3 1037.6 1122.8C1043.1 1126.2 1048.5 1129.5 1054 1132.8C1077.3 1147 1101.2 1160.3 1125.3 1172.9C1138.4 1179.8 1151.6 1186.4 1164.9 1192.7C1167.7 1194.1 1170.5 1195.4 1173.3 1196.7C1175.3 1197.6 1177.2 1198.6 1179.2 1199.5C1183.5 1201.5 1187.8 1203.5 1192.1 1205.4C1215 1215.8 1238.3 1225.5 1261.8 1234.6C1268.9 1237.4 1276 1240 1283.1 1242.6C1290.8 1245.4 1298.5 1248.2 1306.2 1250.8C1326.5 1257.8 1347.1 1264.3 1367.8 1270.3C1400 1279.7 1432.6 1287.8 1465.5 1294.7C1499.3 1301.7 1533.4 1307.5 1567.9 1311.8C1613.6 1317.6 1659.9 1321 1706.5 1322C1750 1322.9 1794.2 1321.6 1838.5 1317.9Z" fill="#371A45"/>
</g>
<path d="M1070 1311.7C1054.8 1325.6 1044 1343.7 1043.6 1362.8L1043.4 1369.9L1044.3 1376.9C1044.5 1378.1 1044.5 1379.2 1044.8 1380.4L1045.8 1383.8C1046.5 1386.1 1046.9 1388.4 1047.9 1390.6C1049.9 1395 1051.4 1399.5 1054.2 1403.5C1055.5 1405.6 1056.5 1407.7 1058 1409.7L1062.4 1415.6C1074.4 1431.1 1090.5 1443.9 1107.9 1454.2C1125.3 1464.7 1144.3 1472.6 1164 1478.6C1169 1479.9 1173.9 1481.5 1178.9 1482.7L1194 1486L1209.3 1488.3C1214.4 1488.9 1219.5 1489.3 1224.7 1489.9C1245.2 1491.5 1265.9 1490.6 1286.1 1487C1306.2 1483.3 1325.9 1476.9 1342.7 1465.8C1351.4 1460.6 1358.5 1453.6 1365 1446L1369.3 1439.9C1370.9 1437.9 1371.6 1435.5 1372.9 1433.3C1375.6 1428.9 1376.5 1424 1378.3 1419.1L1378.5 1418.5C1379.2 1416.6 1381.3 1415.6 1383.2 1416.3C1384.8 1416.9 1385.8 1418.5 1385.6 1420.2C1384.3 1431.5 1381 1442.8 1374.9 1452.7C1368.7 1462.4 1361 1471.4 1351.9 1478.4C1333.9 1492.9 1312.4 1501.9 1290.5 1507.2C1268.5 1512.7 1245.9 1514.3 1223.4 1513.5C1200.9 1512.7 1178.7 1508.8 1157.1 1502.5C1135.5 1496.2 1114.7 1487 1095.3 1475.1C1085.6 1469.1 1076.5 1462.1 1067.9 1454.6C1063.6 1450.7 1059.6 1446.6 1055.6 1442.4L1050 1435.7C1048.1 1433.5 1046.3 1431.2 1044.8 1428.7L1040 1421.3C1038.4 1418.9 1037.2 1416.1 1035.8 1413.5C1032.9 1408.4 1031 1402.6 1029.1 1397C1028.2 1394.2 1027.8 1391.1 1027.1 1388.2L1026.2 1383.8C1025.9 1382.3 1026 1380.8 1025.8 1379.3L1025.4 1370.2L1026.4 1361.2C1027.9 1349.2 1032.8 1337.8 1039.6 1328.2C1046.4 1318.6 1055.1 1310.8 1064.5 1304.6C1066.6 1303.2 1069.5 1303.8 1070.9 1306C1072 1307.7 1071.6 1310.2 1070 1311.7Z" fill="#371A45"/>
<path d="M1169.8 1550.7C1195.9 1558.8 1222.5 1561.8 1248.9 1560.3C1262.1 1559.5 1275.2 1557.8 1288.1 1554.8C1301 1552.1 1313.6 1548 1325.9 1543.2C1350.4 1533.6 1373.4 1520 1392.6 1502.2C1411.6 1484.5 1426.1 1461.8 1429.2 1435V1434.9C1429.4 1432.8 1431.3 1431.4 1433.3 1431.6C1435 1431.8 1436.4 1433.1 1436.6 1434.8C1438.7 1449.4 1436.3 1464.6 1431 1478.6C1425.6 1492.6 1417.3 1505.4 1407.4 1516.5C1387.7 1538.9 1362.2 1555.1 1335.2 1566.3C1321.6 1571.9 1307.4 1575.9 1293.1 1578.8C1278.7 1581.3 1264 1582.8 1249.3 1582.3C1220.1 1581.6 1190.6 1574.3 1166 1559.1C1163.8 1557.7 1163.1 1554.9 1164.5 1552.7C1165.5 1550.8 1167.8 1550.1 1169.8 1550.7Z" fill="#371A45"/>
<g opacity="0.5">
<path d="M2602.3 1109.8C2586.2 1067.1 2531.4 1043.8 2488 1074.4C2350.5 1171.4 2191.9 1243.5 2017.5 1282.5C1723.1 1348.4 1429.6 1310.1 1175.7 1191.8C1182.5 1197.1 1189.2 1202.1 1196 1207.1C1194.7 1206.5 1193.3 1206 1192 1205.4C1187.7 1203.5 1183.4 1201.5 1179.1 1199.5C1177.1 1198.6 1175.1 1197.6 1173.2 1196.7C1170.4 1195.4 1167.6 1194 1164.8 1192.7C1154.7 1187.9 1144.7 1182.9 1134.8 1177.8C1131.6 1176.2 1128.4 1174.6 1125.2 1172.9C1102.6 1161.1 1080.3 1148.6 1058.4 1135.4C1056.9 1134.5 1055.4 1133.6 1053.9 1132.7C1048.4 1129.4 1043 1126.1 1037.5 1122.7C1014.1 1108.2 991.2 1092.8 968.7 1076.8C965 1074.1 961.3 1071.5 957.6 1068.8C937.5 1054.2 917.9 1038.9 898.7 1023.2C889.1 1015.3 879.6 1007.3 870.2 999.1C860.8 990.9 851.5 982.6 842.4 974.2C838.6 970.7 834.8 967.1 831 963.6C827.4 960.3 823.9 956.9 820.4 953.5C817.9 951.1 815.4 948.7 813 946.3C799.2 932.9 785.7 919.1 772.6 905C768.1 900.2 763.6 895.3 759.2 890.4C739.9 869.2 721.2 847.3 703.3 824.8C700 820.7 696.8 816.6 693.6 812.4C688.1 805.3 682.7 798.2 677.4 791.1C676.2 789.5 675.1 787.9 674 786.4C665.4 774.8 657 763 648.9 751C641.6 740.4 634.4 729.6 627.4 718.8C605.4 684.6 584.9 649.3 566 612.7C561 603.1 556.2 593.4 551.4 583.7C548.8 578.3 546.1 572.9 543.5 567.5C503.2 481.9 471.7 390.5 450.1 294.2C446.3 277.2 442.9 260.1 439.8 243C434.6 214.6 430.2 186.1 426.9 157.7C426.4 153.1 426 148.5 425.5 143.9C423.5 124.8 421.8 105.7 420.6 86.8002C420 76.9002 417.6 67.8002 414 59.8002C401.6 32.4002 373.9 16.4002 345.5 16.2002C341.3 16.2002 337 16.5002 332.8 17.2002C330.2 17.6002 327.5 18.2002 325 18.9002C322 19.7002 319 20.8002 316 22.0002C314.2 22.8002 312.4 23.6002 310.6 24.6002C308.6 25.6002 306.7 26.8002 304.8 28.0002C297.6 32.6002 291 38.7002 285.2 46.3002C284.4 47.4002 283.6 48.5002 282.8 49.6002C326 36.2002 377.5 64.1002 380.7 116.8C382.2 140.4 384.3 164 387.1 187.7C392.4 233.1 400.1 278.7 410.3 324.1C431.9 420.4 463.4 511.8 503.7 597.4C510.9 612.7 518.4 627.7 526.1 642.7C545 679.2 565.5 714.6 587.5 748.8C603.4 773.6 620.1 797.7 637.5 821.1C645.9 832.5 654.6 843.7 663.4 854.8C685.4 882.6 708.6 909.3 732.8 935.1C745.9 949.2 759.4 963 773.2 976.4C782.9 985.8 792.7 995.2 802.7 1004.3C839.3 1038 877.8 1069.6 918 1098.9C921.7 1101.6 925.4 1104.3 929.1 1106.9C951.5 1122.9 974.5 1138.3 997.9 1152.8C1003.4 1156.2 1008.8 1159.5 1014.3 1162.8C1037.6 1177 1061.5 1190.3 1085.6 1202.9C1098.7 1209.8 1111.9 1216.4 1125.2 1222.7C1128 1224.1 1130.8 1225.4 1133.6 1226.7C1135.6 1227.6 1137.5 1228.6 1139.5 1229.5C1143.8 1231.5 1148.1 1233.5 1152.4 1235.4C1175.3 1245.8 1198.6 1255.5 1222.1 1264.6C1229.2 1267.4 1236.3 1270 1243.4 1272.6C1251.1 1275.4 1258.8 1278.2 1266.5 1280.8C1286.8 1287.8 1307.4 1294.3 1328.1 1300.3C1353.1 1307.6 1378.3 1314.1 1403.7 1319.9C1901.9 1507.5 2440.5 1180.3 2510.6 1193.1C2554.8 1201.2 2545.1 1268.2 2525 1331.9C2504.3 1387.2 2480 1440.9 2452.3 1492.7C2365.9 1654.2 2246.1 1797.1 2100 1910.9C2101.1 1910.1 2102.2 1909.4 2103.3 1908.6C2103.3 1908.6 2103.4 1908.5 2103.5 1908.5C2106.8 1906.1 2109.9 1903.7 2113.1 1901.3C2124.2 1893.1 2135.1 1884.8 2145.9 1876.3C2159.6 1865.5 2173.1 1854.5 2186.3 1843.2C2216.6 1817.3 2245.7 1790.2 2273.4 1761.8C2290.8 1744 2307.6 1725.7 2323.9 1707C2340.2 1688.3 2355.9 1669.1 2371.1 1649.5C2378.7 1639.7 2386.2 1629.8 2393.5 1619.8C2430.1 1569.8 2463.1 1517.3 2492.3 1462.7C2498.6 1450.9 2504.8 1438.9 2510.8 1426.9C2513.8 1420.9 2516.7 1414.9 2519.6 1408.8C2557.3 1330 2587.2 1247.4 2608.6 1162C2612.9 1142.7 2610.1 1124.8 2602.3 1109.8Z" fill="white"/>
</g>
<path d="M1333.6 2173.9C1070.7 2173.9 810.8 2095.1 589.6 1946.6C329.2 1771.7 138.3 1510.4 52.3002 1210.8C48.4002 1197.3 45.2002 1185.2 42.2002 1173.8C39.2002 1161.9 36.2002 1149.6 33.2002 1136.3C31.0002 1126.7 28.9002 1116.8 26.9002 1106.9C24.9002 1097.1 23.0002 1087.3 21.3002 1077.5C19.6002 1068 18.0002 1058.5 16.5002 1049C15.7002 1043.9 14.9002 1038.7 14.1002 1033.5C13.5002 1029.7 13.0002 1025.9 12.5002 1022.1L12.1002 1019.2C11.4002 1014.1 10.8002 1009.1 10.2002 1004.1C9.60023 999.2 9.00023 994.3 8.50023 989.5C8.00023 984.6 7.40023 979.7 7.00023 974.8C6.50023 970 6.00023 965.1 5.60023 960.2C5.20023 955.3 4.70023 950.4 4.40023 945.6L4.00023 943.6C3.70023 939.4 3.40023 935.3 3.10023 931.1C3.00023 929.5 2.90023 927.6 2.70023 925.8L2.00023 914.5C1.70023 909.8 1.50023 904.9 1.30023 900C0.20023 876.6 -0.19977 852.9 0.000230022 829.6L0.10023 819C0.20023 812.8 0.40023 806.8 0.60023 800.7V800.1C0.70023 797.1 0.80023 794.1 0.90023 791C1.70023 770.5 3.00023 749.7 4.70023 729.1C4.90023 726.2 5.20023 723.3 5.50023 720.3L5.70023 718.2C5.90023 716.5 6.00023 714.8 6.20023 713.1C6.60023 708.7 7.10023 704 7.60023 699.2C9.50023 681 12.0002 662.1 14.9002 642.9C15.6002 638.3 16.3002 633.6 17.1002 628.9C23.0002 592.2 30.7002 555 39.9002 518.6C42.1002 509.9 44.4002 501.2 46.7002 492.5C51.9002 473.7 57.3002 455.5 62.8002 438.3C64.0002 434.6 65.2002 430.7 66.5002 426.9C72.4002 408.9 79.0002 390.3 86.0002 371.7C89.0002 363.8 92.1002 356 95.2002 348.1C99.6002 337.1 104.3 325.8 109.1 314.7C111.5 309.1 114 303.5 116.5 298C133 261.2 151.5 224.6 171.4 189.2C178.2 177.1 185.3 165 192.5 153.2C196.6 146.4 200.8 139.6 205 132.9C209.5 125.7 214.1 118.6 218.8 111.4C226.9 99.1001 235.4 86.5001 244.9 73.1001C250.4 65.4001 256.3 57.2001 263 48.2001C266 44.1001 269.1 40.0001 272.2 35.9001C274.2 33.3001 276.2 30.8001 278.4 28.5001C278.8 28.0001 279.4 27.4001 279.9 26.9001C280.8 26.0001 281.7 25.1001 282.6 24.2001C283.1 23.7001 283.6 23.2001 284.2 22.8001C284.7 22.3001 285.2 21.9001 285.7 21.5001L286.6 20.7001C287.6 19.9001 288.4 19.3001 289.1 18.7001L290.1 17.9001C290.7 17.4001 291.3 17.0001 291.9 16.5001L292.6 16.0001C307 6.1001 324.1 0.500098 342 0.100098C342.2 0.100098 342.7 0.100098 343.1 0.100098H345.6H345.9C349.6 0.200098 353.5 0.500098 357.4 1.0001C398.9 7.0001 430.4 38.7001 435.7 79.9001C436 82.0001 436.2 84.1001 436.3 86.3001C436.7 93.0001 437.2 99.5001 437.7 106.1C438 110.3 438.4 114.3 438.7 118.4C439.3 125.5 440 132.6 440.8 139.6C441.2 144.1 441.7 148.5 442.2 152.8C445 177.7 448.6 202.7 452.9 227.2C453.6 231.5 454.4 235.6 455.1 239.8C455.9 244.2 456.7 248.5 457.6 252.8C459.9 264.4 462 274.8 464.2 284.7L448.7 288.8L464.3 285.2C464.4 285.6 464.5 285.9 464.5 286.3L465.5 290.6C466.3 294.3 467.1 297.9 468 301.6L468.7 304.7C469.7 309.1 470.8 313.5 471.9 317.8C472.6 320.7 473.3 323.5 474 326.1C475 330.3 476.1 334.3 477.1 338.3C477.4 339.5 477.6 340.4 477.9 341.3L478.1 341.9C479.5 347.4 481 352.8 482.6 358.2C484.3 364.3 486 370.3 487.8 376.3C490.2 384.4 492.7 392.3 495.2 400.2C496.5 404.3 497.8 408.5 499.2 412.6C499.8 414.4 500.4 416.1 501 417.9L502 420.7C563.7 604.3 663.4 768.2 798.4 907.7C1018.2 1134.9 1311.7 1274.7 1624.8 1301.4C1698.1 1307.7 1772.4 1307.6 1845.7 1301.2C1848.5 1301 1851.3 1300.7 1854 1300.4L1858.5 1300C1860.7 1299.8 1862.9 1299.6 1865.2 1299.3C1870.1 1298.8 1874.8 1298.3 1879.5 1297.8C1882.4 1297.5 1885.3 1297.1 1888.1 1296.8C1896.1 1295.9 1903.9 1294.8 1911.8 1293.7C1921.5 1292.4 1931.4 1290.9 1942.1 1289.2C1947.9 1288.2 1953.9 1287.2 1960 1286.1C1966.3 1285 1972.5 1283.8 1978.8 1282.6L1979.7 1282.4C1985.9 1281.2 1992.1 1279.9 1998.3 1278.7C2004.2 1277.5 2010.1 1276.2 2016 1274.9C2047.9 1267.8 2080.1 1259.4 2111.6 1249.8C2116.8 1248.2 2122 1246.6 2127.1 1245C2132.4 1243.4 2137.5 1241.7 2142.6 1240C2147.7 1238.3 2152.8 1236.6 2157.8 1234.9C2253.2 1202.1 2344.5 1158.2 2429.4 1104.4L2433.5 1101.8C2436.5 1099.9 2439.6 1097.9 2442.6 1096L2453.1 1089.1C2458.6 1085.5 2464.1 1081.8 2469.5 1078.1L2482.5 1069C2493.3 1061.4 2505.2 1056.3 2517.8 1053.8C2519.8 1053.4 2521.9 1053.1 2524 1052.9C2527.8 1052.4 2531.7 1052.1 2536 1052.2L2539.9 1052.4C2546.5 1052.8 2553 1053.9 2559.4 1055.7C2572.1 1059.4 2584.1 1065.8 2594.2 1074.3C2607.9 1085.9 2617.8 1100.9 2622.8 1117.7C2626.7 1130.6 2627.5 1144.1 2625.3 1157.7C2625.2 1158.8 2624.9 1160.4 2624.6 1161.9C2624.3 1163.4 2624 1164.8 2623.6 1166.3C2620.9 1177.3 2617.8 1189 2614.2 1201.8C2612.5 1207.7 2610.8 1213.6 2609.1 1219.5C2604 1236.9 2598.3 1254.6 2592.3 1272.1C2587.9 1285 2583.8 1296.4 2579.9 1306.7C2560.9 1357.7 2538.6 1407.8 2513.8 1455.6C2511.2 1460.6 2508.6 1465.5 2506 1470.4L2505.5 1471.4C2502.7 1476.6 2499.9 1481.8 2497 1487C2494.3 1491.9 2491.5 1496.9 2488.7 1501.9C2481.4 1514.7 2474.9 1525.7 2468.7 1535.7C2456 1556.6 2442.4 1577.5 2428.5 1597.7C2427.7 1598.9 2426.9 1600.1 2426 1601.3L2421.8 1607.3C2420.2 1609.5 2418.7 1611.8 2417.1 1614C2416.8 1614.5 2416.4 1615 2416.1 1615.4L2413.9 1618.6C2412.4 1620.7 2411 1622.7 2409.5 1624.7L2406.1 1629.3C2405.3 1630.5 2404.4 1631.7 2403.5 1632.9C2401.9 1635.1 2400.2 1637.4 2398.6 1639.6L2398.2 1640.1C2397.1 1641.6 2395.9 1643.1 2394.8 1644.6C2393.3 1646.7 2391.7 1648.7 2390.2 1650.8L2386.2 1656C2385.3 1657.2 2384.4 1658.4 2383.4 1659.6C2382.9 1660.3 2382.3 1661 2381.8 1661.7C2378.6 1665.8 2375.4 1669.9 2372.1 1673.9C2371.8 1674.4 2371.3 1675 2370.7 1675.6C2368.7 1678.2 2366.6 1680.7 2364.6 1683.2L2363.7 1684.3C2362.4 1685.9 2361.1 1687.5 2359.7 1689.1C2356.2 1693.5 2352.3 1698.1 2348.4 1702.7L2335.7 1692.9L2348 1703.1C2347.7 1703.5 2347.4 1703.9 2347 1704.2C2346.4 1704.9 2345.8 1705.6 2345.2 1706.3C2343.6 1708.2 2342.1 1710 2340.5 1711.8C2338.9 1713.6 2337.2 1715.6 2335.5 1717.6C2334.7 1718.5 2333.9 1719.5 2333.1 1720.4L2332 1721.6C2331.9 1721.7 2331.6 1722.1 2331.2 1722.5C2328.9 1725.2 2326.5 1727.8 2324.2 1730.4L2322.2 1732.6C2319.5 1735.6 2316.6 1738.8 2313.7 1741.9C2312.7 1743.1 2311.6 1744.2 2310.6 1745.4L2309.4 1746.7C2307 1749.3 2304.7 1751.7 2302.4 1754.1L2301.9 1754.6C2300.9 1755.6 2300 1756.7 2299 1757.7C2297.4 1759.5 2295.5 1761.4 2293.6 1763.4L2290.1 1767.1C2288.2 1769.1 2286.3 1771.1 2284.3 1773L2281.4 1776C2278 1779.5 2274.5 1782.9 2271.1 1786.4C2270.8 1786.7 2270.2 1787.3 2269.6 1787.9L2266.5 1790.9C2264.7 1792.7 2262.9 1794.4 2261.1 1796.2C2260.4 1796.9 2259.4 1797.9 2258.4 1798.8L2251.6 1805.3C2249 1807.8 2246.5 1810.2 2243.8 1812.7C2240.9 1815.5 2237.9 1818.3 2234.9 1821C2233.7 1822.2 2232.4 1823.3 2231.1 1824.5C2227.7 1827.6 2224.3 1830.7 2220.9 1833.8C2219.7 1834.9 2218.3 1836.1 2216.9 1837.4L2215.9 1838.3C2215.2 1839 2214.2 1839.8 2213.2 1840.7L2212.5 1841.3C2211.3 1842.3 2210 1843.5 2208.6 1844.7C2206.9 1846.3 2204.7 1848.1 2202.6 1849.9L2201.7 1850.6C2201.3 1851 2200.9 1851.3 2200.5 1851.7L2200 1852.2C2196.2 1855.5 2192.4 1858.8 2188.5 1862C2187.4 1863 2186 1864.1 2184.6 1865.2C2181.7 1867.7 2178.5 1870.3 2175.3 1872.9L2172.7 1875.1C2172.2 1875.6 2171.6 1876.1 2170.9 1876.6C2169.9 1877.5 2168.8 1878.4 2167.7 1879.2C2164.8 1881.6 2161.4 1884.3 2158.1 1886.9C2157.9 1887.1 2157.7 1887.2 2157.5 1887.4C2157 1887.8 2156.6 1888.1 2156.4 1888.3L2153.9 1890.3C2151.3 1892.3 2148.7 1894.4 2146 1896.4C2144.9 1897.3 2143.5 1898.4 2142.1 1899.4C2138.2 1902.4 2134.4 1905.4 2130.4 1908.3C2128.3 1909.9 2125.9 1911.7 2123.5 1913.5C2121 1915.4 2118.3 1917.3 2115.6 1919.3L2099.9 1930.6C2099.2 1931.1 2098.3 1931.7 2097.4 1932.3C2094.6 1934.2 2091.7 1936.3 2088.7 1938.3L2085.5 1940.5C2077.7 1945.9 2069.3 1951.6 2059.1 1958.2C2047.2 1965.9 2036.3 1972.8 2025.7 1979.2C2022 1981.5 2018.1 1983.9 2014.1 1986.2C2013.5 1986.6 2012.8 1987 2012.2 1987.4C2010.2 1988.6 2008.2 1989.8 2006.1 1990.9C2003.8 1992.3 2001.5 1993.6 1999.2 1994.9C1996.2 1996.7 1993 1998.5 1989.7 2000.3L1987 2001.8C1982.8 2004.2 1978.6 2006.5 1974.4 2008.9C1973.9 2009.2 1973 2009.7 1972.1 2010.1C1968.6 2012 1965.4 2013.8 1962.1 2015.5C1958.5 2017.4 1954.7 2019.4 1950.9 2021.4C1948.3 2022.7 1945.7 2024.1 1943.1 2025.5C1942.1 2026 1941.2 2026.5 1940.2 2027C1939.1 2027.6 1938 2028.2 1936.9 2028.7C1934.2 2030.1 1931.4 2031.5 1928.7 2032.9C1923.3 2035.6 1918.1 2038.2 1913 2040.7C1905.4 2044.4 1897.6 2048.1 1889.9 2051.6L1875.7 2058.2L1875.6 2058.1C1873.8 2058.9 1872 2059.7 1870.1 2060.5L1860.3 2064.9L1860.2 2064.8C1860.2 2064.8 1860.2 2064.8 1860.1 2064.8C1856.5 2066.4 1853.3 2067.7 1850 2069.1L1844.6 2071.4C1842.1 2072.4 1839.8 2073.4 1837.5 2074.3C1836.7 2074.7 1835.8 2075 1834.9 2075.3C1833.6 2075.9 1832.2 2076.4 1830.8 2077L1826.9 2078.6C1825 2079.4 1823 2080.1 1821.1 2080.9C1820.7 2081.1 1820.2 2081.3 1819.6 2081.5L1816.3 2082.8C1813.6 2083.8 1810.9 2084.9 1808.1 2085.9L1807 2086.3C1806.1 2086.7 1805.2 2087 1804.3 2087.3C1804 2087.4 1803.6 2087.6 1803.2 2087.7C1801.4 2088.4 1799.6 2089.1 1797.7 2089.8C1796.2 2090.4 1794.7 2090.9 1793.3 2091.5C1792.4 2091.8 1791.4 2092.2 1790.5 2092.5C1789.8 2092.8 1789 2093.1 1788.2 2093.3C1787 2093.8 1785.8 2094.2 1784.6 2094.6C1782.5 2095.4 1780.3 2096.2 1778.1 2096.9L1772.5 2098.9C1771.3 2099.4 1770.1 2099.8 1768.9 2100.1C1766.5 2101 1764 2101.8 1761.5 2102.6L1755.9 2104.5C1752.5 2105.6 1749 2106.8 1745.6 2107.9L1734.2 2111.6C1730.6 2112.7 1727 2113.9 1723.4 2115C1718 2116.7 1712.6 2118.3 1707.2 2119.8C1706.4 2120.1 1705.5 2120.3 1704.7 2120.6C1702.1 2121.3 1699.5 2122.1 1696.9 2122.8L1696.8 2122.9L1680.6 2127.3C1677.3 2128.2 1674 2129.1 1670.6 2130L1660.9 2132.5C1658.8 2133.1 1656.5 2133.7 1654.1 2134.2C1652.6 2134.6 1651.1 2135 1649.5 2135.4C1646.9 2136 1644.3 2136.7 1641.7 2137.3C1640.4 2137.7 1639.1 2138 1637.8 2138.2C1635.7 2138.7 1633.7 2139.2 1631.6 2139.7L1630.6 2140C1627.9 2140.6 1625.5 2141.1 1623 2141.7C1621.2 2142.1 1619 2142.6 1616.8 2143.1L1613.1 2143.9C1611.2 2144.3 1609.2 2144.7 1607.3 2145.1C1605.1 2145.6 1602.9 2146 1600.8 2146.5L1600.6 2146.9L1592 2148.3C1588.1 2149.1 1584.2 2149.9 1580.3 2150.6C1578 2151 1575.8 2151.4 1573.6 2151.8L1570.8 2152.3C1567.4 2152.9 1564 2153.5 1560.6 2154.2L1559.1 2154.5C1558.4 2154.6 1557.7 2154.8 1557 2154.9C1552.4 2155.7 1547.5 2156.5 1542.5 2157.3C1542.4 2157.3 1542.1 2157.4 1541.8 2157.4L1538.8 2157.9C1535.1 2158.5 1531.4 2159.1 1527.7 2159.6C1524.6 2160.1 1521.4 2160.5 1518.2 2161L1513.2 2161.7C1509.6 2162.2 1506.1 2162.7 1502.5 2163.1L1498.5 2163.6C1493.6 2164.2 1488.7 2164.8 1483.8 2165.4C1480.3 2165.8 1476.7 2166.2 1473.2 2166.6L1469.2 2167C1424.1 2171.6 1378.8 2173.9 1333.6 2173.9ZM305.3 47.2001L304.9 47.5001C304.1 48.2001 303.6 48.7001 303.1 49.2001L301.6 50.8001C300.3 52.2001 298.9 53.8001 297.7 55.5001C294.7 59.5001 291.6 63.5001 288.7 67.5001C282.2 76.3001 276.4 84.3001 271.1 91.8001C261.9 104.9 253.5 117.1 245.7 129.1C241.1 136.1 236.6 143 232.2 150C228.1 156.6 224 163.2 219.9 169.9C212.9 181.5 206 193.3 199.3 205C179.9 239.5 161.8 275.2 145.7 311.1C143.3 316.5 140.8 322 138.5 327.4C133.8 338.2 129.3 349.2 124.9 360C121.8 367.7 118.8 375.3 115.9 383C109.1 401.1 102.6 419.3 96.8002 436.9C95.6002 440.6 94.4002 444.2 93.3002 447.9C87.9002 464.8 82.6002 482.6 77.6002 500.9C75.3002 509.4 73.1002 517.8 70.9002 526.4C61.9002 562 54.5002 598.2 48.6002 634.1C47.8002 638.7 47.1002 643.2 46.5002 647.7C43.7002 666.5 41.3002 684.9 39.4002 702.7C38.9002 707.3 38.4002 711.8 38.0002 716.4C37.8002 718.2 37.7002 719.7 37.5002 721.1L37.3002 723.3C37.0002 726.1 36.8002 729 36.6002 731.8C34.9002 751.9 33.6002 772.2 32.9002 792.3C32.8002 795.3 32.7002 798.1 32.6002 800.9V801.6C32.4002 807.6 32.2002 813.5 32.1002 819.3L32.0002 829.8C31.8002 852.5 32.2002 875.6 33.2002 898.5C33.4002 903.2 33.6002 907.9 33.9002 912.6L34.5002 923.6C34.6002 925.3 34.7002 927.1 34.9002 928.8C35.2002 933 35.5002 937 35.8002 941L36.0002 943.2C36.3002 948 36.8002 952.7 37.2002 957.4C37.6002 962.2 38.1002 966.9 38.6002 971.6C39.1002 976.4 39.6002 981.2 40.1002 985.9C40.6002 990.6 41.2002 995.3 41.8002 1000.1C42.4002 1005 43.0002 1009.9 43.7002 1014.7L44.1002 1017.5C44.6002 1021.2 45.1002 1024.9 45.7002 1028.6C46.4002 1033.6 47.2002 1038.7 48.0002 1043.7C49.5002 1053 51.0002 1062.3 52.7002 1071.5C54.4002 1081.1 56.3002 1090.6 58.2002 1100.2C60.2002 1109.8 62.2002 1119.5 64.3002 1128.8C67.3002 1141.9 70.2002 1153.9 73.1002 1165.5C76.0002 1176.6 79.2002 1188.4 82.9002 1201.7C244.3 1763.5 756.2 2141.8 1329.9 2141.8C1374.9 2141.8 1420.3 2139.5 1465.9 2134.7L1469.8 2134.3C1473.2 2133.9 1476.7 2133.6 1480.1 2133.2C1484.9 2132.6 1489.6 2132.1 1494.4 2131.5L1513.8 2128.9C1516.9 2128.5 1520 2128 1523.1 2127.5C1526.8 2127 1530.3 2126.4 1533.8 2125.9L1537.5 2125.3C1542.3 2124.5 1547.1 2123.8 1551.8 2122.9L1553.4 2122.6C1554.1 2122.5 1554.8 2122.4 1555.5 2122.2C1558.5 2121.7 1561.8 2121.1 1565.1 2120.5L1568.1 2120C1570.2 2119.6 1572.3 2119.2 1574.4 2118.8C1576.1 2118.5 1577.8 2118.2 1579.5 2117.8L1579.8 2117.3L1589.3 2115.9C1593.1 2115.1 1596.9 2114.3 1600.8 2113.5C1603 2113 1604.8 2112.6 1606.6 2112.3L1610.3 2111.5C1612.3 2111.1 1614.3 2110.6 1616.3 2110.1C1618.9 2109.6 1621.1 2109.1 1623.3 2108.6L1623.9 2108.4C1626.2 2107.9 1628.5 2107.3 1630.8 2106.8L1631.7 2106.6C1632.4 2106.5 1633 2106.3 1633.8 2106.1L1634.5 2105.9C1637.1 2105.3 1639.7 2104.7 1642.3 2104.1C1643.6 2103.8 1644.9 2103.5 1646.1 2103.1L1646.9 2102.9C1649 2102.4 1651 2101.9 1653.1 2101.3L1662.8 2098.8C1666.1 2097.9 1669.3 2097.1 1672.6 2096.2L1681.8 2093.7C1686.7 2092.3 1691.6 2090.9 1696.5 2089.5L1698.2 2089C1703.6 2087.5 1708.9 2085.9 1714.3 2084.2C1717.8 2083.1 1721.4 2082 1724.9 2080.9L1735.9 2077.4C1739.3 2076.3 1742.7 2075.2 1746.1 2074L1751.3 2072.2C1754 2071.3 1756.3 2070.5 1758.5 2069.7L1759.4 2069.4C1760 2069.2 1760.7 2069 1761.3 2068.8L1766.2 2067.1C1766.7 2066.9 1767.3 2066.7 1767.9 2066.5C1770 2065.8 1771.9 2065.1 1773.9 2064.3L1774.5 2064.1C1775.5 2063.8 1776.5 2063.4 1777.4 2063.1L1778.1 2062.9C1778.2 2062.9 1778.2 2062.9 1778.1 2063L1780 2062.2C1780.9 2061.9 1781.9 2061.5 1782.8 2061.2C1784.1 2060.8 1785.2 2060.3 1786.3 2059.9L1786.8 2059.7C1788.6 2059.1 1790.3 2058.4 1792 2057.7L1793.4 2057.2C1794.2 2056.9 1794.9 2056.6 1795.7 2056.3L1797.1 2055.8C1799.8 2054.8 1802.4 2053.8 1804.9 2052.8L1809.4 2051C1811.4 2050.2 1813.3 2049.5 1815.3 2048.7L1818.9 2047.3C1820.3 2046.7 1821.6 2046.2 1823 2045.6L1825.7 2044.5C1827.9 2043.6 1830.1 2042.7 1832.3 2041.8L1837.8 2039.5C1841.1 2038.2 1844.1 2036.9 1847.1 2035.6C1849.2 2034.7 1850.9 2033.9 1852.6 2033.2L1857.2 2031.2C1861 2029.5 1864.8 2027.8 1868.6 2026.1L1875.6 2022.1L1876.4 2022.5L1876.6 2022.4C1884.3 2018.9 1891.8 2015.4 1899.2 2011.8C1904.2 2009.4 1909.3 2006.9 1914.2 2004.4C1917.2 2002.9 1919.8 2001.6 1922.5 2000.2L1923 1999.9C1923.8 1999.5 1924.7 1999.1 1925.5 1998.6L1926.2 1998.2C1926.8 1997.9 1927.4 1997.6 1927.9 1997.3L1928.4 1997C1931 1995.7 1933.6 1994.3 1936.2 1993C1939.9 1991.1 1943.5 1989.1 1947.1 1987.2C1950.5 1985.4 1953.7 1983.7 1956.8 1981.9L1957.9 1981.3C1958.1 1981.2 1958.4 1981.1 1958.6 1980.9C1963.1 1978.4 1967.2 1976.1 1971.3 1973.8L1974.1 1972.2C1977.2 1970.5 1980.3 1968.7 1983.3 1966.9C1985.5 1965.6 1987.6 1964.4 1989.6 1963.2L1990.1 1962.9C1992.1 1961.7 1994.1 1960.6 1996.1 1959.4L1997.3 1958.6C2001.2 1956.3 2005.1 1954 2008.9 1951.6C2019.4 1945.3 2030 1938.6 2041.6 1931C2051.5 1924.5 2059.7 1919.1 2067.3 1913.8L2070.5 1911.6C2073.4 1909.6 2076.3 1907.6 2079.2 1905.6C2080 1905.1 2080.5 1904.7 2081 1904.3L2094.6 1894.5C2098 1892.1 2101.3 1889.6 2104.7 1887.2C2107 1885.5 2109.1 1884 2111.1 1882.4C2115.2 1879.4 2119 1876.5 2122.8 1873.5L2123.3 1873.1C2124.3 1872.4 2125.2 1871.6 2126.2 1870.9C2129.1 1868.7 2131.6 1866.7 2134.1 1864.8L2137.8 1861.9C2141.4 1859.1 2144.6 1856.5 2147.8 1853.9C2148.9 1853.1 2149.6 1852.5 2150.3 1851.9L2155.1 1848C2158.2 1845.4 2161.3 1842.9 2164.4 1840.3C2165.7 1839.2 2166.8 1838.3 2167.9 1837.4C2171.9 1834.1 2175.6 1830.9 2179.3 1827.7L2182 1825.4C2183.9 1823.8 2185.8 1822.1 2187.7 1820.5C2189.2 1819.2 2190.3 1818.2 2191.4 1817.2L2192.4 1816.3C2193.1 1815.7 2193.9 1815 2194.6 1814.4L2195.8 1813.3C2197.1 1812.2 2198.3 1811.1 2199.5 1810C2203 1806.8 2206.4 1803.8 2209.6 1800.8L2210 1800.4C2211 1799.6 2211.9 1798.7 2212.8 1797.8L2213.2 1797.4C2216.1 1794.7 2219 1792 2221.9 1789.3C2224.5 1786.9 2226.9 1784.5 2229.4 1782.2L2236.5 1775.4C2237.4 1774.6 2237.9 1774 2238.5 1773.4C2240.5 1771.4 2242.2 1769.7 2244 1768L2248.2 1763.8C2251.8 1760.3 2255.1 1756.9 2258.3 1753.6L2261.3 1750.5C2263.2 1748.5 2265.1 1746.6 2266.9 1744.7L2270.3 1741.2C2272.1 1739.3 2273.9 1737.4 2275.7 1735.5C2276.7 1734.5 2277.5 1733.6 2278.2 1732.8L2278.9 1732C2281.3 1729.5 2283.4 1727.2 2285.6 1724.9L2286.8 1723.5C2287.7 1722.5 2288.6 1721.6 2289.4 1720.6L2289.7 1720.2C2292.5 1717.1 2295.4 1714 2298.2 1710.8L2300.2 1708.6C2302.3 1706.2 2304.6 1703.7 2306.8 1701.2C2306.8 1701.2 2307.2 1700.8 2307.5 1700.4L2307.2 1700.8L2308.8 1699C2309.5 1698.2 2310.1 1697.5 2310.8 1696.7L2311.3 1696.1C2312.9 1694.3 2314.5 1692.5 2316 1690.6C2317.6 1688.8 2319 1687.2 2320.4 1685.5C2321.3 1684.5 2322.2 1683.4 2323.1 1682.4L2324 1681.4C2327.5 1677.3 2331.2 1672.9 2334.8 1668.4C2336.3 1666.7 2337.4 1665.2 2338.6 1663.8L2339.4 1662.8C2341.5 1660.2 2343.6 1657.6 2345.7 1654.9L2346.9 1653.5C2350 1649.6 2353.1 1645.7 2356.2 1641.7C2356.6 1641.2 2357 1640.7 2357.3 1640.2L2358.3 1638.9C2358.9 1638.2 2359.4 1637.6 2359.9 1636.8L2364.4 1630.9C2365.8 1629 2367.3 1627.2 2368.6 1625.3L2369.2 1624.6C2370.2 1623.3 2371.2 1622 2372.1 1620.8L2372.5 1620.3C2374.1 1618.1 2375.7 1615.9 2377.3 1613.7L2377.6 1613.3C2378.2 1612.5 2378.9 1611.6 2379.4 1610.8L2383.1 1605.7C2384.5 1603.8 2385.8 1602 2387.1 1600.1L2390.4 1595.5C2392 1593.2 2393.6 1590.9 2395.2 1588.7L2396 1587.6L2399.5 1582.6C2400.3 1581.5 2401 1580.5 2401.6 1579.6C2415.2 1559.8 2428.4 1539.5 2440.9 1519C2446.9 1509.2 2453.3 1498.4 2460.4 1486C2463.1 1481.2 2465.8 1476.3 2468.6 1471.4C2471.4 1466.3 2474.2 1461.2 2476.9 1456.2L2477.4 1455.3C2479.9 1450.6 2482.5 1445.7 2485 1440.8C2509.2 1394.2 2530.9 1345.3 2549.5 1295.5C2553.3 1285.4 2557.2 1274.3 2561.6 1261.7C2567.4 1244.6 2572.9 1227.3 2577.9 1210.4C2579.6 1204.7 2581.2 1198.9 2582.9 1193.1C2586.4 1180.6 2589.4 1169.2 2592.2 1158.3C2592.5 1157.2 2592.7 1156.2 2592.9 1155.3C2593 1154.7 2593.2 1153.9 2593.3 1153.1C2594.8 1143.8 2594.2 1135.2 2591.8 1126.9C2588.6 1116.1 2582.1 1106.4 2573.2 1098.8C2566.5 1093.2 2558.6 1088.9 2550.2 1086.5C2545.4 1085.1 2540.3 1084.4 2535.2 1084.3H2533.6C2531.5 1084.3 2529.5 1084.5 2527.7 1084.7L2527.1 1084.8C2525.9 1084.9 2524.7 1085.1 2523.6 1085.3C2515.5 1086.9 2507.8 1090.2 2500.6 1095.3L2487.5 1104.4C2481.9 1108.3 2476.2 1112.1 2470.5 1115.8L2460 1122.8C2456.8 1124.9 2453.6 1126.9 2450.4 1128.9L2446.3 1131.5C2359.2 1186.7 2265.7 1231.7 2168.1 1265.3C2162.7 1267.1 2157.5 1268.9 2152.3 1270.6C2147.1 1272.3 2141.8 1274.1 2136.4 1275.7C2131.2 1277.4 2125.9 1279 2120.6 1280.6C2088.2 1290.4 2055.3 1299 2022.6 1306.3C2016.6 1307.6 2010.5 1308.9 2004.5 1310.2C1998.1 1311.5 1991.6 1312.8 1985.2 1314.1L1984.3 1314.3C1977.9 1315.6 1971.5 1316.7 1965.1 1317.8C1959 1318.9 1953 1319.9 1946.9 1320.9C1935.8 1322.7 1925.7 1324.2 1915.8 1325.5C1907.7 1326.6 1899.6 1327.7 1891.5 1328.7C1888.6 1329.1 1885.6 1329.4 1882.6 1329.8C1877.8 1330.3 1872.9 1330.9 1868 1331.3C1865.9 1331.5 1863.5 1331.8 1861.1 1332L1856.6 1332.4C1853.7 1332.7 1850.8 1332.9 1848 1333.2C1772.9 1339.7 1696.8 1339.8 1621.7 1333.4C1300.9 1306.1 1000.2 1162.8 775 930C636.9 787 534.7 619 471.5 430.9L470.6 428.1C470 426.2 469.4 424.4 468.7 422.5C467.3 418.3 466 414.1 464.6 409.8C462 401.6 459.5 393.5 457.1 385.3C455.3 379.2 453.5 373 451.8 366.8C450.2 361.3 448.7 355.8 447.2 350.2C446.8 348.9 446.5 347.6 446.2 346.3C445.2 342.4 444.1 338.3 443 334.1C442.3 331.4 441.6 328.4 440.9 325.5C439.8 321.2 438.7 316.6 437.6 312L436.9 309.1C436 305.2 435.1 301.4 434.3 297.6L432.9 291.3C430.7 281.4 428.5 270.7 426.2 259C425.3 254.6 424.5 250.1 423.7 245.5C422.9 241.3 422.1 236.9 421.4 232.5C417 207.5 413.4 181.8 410.5 156.3C410 151.8 409.5 147.3 409 142.7C408.2 135.6 407.5 128.3 406.9 121C406.5 116.8 406.2 112.6 405.9 108.4C405.3 101.8 404.9 95.0001 404.5 88.2001C404.4 86.8001 404.3 85.3001 404.1 83.9001C400.1 52.9001 375.5 35.8001 353 32.5001C350.5 32.1001 348.1 31.9001 345.8 31.9001L343.1 32.0001C331.4 32.3001 320.4 35.9001 311.2 42.5001L305.3 47.2001ZM1591.9 2133.1L1591.7 2132L1591.9 2133.1ZM2136.8 1862.8C2136.8 1862.8 2136.7 1862.8 2136.7 1862.9L2136.8 1862.8Z" fill="#371A45"/>
<path d="M424 698.3C428 662.5 425.8 622.1 416.2 580.1C387.5 454.2 303.6 362.5 228.9 375.2C154.2 387.9 116.8 500.3 145.5 626.2C174.2 752.1 258.1 843.8 332.8 831.1L424 698.3Z" fill="#FFDA22"/>
<path d="M210.2 385.8C191.5 398.7 177.8 417.6 168.5 438.3C159.1 459.1 153.8 481.6 150.7 504.4C147.7 527.2 147.2 550.5 148.4 573.5C149 585 150.1 596.5 151.8 607.8C152.7 613.4 153.6 619 155 624.3C156.8 629.8 158.3 635.3 160.1 640.8C167.2 662.7 175.8 683.9 185.9 704.3C196.1 724.6 207.8 744.2 221.7 761.9C228.5 770.8 236 779.3 244 787C251.9 794.9 260.5 802 269.7 808.1C278.9 814.3 288.8 819.3 299.2 822.8C309.7 826.1 320.7 827.8 332.1 827.3H332.2C334.3 827.2 336 828.8 336.1 830.9C336.2 832.7 335 834.2 333.4 834.7C321.5 838 308.5 838.6 296 836.5C283.5 834.5 271.5 830 260.3 824.3C249.1 818.5 238.8 811.3 229.3 803.3C219.8 795.2 211.2 786.3 203.1 777C187.3 758.1 174.1 737.2 163.6 715.1C158.2 704.2 153.7 692.8 149.7 681.3C147.7 675.6 145.8 669.8 144.1 664C142.6 658.1 140.9 652.3 139.6 646.4C138.1 640.5 137.1 634.6 136 628.6C134.7 622.4 133.8 616.4 133 610.3C131.5 598.2 130.7 586.2 130.4 574.1C129.8 550 131.3 525.9 135.2 502C139.2 478.2 145.8 454.5 156.8 432.7C167.7 410.9 183.9 391 204.9 378C207.1 376.6 209.9 377.3 211.3 379.5C212.8 381.6 212.2 384.4 210.2 385.8Z" fill="#371A45"/>
<g opacity="0.35">
<path d="M195.7 580.4C199.9 618.9 212.7 655.4 230.4 684.3C251.2 718.2 278.7 741.8 306.9 746.1C359.2 754 394.3 692.7 385.3 609.1C376.7 529.3 330.9 458.1 281.2 444.9C278.8 444.2 276.4 443.7 274.1 443.4C221.7 435.5 186.6 496.9 195.7 580.4Z" fill="#371A45"/>
</g>
<path d="M359.37 769.879C393.1 752.995 395.875 690.225 365.568 629.679C335.261 569.132 283.349 533.737 249.619 550.621C215.889 567.505 213.114 630.274 243.421 690.821C273.728 751.367 325.64 786.763 359.37 769.879Z" fill="#FFDA22"/>
<path d="M379 664.2C380 637.6 376.5 611 368.9 585.7C365.5 572.9 360.5 560.7 355.2 548.8C349.6 537 343.3 525.6 335.9 515.1C328.3 504.7 320 495 310.6 486.9C301.3 478.8 290.7 472.5 279.9 469.6C269.2 466.6 258.3 467.3 248.9 471.9C239.4 476.4 231.5 484.9 225.6 495.1C219.6 505.4 215.6 517.3 213.1 529.6C210.5 541.9 209.4 554.8 209.5 567.7C209.3 574.1 210 580.6 210.3 587.1C211.2 593.5 211.6 600 212.9 606.4C214.9 619.3 218.4 631.9 222.2 644.4C226.5 656.7 231.5 668.9 237.5 680.4C243.7 691.9 250.8 702.8 259.1 712.8C267.4 722.7 277.1 731.4 288.1 737.8C299 744.2 311.5 748 324.2 746.8H324.3C326.4 746.6 328.2 748.1 328.4 750.2C328.6 752.1 327.3 753.8 325.5 754.2C311.1 757.5 295.8 754.7 282.6 748.6C269.3 742.5 257.8 733.5 247.6 723.4C237.6 713.1 229.1 701.6 221.5 689.6C214 677.5 208.1 664.6 202.8 651.4L199.3 641.4C198.1 638.1 197 634.7 196.1 631.3L193.2 621L191 610.6C189.3 603.7 188.7 596.6 187.5 589.5C187 582.4 186 575.3 186 568.1C185.4 553.8 186.5 539.2 189.3 524.9C192.1 510.5 196.6 496.2 204.2 482.8C211.7 469.5 223.1 456.9 238.3 449.7C253.4 442.3 271.5 441.6 286.9 446.2C302.4 450.8 315.3 459.6 326.3 469.5C337.3 479.5 346.5 490.9 354.4 503C362.1 515.2 368.5 528 373.9 541.1C378.8 554.4 383.3 567.9 386 581.7C391.8 609.2 393.3 637.8 388.4 665.4C388 667.9 385.6 669.6 383 669.2C380.6 668.6 378.9 666.6 379 664.2Z" fill="#371A45"/>
</g>
<defs>
<clipPath id="clip0_152_2189">
<rect width="2626.4" height="2173.9" fill="white"/>
</clipPath>
</defs>
</svg>
