<svg width="1089" height="1064" viewBox="0 0 1089 1064" fill="none" xmlns="http://www.w3.org/2000/svg">
<path d="M1003 742.29L722.21 763.58L580.58 1006.97C552.18 1055.82 480.1 1050.84 458.58 998.63L351.58 738.15L76.28 678.62C21.1 666.72 3.56 596.62 46.59 560.1L168.29 456.77C168.29 456.754 168.296 456.739 168.308 456.728C168.319 456.716 168.334 456.71 168.35 456.71L261.26 377.77L232.79 97.62C227.03 41.47 288.24 3.10002 336.31 32.73L576 180.57L833.7 66.89C885.33 44.12 940.7 90.44 927.38 145.31L860.87 418.99L1015 591.24L1048.64 628.83C1086.22 670.99 1059.31 737.95 1003 742.29Z" fill="#FFDA22"/>
<g opacity="0.7">
<path d="M833.7 144.4L576 258.08L336.29 110.24C298.38 86.88 252.29 105.84 237.29 142.46L232.76 97.62C227 41.47 288.21 3.10002 336.28 32.73L576 180.57L833.7 66.89C885.33 44.12 940.7 90.44 927.38 145.31L920.59 173.24C904.35 144.86 868.18 129.24 833.7 144.4Z" fill="white"/>
</g>
<g opacity="0.35">
<path d="M25.49 586.78C28.9147 598.456 35.4471 608.982 44.3892 617.233C53.3313 625.485 64.3473 631.152 76.26 633.63L351.56 693.15L458.56 953.63C480.04 1005.84 552.12 1010.82 580.56 961.97L722.19 718.58L1003 697.29C1033.52 694.94 1055.37 674.22 1063 649.03C1063.72 651.358 1064.32 653.725 1064.78 656.12C1062.42 644.106 1056.83 632.96 1048.63 623.87L1015 586.24C988.61 633.38 852.6 622.13 761 608.58C737.382 605.094 713.28 609.752 692.662 621.788C672.044 633.824 656.137 652.52 647.56 674.8C621.56 742 581.5 826.41 544.27 826.41C511.46 826.41 468.87 742.66 441.27 679.14C432.659 659.309 418.112 642.635 399.632 631.413C381.152 620.191 359.648 614.974 338.08 616.48C278.37 620.69 198.15 622.27 156.25 605.65C92.39 580.29 126.42 508.99 168.25 451.73L46.55 555.06C34.8658 564.837 26.8625 578.304 23.86 593.24C24.3 591.09 24.83 588.92 25.49 586.78Z" fill="#371A45"/>
</g>
<path d="M521.78 1063.35C519.67 1063.35 517.55 1063.28 515.42 1063.14C498.525 1062.04 482.282 1056.21 468.551 1046.3C454.821 1036.4 444.16 1022.83 437.79 1007.14L335.24 757.6L71.54 700.6C55.0147 697.025 39.8188 688.899 27.6696 677.14C15.5204 665.382 6.90219 650.46 2.78902 634.06C-1.32416 617.66 -0.76834 600.437 4.39363 584.337C9.5556 568.236 19.118 553.901 32 542.95L237.64 368.31L210.37 99.9C208.659 83.0749 211.689 66.1065 219.119 50.9139C226.548 35.7213 238.081 22.9106 252.412 13.9306C266.743 4.95062 283.3 0.159628 300.212 0.0994509C317.124 0.0392735 333.716 4.71231 348.11 13.5901L577.75 155.24L824.59 46.3501C840.063 39.5228 857.138 37.1613 873.883 39.5326C890.628 41.9039 906.376 48.9134 919.345 59.7683C932.314 70.6233 941.988 84.8906 947.271 100.957C952.554 117.023 953.236 134.247 949.24 150.68L885.53 412.84L1065.38 613.95C1076.65 626.558 1084.17 642.067 1087.09 658.725C1090 675.383 1088.2 692.525 1081.89 708.212C1075.57 723.9 1064.99 737.508 1051.35 747.497C1037.7 757.487 1021.53 763.459 1004.67 764.74L735.67 785.16L600 1018.3C592.084 1032.03 580.681 1043.43 566.946 1051.34C553.211 1059.25 537.63 1063.39 521.78 1063.35ZM300.53 44.9401C291.944 44.9822 283.544 47.4504 276.3 52.0601C269.014 56.5091 263.152 62.9476 259.403 70.6172C255.654 78.2868 254.175 86.868 255.14 95.3501L284.81 387.3L61.14 577.24C54.6511 582.753 49.8337 589.971 47.2324 598.079C44.6312 606.186 44.3498 614.86 46.42 623.119C48.4902 631.378 52.8296 638.893 58.9475 644.815C65.0654 650.737 72.7179 654.83 81.04 656.63L367.87 718.63L479.41 990.06C482.647 997.937 488.023 1004.75 494.93 1009.73C501.837 1014.71 510.001 1017.66 518.496 1018.24C526.992 1018.83 535.482 1017.02 543.005 1013.03C550.529 1009.04 556.786 1003.03 561.07 995.67L708.66 742.03L1001.27 719.82C1009.76 719.176 1017.9 716.17 1024.77 711.14C1031.64 706.11 1036.97 699.258 1040.15 691.359C1043.33 683.46 1044.23 674.829 1042.76 666.442C1041.29 658.055 1037.51 650.247 1031.83 643.9L836.22 425.15L905.52 140C907.53 131.725 907.185 123.053 904.523 114.964C901.862 106.875 896.991 99.6924 890.46 94.2274C883.93 88.7623 876.001 85.2332 867.57 84.0391C859.138 82.8449 850.541 84.0334 842.75 87.4701L574.27 205.92L324.49 51.9201C317.31 47.4068 309.011 44.9893 300.53 44.9401Z" fill="#371A45"/>
</svg>
