<svg width="658" height="924" viewBox="0 0 658 924" fill="none" xmlns="http://www.w3.org/2000/svg">
<g clip-path="url(#clip0_19_3564)">
<g opacity="0.35">
<path d="M315.724 924C490.094 924 631.448 907.133 631.448 886.328C631.448 865.522 490.094 848.655 315.724 848.655C141.355 848.655 0 865.522 0 886.328C0 907.133 141.355 924 315.724 924Z" fill="#0B3D91"/>
</g>
<path d="M151.771 396.822V609.188C151.771 621.375 154.968 632.822 160.588 642.787C172.4 663.761 194.913 678.002 220.556 678.002H418.195C442.896 678.002 464.702 664.805 476.817 645.076C483.278 634.606 486.98 622.318 486.98 609.188V396.822C486.98 392.143 486.509 387.632 485.6 383.221C483.143 371.034 477.423 359.992 469.413 351.037C456.794 336.93 438.487 328.009 418.161 328.009H220.59C191.077 328.009 165.737 346.828 156.045 373.088C153.285 380.494 151.771 388.507 151.771 396.822Z" fill="white"/>
<path d="M418.229 683.153H220.556C179.803 683.153 146.622 649.992 146.622 609.188V396.822C146.622 356.053 179.77 322.858 220.556 322.858H418.229C458.981 322.858 492.162 356.019 492.162 396.822V609.188C492.162 649.958 459.015 683.153 418.229 683.153ZM220.556 333.16C185.457 333.16 156.886 361.742 156.886 396.856V609.222C156.886 644.336 185.457 672.918 220.556 672.918H418.229C453.328 672.918 481.898 644.336 481.898 609.222V396.856C481.898 361.742 453.328 333.16 418.229 333.16H220.556V333.16Z" fill="#0B3D91"/>
<path d="M195.923 348.108C195.923 348.108 110.312 445.504 110.312 526.841C110.312 596.462 195.923 620.399 195.923 620.399L314.58 419.379L195.923 348.108Z" fill="white"/>
<path d="M110.312 526.807C110.312 596.429 195.923 620.365 195.923 620.365L198.851 615.416L314.58 419.345L225.133 365.648L195.923 348.108C195.923 348.108 110.312 445.504 110.312 526.807Z" fill="white"/>
<g opacity="0.35">
<path d="M146.219 536.335C146.219 576.532 174.756 601.512 198.884 615.416L314.614 419.345L225.133 365.648C204.975 390.527 146.219 468.935 146.219 536.335Z" fill="#0B3D91"/>
</g>
<path d="M198.346 626.392L194.543 625.314C193.634 625.045 172.063 618.918 150.223 603.936C120.777 583.703 105.197 557.039 105.197 526.807C105.197 444.494 188.519 348.714 192.086 344.707L194.913 341.475L321.613 417.561L198.346 626.392ZM197.033 354.773C182.495 372.246 115.46 456.58 115.46 526.841C115.46 583.737 177.582 608.751 193.601 614.238L307.547 421.163L197.033 354.773Z" fill="#0B3D91"/>
<path d="M451.006 466.141C451.006 466.141 487.283 511.59 545.366 501.558C605.604 491.155 594.936 390.864 594.936 390.864L503.402 355.615C503.402 355.615 509.089 386.958 495.83 386.958C480.99 386.958 454.472 352.013 431.353 341.509L451.006 466.141Z" fill="white"/>
<g opacity="0.35">
<path d="M437.478 380.461L451.006 466.141C451.006 466.141 487.283 511.59 545.366 501.558C605.604 491.155 594.936 390.83 594.936 390.83L552.837 413.42C581.239 418.503 577.672 470.181 534.564 477.655C476.48 487.687 441.65 396.048 441.65 396.048L437.478 380.461Z" fill="#0B3D91"/>
</g>
<path d="M528.473 508.156C478.601 508.156 448.381 471.09 446.968 469.339C445.184 467.117 445.554 463.885 447.775 462.135C449.996 460.35 453.227 460.721 454.977 462.943C455.313 463.38 490.143 505.867 544.458 496.508C593.59 488.024 591.167 410.996 590.056 394.499L509.527 363.493C510.099 371.304 509.83 382.009 505.017 387.766C502.662 390.594 499.465 392.076 495.797 392.076C485.937 392.076 474.327 381.807 460.933 369.923C450.299 360.497 439.261 350.734 429.199 346.155C426.608 344.977 425.464 341.947 426.642 339.354C427.82 336.762 430.848 335.617 433.439 336.796C444.948 342.014 456.525 352.282 467.765 362.214C478.129 371.371 489.84 381.774 495.83 381.774C496.47 381.774 496.773 381.639 497.177 381.134C500.34 377.363 499.734 364.2 498.354 356.49L496.739 347.502L599.715 387.16L600.051 390.291C600.522 394.567 610.483 495.531 546.241 506.608C540.083 507.685 534.16 508.156 528.473 508.156Z" fill="#0B3D91"/>
<g opacity="0.35">
<path d="M385.788 728.939C385.216 729.208 384.644 729.444 384.105 729.679C384.678 729.444 385.216 729.208 385.788 728.939Z" fill="#0B3D91"/>
</g>
<g opacity="0.35">
<path d="M314.58 571.617C313.133 573.805 311.753 575.993 310.407 578.114C311.753 575.993 313.167 573.805 314.58 571.617Z" fill="#0B3D91"/>
</g>
<path d="M138.007 848.487C138.075 849.362 138.209 850.238 138.377 851.079C142.719 876.867 172.938 886.092 227.286 878.955C251.886 875.756 285.908 871.952 294.894 852.359C312.796 813.239 294.523 734.056 296.643 683.321V683.254C296.643 683.254 306.537 684.466 318.787 684.466C331.07 684.466 340.963 683.254 340.963 683.254C340.963 683.658 340.997 684.062 340.997 684.499C342.814 735.268 324.945 813.541 342.713 852.392C351.698 871.986 385.687 875.79 410.32 878.988C464.736 886.126 494.922 876.867 499.229 851.012C499.364 850.17 499.498 849.362 499.566 848.521C502.695 817.009 458.746 802.364 458.746 802.364C458.746 802.364 468.337 735.503 474.663 675.174C477.322 649.79 477.927 623.564 477.086 597.439C476.884 590.672 476.581 583.905 476.178 577.172C475.605 567.577 474.899 558.083 474.024 548.657C473.25 540.476 472.408 532.396 471.433 524.451C467.865 494.488 463.053 466.141 458.106 441.228C453.664 418.874 449.121 399.246 445.218 383.659C444.343 380.225 443.535 376.993 442.727 373.929C437.949 355.548 434.651 344.876 434.651 344.876H202.889C202.889 344.876 199.557 355.649 194.778 374.131C191.952 384.938 188.654 398.438 185.188 413.925C183.842 419.985 182.462 426.348 181.116 433.013C175.563 459.913 170.078 491.323 166.107 524.686C165.165 532.497 164.323 540.375 163.583 548.354C162.674 558.117 161.934 567.981 161.362 577.912C160.958 584.949 160.622 592.018 160.42 599.088C160.285 603.768 160.184 608.481 160.15 613.161C159.949 634.034 160.79 654.873 162.91 675.106C169.236 735.436 178.794 802.297 178.794 802.297C178.794 802.297 134.878 816.975 138.007 848.487Z" fill="white"/>
<g opacity="0.35">
<path d="M342.68 852.325C351.665 871.919 385.653 875.723 410.287 878.955C464.702 886.058 494.888 876.834 499.196 850.978C454.64 868.687 376.13 858.587 362.703 836.098C345.304 807.01 342.511 777.923 369.534 741.664C396.557 705.44 398.643 658.105 398.643 658.105C385.721 667.633 359.135 677.968 340.93 684.432C342.781 735.2 324.911 813.474 342.68 852.325Z" fill="#0B3D91"/>
</g>
<g opacity="0.35">
<path d="M138.344 851.046C142.685 876.834 172.905 886.025 227.219 878.955C251.819 875.756 285.875 871.952 294.826 852.325C312.729 813.205 294.456 734.022 296.576 683.287C281.5 678.574 253.636 668.946 238.964 658.105C238.964 658.105 231.56 692.142 263.059 738.634C288.466 776.172 290.317 806 272.919 835.088C260.636 855.725 187.308 864.209 138.344 851.046Z" fill="#0B3D91"/>
</g>
<path d="M446.867 383.188C452.487 399.953 457.063 417.056 461.135 434.225C463.154 442.844 465.072 451.463 466.755 460.148C467.596 464.491 468.471 468.834 469.245 473.177L471.466 486.273C472.24 490.616 472.88 494.993 473.519 499.369L475.471 512.499C476.043 516.876 476.615 521.286 477.12 525.663C477.692 530.039 478.129 534.449 478.567 538.86C480.519 556.467 481.495 574.175 482.269 591.884C482.672 609.626 482.975 627.368 481.966 645.11L481.663 651.776L481.495 655.109L481.225 658.442L480.115 671.74C479.341 680.594 478.298 689.314 477.322 698.1C473.317 733.147 468.774 768.092 463.861 803.038L460.395 797.449C462.784 798.291 464.803 799.132 466.923 800.075C469.01 801.018 471.062 802.028 473.082 803.071C477.12 805.226 481.057 807.65 484.759 810.478C488.494 813.272 491.994 816.47 495.124 820.174C498.22 823.843 500.845 828.153 502.628 832.866C504.378 837.579 505.085 842.764 504.748 847.78C504.445 852.729 503.2 857.644 500.946 862.256C498.657 866.835 495.292 870.909 491.321 873.972C487.384 877.103 483.009 879.359 478.567 881.008C469.649 884.341 460.529 885.587 451.544 886.159C442.559 886.664 433.641 886.361 424.791 885.688C420.382 885.318 415.974 884.88 411.599 884.308L398.609 882.624C389.927 881.412 381.144 879.998 372.394 877.642C368.02 876.463 363.645 875.049 359.337 873.198C355.064 871.313 350.823 868.99 346.92 865.825C345.002 864.209 343.184 862.391 341.569 860.371C339.954 858.385 338.608 855.927 337.632 853.671C335.68 849.362 334.368 844.885 333.257 840.441C331.137 831.519 330.228 822.53 329.825 813.643C329.421 804.755 329.522 795.9 329.892 787.114C330.599 769.54 332.247 752.168 333.661 734.897C335.041 717.627 336.387 700.356 335.747 683.456L341.502 688.337C337.598 688.775 333.896 689.044 330.094 689.28C326.325 689.482 322.522 689.583 318.719 689.583C314.917 689.583 311.114 689.482 307.345 689.28C303.542 689.078 299.84 688.775 295.937 688.337L301.691 683.456C301.052 700.356 302.398 717.627 303.778 734.897C305.191 752.202 306.84 769.574 307.547 787.114C307.917 795.9 308.018 804.721 307.614 813.643C307.21 822.53 306.302 831.486 304.182 840.441C303.071 844.885 301.792 849.362 299.807 853.671C298.865 855.893 297.485 858.351 295.87 860.371C294.254 862.425 292.437 864.209 290.519 865.825C286.649 868.99 282.409 871.313 278.101 873.198C273.794 875.049 269.419 876.497 265.044 877.642C256.295 879.998 247.511 881.412 238.829 882.624L225.839 884.308C221.465 884.88 217.056 885.284 212.648 885.688C203.797 886.361 194.913 886.664 185.894 886.159C176.909 885.587 167.79 884.341 158.872 881.008C154.43 879.359 150.055 877.103 146.118 873.972C142.147 870.909 138.815 866.835 136.493 862.256C134.238 857.644 132.993 852.695 132.69 847.78C132.354 842.764 133.027 837.579 134.81 832.866C136.594 828.153 139.219 823.877 142.315 820.174C145.445 816.504 148.944 813.272 152.68 810.478C156.415 807.684 160.319 805.26 164.357 803.071C166.376 801.994 168.429 800.984 170.515 800.075C172.635 799.132 174.655 798.291 177.044 797.449L173.578 803.038C168.631 767.823 164.054 732.608 160.016 697.292C159.04 688.438 157.997 679.685 157.223 670.73C156.853 666.252 156.348 661.808 156.112 657.331L155.338 643.932C154.632 626.021 154.733 608.145 155.439 590.302C156.112 572.458 157.526 554.649 159.376 536.907C159.78 532.463 160.319 528.019 160.824 523.609C161.328 519.165 161.867 514.755 162.439 510.311C163.549 501.457 164.727 492.636 166.107 483.816C168.833 466.141 172.131 448.736 176.27 431.229C177.347 426.886 178.491 422.577 179.736 418.301C180.947 413.992 182.226 409.75 183.572 405.475C186.298 396.957 189.226 388.507 192.961 380.292C193.365 379.417 194.375 379.047 195.25 379.451C195.99 379.787 196.394 380.595 196.226 381.37V381.403C192.658 398.708 189.394 416.113 185.962 433.417C182.866 450.655 179.803 468.161 176.943 485.566C171.155 520.377 167.083 555.524 165.737 590.773C165.03 608.38 164.929 625.988 165.636 643.561C166.376 661.135 168.227 678.574 170.246 696.215C174.251 731.396 178.827 766.577 183.741 801.657L184.346 805.832L180.308 807.246C178.592 807.852 176.573 808.66 174.722 809.502C172.837 810.343 170.986 811.252 169.169 812.195C165.535 814.114 162.069 816.302 158.838 818.726C152.411 823.54 146.993 829.533 144.435 836.434C143.156 839.868 142.685 843.471 142.921 847.14C143.123 850.877 144.098 854.513 145.646 857.711C148.81 864.108 155.035 868.72 162.439 871.447C169.842 874.208 178.121 875.42 186.433 875.958C194.779 876.43 203.293 876.16 211.773 875.487C216.013 875.117 220.253 874.713 224.527 874.174L237.382 872.491C245.896 871.313 254.309 869.932 262.352 867.778C270.328 865.623 278.168 862.66 283.923 857.947C285.336 856.769 286.615 855.489 287.692 854.109L288.466 853.065L289.139 851.955C289.375 851.584 289.543 851.214 289.745 850.81L290.048 850.238L290.317 849.564C291.966 845.962 293.11 842.023 294.086 838.084C296.004 830.105 296.879 821.689 297.249 813.205C297.653 804.721 297.518 796.17 297.182 787.585C296.475 770.415 294.86 753.145 293.447 735.773C292.067 718.401 290.653 700.928 291.326 683.052L291.528 677.53L297.081 678.17C300.513 678.574 304.215 678.843 307.782 679.045C311.383 679.247 315.018 679.348 318.585 679.348C322.185 679.348 325.786 679.247 329.387 679.045C332.954 678.843 336.656 678.574 340.088 678.17L345.641 677.53L345.843 683.052C346.482 700.928 345.103 718.401 343.723 735.773C342.309 753.145 340.694 770.382 339.987 787.585C339.651 796.17 339.516 804.755 339.92 813.205C340.29 821.689 341.165 830.072 343.083 838.084C344.093 842.057 345.204 845.962 346.852 849.564L347.122 850.238L347.425 850.81C347.626 851.18 347.795 851.584 348.03 851.955L348.703 853.065L349.477 854.109C350.554 855.489 351.833 856.769 353.246 857.947C359.001 862.66 366.842 865.623 374.817 867.778C382.86 869.932 391.273 871.313 399.787 872.491L412.642 874.174C416.883 874.713 421.123 875.117 425.397 875.487C433.877 876.16 442.391 876.43 450.737 875.958C459.049 875.453 467.327 874.241 474.731 871.447C482.134 868.72 488.36 864.142 491.523 857.711C493.071 854.513 494.047 850.877 494.249 847.14C494.484 843.504 494.013 839.868 492.734 836.434C490.21 829.567 484.759 823.54 478.331 818.726C475.101 816.302 471.635 814.147 468 812.195C466.183 811.252 464.332 810.343 462.448 809.502C460.597 808.66 458.578 807.852 456.861 807.246L452.823 805.832L453.429 801.657C458.342 766.847 462.851 731.935 466.856 697.023C467.798 688.304 468.875 679.55 469.615 670.831L470.692 657.802L470.962 654.536L471.096 651.271L471.365 644.74C472.24 627.334 471.937 609.828 471.332 592.389C469.649 557.477 465.88 522.633 460.765 487.957C455.582 453.28 449.29 418.806 443.266 384.063C443.098 383.12 443.737 382.245 444.679 382.077C445.79 381.908 446.597 382.413 446.867 383.188Z" fill="#0B3D91"/>
<path d="M223.989 764.221C181.89 764.221 167.419 745.873 166.578 744.762C164.862 742.506 165.333 739.274 167.588 737.557C169.842 735.874 173.039 736.311 174.755 738.533C175.193 739.106 202.788 771.863 296.307 739.846C298.999 738.937 301.927 740.351 302.835 743.045C303.744 745.738 302.331 748.633 299.639 749.576C267.871 760.45 243.069 764.221 223.989 764.221Z" fill="#0B3D91"/>
<path d="M417.758 766.645C380.067 766.645 339.685 753.347 337.127 752.471C334.435 751.562 332.988 748.667 333.896 745.974C334.805 743.28 337.699 741.833 340.391 742.742C341.3 743.045 431.387 772.705 462.616 743.853C464.702 741.934 467.933 742.068 469.885 744.122C471.803 746.209 471.668 749.441 469.615 751.394C457.198 762.84 437.848 766.645 417.758 766.645Z" fill="#0B3D91"/>
<path d="M125.287 285.994C127.441 285.691 128.989 283.704 128.686 281.516L113.139 168.331C112.836 166.176 110.85 164.627 108.663 164.93C85.9142 168.061 69.9967 189.035 73.1264 211.794L78.4098 250.375C81.5731 273.167 102.538 289.091 125.287 285.994Z" fill="white"/>
<path d="M119.566 287.307C110.346 287.307 101.428 284.31 93.9569 278.654C84.9045 271.787 79.0827 261.821 77.5347 250.543L72.2513 211.962C70.7033 200.717 73.631 189.54 80.4961 180.484C87.3611 171.428 97.3221 165.604 108.596 164.055C109.874 163.887 111.187 164.223 112.196 164.998C113.24 165.772 113.913 166.95 114.081 168.23L129.628 281.381C129.998 284.041 128.114 286.532 125.455 286.903C123.47 287.172 121.484 287.307 119.566 287.307ZM109.235 165.839C109.1 165.839 108.966 165.839 108.831 165.873C98.0625 167.354 88.5389 172.943 81.9768 181.595C75.4146 190.247 72.6215 200.953 74.1022 211.726L79.3856 250.308C80.8662 261.081 86.4525 270.608 95.1011 277.173C103.75 283.738 114.451 286.532 125.22 285.051C126.869 284.815 128.047 283.3 127.811 281.617L112.264 168.465C112.163 167.657 111.725 166.95 111.086 166.445C110.514 166.041 109.874 165.839 109.235 165.839Z" fill="#0B3D91"/>
<g opacity="0.35">
<path d="M75.9529 232.33L78.4431 250.442C81.5728 273.201 102.538 289.125 125.321 285.994C127.474 285.691 128.989 283.671 128.719 281.516L124.614 251.419C124.21 252.866 122.965 254.011 121.35 254.246L118.657 254.617C100.654 257.074 83.7602 247.648 75.9529 232.33Z" fill="#0B3D91"/>
</g>
<path d="M119.532 291.515C109.403 291.515 99.6104 288.249 91.3993 282.021C81.4382 274.48 75.0443 263.505 73.3617 251.149L68.0783 212.568C66.3957 200.212 69.5927 187.924 77.1308 177.959C84.6688 168.028 95.6394 161.597 107.99 159.914C110.379 159.577 112.802 160.217 114.72 161.665C116.672 163.146 117.917 165.267 118.22 167.691L133.767 280.843C134.44 285.825 130.974 290.404 125.994 291.111C123.84 291.346 121.686 291.515 119.532 291.515ZM108.225 170.216C99.0383 171.764 90.9618 176.68 85.3082 184.12C79.4191 191.897 76.9288 201.458 78.2413 211.12L83.5247 249.702C84.8371 259.364 89.8513 267.915 97.6249 273.806C105.062 279.462 114.182 281.987 123.436 281.011L108.225 170.216Z" fill="#0B3D91"/>
<path d="M482.067 113.657C479.913 113.96 478.365 115.946 478.668 118.134L494.215 231.32C494.518 233.474 496.504 235.023 498.691 234.72C521.44 231.589 537.357 210.615 534.228 187.857L528.944 149.276C525.815 126.45 504.816 110.526 482.067 113.657Z" fill="white"/>
<path d="M498.153 235.629C497.109 235.629 496.066 235.292 495.225 234.619C494.182 233.845 493.509 232.7 493.34 231.387L477.793 118.202C477.423 115.542 479.307 113.051 481.966 112.68C493.206 111.132 504.378 114.061 513.431 120.929C522.483 127.797 528.305 137.762 529.853 149.04L535.136 187.621C536.684 198.866 533.756 210.043 526.891 219.099C520.026 228.155 510.065 233.979 498.792 235.528C498.59 235.629 498.354 235.629 498.153 235.629ZM482.201 114.566C480.552 114.801 479.375 116.316 479.61 118L495.158 231.185C495.258 231.993 495.696 232.7 496.335 233.205C496.975 233.71 497.782 233.912 498.59 233.811C509.359 232.33 518.882 226.741 525.444 218.089C532.007 209.437 534.8 198.731 533.319 187.958L528.036 149.377C526.555 138.603 520.969 129.076 512.32 122.511C503.671 115.879 492.97 113.084 482.201 114.566Z" fill="#0B3D91"/>
<g opacity="0.35">
<path d="M489.908 199.909L494.215 231.32C494.518 233.474 496.537 234.989 498.691 234.72C510.637 233.071 520.699 226.506 527.127 217.348C532.915 209.067 535.708 198.664 534.228 187.857L532.007 171.596C527.497 186.746 514.474 198.664 497.782 200.953L493.643 201.525C492.162 201.694 490.749 201.02 489.908 199.909Z" fill="#0B3D91"/>
</g>
<path d="M498.153 239.871C493.677 239.871 489.773 236.572 489.134 231.993L473.586 118.841C472.913 113.859 476.38 109.28 481.36 108.573C493.71 106.89 505.993 110.088 515.954 117.629C525.916 125.171 532.309 136.146 533.992 148.501L539.275 187.083C540.958 199.438 537.761 211.726 530.223 221.691C522.685 231.623 511.714 238.053 499.364 239.736C498.96 239.837 498.556 239.871 498.153 239.871ZM483.951 118.606L499.162 229.435C508.349 227.886 516.426 222.971 522.079 215.53C527.968 207.754 530.459 198.192 529.146 188.53L523.863 149.949C522.55 140.287 517.536 131.735 509.763 125.844C502.325 120.154 493.206 117.629 483.951 118.606Z" fill="#0B3D91"/>
<g opacity="0.35">
<path d="M156.011 373.088C159.444 376.69 163.011 380.158 166.679 383.491C173.477 389.652 180.712 395.341 188.25 400.526C220.724 422.846 259.592 435.74 300.379 436.346C315.287 436.582 330.464 435.168 345.675 431.97C381.312 424.462 412.811 408.067 438.319 385.612C440.372 383.827 442.357 381.976 444.309 380.09C450.064 374.603 455.481 368.779 460.529 362.685C463.659 358.914 466.654 355.043 469.481 351.07C456.861 336.964 438.554 328.043 418.229 328.043H220.59C191.077 328.009 165.737 346.828 156.011 373.088Z" fill="#0B3D91"/>
</g>
<path d="M303.677 394.466C411.138 394.466 498.253 307.315 498.253 199.808C498.253 92.302 411.138 5.15094 303.677 5.15094C196.215 5.15094 109.1 92.302 109.1 199.808C109.1 307.315 196.215 394.466 303.677 394.466Z" fill="white"/>
<path d="M303.273 395.476C265.751 395.476 229.036 384.635 196.865 363.661C153.117 335.112 123.099 291.212 112.364 240.107C101.596 189.002 111.389 136.718 139.926 92.9858C168.429 49.2198 212.278 19.1897 263.395 8.41652C368.895 -13.8031 472.779 54.0004 494.955 159.51C517.166 265.053 449.39 368.981 343.925 391.167C330.397 394.062 316.767 395.476 303.273 395.476ZM303.71 6.0599C290.519 6.0599 277.159 7.40654 263.765 10.2345C213.153 20.9067 169.708 50.6338 141.44 93.9958C113.172 137.324 103.48 189.103 114.148 239.736C124.816 290.37 154.531 333.833 197.874 362.113C241.218 390.392 292.942 400.088 343.555 389.416C448.044 367.398 515.18 264.481 493.172 159.914C473.99 68.7798 393.326 6.0599 303.71 6.0599Z" fill="#0B3D91"/>
<g opacity="0.35">
<path d="M109.538 213.174C110.144 222.028 111.389 230.983 113.273 239.938C135.416 345.145 238.594 412.477 343.757 390.325C448.92 368.173 516.224 264.952 494.081 159.746C493.441 156.716 492.735 153.719 491.961 150.757C498.624 246.2 434.113 334.338 337.901 354.571C235.767 376.05 135.517 313.162 109.538 213.174Z" fill="#0B3D91"/>
</g>
<path d="M303.273 399.684C264.943 399.684 227.421 388.608 194.577 367.163C149.887 338.008 119.23 293.198 108.225 240.982C97.2211 188.766 107.249 135.371 136.392 90.6965C165.535 45.9543 210.326 15.2844 262.52 4.30928C370.274 -18.3817 476.413 50.8695 499.095 158.668C521.776 266.467 452.554 372.65 344.8 395.341C330.969 398.236 317.07 399.684 303.273 399.684ZM303.711 10.2682C290.822 10.2682 277.731 11.5812 264.64 14.3418C215.138 24.7783 172.636 53.8658 144.973 96.2851C117.345 138.671 107.855 189.305 118.254 238.861C128.686 288.384 157.761 330.904 200.129 358.578C242.531 386.218 293.144 395.711 342.646 385.309C444.881 363.796 510.536 263.067 488.999 160.823C470.289 71.6415 391.374 10.2682 303.711 10.2682Z" fill="#0B3D91"/>
<path d="M114.888 244.685C122.157 282.088 141.07 314.408 167.386 339.085C187.14 357.601 258.415 382.817 337.497 368.139C410.825 354.538 469.851 302.49 481.225 277.947C496.369 245.19 501.753 208.124 494.484 170.721C475.235 71.7761 382.255 47.3009 277.428 67.7362C172.636 88.1715 95.6394 145.741 114.888 244.685Z" fill="#0B3D91"/>
<path d="M288.634 377.767C227.489 377.767 179.366 357.332 163.886 342.856C135.786 316.529 117.11 282.93 109.841 245.662C100.384 197.081 112.567 155.874 146.05 123.083C175.227 94.5008 220.354 73.6278 276.486 62.6863C332.618 51.7448 382.255 54.1688 420.046 69.6889C463.356 87.4982 490.11 121.164 499.566 169.711C506.835 206.946 502.09 245.123 485.937 280.068C473.99 305.89 414.527 359.049 338.507 373.155C321.21 376.387 304.485 377.767 288.634 377.767ZM119.936 243.709C126.768 278.823 144.401 310.503 170.919 335.348C188.519 351.845 257.338 377.801 336.589 363.089C408.133 349.825 465.746 299.191 476.582 275.793C491.826 242.8 496.302 206.811 489.47 171.697C480.721 126.753 456.054 95.6118 416.109 79.2164C380.202 64.437 332.584 62.215 278.438 72.7862C224.292 83.3236 180.981 103.288 153.252 130.456C122.393 160.621 111.187 198.731 119.936 243.709Z" fill="#0B3D91"/>
<g opacity="0.7">
<path d="M186.476 251.307C199.307 246.304 204.113 227.882 197.209 210.161C190.305 192.439 174.307 182.128 161.476 187.131C148.644 192.133 143.839 210.555 150.743 228.277C157.646 245.999 173.645 256.31 186.476 251.307Z" fill="white"/>
</g>
<g opacity="0.7">
<path d="M224.738 294.124C231.274 290.464 233.114 281.316 228.848 273.69C224.581 266.065 215.825 262.85 209.289 266.509C202.753 270.169 200.913 279.317 205.18 286.943C209.446 294.568 218.203 297.783 224.738 294.124Z" fill="white"/>
</g>
<g opacity="0.35">
<path d="M133.835 145.168C114.956 171.832 107.149 204.926 114.888 244.652C122.157 282.055 141.07 314.408 167.386 339.085C187.14 357.601 258.415 382.817 337.531 368.139C365.462 362.954 391.307 352.215 413.248 339.523C315.623 355.48 228.734 324.407 204.235 301.446C170.818 270.137 146.824 229.064 137.604 181.629C135.113 168.937 133.936 156.817 133.835 145.168Z" fill="#111A28"/>
</g>
<path d="M114.316 159.88C113.172 159.88 111.994 159.51 111.052 158.702C109.134 157.12 108.663 154.426 109.773 152.339C134.609 98.0694 194.308 58.074 273.659 42.6213C353.65 27.0339 424.252 42.655 467.361 85.4783L463.76 89.1479L460.529 93.1205L463.76 89.1479L460.529 93.1205L460.126 92.7501C419.44 52.3508 352.203 37.7734 275.611 52.6875C199.456 67.5342 142.382 105.476 118.994 156.817L118.758 157.322L118.254 157.995C117.278 159.241 115.797 159.88 114.316 159.88Z" fill="#0B3D91"/>
<g opacity="0.7">
<path d="M463.323 237.885C463.323 237.885 474.966 134.294 414.796 105.644C354.626 76.9944 279.01 91.8748 281.736 96.3861C281.736 96.3861 369.433 100.359 415.099 160.217C450.333 206.373 463.323 237.885 463.323 237.885Z" fill="white"/>
</g>
<path d="M340.055 678.136L347.29 676.285C349.747 675.578 352.203 674.938 354.66 674.197C359.573 672.784 364.453 671.201 369.299 669.484C374.178 667.801 378.923 665.848 383.769 663.929C388.682 662.078 393.427 659.923 398.643 658.105C395.211 662.381 391.206 666.118 386.798 669.316C384.644 670.999 382.322 672.447 380.034 673.894C377.678 675.241 375.322 676.588 372.866 677.8C368.02 680.291 362.972 682.412 357.823 684.196C352.607 685.947 347.492 687.428 341.737 688.236C338.944 688.64 336.319 686.688 335.916 683.893C335.545 681.267 337.194 678.843 339.685 678.204L340.055 678.136Z" fill="#0B3D91"/>
<path d="M295.869 688.27C290.149 687.462 285 685.981 279.784 684.23C274.635 682.446 269.587 680.291 264.741 677.833C262.318 676.621 259.929 675.241 257.573 673.928C255.251 672.481 252.963 671.033 250.809 669.35C246.434 666.151 242.396 662.381 238.964 658.139C244.18 659.957 248.925 662.111 253.838 663.963C258.684 665.848 263.462 667.835 268.308 669.518C273.154 671.235 278.034 672.817 282.947 674.231C285.404 674.972 287.86 675.612 290.317 676.318L297.552 678.17L297.821 678.237C300.581 678.944 302.23 681.739 301.523 684.499C300.917 687.024 298.427 688.607 295.869 688.27Z" fill="#0B3D91"/>
<path d="M457.837 807.381C454.842 807.01 451.544 806.674 448.347 806.404C445.15 806.135 441.92 805.866 438.689 805.765C432.228 805.428 425.8 805.394 419.339 805.664C412.911 806 406.551 806.808 400.124 807.852C393.763 809.03 387.538 810.781 381.009 812.935C385.922 808.189 391.98 804.586 398.374 801.927C404.801 799.368 411.599 797.752 418.397 796.641C425.228 795.631 432.127 795.193 438.992 795.261C442.424 795.328 445.857 795.463 449.289 795.799C452.756 796.102 456.054 796.574 459.654 797.281C462.447 797.853 464.231 800.546 463.659 803.341C463.12 805.967 460.664 807.717 458.039 807.414L457.837 807.381Z" fill="#0B3D91"/>
<path d="M177.851 797.281C181.452 796.54 184.75 796.102 188.216 795.799C191.649 795.463 195.081 795.328 198.514 795.261C205.379 795.193 212.278 795.631 219.109 796.641C225.94 797.752 232.704 799.368 239.132 801.927C245.526 804.62 251.583 808.222 256.496 812.935C250.002 810.781 243.742 809.03 237.382 807.852C230.988 806.808 224.628 806 218.167 805.664C211.739 805.394 205.278 805.428 198.817 805.765C195.586 805.899 192.355 806.169 189.159 806.404C185.995 806.674 182.664 807.01 179.669 807.381L179.467 807.414C176.64 807.751 174.082 805.765 173.746 802.937C173.477 800.243 175.26 797.819 177.851 797.281Z" fill="#0B3D91"/>
<g opacity="0.35">
<path d="M396.086 659.856C396.086 659.856 355.165 666.757 323.565 666.757C291.966 666.757 241.42 659.856 241.42 659.856C241.42 659.856 271.775 684.264 320.2 683.22C369.803 682.109 396.086 659.856 396.086 659.856Z" fill="#0B3D91"/>
</g>
<g opacity="0.35">
<path d="M161.328 577.879C168.059 578.35 175.126 578.619 182.226 578.552C183.202 578.552 184.145 578.552 185.087 578.518C186.096 578.518 187.106 578.485 188.115 578.417C188.789 578.417 189.462 578.384 190.135 578.35C190.942 578.316 191.716 578.283 192.524 578.215C193.533 578.148 194.509 578.081 195.519 578.013H195.586C196.596 577.946 197.572 577.845 198.581 577.744C199.221 577.677 199.894 577.609 200.533 577.542C201.072 577.508 201.644 577.441 202.182 577.374C203.057 577.273 203.898 577.172 204.74 577.037C205.547 576.936 206.321 576.801 207.095 576.667C207.264 576.667 207.432 576.633 207.566 576.599C208.475 576.465 209.384 576.296 210.259 576.128C211.167 575.96 212.042 575.791 212.917 575.589C212.984 575.589 213.052 575.556 213.119 575.556C213.624 575.421 214.129 575.354 214.6 575.219C215.138 575.084 215.677 574.984 216.215 574.815C216.518 574.748 216.787 574.68 217.09 574.579V585.521C217.09 600.637 229.474 613.026 244.584 613.026H394.739C409.849 613.026 422.233 600.637 422.233 585.521V576.768C439.631 579.394 459.52 578.687 476.178 577.104C475.606 567.51 474.899 558.016 474.024 548.589C473.25 540.408 472.409 532.329 471.433 524.383C456.256 524.855 438.151 524.956 422.233 523.575V503.982C422.233 488.832 409.849 476.476 394.739 476.476H244.617C235.7 476.476 227.758 480.752 222.71 487.384C219.21 491.997 217.124 497.753 217.124 503.982V522.363C213.96 522.835 210.595 523.205 207.129 523.508C194.038 524.686 179.4 524.888 166.107 524.653C165.165 532.463 164.323 540.341 163.583 548.32C162.674 558.083 161.9 567.947 161.328 577.879Z" fill="#0B3D91"/>
</g>
<path d="M395.614 556.905C416.882 565.523 449.828 563.705 472.274 561.012C485.735 559.396 495.191 546.94 493.205 533.541C491.388 521.286 480.62 512.398 468.269 512.97C447.27 513.947 415.772 514.418 395.85 509.974" fill="white"/>
<g opacity="0.35">
<path d="M395.614 556.905C416.882 565.523 449.828 563.705 472.274 561.012C485.735 559.396 495.191 546.94 493.205 533.54C492.734 530.443 491.691 527.548 490.21 524.956C486.542 531.285 480.081 535.863 472.274 536.806C449.861 539.533 417.017 541.317 395.749 532.732L395.614 556.905Z" fill="#0B3D91"/>
</g>
<path d="M437.915 568.385C422.065 568.385 406.114 566.702 393.696 561.652C378.856 555.659 378.418 532.026 382.793 517.953C387.033 504.318 394.1 504.318 396.927 504.958C415.974 509.2 446.093 508.863 468 507.82C482.975 507.113 496.066 517.852 498.253 532.766C499.431 540.644 497.412 548.488 492.566 554.817C487.754 561.147 480.754 565.153 472.846 566.096C462.414 567.375 450.198 568.385 437.915 568.385ZM397.533 552.158C417.522 560.271 448.886 558.655 471.634 555.928C476.75 555.322 481.293 552.696 484.422 548.623C487.552 544.516 488.864 539.432 488.124 534.315C486.677 524.619 478.264 517.684 468.505 518.121C446.227 519.165 415.604 519.502 395.446 515.192C393.427 517.246 389.893 527.077 390.836 538.22C391.139 541.688 392.384 550.071 397.533 552.158Z" fill="#0B3D91"/>
<path d="M156.247 561.012C166.78 562.291 179.635 563.369 192.49 563.234C193.365 563.234 194.24 563.234 195.149 563.2C196.091 563.2 197 563.167 197.942 563.133C198.581 563.133 199.187 563.099 199.793 563.066C200.533 563.032 201.273 562.998 201.98 562.931C202.922 562.864 203.831 562.796 204.74 562.729H204.807C205.716 562.662 206.658 562.594 207.566 562.493C208.172 562.426 208.778 562.359 209.35 562.291C209.855 562.258 210.36 562.19 210.864 562.123C211.672 562.022 212.446 561.921 213.22 561.82C213.96 561.719 214.701 561.618 215.407 561.483C215.542 561.483 215.71 561.45 215.845 561.416C216.686 561.281 217.527 561.147 218.335 560.978C219.176 560.844 219.984 560.675 220.792 560.507C220.859 560.507 220.926 560.473 220.994 560.473C221.465 560.372 221.902 560.271 222.34 560.17C222.844 560.069 223.349 559.935 223.82 559.8C225.335 559.43 226.815 558.992 228.296 558.521C229.07 558.285 229.844 558.016 230.618 557.746C231.392 557.477 232.132 557.174 232.873 556.871L232.772 534.348L232.671 509.941C227.556 511.085 221.7 511.893 215.441 512.466C197.269 514.115 175.866 513.677 160.218 512.937C159.848 512.937 159.478 512.903 159.074 512.903C147.195 512.903 137.032 521.623 135.282 533.507C133.33 546.94 142.786 559.396 156.247 561.012Z" fill="white"/>
<g opacity="0.35">
<path d="M156.247 561.012C166.78 562.291 179.635 563.369 192.49 563.234C193.365 563.234 194.24 563.234 195.149 563.2C196.091 563.2 197 563.167 197.942 563.133C198.581 563.133 199.187 563.099 199.793 563.066C200.533 563.032 201.273 562.998 201.98 562.931C202.922 562.864 203.831 562.796 204.74 562.729H204.807C205.716 562.662 206.658 562.594 207.566 562.493C208.172 562.426 208.778 562.359 209.35 562.291C209.855 562.258 210.359 562.19 210.864 562.123C211.672 562.022 212.446 561.921 213.22 561.82C213.96 561.719 214.701 561.618 215.407 561.483C215.542 561.483 215.71 561.45 215.845 561.416C216.686 561.281 217.527 561.147 218.335 560.978C219.176 560.844 219.984 560.675 220.792 560.507C220.859 560.507 220.926 560.473 220.994 560.473C221.465 560.372 221.902 560.271 222.34 560.17C222.844 560.069 223.349 559.935 223.82 559.8C225.335 559.43 226.815 558.992 228.296 558.521C229.07 558.285 229.844 558.016 230.618 557.746C231.392 557.477 232.132 557.174 232.873 556.871L232.772 535.358C232.065 535.628 231.358 535.931 230.618 536.166C229.844 536.436 229.07 536.705 228.296 536.941C226.849 537.412 225.368 537.816 223.82 538.22C223.316 538.355 222.811 538.489 222.34 538.59C221.902 538.691 221.431 538.792 220.994 538.893L220.792 538.927C219.984 539.095 219.176 539.264 218.335 539.398C217.527 539.567 216.686 539.701 215.845 539.836C215.71 539.87 215.576 539.903 215.407 539.903C214.701 540.038 213.96 540.139 213.22 540.24C212.446 540.341 211.672 540.442 210.864 540.543C210.359 540.61 209.855 540.678 209.35 540.711C208.744 540.779 208.138 540.846 207.566 540.913C206.658 541.014 205.716 541.082 204.807 541.149H204.74C203.831 541.216 202.889 541.284 201.98 541.351C201.24 541.385 200.533 541.418 199.793 541.486C199.187 541.519 198.581 541.553 197.942 541.553C197 541.587 196.091 541.62 195.149 541.62C194.274 541.654 193.399 541.654 192.49 541.654C179.635 541.789 166.78 540.711 156.247 539.432C147.901 538.422 141.07 533.238 137.604 526.269C136.493 528.491 135.719 530.948 135.349 533.507C133.33 546.94 142.786 559.396 156.247 561.012Z" fill="#0B3D91"/>
</g>
<path d="M190.606 568.385C178.323 568.385 166.107 567.375 155.641 566.096C147.767 565.153 140.767 561.147 135.921 554.817C131.075 548.488 129.056 540.644 130.234 532.766C132.421 517.818 145.478 507.113 160.487 507.82C182.395 508.863 212.513 509.2 231.56 504.958C234.387 504.318 241.454 504.318 245.694 517.953C250.069 532.026 249.632 555.659 234.791 561.652C222.407 566.702 206.456 568.385 190.606 568.385ZM159.107 518.054C149.752 518.054 141.776 524.888 140.397 534.281C139.656 539.398 140.935 544.482 144.098 548.589C147.228 552.697 151.771 555.289 156.886 555.895C179.669 558.655 210.999 560.238 230.988 552.124L232.906 556.871L230.988 552.124C236.137 550.037 237.416 541.654 237.719 538.153C238.661 527.009 235.161 517.145 233.108 515.125C212.917 519.434 182.327 519.098 160.05 518.054C159.713 518.088 159.41 518.054 159.107 518.054Z" fill="#0B3D91"/>
<path d="M224.662 494.454V569.664C224.662 583.636 236.07 595.048 250.035 595.048H388.514C402.446 595.048 413.854 583.636 413.854 569.664V494.454C413.854 480.483 402.446 469.104 388.514 469.104H250.035C241.824 469.104 234.488 473.076 229.844 479.17C226.58 483.412 224.662 488.731 224.662 494.454Z" fill="white"/>
<g opacity="0.43">
<path d="M224.662 494.454V569.664C224.662 583.602 236.07 595.048 250.035 595.048H388.514C402.446 595.048 413.854 583.636 413.854 569.664V494.454C413.854 480.483 402.446 469.104 388.514 469.104H250.035C241.824 469.104 234.488 473.043 229.844 479.17C226.58 483.412 224.662 488.731 224.662 494.454Z" fill="white"/>
</g>
<g opacity="0.35">
<path d="M224.662 529.332V569.698C224.662 583.636 236.07 595.082 250.035 595.082H388.514C402.446 595.082 413.854 583.669 413.854 569.698V512.095C386.73 522.902 399.552 570.506 346.011 567.375C302.566 564.816 296.071 529.804 296.071 529.804H244.415C244.415 529.804 244.55 552.393 236.137 552.528C229.508 552.629 226.714 542.563 224.662 529.332Z" fill="#0B3D91"/>
</g>
<path d="M388.48 600.199H250.035C233.209 600.199 219.546 586.531 219.546 569.698V494.454C219.546 477.621 233.209 463.953 250.035 463.953H388.514C405.34 463.953 419.003 477.621 419.003 494.454V569.698C419.003 586.531 405.306 600.199 388.48 600.199ZM250.035 474.221C238.896 474.221 229.81 483.311 229.81 494.454V569.698C229.81 580.841 238.896 589.931 250.035 589.931H388.514C399.653 589.931 408.739 580.841 408.739 569.698V494.454C408.739 483.311 399.653 474.221 388.514 474.221H250.035Z" fill="#0B3D91"/>
<path d="M285.666 547.567C294.208 539.021 294.208 525.166 285.666 516.62C277.124 508.075 263.274 508.075 254.732 516.62C246.189 525.166 246.189 539.021 254.732 547.567C263.274 556.113 277.124 556.113 285.666 547.567Z" fill="#22A7F0"/>
<path d="M248.319 532.093C248.319 533.271 248.42 534.45 248.588 535.594C250.237 525.158 259.29 517.212 270.159 517.212C281.063 517.212 290.081 525.191 291.73 535.594C291.932 534.45 292 533.305 292 532.093C292 520.007 282.207 510.21 270.126 510.21C258.112 510.21 248.319 520.007 248.319 532.093Z" fill="white"/>
<g opacity="0.35">
<path d="M248.353 532.093C248.353 544.179 258.146 553.976 270.227 553.976C282.308 553.976 292.101 544.179 292.101 532.093C292.101 529.299 291.562 526.639 290.586 524.181C287.423 532.329 279.515 538.119 270.227 538.119C260.939 538.119 252.997 532.329 249.867 524.181C248.858 526.605 248.353 529.265 248.353 532.093Z" fill="#0B3D91"/>
</g>
<path d="M270.193 557.814C256.025 557.814 244.483 546.266 244.483 532.093C244.483 517.919 256.025 506.372 270.193 506.372C284.36 506.372 295.903 517.919 295.903 532.093C295.937 546.266 284.394 557.814 270.193 557.814ZM270.193 514.048C260.266 514.048 252.189 522.128 252.189 532.059C252.189 541.991 260.266 550.071 270.193 550.071C280.12 550.071 288.197 541.991 288.197 532.059C288.197 522.128 280.12 514.048 270.193 514.048Z" fill="#0B3D91"/>
<path d="M332.18 600.199C329.353 600.199 327.031 597.91 327.031 595.048V551.384C327.031 543.539 330.767 536.032 337.026 531.319L348.804 522.464C352.506 519.67 354.727 515.226 354.727 510.614V469.104C354.727 466.276 357.015 463.953 359.876 463.953C362.736 463.953 365.024 466.242 365.024 469.104V510.614C365.024 518.458 361.289 525.966 355.03 530.679L343.252 539.533C339.55 542.327 337.329 546.771 337.329 551.384V595.048C337.295 597.91 335.007 600.199 332.18 600.199Z" fill="#0B3D91"/>
<path d="M500.676 369.587C512.791 419.917 563.538 415.204 577.504 411.804C606.647 404.7 616.641 377.229 616.641 377.229L593.152 346.155L582.72 329.356L570.235 325.619C560.442 307.742 539.544 287.475 527.564 294.612C527.531 294.612 490.244 326.191 500.676 369.587Z" fill="white"/>
<g opacity="0.35">
<path d="M620.949 361.002C620.949 376.69 600.421 390.897 556.236 385.746C540.655 383.928 527.867 373.02 527.867 357.366C527.867 341.677 540.588 328.985 556.236 328.985C571.884 328.985 620.949 345.313 620.949 361.002Z" fill="#0B3D91"/>
</g>
<path d="M619.401 310.267C607.791 321.915 597.628 330.5 597.628 330.5L565.053 363.83L543.078 310.132C543.078 310.132 542.943 299.292 543.785 284.95C545.434 256.569 550.852 214.419 568.384 215.53C599.916 217.483 579.052 300.605 579.052 300.605C579.052 300.605 629.396 233.441 649.587 252.529C661.432 263.673 638.448 291.111 619.401 310.267Z" fill="white"/>
<g opacity="0.35">
<path d="M619.401 310.267C607.791 321.915 597.628 330.5 597.628 330.5L565.053 363.83L543.078 310.132C543.078 310.132 542.943 299.292 543.785 284.95C552.231 291.65 568.014 303.769 573.533 311.008C583.057 323.464 606.68 307.809 619.401 310.267Z" fill="#0B3D91"/>
</g>
<path d="M565.086 368.981C564.75 368.981 564.447 368.947 564.111 368.88C562.428 368.543 560.981 367.398 560.342 365.782L538.367 312.085C538.131 311.479 537.996 310.839 537.996 310.2C537.896 302.355 537.66 233.07 556.472 215.16C560.039 211.76 564.312 210.144 568.755 210.413C574.913 210.783 580.095 213.679 583.797 218.695C593.859 232.464 591.503 261.35 588.273 281.314C601.734 265.996 622.665 245.46 639.054 244.046C644.505 243.574 649.419 245.224 653.188 248.793C656.486 251.923 658.168 256.132 658 261.047C657.293 285.825 607.757 328.682 601.162 334.271L568.755 367.432C567.779 368.408 566.466 368.981 565.086 368.981ZM548.227 309.122L566.87 354.672L593.96 326.898C594.061 326.797 594.196 326.662 594.33 326.561C614.723 309.291 647.265 276.163 647.702 260.744C647.77 258.185 646.861 257.007 646.087 256.266C644.438 254.718 642.453 254.078 639.861 254.314C622.665 255.761 593.119 290.471 583.191 303.702C581.711 305.655 579.086 306.294 576.865 305.251C574.644 304.207 573.499 301.749 574.105 299.359C578.076 283.536 586.052 239.265 575.485 224.755C573.567 222.163 571.245 220.85 568.115 220.648C567.106 220.58 565.524 220.715 563.572 222.6C550.549 234.989 548.092 288.283 548.227 309.122Z" fill="#0B3D91"/>
<path d="M622.598 371.438C614.858 383.996 582.081 389.887 569.899 380.427C559.534 372.381 569.899 362.146 572.827 359.52C573.298 359.116 573.567 358.881 573.567 358.881C573.567 358.881 560.947 355.009 558.76 344.404C558.625 343.731 558.524 342.99 558.457 342.25C557.683 329.995 590.393 319.424 605.234 321.814C616.339 323.599 620.579 328.11 621.622 332.958C622.733 338.109 620.242 343.63 618.56 346.559C617.786 347.906 617.214 348.714 617.214 348.714C617.214 348.714 628.79 361.372 622.598 371.438Z" fill="white"/>
<g opacity="0.35">
<path d="M618.56 346.559C609.777 351.037 592.21 358.679 572.827 359.52C573.298 359.116 573.567 358.881 573.567 358.881C573.567 358.881 560.947 355.009 558.76 344.404C570.404 346.963 602.508 351.811 621.622 332.958C622.766 338.109 620.242 343.63 618.56 346.559Z" fill="#0B3D91"/>
</g>
<g opacity="0.35">
<path d="M622.598 371.438C614.858 383.996 582.081 389.887 569.899 380.427C564.817 376.488 564.716 372.01 566.298 368.139C566.87 368.745 567.509 369.385 568.283 369.957C580.432 379.417 613.243 373.525 620.983 360.968C621.79 359.655 622.295 358.308 622.564 356.962C624.482 361.305 625.526 366.658 622.598 371.438Z" fill="#0B3D91"/>
</g>
<path d="M587.734 390.224C579.052 390.224 571.615 388.238 566.769 384.467C561.418 380.292 560.274 375.579 560.274 372.381C560.274 367.735 562.563 363.527 564.952 360.429C559.904 357.265 553.948 351.642 553.376 342.586C553.174 339.624 554.049 335.079 559.265 330.366C570.202 320.4 593.859 314.778 606.108 316.731C616.507 318.414 623.17 322.589 625.862 329.12C628.857 336.392 625.862 344.034 623.507 348.343C627.175 353.528 633.03 364.301 627.006 374.098C622.665 381.134 612.334 386.756 599.344 389.113C595.306 389.887 591.402 390.224 587.734 390.224ZM600.455 326.595C589.955 326.595 573.399 331.342 566.13 337.94C564.447 339.455 563.538 340.903 563.606 341.913C564.144 350.431 574.98 353.932 575.081 353.965C576.898 354.538 578.244 356.086 578.581 357.938C578.917 359.823 578.211 361.742 576.696 362.887C574.677 364.503 570.471 368.913 570.471 372.313C570.471 373.189 570.74 374.569 572.995 376.286C577.437 379.72 587.263 380.797 597.426 378.946C607.152 377.195 615.464 373.054 618.189 368.644C622.194 362.146 613.478 352.181 613.377 352.08C611.728 350.262 611.594 347.569 613.041 345.583C614.42 343.664 618.021 337.166 616.271 332.924C614.723 329.187 608.969 327.504 604.426 326.763C603.248 326.696 601.936 326.595 600.455 326.595Z" fill="#0B3D91"/>
<path d="M577.672 364.133C576.225 364.133 574.745 364.099 573.264 363.998C570.437 363.83 568.283 361.406 568.452 358.578C568.62 355.75 571.043 353.561 573.87 353.763C595.945 355.043 614.42 344.404 614.622 344.303C617.079 342.856 620.209 343.697 621.656 346.121C623.103 348.579 622.295 351.71 619.838 353.157C619.031 353.629 600.892 364.133 577.672 364.133Z" fill="#0B3D91"/>
<path d="M527.531 294.612C543.448 285.118 575.014 323.902 575.586 341.307C576.024 354.605 560.308 365.681 541.496 348.714C522.449 331.544 502.527 309.526 527.531 294.612Z" fill="white"/>
<path d="M616.642 377.229C616.642 377.229 606.647 404.7 577.504 411.77C563.538 415.17 512.791 419.85 500.676 369.553C490.244 326.191 527.531 294.578 527.531 294.578C543.448 285.085 575.014 323.868 575.586 341.273C576.023 354.571 556.27 362.113 539.746 338.715C539.746 338.715 548.462 359.958 529.853 374.468L573.701 399.718L606.849 393.254L616.642 377.229Z" fill="white"/>
<path d="M538.535 364.301L537.66 363.796C538.333 363.291 538.905 362.786 539.477 362.247C539.208 362.954 538.871 363.628 538.535 364.301Z" fill="white"/>
<g opacity="0.35">
<path d="M540.453 334.809C538.131 326.225 562.764 348.074 575.586 342.452C574.98 353.258 560.779 359.52 546.578 346.593C545.736 339.691 540.453 334.809 540.453 334.809Z" fill="#0B3D91"/>
</g>
<g opacity="0.35">
<path d="M601.263 394.365L606.849 393.287C600.657 400.66 591.201 408.471 577.538 411.804C563.572 415.204 512.825 419.884 500.71 369.587C493.61 340.061 508.618 315.99 518.916 303.668C510.503 317.067 503.066 336.425 508.484 358.914C520.599 409.245 571.346 404.566 585.312 401.132C591.436 399.617 596.72 397.226 601.263 394.365Z" fill="#0B3D91"/>
</g>
<path d="M616.641 377.262C616.541 377.532 615.733 379.653 614.05 382.716L613.175 382.885L616.641 377.262Z" fill="white"/>
<path d="M614.622 382.615C614.151 383.154 613.68 383.726 613.175 384.265C613.478 383.726 613.747 383.221 614.05 382.75L614.622 382.615Z" fill="white"/>
<path d="M521.036 404.465C518.142 403.892 515.551 402.68 513.161 401.098C510.772 399.516 508.618 397.597 506.801 395.408C503.066 391.066 500.306 385.982 498.455 380.696C494.888 370.193 492.97 358.982 494.013 347.805C494.989 336.661 498.657 325.989 503.941 316.428C506.565 311.647 509.594 307.102 512.959 302.827C514.642 300.672 516.392 298.618 518.243 296.598C519.185 295.588 520.094 294.612 521.103 293.636C522.113 292.66 523.021 291.751 524.233 290.707C524.435 290.539 524.603 290.404 524.839 290.269L524.94 290.202C528.237 288.216 532.276 287.711 535.607 288.182C538.972 288.62 541.867 289.798 544.491 291.111C547.116 292.458 549.472 294.04 551.693 295.723C553.914 297.406 555.967 299.224 557.919 301.11C561.822 304.88 565.288 308.988 568.485 313.297C571.649 317.64 574.509 322.218 576.865 327.235C578.009 329.76 579.086 332.385 579.826 335.247C580.196 336.695 580.533 338.176 580.667 339.826L580.768 341.071C580.768 341.509 580.735 341.947 580.701 342.418C580.634 343.327 580.667 344.202 580.432 345.078C579.826 348.68 577.773 352.047 575.048 354.437C572.322 356.827 568.889 358.376 565.49 358.746C564.649 358.948 563.808 358.914 562.966 358.914C562.125 358.881 561.284 358.982 560.476 358.847C558.861 358.611 557.212 358.409 555.765 357.871C555.025 357.635 554.251 357.399 553.51 357.13L551.424 356.154C550.01 355.548 548.765 354.672 547.52 353.864C542.607 350.498 538.838 346.222 535.54 341.745L544.491 336.829C544.929 338.008 545.198 338.816 545.467 339.792C545.737 340.701 545.938 341.644 546.107 342.586C546.477 344.438 546.712 346.323 546.847 348.209C547.049 352.013 546.78 355.884 546.006 359.722C545.669 361.675 544.929 363.527 544.155 365.345C543.684 366.22 543.179 367.062 542.674 367.937C542.169 368.812 541.496 369.519 540.891 370.294C538.367 373.29 534.901 375.377 530.93 375.916C529.853 376.05 528.877 375.31 528.709 374.232C528.675 373.997 528.675 373.761 528.742 373.525L528.81 373.222C529.281 371.27 530.055 369.89 530.627 368.442C531.199 366.994 531.906 365.782 532.444 364.469C533.689 362.012 534.699 359.621 535.574 357.029C536.449 354.47 536.819 351.676 536.617 348.848C536.516 347.434 536.348 346.02 536.078 344.64C535.944 343.933 535.776 343.26 535.607 342.586C535.439 341.947 535.17 341.172 535.035 340.802L535.002 340.735C534.026 338.075 535.372 335.112 538.03 334.102C540.218 333.294 542.641 334.069 543.953 335.887C546.712 339.624 549.775 343.024 553.308 345.448C556.774 347.805 560.745 349.219 564.043 348.68C565.726 348.545 567.139 347.771 568.216 346.862C569.259 345.919 570.101 344.707 570.303 343.26C570.437 342.923 570.336 342.519 570.404 342.149L570.471 341.576L570.404 340.903C570.336 340.028 570.134 339.018 569.865 337.974C569.327 335.92 568.485 333.799 567.509 331.679C563.505 323.262 557.515 315.216 550.751 308.584C547.352 305.284 543.616 302.322 539.78 300.335C537.896 299.359 535.944 298.686 534.261 298.45C532.545 298.248 531.266 298.45 530.156 299.09L530.829 298.585C530.088 299.224 529.146 300.133 528.305 300.975C527.43 301.817 526.588 302.726 525.781 303.601C524.132 305.385 522.55 307.271 521.036 309.223C518.007 313.095 515.281 317.168 512.926 321.444C508.214 329.962 505.051 339.287 504.243 348.815C503.369 358.275 504.782 368.038 508.618 376.825C510.469 381.201 512.656 385.309 515.113 389.248C517.637 393.186 520.296 396.957 523.021 401.738V401.771C523.526 402.68 523.223 403.825 522.315 404.33C521.911 404.465 521.473 404.532 521.036 404.465Z" fill="#0B3D91"/>
<path d="M621.454 379.013C620.915 380.427 620.511 381.471 619.939 382.615C619.401 383.726 618.829 384.837 618.257 385.881C617.651 386.958 616.978 387.968 616.372 389.012C615.699 390.022 614.993 390.998 614.286 392.008L612.031 394.87L609.575 397.563C607.858 399.314 606.142 401.031 604.19 402.512C602.339 404.094 600.287 405.441 598.267 406.754C596.114 407.899 594.061 409.178 591.806 410.053C587.465 412.14 582.518 412.982 577.639 412.174C577.369 412.14 577.201 411.905 577.269 411.635C577.302 411.534 577.336 411.433 577.437 411.366L577.47 411.332C581.239 408.067 584.941 406.148 588.475 403.724C590.292 402.68 591.907 401.266 593.556 400.021C595.07 398.573 596.719 397.294 598.133 395.745C598.873 395.004 599.58 394.264 600.253 393.456C600.926 392.648 601.633 391.907 602.272 391.099L604.157 388.608L605.94 386.049C607.051 384.299 608.161 382.548 609.171 380.73C609.642 379.821 610.18 378.912 610.618 378.003C611.055 377.128 611.56 376.118 611.863 375.444L611.997 375.141C613.142 372.549 616.137 371.371 618.762 372.482C621.218 373.593 622.396 376.454 621.454 379.013Z" fill="#0B3D91"/>
<path d="M536.886 506.338C527.362 506.338 495.056 503.813 484.658 470.248C469.716 421.937 491.624 386.352 492.566 384.871C493.71 383.053 496.066 382.548 497.883 383.659C499.667 384.804 500.205 387.16 499.095 388.978C498.825 389.382 478.197 423.25 492.028 467.959C502.325 501.288 537.391 498.696 538.872 498.595C540.992 498.427 542.842 499.975 543.044 502.096C543.213 504.217 541.665 506.069 539.545 506.271C539.477 506.271 538.501 506.338 536.886 506.338Z" fill="#0B3D91"/>
<path d="M167.655 517.111C167.318 517.111 166.982 517.078 166.645 516.977C127.508 506.271 117.648 474.524 117.244 473.177C116.638 471.124 117.782 469.003 119.835 468.397C121.888 467.791 124.008 468.935 124.614 470.989C124.984 472.201 133.834 500.043 168.664 509.57C170.717 510.143 171.929 512.264 171.357 514.317C170.885 516 169.337 517.111 167.655 517.111Z" fill="#0B3D91"/>
</g>
<defs>
<clipPath id="clip0_19_3564">
<rect width="658" height="924" fill="white"/>
</clipPath>
</defs>
</svg>
