<svg width="522" height="893" viewBox="0 0 522 893" fill="none" xmlns="http://www.w3.org/2000/svg">
<g clip-path="url(#clip0_19_3886)">
<path d="M212.723 423.955L214.814 453.065L215.895 467.891L234.355 723.714C234.355 723.714 216.833 723.966 193.361 722.451C188.746 722.163 183.951 721.802 178.975 721.333C141.947 718.014 96.987 710.006 79.8971 690.924C54.3703 662.427 50.1159 523.37 72.9024 468.215C83.3223 442.929 136.395 431.927 174.072 427.238C178.29 426.696 182.292 426.264 186.042 425.903C201.798 424.316 212.723 423.955 212.723 423.955Z" fill="white"/>
<g opacity="0.29">
<path d="M214.814 453.065L215.896 467.891L230.534 671.013L234.32 723.714C234.32 723.714 233.959 723.714 233.274 723.714C233.094 723.714 232.841 723.714 232.589 723.714C232.409 723.714 232.156 723.714 231.94 723.714C231.76 723.714 231.615 723.714 231.435 723.714C231.363 723.714 231.291 723.714 231.219 723.714C230.894 723.714 230.534 723.714 230.173 723.714C230.101 723.714 230.029 723.714 229.921 723.714C229.632 723.714 229.308 723.714 228.947 723.714C228.479 723.714 228.01 723.714 227.505 723.714C227.145 723.714 226.784 723.714 226.388 723.714C225.991 723.714 225.594 723.714 225.198 723.714C224.693 723.714 224.152 723.714 223.611 723.714C222.494 723.678 221.304 723.678 220.078 723.642C218.96 723.642 217.807 723.606 216.617 723.57C215.211 723.533 213.768 723.497 212.254 723.425C206.666 723.245 200.248 722.956 193.325 722.487C191.991 722.415 190.585 722.307 189.215 722.199C188.242 722.127 187.268 722.055 186.259 721.982C183.879 721.802 181.391 721.586 178.94 721.369C141.875 718.051 96.9511 710.043 79.8612 690.96C58.8413 667.514 52.2433 569.073 63.276 504.251C61.3651 560.632 69.0087 620.872 84.8728 638.548C92.6967 647.277 122.838 615.281 121.937 597.245C119.557 550.712 125.723 490.652 167.799 454.075C168.88 453.101 194.01 455.734 214.814 453.065Z" fill="#0B3D91"/>
</g>
<path d="M230.209 729.377C207.747 729.377 105.063 727.537 75.6426 694.712C48.7819 664.736 43.8424 523.694 67.6385 466.087C75.2821 447.618 102.287 433.983 147.932 425.542C180.85 419.446 211.208 418.364 212.47 418.292L217.878 418.111L240.34 729.269L234.391 729.377C233.959 729.377 232.481 729.377 230.209 729.377ZM207.495 429.835C170.863 431.783 89.8482 441.883 78.0583 470.416C56.3894 522.828 60.2112 660.624 84.0434 687.209C109.282 715.381 203.529 717.942 228.298 718.087L207.495 429.835Z" fill="#0B3D91"/>
<path d="M68.1793 586.027L118.512 588.48C123.019 588.696 126.804 591.906 127.706 596.307C131.059 612.468 136.863 650.127 121.432 663.041C108.633 673.754 87.3243 673.069 74.597 662.86C60.3554 651.425 58.0479 614.379 57.7595 596.019C57.7234 590.319 62.4827 585.738 68.1793 586.027Z" fill="white"/>
<g opacity="0.29">
<path d="M127.742 596.343C131.095 612.468 136.9 650.163 121.468 663.077C108.633 673.79 87.3605 673.141 74.6332 662.896C65.8719 655.862 61.6175 639.125 59.5984 623.037C62.0862 631.045 65.7998 637.502 70.3427 641.686C96.3021 665.638 114.474 636.131 114.474 636.131C114.474 636.131 117.935 643.093 120.567 643.417C131.528 644.788 128.391 610.628 126.336 592.953C126.985 593.927 127.489 595.081 127.742 596.343Z" fill="#0B3D91"/>
</g>
<path d="M98.4293 676.459C88.6224 676.459 78.7434 673.393 71.0998 667.261C56.1011 655.213 52.5317 621.918 52.1711 596.091C52.099 591.834 53.8296 587.686 56.8943 584.692C59.9589 581.734 64.1773 580.147 68.4318 580.363L118.764 582.816C125.831 583.177 131.744 588.227 133.186 595.153C137.513 615.967 142.2 652.976 125.002 667.333C117.827 673.429 108.164 676.459 98.4293 676.459ZM67.7107 591.654C66.593 591.654 65.5474 592.087 64.7542 592.844C63.8889 593.674 63.4562 594.792 63.4562 595.946C63.8889 628.051 69.4053 651.425 78.1666 658.459C89.1993 667.333 107.407 667.441 117.863 658.712C128.607 649.73 127.165 621.197 122.225 597.462C121.829 595.586 120.206 594.179 118.259 594.107L67.927 591.654C67.8549 591.654 67.7828 591.654 67.7107 591.654Z" fill="#0B3D91"/>
<path d="M94.3911 666.395C110.904 656.187 112.995 634.039 112.166 616.291C111.986 613.478 111.697 610.484 110.976 607.995C110.508 606.227 113.104 605.325 113.789 607.057C116.745 615.678 117.178 624.407 117.358 633.425C117.574 648.972 112.346 666.503 98.6095 675.449C92.1558 678.948 87.5408 669.101 94.3911 666.395Z" fill="#0B3D91"/>
<path d="M148.473 465.294C124.461 464.789 99.4749 464.32 76.0754 469.911C68.8645 471.678 65.9801 461.145 73.1189 459.017C92.1919 455.554 111.229 456.636 130.338 457.791C136.575 458.223 142.741 458.765 148.942 459.486C150.528 459.666 151.682 461.109 151.502 462.696C151.358 464.247 149.988 465.366 148.473 465.294Z" fill="#0B3D91"/>
<path d="M258.007 629.025C256.962 645.005 254.798 693.738 252.419 743.265C249.571 803.072 246.434 863.998 244.523 869.481C238.79 885.93 223.972 887.337 223.972 887.337H165.743C165.743 887.337 147.968 887.301 140.108 877.85C127.237 862.303 140.325 845.349 140.325 845.349C140.325 845.349 139.351 774.792 138.702 710.187C138.45 682.411 138.234 655.754 138.198 636.275L258.007 629.025Z" fill="white"/>
<g opacity="0.29">
<path d="M258.008 629.025C256.962 645.005 254.799 693.738 252.419 743.265C207.783 746.115 171.584 723.028 138.703 710.187C138.45 682.411 138.234 655.754 138.198 636.275L258.008 629.025Z" fill="#0B3D91"/>
</g>
<g opacity="0.29">
<path d="M246.506 851.445C245.749 861.329 245.1 867.822 244.523 869.445C238.79 885.894 223.972 887.301 223.972 887.301H165.743C165.743 887.301 147.969 887.264 140.109 877.814C133.691 870.058 133.727 861.942 135.385 855.774C135.385 855.774 135.385 855.81 135.421 855.81C143.894 866.054 163.184 866.09 163.184 866.09H226.243C226.279 866.09 239.403 864.828 246.506 851.445Z" fill="#0B3D91"/>
</g>
<path d="M223.972 892.964H165.744C163.652 892.964 145.048 892.603 135.782 881.421C124.245 867.461 129.473 851.481 134.664 843.581C134.448 826.555 132.645 696.407 132.537 636.275C132.537 633.173 135.061 630.648 138.162 630.648C141.262 630.648 143.786 633.173 143.786 636.275C143.894 700.267 145.913 843.834 145.913 845.277C145.913 846.539 145.517 847.802 144.724 848.812C144.327 849.353 134.628 862.447 144.399 874.278C149.411 880.339 161.453 881.709 165.708 881.709H223.539C225.054 881.493 235.005 879.509 239.151 867.641C241.314 859.958 245.749 765.197 248.669 702.503C250.22 669.101 251.59 640.279 252.347 628.7C252.563 625.598 255.231 623.253 258.332 623.469C261.433 623.686 263.776 626.355 263.56 629.457C262.803 640.928 261.433 669.714 259.882 703.044C254.799 812.018 251.986 864.972 249.751 871.393C242.937 891.016 225.162 892.928 224.405 893C224.332 892.928 224.152 892.964 223.972 892.964Z" fill="#0B3D91"/>
<path d="M386.939 851.156C393.753 859.597 394.655 871.79 385.353 880.375C376.014 888.96 340.933 887.192 340.933 887.192H290.168C290.168 887.192 275.314 885.749 269.617 869.337C265.182 856.603 267.814 803.974 266.228 743.878C265.903 731.109 265.363 718.014 264.569 704.92L392.239 642.696C390.256 666.143 388.093 689.049 385.893 710.548C378.358 784.315 370.75 840.876 370.75 840.876C370.75 840.876 381.098 843.906 386.939 851.156Z" fill="white"/>
<g opacity="0.29">
<path d="M385.353 880.339C376.014 888.888 340.933 887.156 340.933 887.156H290.168C290.168 887.156 275.314 885.713 269.581 869.301C268.86 867.244 268.319 864.142 267.922 860.138C274.412 865.188 281.01 865.802 281.01 865.802H338.409C338.409 865.802 378.07 867.786 388.597 858.082C389.174 857.577 389.679 857.036 390.184 856.495C393.717 864.25 392.816 873.449 385.353 880.339Z" fill="#0B3D91"/>
</g>
<g opacity="0.29">
<path d="M392.167 642.66C390.184 666.107 388.021 689.012 385.821 710.511C377.24 713.469 367.578 717.545 356.978 723.101C319.877 742.652 280.434 744.058 266.192 743.842C265.867 731.073 265.327 717.978 264.533 704.884L392.167 642.66Z" fill="#0B3D91"/>
</g>
<path d="M349.045 893C345.296 893 342.375 892.892 340.789 892.82H290.168C289.988 892.82 289.808 892.82 289.627 892.784C288.87 892.711 271.095 890.8 264.281 871.176C261.18 862.267 261.18 840.01 261.18 806.319C261.18 777.317 261.18 741.245 258.909 705.245C258.728 702.143 261.072 699.473 264.173 699.257C267.273 699.077 269.941 701.421 270.158 704.523C272.429 740.884 272.429 777.137 272.465 806.283C272.465 835.285 272.465 860.355 274.953 867.425C279.063 879.22 288.906 881.241 290.565 881.493H340.969C341.077 881.493 341.149 881.493 341.258 881.493C354.85 882.178 376.339 880.952 381.567 876.154C388.85 869.445 387.335 860.499 382.612 854.619C377.997 848.884 369.236 846.215 369.128 846.215C366.46 845.421 364.765 842.824 365.126 840.046C365.27 839.108 377.925 744.672 386.614 642.119C386.867 639.017 389.607 636.708 392.708 636.997C395.808 637.249 398.116 639.991 397.827 643.093C390.184 733.273 379.476 817.213 376.88 837.124C381.026 838.928 387.119 842.283 391.374 847.549C400.712 859.164 399.81 874.675 389.21 884.451C381.17 891.81 361.052 893 349.045 893Z" fill="#0B3D91"/>
<path d="M315.803 792.359C288.762 792.359 267.165 787.958 265.579 787.633C262.55 786.984 260.567 784.026 261.216 780.96C261.865 777.93 264.822 775.982 267.887 776.595C268.536 776.74 332.785 789.762 376.844 770.319C379.692 769.056 383.009 770.355 384.271 773.205C385.533 776.054 384.235 779.373 381.387 780.636C360.763 789.762 336.679 792.359 315.803 792.359Z" fill="#0B3D91"/>
<path d="M200.392 783.557C162.751 783.557 138.775 774.9 137.368 774.395C134.448 773.313 132.97 770.066 134.051 767.145C135.133 764.223 138.378 762.744 141.262 763.826C141.695 764.006 187.052 780.203 250.075 767.109C253.104 766.459 256.097 768.443 256.746 771.473C257.395 774.503 255.412 777.497 252.383 778.147C233.202 782.114 215.679 783.557 200.392 783.557Z" fill="#0B3D91"/>
<path d="M136.719 841.02C154.999 827.637 196.895 835.176 218.708 837.846C222.205 838.387 221.7 843.653 218.095 843.437C211.497 842.968 204.899 842.535 198.337 842.283C183.879 841.814 169.06 841.489 155.035 844.663C151.105 845.637 146.454 847.369 143.75 849.822C137.801 854.619 130.698 845.782 136.719 841.02Z" fill="#0B3D91"/>
<path d="M369.344 846.323C357.482 842.571 344.214 841.886 331.631 842.247C328.17 842.355 327.629 837.269 331.054 836.655C344.611 834.347 358.167 833.156 372.012 835.393C379.836 836.98 377.096 848.487 369.344 846.323Z" fill="#0B3D91"/>
<path d="M371.688 609.798C371.688 609.798 427.356 640.099 451.261 616.616C488.145 580.399 444.158 507.714 444.158 507.714L371.688 609.798Z" fill="#D8D8D8"/>
<path d="M425.698 631.117C399.522 631.117 370.714 615.678 368.984 614.74C367.578 613.983 366.568 612.648 366.171 611.061C365.811 609.474 366.135 607.85 367.073 606.516L439.543 504.432C440.624 502.881 442.463 502.015 444.338 502.051C446.249 502.123 447.98 503.133 448.953 504.756C450.828 507.895 494.779 581.734 455.191 620.62C447.295 628.375 436.731 631.117 425.698 631.117ZM380.053 607.706C397.647 615.966 432.043 627.546 447.295 612.576C473.903 586.46 453.099 537.293 443.509 518.319L380.053 607.706Z" fill="#0B3D91"/>
<path d="M220.727 479.542C211.317 493.502 198.265 508.796 187.953 520.159C178.615 530.476 171.548 537.618 171.548 537.618C171.548 537.618 48.6018 546.239 14.7465 455.626C10.8165 445.093 8.32872 434.452 7.03075 424.027C-0.360466 366.564 26.2118 315.162 26.2118 315.162L92.6246 346.472L111.77 410.211C111.77 410.211 126.011 417.029 150.709 425.037C169.818 431.242 195.164 438.167 225.017 443.181C239.043 445.526 232.913 461.434 220.727 479.542Z" fill="white"/>
<g opacity="0.29">
<path d="M187.953 520.195C178.615 530.512 171.548 537.654 171.548 537.654C171.548 537.654 48.6018 546.275 14.7465 455.662C10.8165 445.129 8.32873 434.488 7.03076 424.063C13.5206 441.991 46.4746 514.64 155.612 517.706C168.736 518.031 179.372 518.897 187.953 520.195Z" fill="#0B3D91"/>
</g>
<g opacity="0.29">
<path d="M220.727 479.542C191.054 468.72 166.428 449.386 150.745 425.001C169.854 431.205 195.2 438.131 225.053 443.145C239.043 445.526 232.913 461.434 220.727 479.542Z" fill="#0B3D91"/>
</g>
<path d="M357.915 466.159C334.624 480.624 306.176 489.101 275.494 489.101C238.718 489.101 205.187 476.873 179.805 456.817L219.393 393.943L357.302 465.113C357.518 465.474 357.699 465.835 357.915 466.159Z" fill="#D8D8D8"/>
<path d="M162.823 543.498C150.925 543.498 128.751 542.452 104.378 536.067C56.7863 523.586 23.9404 496.46 9.44645 457.61C-16.7653 387.378 19.6139 315.594 21.1642 312.564C22.6064 309.787 25.9956 308.705 28.7357 310.148C31.5119 311.59 32.5936 314.981 31.1514 317.723C30.7187 318.588 -4.43461 388.28 19.9744 453.642C49.5753 532.929 153.052 532.64 169.025 532.099C199.923 500.68 230.606 461.037 227.217 450.468C227.109 450.071 226.82 449.169 224.08 448.7C155.648 437.157 111.157 416.127 109.318 415.262C107.876 414.576 106.794 413.314 106.361 411.799L87.2164 348.095C86.3151 345.101 88.0096 341.963 91.0022 341.061C93.9947 340.16 97.1315 341.855 98.0328 344.849L116.457 406.099C126.264 410.464 167.654 427.743 226.027 437.59C234.284 438.997 237.096 444.083 238.033 447.005C240.233 453.823 239.584 467.169 208.973 504.504C192.893 524.127 175.767 541.406 175.587 541.586C174.613 542.56 173.351 543.137 171.981 543.245C171.512 543.281 168.231 543.498 162.823 543.498Z" fill="#0B3D91"/>
<path d="M398.477 624.768C397.034 650.992 389.932 674.764 374.464 691.97C320.599 751.85 176.272 740.163 147.356 664.628C142.596 652.255 140.866 635.337 141.19 616.363C142.02 569.542 155.576 510.131 168.159 475.322L219.393 393.979L357.302 465.113C379.404 503.458 401.505 569.542 398.477 624.768Z" fill="white"/>
<g opacity="0.29">
<path d="M357.915 466.159C334.624 480.624 306.176 489.101 275.494 489.101C238.718 489.101 205.187 476.873 179.805 456.817L219.393 393.943L357.302 465.113C357.518 465.474 357.699 465.835 357.915 466.159Z" fill="#0B3D91"/>
</g>
<g opacity="0.29">
<path d="M398.477 624.768C397.034 650.992 389.932 674.764 374.464 691.97C320.599 751.85 176.272 740.163 147.356 664.628C142.596 652.255 140.866 635.337 141.19 616.363C192.532 625.598 317.39 644.355 398.477 624.768Z" fill="#0B3D91"/>
</g>
<path d="M148.365 673.682C123.451 633.353 139.423 559.983 152.836 516.985C153.917 513.774 158.857 514.857 158.316 518.356C153.881 544.003 150.132 569.794 148.293 595.694C147.031 614.884 145.625 634.039 148.545 653.013C149.447 659.253 151.033 665.313 153.413 671.193C154.566 674.295 150.168 676.531 148.365 673.682Z" fill="#0B3D91"/>
<path d="M314.145 728.115C289.519 738.287 260.027 738.034 234.969 729.449C231.976 728.331 232.877 723.822 236.05 723.93C254.654 724.652 275.097 724.94 293.557 723.75C299.939 723.389 306.321 722.92 312.883 722.668C315.984 722.487 316.993 726.852 314.145 728.115Z" fill="#0B3D91"/>
<path d="M362.17 462.3C393.753 516.588 419.749 607.995 394.763 668.451C390.509 678.047 384.487 687.029 376.555 693.846C375.366 694.856 373.563 694.748 372.553 693.558C371.688 692.548 371.652 691.141 372.373 690.095C405.147 640.027 392.672 575.458 375.546 521.818C369.308 503.205 361.737 484.989 352.399 467.891C349.082 461.47 358.204 456.095 362.17 462.3Z" fill="#0B3D91"/>
<path d="M384.271 641.902C394.606 641.902 402.984 633.52 402.984 623.181C402.984 612.841 394.606 604.46 384.271 604.46C373.937 604.46 365.559 612.841 365.559 623.181C365.559 633.52 373.937 641.902 384.271 641.902Z" fill="white"/>
<path d="M384.271 647.53C370.859 647.53 359.934 636.6 359.934 623.181C359.934 609.762 370.859 598.832 384.271 598.832C397.684 598.832 408.608 609.762 408.608 623.181C408.608 636.6 397.684 647.53 384.271 647.53ZM384.271 610.087C377.06 610.087 371.219 615.967 371.219 623.145C371.219 630.359 377.096 636.203 384.271 636.203C391.482 636.203 397.323 630.323 397.323 623.145C397.323 615.967 391.482 610.087 384.271 610.087Z" fill="#0B3D91"/>
<path d="M365.379 678.155L259.847 680.319C247.372 680.572 236.916 670.544 236.663 658.063L235.51 601.862C235.293 590.896 242.937 581.554 253.249 579.209C254.691 578.884 256.205 578.704 257.791 578.668L363.324 576.504C375.835 576.251 386.254 586.279 386.507 598.76L387.444 643.273L387.697 654.96C387.877 667.477 377.854 677.902 365.379 678.155Z" fill="white"/>
<path d="M365.379 678.155L259.847 680.319C247.372 680.572 236.916 670.544 236.663 658.063L235.51 601.862C235.293 590.896 242.937 581.554 253.249 579.209C254.691 578.884 256.205 578.704 257.791 578.668L363.324 576.504C375.835 576.251 386.254 586.279 386.507 598.76L387.444 643.273L387.697 654.96C387.877 667.477 377.854 677.902 365.379 678.155Z" fill="white"/>
<path d="M365.379 678.155L259.847 680.319C247.372 680.572 236.916 670.544 236.663 658.063L235.51 601.862C235.293 590.896 242.937 581.554 253.249 579.209C254.691 578.884 256.205 578.704 257.791 578.668L363.324 576.504C375.835 576.251 386.254 586.279 386.507 598.76L387.444 643.273L387.697 654.96C387.877 667.477 377.854 677.902 365.379 678.155Z" fill="white"/>
<g opacity="0.29">
<path d="M365.523 678.155L259.991 680.319C247.516 680.572 237.06 670.544 236.807 658.063L235.654 601.862C235.437 590.896 243.081 581.554 253.393 579.209C259.45 583.069 263.344 585.522 263.344 585.522C269.401 630.54 282.705 652.76 338.698 652.508C362.855 652.399 378.034 648.395 387.588 643.237L387.841 654.924C388.057 667.477 378.034 677.902 365.523 678.155Z" fill="#0B3D91"/>
</g>
<path d="M264.065 685.874C246.11 685.874 231.291 671.445 230.93 653.373L229.957 606.768C229.596 588.48 244.163 573.293 262.406 572.933L358.348 570.949C367.181 570.732 375.546 574.051 381.964 580.219C388.381 586.387 391.987 594.612 392.167 603.45L393.141 650.055C393.501 668.343 378.935 683.53 360.691 683.89L264.75 685.874C264.497 685.874 264.281 685.874 264.065 685.874ZM359.069 582.203C358.925 582.203 358.78 582.203 358.6 582.203L262.659 584.187C256.854 584.295 251.41 586.712 247.335 590.933C243.261 595.153 241.098 600.708 241.206 606.516L242.18 653.121C242.432 665.205 252.419 674.8 264.533 674.584L360.475 672.6C372.553 672.347 382.144 662.319 381.928 650.235L380.954 603.63C380.846 597.822 378.43 592.375 374.212 588.299C370.066 584.403 364.729 582.203 359.069 582.203Z" fill="#0B3D91"/>
<path d="M328.026 678.552L327.81 678.948L259.81 680.355C250.652 680.536 242.612 675.233 238.863 667.405C237.492 664.592 236.699 661.417 236.627 658.063L236.122 633.101L235.942 624.876L235.654 610.411L235.473 601.898C235.221 589.381 245.244 578.957 257.719 578.704L280.506 578.235C270.05 580.436 262.226 589.886 262.442 600.925L262.767 617.59L263.055 631.261L263.56 657.125C263.812 669.606 274.268 679.634 286.743 679.381L328.026 678.552Z" fill="white"/>
<g opacity="0.29">
<path d="M338.806 678.299L338.59 678.696L259.81 680.319C250.653 680.499 242.612 675.197 238.863 667.369C237.493 664.556 236.699 661.381 236.627 658.027L236.123 633.065L235.942 624.84L235.654 610.375C240.197 609.654 246.29 610.159 249.715 616.868C254.474 626.139 259.27 622.928 262.803 617.59L263.091 631.261L263.596 657.125C263.849 669.606 274.304 679.634 286.779 679.381L338.806 678.299Z" fill="#0B3D91"/>
</g>
<path d="M259.342 685.982C252.023 685.982 245.1 683.169 239.764 678.047C234.284 672.78 231.183 665.71 231.039 658.171L229.885 601.971C229.741 594.432 232.517 587.253 237.781 581.77C243.045 576.287 250.076 573.185 257.647 573.041L280.434 572.572L281.696 583.718C273.655 585.413 267.959 592.592 268.103 600.816L269.257 657.017C269.365 661.562 271.204 665.818 274.521 668.992C277.838 672.167 282.128 673.826 286.671 673.754C286.707 673.754 353.408 672.78 355.247 672.744L360.908 672.636L361.016 678.299C361.088 682.411 358.24 683.566 355.464 683.89V683.998L259.919 685.946C259.738 685.982 259.522 685.982 259.342 685.982ZM261.974 584.223L257.863 584.295C253.321 584.403 249.066 586.279 245.893 589.562C242.72 592.88 241.026 597.209 241.134 601.754L242.288 657.954C242.36 662.499 244.235 666.756 247.552 669.93C250.869 673.105 255.159 674.8 259.702 674.692L264.425 674.584C260.387 669.678 258.116 663.618 258.008 657.197L256.854 600.997C256.746 594.828 258.621 588.985 261.974 584.223Z" fill="#0B3D91"/>
<path d="M304.698 628.592C304.735 630.684 302.066 647.494 302.066 647.494C302.066 647.494 296.766 647.566 290.241 647.674C282.092 647.782 275.35 639.449 275.206 629.025C275.062 618.6 281.515 610.087 289.7 609.943C295.216 609.87 301.526 609.762 301.526 609.762C301.526 609.762 304.626 625.237 304.698 628.592Z" fill="#22A7F0"/>
<path d="M304.698 628.592C304.735 630.684 302.066 647.494 302.066 647.494C302.066 647.494 296.766 647.566 290.241 647.674C282.092 647.782 275.35 639.449 275.206 629.025C275.062 618.6 281.515 610.087 289.7 609.943C295.216 609.87 301.526 609.762 301.526 609.762C301.526 609.762 304.626 625.237 304.698 628.592Z" fill="#1C7AEA"/>
<path d="M290.024 651.894C284.832 651.894 280.037 649.441 276.396 644.968C272.97 640.712 271.023 635.085 270.951 629.097C270.879 623.109 272.646 617.445 275.927 613.081C279.46 608.427 284.328 605.794 289.592 605.722L297.848 605.614C297.884 605.614 297.92 605.614 297.956 605.614C302.031 605.614 305.528 608.5 306.321 612.504C308.016 621.089 308.881 626.5 308.917 628.556C308.917 629.169 308.953 630.576 306.79 644.572C306.141 648.684 302.679 651.714 298.497 651.786L290.277 651.894C290.205 651.894 290.096 651.894 290.024 651.894ZM298.028 614.127L289.7 614.199C287.068 614.235 284.58 615.678 282.633 618.203C280.47 621.053 279.316 624.876 279.352 628.989C279.424 633.101 280.686 636.888 282.922 639.666C284.941 642.155 287.5 643.49 290.096 643.453L298.317 643.345C299.831 633.822 300.372 629.494 300.408 628.664C300.444 627.474 299.795 623.073 298.028 614.127Z" fill="#0B3D91"/>
<path d="M302.06 647.534C310.204 647.413 316.68 638.87 316.526 628.451C316.372 618.033 309.645 609.685 301.502 609.806C293.359 609.927 286.882 618.47 287.036 628.888C287.19 639.306 293.917 647.654 302.06 647.534Z" fill="#22A7F0"/>
<g opacity="0.7">
<path d="M287.032 628.88C287.032 629.674 287.104 630.431 287.176 631.189C288.618 622.892 294.351 616.688 301.309 616.58C308.845 616.472 315.154 623.614 316.2 632.92C316.452 631.477 316.561 629.998 316.561 628.447C316.416 618.023 309.674 609.69 301.526 609.798C293.341 609.906 286.851 618.455 287.032 628.88Z" fill="white"/>
</g>
<path d="M287.032 628.88C287.176 639.269 293.918 647.638 302.067 647.53C310.215 647.385 316.705 638.872 316.525 628.447C316.488 626.824 316.308 625.201 315.984 623.686C313.929 630.756 308.665 635.77 302.427 635.878C295.577 635.987 289.7 630.107 287.933 621.991C287.32 624.119 286.996 626.464 287.032 628.88Z" fill="#1C7AEA"/>
<path d="M301.886 651.75C291.539 651.75 282.994 641.578 282.813 628.952C282.633 616.219 290.998 605.758 301.454 605.578C301.526 605.578 301.598 605.578 301.67 605.578C312.018 605.578 320.563 615.75 320.743 628.375C320.923 641.109 312.559 651.57 302.103 651.75C302.031 651.75 301.958 651.75 301.886 651.75ZM301.67 614.019C301.634 614.019 301.598 614.019 301.562 614.019C295.865 614.091 291.142 620.872 291.25 628.808C291.358 636.672 296.226 643.273 301.886 643.273C301.922 643.273 301.958 643.273 301.994 643.273C307.691 643.201 312.414 636.419 312.306 628.484C312.198 620.62 307.331 614.019 301.67 614.019Z" fill="#0B3D91"/>
<path d="M332.569 682.664C332.533 682.664 332.533 682.664 332.569 682.664C330.225 682.664 328.35 680.752 328.35 678.443L328.422 650.019C328.459 641.974 332.461 634.544 339.167 630.143C343.601 627.221 346.197 622.315 346.089 617.013L345.404 576.937C345.368 574.592 347.207 572.68 349.551 572.644C351.858 572.608 353.805 574.448 353.841 576.792L354.526 616.868C354.67 625.093 350.668 632.704 343.782 637.213C339.455 640.063 336.859 644.86 336.823 650.055L336.751 678.479C336.787 680.788 334.876 682.664 332.569 682.664Z" fill="#0B3D91"/>
<path d="M145.95 603.305C145.95 603.305 131.852 607.778 130.086 620.187C127.598 637.538 142.705 645.51 142.705 645.51C142.705 645.51 204.142 661.886 236.555 647.53C236.555 647.53 257.611 630.287 235.473 610.916C235.473 610.88 187.701 615.57 145.95 603.305Z" fill="white"/>
<g opacity="0.29">
<path d="M236.591 647.53C204.178 661.886 142.741 645.51 142.741 645.51C142.741 645.51 127.598 637.574 130.122 620.187C130.518 617.59 131.42 615.317 132.645 613.369C133.871 617.482 136.071 620.728 138.27 623.109C141.154 626.247 145.012 628.339 149.159 629.313C162.931 632.487 204.827 640.928 232.445 632.451C237.42 630.936 241.711 627.582 244.379 623.073L244.451 622.928C249.571 636.888 236.591 647.53 236.591 647.53Z" fill="#0B3D91"/>
</g>
<path d="M201.257 659.037C172.197 659.037 143.029 651.389 141.262 650.92L140.65 650.776L140.109 650.487C139.352 650.091 121.468 640.459 124.533 619.393C126.805 603.666 143.57 598.183 144.291 597.967L145.914 597.462L147.572 597.93C187.737 609.726 234.5 605.361 234.969 605.325L237.384 605.073L239.223 606.66C247.371 613.802 251.41 621.63 251.265 629.962C251.049 642.804 240.629 651.497 240.16 651.894L239.584 652.363L238.899 652.688C228.154 657.413 214.706 659.037 201.257 659.037ZM144.868 640.207C151.574 641.902 204.899 654.708 233.526 642.696C235.113 641.181 239.944 636.059 240.016 629.71C240.052 625.381 237.889 621.017 233.526 616.724C223.071 617.518 183.05 619.61 146.274 609.257C143.282 610.592 136.647 614.271 135.71 620.981C133.979 632.704 142.705 638.872 144.868 640.207Z" fill="#0B3D91"/>
<path d="M516.159 262.28C515.15 286.593 510.426 309.967 499.574 319.021C491.786 325.514 433.414 331.755 433.414 331.755L462.69 176.176C462.69 176.176 466.656 176.861 472.281 178.124C483.962 180.793 502.783 186.132 507.758 193.527C513.131 201.535 517.385 232.593 516.159 262.28Z" fill="white"/>
<g opacity="0.29">
<path d="M516.159 262.28C515.15 286.593 510.426 309.967 499.574 319.021C491.786 325.514 433.414 331.755 433.414 331.755L462.69 176.176C462.69 176.176 466.656 176.861 472.281 178.124C479.275 195.943 487.532 223.034 489.947 255.715C491.57 278.26 507.145 278.188 516.159 262.28Z" fill="#0B3D91"/>
</g>
<path d="M426.455 338.176L458.147 169.683L463.591 170.621C470.262 171.775 504.045 178.052 512.373 190.388C518.899 200.092 522.216 230.537 521.964 254.272C521.784 274.364 519.08 310.075 503.143 323.35C494.707 330.384 448.052 335.867 433.99 337.382L426.455 338.176ZM467.161 182.741L440.336 325.298C465.358 322.304 491.93 317.723 495.969 314.657C517.241 296.945 511.688 209.47 503.035 196.665C499.394 191.254 481.402 185.699 467.161 182.741Z" fill="#371944"/>
<path d="M287.392 461.253C403.641 461.253 497.879 366.97 497.879 250.665C497.879 134.36 403.641 40.076 287.392 40.076C171.143 40.076 76.9045 134.36 76.9045 250.665C76.9045 366.97 171.143 461.253 287.392 461.253Z" fill="white"/>
<path d="M89.4878 322.484C120.315 407.65 204.178 466.267 299.218 460.893C415.278 454.328 504.045 354.877 497.483 238.797C494.923 193.454 478.23 152.26 451.874 119.326C439.867 225.054 311.549 313.899 150.276 322.989C129.581 324.144 109.246 323.963 89.4878 322.484Z" fill="#D8D8D8"/>
<path d="M287.104 466.881C233.959 466.881 183.374 447.618 143.426 411.907C100.376 373.418 74.8855 320.5 71.6045 262.821C68.3596 205.178 87.721 149.699 126.191 106.629C164.662 63.559 217.59 38.056 275.205 34.8095C332.821 31.563 388.273 50.9337 431.322 89.4226C474.372 127.912 499.862 180.829 503.143 238.508C506.388 296.152 487.027 351.63 448.556 394.7C410.086 437.771 357.194 463.274 299.542 466.556C295.396 466.773 291.25 466.881 287.104 466.881ZM287.5 45.7033C283.642 45.7033 279.748 45.8115 275.818 46.0279C163.039 52.4127 76.4719 149.374 82.8536 262.208C88.9829 371.109 179.552 455.59 287.248 455.59C291.106 455.59 294.999 455.482 298.929 455.265C411.709 448.881 498.276 351.919 491.894 239.086C485.765 130.22 395.232 45.7033 287.5 45.7033Z" fill="#0B3D91"/>
<path d="M287.248 466.881C173.603 466.881 78.0943 377.747 71.6045 262.857C64.8983 143.819 156.225 41.5189 275.205 34.7735C328.638 31.7434 380.99 48.553 422.669 82.0279C470.37 120.336 499.718 177.366 503.143 238.436C503.215 239.591 503.251 240.781 503.287 241.935C503.936 257.771 502.855 273.607 500.079 289.045C487.748 357.799 442.535 416.632 379.187 446.428C354.165 458.187 327.377 464.933 299.542 466.52C295.432 466.772 291.322 466.881 287.248 466.881ZM82.8536 262.208C85.9543 316.857 110.111 367.033 150.925 403.502C191.739 439.971 244.307 458.368 298.929 455.265C325.321 453.787 350.704 447.366 374.428 436.219C434.495 408.011 477.328 352.244 489.01 287.061C491.642 272.452 492.651 257.41 492.074 242.404C492.038 241.322 491.966 240.204 491.93 239.086C488.649 181.19 460.851 127.154 415.638 90.8294C376.123 59.086 326.475 43.1783 275.854 46.0279C163.075 52.4127 76.5079 149.41 82.8536 262.208Z" fill="#0B3D91"/>
<path d="M305.059 458.584C191.162 458.584 95.9054 375.149 89.8122 267.258C86.7475 212.897 106.469 160.557 145.409 119.867C184.203 79.2503 237.492 55.1181 295.36 51.8356C340.248 49.3105 384.019 59.591 421.948 81.595C422.2 81.7393 422.417 81.8836 422.669 82.0639C470.37 120.372 499.718 177.402 503.143 238.472C503.215 239.591 503.251 240.673 503.287 241.791C503.36 242.476 503.396 243.162 503.432 243.847C504.297 259.106 503.143 274.364 500.043 289.226C487.712 357.835 442.535 416.668 379.187 446.428C379.007 446.536 378.791 446.608 378.574 446.68C359.213 453.137 338.914 457.033 318.255 458.187C313.856 458.44 309.457 458.584 305.059 458.584ZM308.7 62.7293C304.482 62.7293 300.263 62.8375 296.009 63.09C240.99 66.1922 190.369 89.1341 153.557 127.659C116.817 166.076 98.1769 215.422 101.061 266.609C106.794 368.512 197.111 447.294 305.059 447.294C309.241 447.294 313.423 447.185 317.642 446.933C337.183 445.815 356.401 442.171 374.716 436.075C434.603 407.795 477.328 352.135 489.01 287.061C491.93 273.029 493.012 258.745 492.219 244.533C492.183 243.919 492.147 243.342 492.111 242.801C492.111 242.693 492.074 242.549 492.074 242.44C492.038 241.322 491.966 240.24 491.93 239.122C488.685 181.37 460.995 127.443 415.963 91.118C383.586 72.4327 346.738 62.7293 308.7 62.7293Z" fill="#0B3D91"/>
<path d="M115.808 265.779C121.36 364.364 211.389 439.466 316.885 433.514C406.3 428.464 478.121 366.781 494.526 288.071C497.483 273.931 498.673 259.214 497.807 244.208C497.771 243.522 497.735 242.873 497.663 242.188C490.993 144.613 401.505 70.557 296.73 76.4728C191.27 82.4607 110.255 167.194 115.808 265.779Z" fill="#0B3D91"/>
<path d="M115.808 265.779C121.36 364.364 211.389 439.466 316.885 433.514C396.205 429.041 461.717 379.983 486.919 313.971C451.333 356.176 397.395 384.6 335.705 388.099C226.46 394.268 132.501 320.031 119.485 220.076C116.24 234.829 114.942 250.124 115.808 265.779Z" fill="#220F2D"/>
<g opacity="0.5">
<path d="M219.357 152.404C219.357 152.404 311.296 124.845 379.836 157.527C379.908 157.563 379.98 157.599 380.053 157.635C394.474 164.525 406.733 175.166 415.602 188.296C427.32 205.683 432.837 219.39 437.199 231.619C450.467 268.845 449.602 288.793 449.602 288.793C464.096 261.559 468.242 234.973 457.534 203.843C456.452 200.777 455.263 197.639 453.893 194.501C453.568 193.779 453.28 193.058 452.919 192.336C452.919 192.336 452.919 192.3 452.883 192.3C449.674 186.096 445.203 178.052 439.326 169.467C421.696 143.459 391.915 111.932 349.298 107.387C269.689 98.9096 214.85 149.591 219.357 152.404Z" fill="white"/>
</g>
<g opacity="0.5">
<path d="M186.373 292.77C202.266 291.679 214.134 275.986 212.881 257.72C211.628 239.454 197.728 225.531 181.834 226.622C165.941 227.714 154.073 243.407 155.326 261.673C156.58 279.939 170.48 293.862 186.373 292.77Z" fill="white"/>
</g>
<g opacity="0.5">
<path d="M200.639 327.679C200.824 320.131 195.648 313.882 189.079 313.72C182.51 313.559 177.035 319.548 176.85 327.096C176.665 334.644 181.84 340.894 188.409 341.055C194.978 341.216 200.454 335.228 200.639 327.679Z" fill="white"/>
</g>
<path d="M66.9175 234.18L81.2672 315.883L90.2088 366.781L118.98 366.528L121.685 366.492C134.087 364.039 138.486 329.771 131.491 289.947C131.347 289.045 131.167 288.144 130.987 287.242C123.776 248.789 108.489 219.967 96.3742 222.384L93.8143 223.394L66.9175 234.18Z" fill="white"/>
<g opacity="0.29">
<path d="M81.2673 315.883L90.2089 366.781L118.981 366.528L121.685 366.492C134.087 364.039 138.486 329.771 131.492 289.947C131.347 289.045 131.167 288.144 130.987 287.242L128.823 282.625C128.823 282.625 126.84 300.12 118.908 303.294C110.544 306.649 102.9 286.448 102.9 286.448L81.2673 315.883Z" fill="#0B3D91"/>
</g>
<path d="M90.1729 372.408C87.4327 372.408 85.0891 370.46 84.6204 367.755L61.3291 235.154C60.8604 232.521 62.3026 229.923 64.7904 228.949L94.2831 217.154C94.6076 217.01 94.9321 216.937 95.2926 216.865C97.9246 216.324 102.071 216.396 106.866 219.679C119.305 228.192 131.167 255.426 137.044 289.009C143.822 327.534 141.082 368.404 122.766 372.047C122.406 372.119 122.081 372.155 121.721 372.155L90.2089 372.444C90.2089 372.408 90.2089 372.408 90.1729 372.408ZM73.2632 237.715L94.9321 361.117L120.964 360.901C126.696 358.809 133.402 333.198 125.975 290.957C120.134 257.735 108.741 234.613 100.521 228.985C99.9076 228.553 98.7539 227.903 97.8165 227.867L73.2632 237.715Z" fill="#0B3D91"/>
<path d="M56.3895 294.997L56.4255 295.033C56.8221 298.172 57.2909 301.346 57.8677 304.556C64.2855 341.17 78.7434 369.017 90.1727 366.745C101.278 364.544 105.424 334.713 99.7272 299.398C99.583 298.388 99.4027 297.378 99.2225 296.332C92.8047 259.719 78.3107 231.871 66.9175 234.108C56.4977 236.236 52.2071 262.605 56.3895 294.997Z" fill="white"/>
<path d="M56.4255 295.069C56.8221 298.208 57.2908 301.382 57.8677 304.592C64.2855 341.206 78.7434 369.053 90.1727 366.781C101.278 364.58 105.424 334.749 99.7272 299.434C96.302 312.961 88.6584 337.057 77.9863 331.647C71.7848 328.508 62.9514 310.328 56.4255 295.069Z" fill="#D8D8D8"/>
<path d="M88.8748 372.552C86.5312 372.552 83.5387 371.903 80.2577 369.63C68.7202 361.731 57.7235 336.552 52.2793 305.566C46.2221 271.009 47.8445 232.196 65.7637 228.661C68.2875 228.156 72.2175 228.228 76.7604 231.33C88.2979 239.23 99.2946 264.408 104.703 295.394C110.76 329.951 109.138 368.765 91.2183 372.3C90.5694 372.444 89.7761 372.552 88.8748 372.552ZM63.4202 303.619C68.7563 334.063 79.14 355.202 86.6394 360.36C87.6489 361.045 88.5503 361.406 89.0911 361.262C93.6701 360.36 100.737 337.526 93.7061 297.342C88.37 266.897 77.9863 245.759 70.4869 240.601C69.4774 239.915 68.576 239.555 68.0352 239.699C63.4202 240.601 56.3534 263.47 63.4202 303.619Z" fill="#0B3D91"/>
<path d="M5.84079 410.175C5.62446 370.821 11.6817 342.576 26.2117 315.162C42.3281 284.681 98.1769 265.923 109.462 285.041C117.322 298.352 102.972 306.468 98.1769 308.741C97.4197 309.102 97.1313 310.039 97.564 310.725C100.448 315.45 109.57 331.791 109.786 350.368C110.003 368.007 105.64 384.059 84.0434 391.31" fill="white"/>
<path d="M0.216324 410.211C-0.0360586 380.921 3.56941 350.801 15.7559 323.783C17.9913 318.877 20.1546 314.26 22.9308 309.534C30.7547 297.162 42.7609 287.963 55.5963 281.434C68.6481 275.013 83.2142 270.216 98.0327 272.236C109.751 273.679 119.377 283.887 116.961 296.332C115.159 304.592 108.092 310.075 101.278 313.502L100.629 313.827C102.107 313.214 103.369 311.049 102.936 309.21C102.9 308.741 102.576 308.091 102.431 307.839L102.467 307.911L102.828 308.488C114.474 327.787 120.242 352.568 110.904 373.995C107.695 380.885 101.963 386.909 95.1844 390.228C91.9034 391.995 88.4422 393.077 84.9809 393.979C83.4666 394.376 81.9163 393.474 81.5557 391.959C81.1952 390.588 81.9163 389.181 83.2143 388.64C91.9034 384.709 98.7899 378.973 101.891 370.208C107.551 351.414 102.576 330.492 92.8769 313.791C90.4613 310.112 92.264 304.953 96.3382 303.402C101.025 300.949 107.046 296.945 106.001 291.282C104.919 286.52 101.314 284.104 96.2661 283.382C75.8951 281.254 51.9548 293.59 38.0738 308.272C32.6295 314.079 29.3485 321.222 26.1036 328.4C20.1185 341.819 16.1886 356.067 14.0253 370.676C12.1144 383.662 11.4654 396.937 11.5375 410.248C11.3212 417.534 0.468707 417.714 0.216324 410.211Z" fill="#0B3D91"/>
<path d="M111.77 410.175C111.77 410.175 117.971 433.514 117.971 447.185L111.77 410.175Z" fill="white"/>
<path d="M117.214 408.733C118.908 418.292 120.243 427.706 120.747 437.41C120.891 440.656 120.964 443.903 120.747 447.221C120.639 448.773 119.305 449.963 117.755 449.855C116.313 449.746 115.195 448.628 115.123 447.221C113.861 435.246 110.075 423.089 106.289 411.618C104.018 403.935 115.447 400.905 117.214 408.733Z" fill="#0B3D91"/>
<path d="M407.31 410.825C390.545 410.825 374.753 424.424 372.085 441.197C369.38 457.971 380.774 471.57 397.539 471.57C414.305 471.57 430.097 457.971 432.801 441.197C435.469 424.424 424.075 410.825 407.31 410.825ZM414.593 438.239C413.331 446.031 405.219 453.101 397.539 453.101C395.736 453.101 393.249 452.704 391.662 450.829C390.328 449.241 389.823 446.861 390.292 444.119C391.554 436.328 399.666 429.258 407.346 429.258C409.149 429.258 411.637 429.654 413.223 431.53C414.521 433.117 415.026 435.498 414.593 438.239Z" fill="#DDDCDB"/>
<g opacity="0.7">
<path d="M407.31 410.825C390.545 410.825 374.753 424.424 372.049 441.197C372.013 441.45 371.976 441.702 371.94 441.955C377.601 429.221 390.797 419.915 404.678 419.915C421.191 419.915 432.476 433.117 430.241 449.494C431.431 446.861 432.296 444.083 432.765 441.197C435.469 424.424 424.112 410.825 407.31 410.825Z" fill="white"/>
</g>
<path d="M397.503 477.197C387.804 477.197 379.187 473.374 373.31 466.448C367.325 459.414 364.91 450.143 366.496 440.296C369.597 420.961 387.913 405.197 407.31 405.197C417.009 405.197 425.626 409.021 431.503 415.947C437.488 422.981 439.903 432.251 438.317 442.099C435.216 461.434 416.901 477.197 397.503 477.197ZM407.31 416.488C393.213 416.488 379.908 427.995 377.637 442.099C376.591 448.628 378.106 454.688 381.891 459.161C385.605 463.526 391.157 465.943 397.503 465.943C411.6 465.943 424.905 454.436 427.212 440.332C428.258 433.803 426.743 427.743 422.958 423.27C419.208 418.869 413.692 416.488 407.31 416.488ZM397.503 458.764C393.285 458.764 389.679 457.249 387.336 454.508C384.92 451.658 383.983 447.654 384.704 443.217C386.398 432.793 396.962 423.63 407.31 423.63C411.528 423.63 415.134 425.145 417.477 427.851C419.893 430.736 420.831 434.704 420.145 439.141C418.451 449.602 407.887 458.764 397.503 458.764ZM407.31 434.921C402.443 434.921 396.638 440.043 395.809 445.057C395.592 446.428 395.845 447.113 395.917 447.221C395.989 447.294 396.458 447.51 397.503 447.51C402.407 447.51 408.175 442.388 409.005 437.374C409.221 436.003 408.968 435.282 408.896 435.173C408.86 435.137 408.356 434.921 407.31 434.921Z" fill="#0B3D91"/>
<path d="M474.66 441.197L442.247 540.107L413.223 628.7H254.005L271.961 573.834L315.443 441.197H474.66Z" fill="#EDAE3E"/>
<path d="M442.247 540.107L413.223 628.7H254.005L271.961 573.87C271.961 573.87 285.914 605.902 330.766 611.818C355.139 615.029 377.168 597.065 379.079 572.536C379.944 561.534 383.406 549.305 392.131 537.871C404.966 521.205 426.635 530.079 442.247 540.107Z" fill="#D18C28"/>
<path d="M413.223 634.327H254.005C252.203 634.327 250.508 633.461 249.463 631.982C248.417 630.504 248.092 628.628 248.669 626.932L310.07 439.43C310.828 437.121 312.991 435.534 315.407 435.534H474.624C476.427 435.534 478.121 436.4 479.167 437.879C480.213 439.358 480.537 441.233 479.96 442.929L418.595 630.431C417.838 632.74 415.675 634.327 413.223 634.327ZM261.793 623.037H409.149L466.872 446.825H319.517L261.793 623.037Z" fill="#0B3D91"/>
<path d="M441.382 466.015H346.666L354.382 441.197H449.133L441.382 466.015Z" fill="#DDDCDB"/>
<g opacity="0.7">
<path d="M444.555 455.879L441.382 466.015H346.666L354.418 441.197H364.838L363.071 446.825C361.665 451.298 365.018 455.843 369.705 455.843H444.555V455.879Z" fill="white"/>
</g>
<path d="M441.382 471.642H346.666C344.863 471.642 343.205 470.776 342.123 469.334C341.077 467.891 340.753 466.015 341.294 464.32L349.045 439.502C349.767 437.157 351.966 435.534 354.418 435.534H449.133C450.936 435.534 452.595 436.4 453.676 437.843C454.722 439.286 455.046 441.161 454.506 442.857L446.754 467.674C446.033 470.055 443.833 471.642 441.382 471.642ZM354.309 460.388H437.235L441.454 446.825H358.528L354.309 460.388Z" fill="#0B3D91"/>
<path d="M465.575 540.323C463.339 554.031 460.887 565.43 458.183 574.808C458.183 574.808 458.183 574.808 458.183 574.88C451.153 599.482 442.536 609.87 432.26 609.87C381.423 609.798 380.558 565.826 394.258 540.72C409.257 513.233 447.655 523.875 447.655 523.875L454.542 502.845C454.506 502.809 470.19 511.899 465.575 540.323Z" fill="white"/>
<g opacity="0.29">
<path d="M458.183 574.844C451.153 599.446 442.536 609.834 432.26 609.834C381.423 609.762 380.558 565.79 394.258 540.684C394.258 540.684 386.47 580.327 416.288 589.742C448.016 599.734 457.679 576.071 458.183 574.844Z" fill="#0B3D91"/>
</g>
<path d="M432.26 615.498C432.26 615.498 432.224 615.498 432.26 615.498C405.435 615.462 392.996 603.918 387.264 594.251C376.952 576.828 380.846 553.454 389.283 538.015C402.839 513.197 431.863 515.217 443.833 517.273L449.133 501.041C449.674 499.418 450.9 498.155 452.486 497.542C454.073 496.929 455.84 497.073 457.318 497.939C458.111 498.372 476.319 509.338 471.127 541.261C462.726 592.592 450.72 615.498 432.26 615.498ZM430.673 527.374C419.929 527.374 406.3 530.295 399.162 543.39C392.491 555.618 388.922 574.953 396.962 588.48C403.128 598.904 414.99 604.171 432.26 604.207C440.084 604.207 451.261 592.953 460.022 539.422C462.113 526.58 459.661 518.464 456.885 513.63L452.955 525.57C452.018 528.42 448.989 530.043 446.105 529.249C445.492 529.105 438.93 527.374 430.673 527.374Z" fill="#0B3D91"/>
<path d="M65.0066 518.392C63.276 518.392 61.6536 517.309 61.0406 515.578C60.2474 513.378 61.4012 510.961 63.6005 510.167C114.293 492.167 109.246 417.859 109.21 417.137C109.029 414.829 110.76 412.773 113.104 412.592C115.447 412.412 117.466 414.143 117.646 416.488C117.899 419.807 123.235 497.975 66.4488 518.139C65.9441 518.319 65.4754 518.392 65.0066 518.392Z" fill="#0B3D91"/>
<path d="M51.0534 123.98C42.184 120.877 26.8607 109.587 26.8607 96.1681C26.8607 87.0419 32.3771 79.611 47.7004 67.3826C60.8964 57.066 67.6026 50.1041 67.6026 41.2304C67.6026 32.6091 61.8338 25.1783 51.3058 25.1783C35.4778 25.1783 26.1396 40.04 23.0389 40.04C19.4335 40.04 12.7273 34.521 12.7273 28.7855C12.7273 25.4308 13.9171 23.014 17.2702 19.9118C24.9498 13.4188 35.7302 11.2906 43.1575 11.2906C64.9706 11.2906 81.2673 30.2284 81.2673 48.9498C81.2673 59.0139 77.9142 67.6712 64.2495 78.9257C52.2793 88.9898 45.7895 93.5709 45.7895 101.471C45.7895 107.964 49.1425 112.256 55.6324 118.244L51.0534 123.98ZM45.0684 173.867C36.4513 173.867 30.2138 167.627 30.2138 158.537C30.2138 149.915 36.1989 143.206 45.0684 143.206C53.4691 143.206 59.9229 149.915 59.9229 158.537C59.9229 167.627 53.4691 173.867 45.0684 173.867Z" fill="white"/>
<path d="M43.1574 11.2545C64.9705 11.2545 81.2673 30.1923 81.2673 48.9137C81.2673 58.9778 77.9142 67.6351 64.2494 78.8896C52.2793 88.9537 45.7894 93.5349 45.7894 101.435C45.7894 107.928 49.1425 112.22 55.6324 118.208L51.0895 123.98C42.22 120.877 26.8968 109.587 26.8968 96.1681C26.8968 87.0419 32.4131 79.611 47.7364 67.3826C60.9324 57.066 67.6386 50.1041 67.6386 41.2304C67.6386 32.6091 61.8698 25.1783 51.3418 25.1783C35.5138 25.1783 26.1757 40.04 23.075 40.04C19.4695 40.04 12.7633 34.521 12.7633 28.7855C12.7633 25.4308 13.9531 23.014 17.3062 19.9118C24.9138 13.4188 35.7302 11.2545 43.1574 11.2545ZM45.0683 143.17C53.4691 143.17 59.9229 149.879 59.9229 158.501C59.9229 167.627 53.433 173.831 45.0683 173.831C36.4513 173.831 30.2138 167.591 30.2138 158.501C30.2138 149.879 36.1989 143.17 45.0683 143.17ZM43.1574 0C38.5064 0 22.426 0.829657 10.0232 11.2906C9.87894 11.3988 9.77078 11.507 9.62656 11.6513C5.80476 15.1863 1.44214 20.3086 1.44214 28.7855C1.44214 40.9057 13.3041 51.3305 23.0029 51.3305C28.3029 51.3305 31.8363 48.1562 35.2254 45.054C39.2275 41.4107 44.6717 36.4689 51.3058 36.4689C52.8201 36.4689 56.3535 36.4689 56.3535 41.2664C56.3535 44.9097 51.9908 49.7794 40.7778 58.545C40.7418 58.581 40.7057 58.581 40.7057 58.6171C24.8056 71.2784 15.6116 81.4868 15.6116 96.2042C15.6116 112.437 29.3845 125.783 41.6071 132.132C28.4832 133.755 18.9647 144.577 18.9647 158.537C18.9647 173.723 30.1777 185.158 45.1044 185.158C59.995 185.158 71.244 173.723 71.244 158.537C71.244 147.535 65.0426 138.3 55.8847 134.224C57.4351 133.503 58.8052 132.421 59.9229 131.014L64.4658 125.242C68.1073 120.625 67.6025 113.988 63.276 109.984C57.0745 104.212 57.0745 102.805 57.0745 101.471C57.0745 99.595 62.2304 95.3024 68.1794 90.3244C69.225 89.4587 70.3066 88.5569 71.4604 87.583C86.2428 75.3906 92.5163 63.8475 92.5163 48.9498C92.5163 36.8296 87.3966 24.5651 78.491 15.2946C69.0447 5.41081 56.4616 0 43.1574 0Z" fill="#0B3D91"/>
</g>
<defs>
<clipPath id="clip0_19_3886">
<rect width="522" height="893" fill="white"/>
</clipPath>
</defs>
</svg>
