<svg width="48" height="32" viewBox="0 0 48 32" fill="none" xmlns="http://www.w3.org/2000/svg">
<path d="M10.641 19.7253C10.641 19.7253 8.33578 22.7667 2.37348 17.9858C2.09369 17.761 2.08904 17.3366 2.36585 17.1081C3.8537 15.8815 8.199 12.7097 10.6003 15.2869L10.641 19.7253Z" fill="#E81818"/>
<path d="M10.6484 19.0841C10.6484 19.0841 9.01282 21.2426 4.77972 17.8365C4.59373 17.6869 4.59247 17.4058 4.77459 17.2545C5.80468 16.402 8.909 14.1126 10.6187 15.9482L10.6484 19.0841Z" fill="#E7A900"/>
<path d="M10.8097 18.5699C10.8097 18.5699 9.70494 20.026 6.85008 17.7278C6.7249 17.6271 6.72379 17.437 6.84698 17.3343C7.54131 16.7589 9.63673 15.2143 10.7904 16.4524L10.8097 18.5699Z" fill="#FFFD01"/>
<path d="M6.91572 14.275C8.53274 13.8375 9.8239 14.126 10.7646 15.1348C10.8029 15.1761 10.8244 15.2301 10.8245 15.2858L10.8651 19.7242C10.8652 19.7745 10.8495 19.8223 10.8194 19.8617C10.7933 19.8959 10.1702 20.6995 8.77262 20.8723C6.95662 21.0971 4.75576 20.1858 2.23355 18.1621C2.04629 18.0129 1.93818 17.7892 1.93741 17.5501C1.93537 17.3113 2.04095 17.0883 2.22434 16.9367C2.967 16.3237 4.45302 15.201 6.05825 14.5641C6.35371 14.4447 6.63946 14.3497 6.91572 14.275ZM10.3763 15.3785C9.41584 14.4023 8.0197 14.2687 6.22388 14.9803C4.67523 15.595 3.23222 16.6857 2.50963 17.2824C2.43063 17.3473 2.38598 17.4437 2.38669 17.5468C2.3874 17.65 2.43383 17.7462 2.51533 17.8112C5.52332 20.2229 7.5378 20.5659 8.70008 20.4282C9.72543 20.3072 10.2617 19.8113 10.4165 19.6443L10.3763 15.3785Z" fill="#0B3D91"/>
<path d="M20.1495 17.3852L13.8553 24.3573L10.815 24.4102L13.3475 17.5038L20.1495 17.3852Z" fill="#E81818"/>
<path d="M20.1492 17.3851L13.6179 10.6368L10.5776 10.6897L13.3472 17.5038L20.1492 17.3851Z" fill="#E81818"/>
<g opacity="0.3">
<path d="M20.1492 17.3851L13.3469 17.5025L10.5773 10.6884L11.6616 10.6697L12.4394 12.5847C12.6223 13.0343 13.0453 13.3414 13.5294 13.3763C14.3171 13.4325 15.0955 13.57 15.8521 13.7828C16.2658 13.8993 16.6723 14.0396 17.0697 14.2013L20.1492 17.3851Z" fill="#0B3D91"/>
</g>
<g opacity="0.3">
<path d="M20.1493 17.385L13.3471 17.5024L10.8145 24.4088L11.8988 24.3901L12.6103 22.4502C12.7779 21.9942 13.1899 21.672 13.6723 21.6204C14.4576 21.5371 15.2306 21.3728 15.9791 21.1336C16.3884 21.0025 16.7902 20.8489 17.1817 20.6723L20.1493 17.385Z" fill="#0B3D91"/>
</g>
<g opacity="0.6">
<path d="M13.8553 24.3573L13.2638 24.3678L19.3577 17.3995L20.1495 17.3852L13.8553 24.3573Z" fill="white"/>
</g>
<g opacity="0.6">
<path d="M20.1492 17.3851L19.3574 17.3994L13.0264 10.6473L13.6179 10.6368L20.1492 17.3851Z" fill="white"/>
</g>
<path d="M13.1965 17.293L20.6374 17.1633L13.9506 24.5694L10.5057 24.6297L13.1965 17.293ZM19.6616 17.6082L13.497 17.7148L11.1227 24.1908L13.7596 24.1451L19.6616 17.6082Z" fill="#0B3D91"/>
<path d="M16.8119 24.905C16.8024 24.3773 14.7999 24.1739 14.0142 24.2056L9.55028 24.3852C9.27565 24.3956 9.05906 24.6255 9.06402 24.9002L9.06908 25.1803C9.07404 25.455 9.29707 25.6762 9.57225 25.6779L14.0398 25.7026C14.8267 25.7059 16.8214 25.4328 16.8119 24.905Z" fill="#22A7F0"/>
<g opacity="0.6">
<path d="M14.0393 25.7014L13.5625 25.6984C14.478 25.6289 15.8933 25.3657 15.8857 24.9204C15.8785 24.4763 14.455 24.2617 13.5377 24.2243L14.0141 24.2056C14.7998 24.1739 16.8036 24.377 16.8118 24.9051C16.8213 25.4328 14.8266 25.7059 14.0393 25.7014Z" fill="white"/>
</g>
<path d="M10.2616 10.4815L13.7065 10.4212L20.6443 17.5912L13.2034 17.7209L10.2616 10.4815ZM13.5291 10.8513L10.8922 10.897L13.4887 17.2874L19.6533 17.1807L13.5291 10.8513Z" fill="#0B3D91"/>
<path d="M16.554 9.98672C16.5635 10.5145 14.5688 10.7876 13.7815 10.783L9.314 10.7583C9.03882 10.7566 8.81452 10.5358 8.81083 10.2607L8.80577 9.98061C8.80081 9.70591 9.01648 9.47758 9.29204 9.46559L13.7559 9.28597C14.542 9.25554 16.5458 9.45862 16.554 9.98672Z" fill="#22A7F0"/>
<g opacity="0.3">
<path d="M12.2276 10.7751L9.31431 10.7596C9.03913 10.7579 8.81484 10.5371 8.81114 10.2621L8.80608 9.98194C8.80113 9.70724 9.0168 9.47891 9.29235 9.46692L12.2053 9.35061C11.313 9.45059 10.194 9.70301 10.2003 10.0984C10.2066 10.4937 11.333 10.7058 12.2276 10.7751Z" fill="#0B3D91"/>
</g>
<g opacity="0.6">
<path d="M13.7815 10.783L13.3047 10.7801C14.2202 10.7106 15.6355 10.4473 15.6279 10.002C15.6206 9.55796 14.1972 9.34338 13.2799 9.30597L13.7563 9.28724C14.542 9.25554 16.5458 9.45862 16.554 9.98672C16.5635 10.5145 14.5688 10.7876 13.7815 10.783Z" fill="white"/>
</g>
<path d="M9.12666 9.27643C9.17735 9.26272 9.22942 9.25407 9.28353 9.25303L13.7474 9.07341C14.3839 9.04809 16.1101 9.17532 16.6038 9.64281C16.7371 9.76856 16.7663 9.89665 16.768 9.98322C16.7696 10.0698 16.7447 10.1989 16.6154 10.3291C16.1371 10.8134 14.4169 11 13.7796 10.997L9.31209 10.9723C8.92385 10.9699 8.6028 10.6529 8.59566 10.2645L8.5906 9.98443C8.58738 9.65078 8.81619 9.36043 9.12666 9.27643ZM16.3401 9.99019C16.3331 9.97441 16.2202 9.7833 15.3568 9.62799C14.7592 9.52041 14.1124 9.48734 13.7652 9.50103L9.3013 9.68065C9.14378 9.68655 9.018 9.81985 9.02009 9.97838L9.02515 10.2585C9.0285 10.4167 9.15835 10.5447 9.31632 10.5455L13.7838 10.5703C14.1326 10.5725 14.777 10.5164 15.3704 10.3872C16.2286 10.2012 16.3334 10.0056 16.3401 9.99019Z" fill="#0B3D91"/>
<g opacity="0.3">
<path d="M12.4854 25.6933L9.57213 25.6778C9.29695 25.6761 9.07265 25.4553 9.06896 25.1803L9.0639 24.9002C9.05894 24.6255 9.27461 24.3971 9.55016 24.3851L12.4631 24.2688C11.5708 24.3688 10.4518 24.6212 10.4581 25.0166C10.4654 25.4103 11.5908 25.624 12.4854 25.6933Z" fill="#0B3D91"/>
</g>
<path d="M9.38423 24.1946C9.43492 24.1809 9.48698 24.1723 9.5411 24.1712L14.005 23.9916C14.6414 23.9663 16.3677 24.0935 16.8614 24.561C16.9947 24.6868 17.0239 24.8149 17.0256 24.9014C17.0272 24.988 17.0023 25.1171 16.873 25.2473C16.3947 25.7316 14.6745 25.9182 14.0372 25.9152L9.56966 25.8905C9.18141 25.8881 8.86037 25.5711 8.85323 25.1828L8.84817 24.9026C8.84494 24.569 9.07375 24.2786 9.38423 24.1946ZM16.5977 24.9084C16.5907 24.8926 16.4778 24.7015 15.6143 24.5462C15.0167 24.4386 14.3699 24.4055 14.0228 24.4192L9.55887 24.5989C9.40134 24.6048 9.27556 24.7381 9.27765 24.8966L9.28271 25.1767C9.28607 25.3349 9.41591 25.463 9.57389 25.4637L14.0414 25.4885C14.3901 25.4907 15.0346 25.4346 15.6279 25.3054C16.4861 25.1194 16.591 24.9238 16.5977 24.9084Z" fill="#0B3D91"/>
<path d="M28.4997 23.7029C22.1228 23.8139 16.7793 22.0898 14.6763 21.2989C14.098 21.0814 13.7104 20.5335 13.6998 19.9163L13.6159 15.0817C13.6053 14.4645 13.9728 13.9027 14.5437 13.6653C16.6181 12.8022 21.8994 10.8934 28.2764 10.7823C39.7673 10.5823 46.1922 15.4189 46.2193 16.9318C46.2464 18.4448 39.9894 23.5031 28.4997 23.7029Z" fill="white"/>
<path d="M19.0524 11.9176C21.5553 11.2405 24.7508 10.6303 28.2718 10.5697C34.5783 10.46 39.0187 11.8424 41.6333 13.0211C44.7635 14.4316 46.4159 16.0556 46.4308 16.93C46.4457 17.8045 44.8506 19.4843 41.7716 21.0026C39.199 22.2711 34.8095 23.8068 28.5029 23.9165C22.0557 24.0289 16.6328 22.2623 14.5997 21.4988C13.935 21.2489 13.498 20.6287 13.4856 19.9195L13.4017 15.0849C13.3894 14.3757 13.8052 13.741 14.4604 13.4686C15.3709 13.089 16.9716 12.4805 19.0524 11.9176ZM36.9337 22.3482C38.87 21.8244 40.4158 21.194 41.5821 20.6188C44.6166 19.122 46.0145 17.5376 46.0042 16.9367C45.9943 16.3369 44.5422 14.8002 41.4583 13.4098C38.8839 12.2488 34.5063 10.8875 28.2796 10.996C21.9052 11.1064 16.6081 13.0371 14.6253 13.8618C14.1328 14.0671 13.8196 14.5435 13.8292 15.0767L13.9132 19.9113C13.9228 20.4444 14.2515 20.9103 14.7509 21.0975C16.7599 21.8526 22.1216 23.599 28.4957 23.4874C31.8556 23.4297 34.664 22.9622 36.9337 22.3482Z" fill="#0B3D91"/>
<path d="M13.7034 20.1559L13.0454 20.1667C12.5363 20.1752 12.1168 19.7706 12.1083 19.2617L12.0486 15.7885C12.0401 15.2795 12.4447 14.86 12.9538 14.8514L13.6119 14.8407L13.7034 20.1559Z" fill="#FFDA00"/>
<g opacity="0.3">
<path d="M12.317 17.0428C12.3085 16.5338 12.7132 16.1143 13.2222 16.1058L13.6322 16.0982L13.61 14.8396L12.9519 14.8503C12.4429 14.8589 12.0382 15.2784 12.0467 15.7874L12.1064 19.2606C12.1107 19.5028 12.2092 19.7209 12.3645 19.8829L12.317 17.0428Z" fill="#0B3D91"/>
</g>
<g opacity="0.7">
<path d="M13.7033 20.1559L13.0452 20.1667C12.5362 20.1752 12.1166 19.7707 12.1081 19.2617L12.0984 18.6877C12.1069 19.1967 12.5264 19.6013 13.0355 19.5928L13.6935 19.582L13.7033 20.1559Z" fill="white"/>
</g>
<path d="M11.171 19.7694C10.9125 19.774 10.7006 19.5689 10.696 19.3104L10.6353 15.7886C10.6307 15.5301 10.8358 15.3182 11.0943 15.3136C11.1797 15.3122 11.2629 15.3332 11.3373 15.377L12.0483 15.7884L12.108 19.2616L11.4113 19.6976C11.3384 19.7445 11.2563 19.768 11.171 19.7694Z" fill="#0B3D91"/>
<g opacity="0.7">
<path d="M11.1711 19.7692C10.9126 19.7739 10.7007 19.5688 10.696 19.3103L10.688 18.808C10.6926 19.0665 10.9058 19.2712 11.163 19.2669C11.2483 19.2656 11.33 19.2408 11.4037 19.1964L12.1004 18.7604L12.1084 19.2627L11.4118 19.6987C11.3384 19.7444 11.2564 19.7679 11.1711 19.7692Z" fill="white"/>
</g>
<g opacity="0.7">
<path d="M11.0928 15.2569C10.8343 15.2615 10.6291 15.4734 10.6337 15.7319L10.6418 16.2342C10.6372 15.9757 10.8436 15.7635 11.1008 15.7592C11.1861 15.7579 11.2693 15.7789 11.3434 15.8214L12.0545 16.2328L12.0464 15.7305L11.3353 15.3191C11.2613 15.2766 11.1781 15.2556 11.0928 15.2569Z" fill="white"/>
</g>
<path d="M37.0571 22.5337C36.7785 20.8808 36.6108 19.0795 36.5774 17.1915C36.5437 15.2371 36.6585 13.3689 36.8954 11.6608C42.9312 13.0888 46.1995 15.8544 46.218 16.9332C46.2368 18.0133 43.057 20.8983 37.0571 22.5337Z" fill="#E81818"/>
<g opacity="0.3">
<path d="M30.3275 11.3177C30.3342 11.3172 30.3412 11.318 30.3479 11.3176C30.2682 11.3147 30.1876 11.3134 30.1083 11.3117C30.0563 11.3108 30.0041 11.3086 29.9521 11.3077C29.84 11.3054 29.7266 11.3035 29.6119 11.3018C29.5558 11.3007 29.4998 11.2995 29.444 11.2997C29.3201 11.2992 29.195 11.2991 29.0698 11.2989C29.0249 11.2988 28.98 11.2987 28.9351 11.2986C28.7625 11.2991 28.5903 11.3008 28.4158 11.3045C22.0389 11.4156 16.7585 13.3228 14.6844 14.1871C14.4961 14.2653 14.3299 14.3796 14.1921 14.5189C13.9122 14.8013 13.7493 15.1894 13.7562 15.6023L13.8402 20.4369C13.8411 20.4706 13.843 20.5027 13.8453 20.5361C13.836 20.5169 13.8263 20.4964 13.8183 20.4768C13.8307 20.5074 13.846 20.5387 13.8609 20.5686L13.8612 20.5699C13.8761 20.5999 13.8919 20.6282 13.909 20.6562C13.914 20.6644 13.9192 20.6739 13.9254 20.6817C13.938 20.7028 13.9514 20.7223 13.9648 20.7418C13.971 20.7496 13.9763 20.7591 13.9825 20.7669C14.0018 20.793 14.0211 20.819 14.0416 20.8447C14.0436 20.8469 14.0452 20.8478 14.0459 20.8504C14.0661 20.8748 14.086 20.898 14.1084 20.9205C14.1158 20.928 14.1233 20.9355 14.1308 20.943C14.1477 20.9602 14.1646 20.9774 14.1824 20.9929C14.1898 21.0004 14.197 21.0067 14.2057 21.0138C14.2306 21.0356 14.2556 21.0574 14.2814 21.0776C14.3988 21.1696 14.5321 21.2451 14.6774 21.2996C16.7804 22.0905 22.1239 23.8147 28.5008 23.7036C29.1614 23.6921 29.8054 23.6647 30.432 23.6231C24.9311 23.765 16.3062 22.3031 16.2219 17.4169C16.2224 17.4086 16.2216 17.4007 16.2221 17.3924C16.2082 16.2049 16.9934 15.1562 18.126 14.7981C19.2712 14.4366 20.6303 14.0662 22.1494 13.7545C21.4428 14.6365 21.0259 15.7596 21.0473 16.975C21.095 19.7402 23.3839 21.9521 26.1507 21.9039C28.9175 21.8557 31.1286 19.5673 31.0805 16.8008C31.0541 15.2604 30.332 13.8933 29.2189 12.991C37.9687 12.9138 43.7222 15.7618 45.8707 17.7411C46.0798 17.4534 46.194 17.2021 46.2135 17.0024C45.2691 15.2712 39.6927 11.6152 30.3275 11.3177Z" fill="#0B3D91"/>
</g>
<g opacity="0.6">
<path d="M40.0683 21.5994C41.6914 20.9482 43.0061 20.2226 43.9966 19.5304C45.4823 18.492 46.2444 17.5284 46.2355 16.9978C46.2296 16.6241 45.8312 16.0465 45.063 15.3936C45.5255 15.8668 45.7643 16.2767 45.7689 16.5651C45.778 17.1066 44.9847 18.1004 43.4373 19.1622C42.9397 19.0671 42.2103 19.2263 41.4985 19.6269C40.8388 19.9985 40.3509 20.4922 40.142 20.9417C39.2039 21.3451 38.1508 21.7252 36.9884 22.0587C37.0158 22.2403 37.0441 22.4203 37.0733 22.5987C38.1666 22.3015 39.1655 21.962 40.0683 21.5994Z" fill="white"/>
</g>
<path d="M12.6698 14.6777C12.7598 14.6534 12.8529 14.6404 12.949 14.6389L13.8207 14.6234L13.9205 20.3661L13.0488 20.3816C12.4232 20.3918 11.9048 19.8929 11.8943 19.2662L11.8346 15.793C11.8288 15.49 11.9427 15.2021 12.1531 14.9847C12.2961 14.8346 12.4747 14.7305 12.6698 14.6777ZM13.401 15.0578L12.9569 15.0651C12.7675 15.0688 12.5909 15.1451 12.4604 15.281C12.3286 15.4173 12.2585 15.5954 12.2621 15.7848L12.3218 19.2579C12.3281 19.6479 12.6519 19.9601 13.0415 19.9526L13.4856 19.9453L13.401 15.0578Z" fill="#0B3D91"/>
<path d="M10.9247 15.1241C10.9779 15.1097 11.0329 15.1016 11.0911 15.1008C11.2156 15.0984 11.3372 15.1308 11.4451 15.1927L12.2608 15.6642L12.3249 19.3796L11.5259 19.88C11.4214 19.9463 11.3005 19.9817 11.176 19.9841C10.801 19.9904 10.4901 19.691 10.4836 19.3148L10.4229 15.7929C10.4159 15.4752 10.6307 15.2036 10.9247 15.1241ZM11.836 15.9137L11.2296 15.5624C11.1894 15.5393 11.1439 15.5271 11.0981 15.5287C10.9586 15.531 10.8472 15.6468 10.8495 15.7863L10.9102 19.3081C10.9125 19.4476 11.0284 19.559 11.1678 19.5566C11.214 19.5564 11.2592 19.5428 11.2973 19.5175L11.8917 19.1459L11.836 15.9137Z" fill="#0B3D91"/>
<path d="M26.9348 22.0454C25.9425 22.0623 25.017 21.7783 24.2424 21.278C22.9403 20.4363 22.0669 18.9823 22.0387 17.3147C22.0141 15.8663 22.6309 14.5572 23.6276 13.6566C24.4606 12.9049 25.5586 12.4393 26.7687 12.4179C29.4272 12.3717 31.6197 14.4887 31.6657 17.147C31.712 19.8065 29.5933 21.9993 26.9348 22.0454Z" fill="#E81818"/>
<g opacity="0.6">
<path d="M22.2732 18.7347C22.6575 19.5772 23.2768 20.2881 24.0462 20.7843C24.8208 21.2846 25.7475 21.5683 26.7395 21.5502C29.3981 21.504 31.517 19.3126 31.4707 16.653C31.4626 16.1807 31.387 15.7252 31.2517 15.2954C31.5183 15.8787 31.6698 16.5244 31.6813 17.2053C31.7273 19.8635 29.6096 22.0547 26.9501 22.1024C25.9594 22.1202 25.0323 21.8352 24.2581 21.3362C23.3255 20.7345 22.6128 19.8191 22.2732 18.7347Z" fill="white"/>
</g>
<g opacity="0.25">
<path d="M22.0373 17.3149C22.0127 15.8665 22.6296 14.5574 23.6263 13.6568C24.4593 12.9052 25.5573 12.4395 26.7686 12.4177C29.1037 12.3775 31.0795 14.0051 31.5561 16.2042C30.7134 14.7229 29.1094 13.7358 27.2846 13.7672C26.0742 13.7873 24.9765 14.2542 24.1436 15.0058C23.1469 15.9064 22.53 17.2156 22.5546 18.6639C22.5605 18.9873 22.5968 19.3025 22.6638 19.6053C22.2782 18.9291 22.0524 18.1498 22.0373 17.3149Z" fill="#0B3D91"/>
</g>
<path d="M25.5423 12.3893C25.9326 12.2837 26.3423 12.2245 26.7657 12.2161C28.1056 12.1922 29.3737 12.6922 30.3384 13.6238C31.3027 14.5541 31.8452 15.8052 31.8691 17.145C31.9167 19.9102 29.706 22.2 26.9392 22.2482C24.1737 22.296 21.8839 20.0857 21.8358 17.3192C21.795 14.9764 23.3753 12.9755 25.5423 12.3893ZM28.0634 21.683C28.8579 21.468 29.5819 21.0423 30.1683 20.4349C31.0248 19.5491 31.4842 18.3819 31.4625 17.1503C31.4178 14.6073 29.3135 12.5752 26.7712 12.6184C24.2278 12.6633 22.1954 14.7674 22.2385 17.3095C22.2832 19.8526 24.3874 21.8847 26.9298 21.8414C27.3189 21.8368 27.6984 21.7817 28.0634 21.683Z" fill="#0B3D91"/>
<path d="M23.3342 17.2934C23.3125 16.0822 23.9065 15.005 24.8267 14.3549C25.1705 14.1123 25.5593 13.9309 25.9789 13.8229C26.2397 13.7564 26.5113 13.7196 26.7914 13.7146C27.0283 13.7103 27.2592 13.7294 27.4826 13.771C28.1147 13.8855 28.6889 14.168 29.155 14.5737C29.8833 15.2048 30.3505 16.1322 30.3692 17.1715C30.3892 18.3464 29.8326 19.3959 28.9583 20.0499C28.4676 20.4179 27.8764 20.6608 27.2329 20.7302C27.1274 20.7424 27.0205 20.7495 26.9119 20.7504C26.7034 20.7537 26.4984 20.7399 26.2993 20.708C25.6713 20.6087 25.0978 20.3437 24.6248 19.9576C23.8525 19.3248 23.352 18.3696 23.3342 17.2934Z" fill="#22A7F0"/>
<path d="M23.4126 17.9804C23.3647 17.7581 23.3377 17.5275 23.3338 17.2919C23.3121 16.0807 23.9061 15.0035 24.8264 14.3534C25.1701 14.1108 25.559 13.9295 25.9785 13.8214C26.2393 13.7549 26.5109 13.7182 26.7911 13.7131C27.0279 13.7088 27.2588 13.728 27.4822 13.7695C28.1144 13.8841 28.6886 14.1666 29.1546 14.5722C29.8829 15.2033 30.3501 16.1308 30.3688 17.1701C30.3698 17.1888 30.3695 17.2079 30.3692 17.2271C30.2054 16.4705 29.7983 15.8055 29.2348 15.3161C28.7678 14.9121 28.1946 14.6279 27.5625 14.5134C27.3378 14.4722 27.1069 14.4531 26.8713 14.457C26.5911 14.462 26.3195 14.4988 26.0587 14.5653C25.6388 14.6721 25.2503 14.8547 24.9066 15.0973C23.9989 15.7386 23.4096 16.7928 23.4126 17.9804Z" fill="#22A7F0"/>
<mask id="mask0_25_8569" style="mask-type:alpha" maskUnits="userSpaceOnUse" x="27" y="13" width="3" height="8">
<path d="M27.2326 20.7289L27.4828 13.771C28.1149 13.8855 28.6891 14.168 29.1551 14.5737L28.9584 20.0499C28.4674 20.4166 27.8762 20.6595 27.2326 20.7289Z" fill="url(#paint0_linear_25_8569)"/>
</mask>
<g mask="url(#mask0_25_8569)">
<path opacity="0.7" d="M27.2326 20.7289L27.4828 13.771C28.1149 13.8855 28.6891 14.168 29.1551 14.5737L28.9584 20.0499C28.4674 20.4166 27.8762 20.6595 27.2326 20.7289Z" fill="url(#paint1_linear_25_8569)"/>
</g>
<mask id="mask1_25_8569" style="mask-type:alpha" maskUnits="userSpaceOnUse" x="24" y="13" width="3" height="8">
<path d="M24.6243 19.9561L24.8254 14.355C25.1691 14.1124 25.5579 13.9311 25.9775 13.823L26.5448 13.8436L26.2989 20.7065C25.6709 20.6072 25.0973 20.3422 24.6243 19.9561Z" fill="url(#paint2_linear_25_8569)"/>
</mask>
<g mask="url(#mask1_25_8569)">
<path opacity="0.7" d="M24.6243 19.9561L24.8254 14.355C25.1691 14.1124 25.5579 13.9311 25.9775 13.823L26.5448 13.8436L26.2989 20.7065C25.6709 20.6072 25.0973 20.3422 24.6243 19.9561Z" fill="url(#paint3_linear_25_8569)"/>
<path d="M25.879 13.6403C26.1692 13.5618 26.4728 13.5177 26.7854 13.512C28.8363 13.4767 30.5336 15.1157 30.5692 17.1676C30.6044 19.2182 28.9651 20.9154 26.913 20.9511C24.8622 20.9865 23.1648 19.3475 23.1293 17.2956C23.1013 15.5585 24.2734 14.0747 25.879 13.6403ZM27.7167 20.4332C29.1487 20.0458 30.193 18.723 30.1671 17.1743C30.1349 15.3459 28.6231 13.8852 26.7941 13.9163C24.9655 13.9486 23.5045 15.4603 23.5355 17.2891C23.5677 19.1175 25.0795 20.5782 26.9084 20.5471C27.1873 20.5424 27.4582 20.5031 27.7167 20.4332Z" fill="#0B3D91"/>
</g>
<defs>
<linearGradient id="paint0_linear_25_8569" x1="28.9172" y1="19.5179" x2="27.0301" y2="14.6485" gradientUnits="userSpaceOnUse">
<stop stop-color="white"/>
<stop offset="1"/>
</linearGradient>
<linearGradient id="paint1_linear_25_8569" x1="28.9172" y1="19.5179" x2="27.0301" y2="14.6485" gradientUnits="userSpaceOnUse">
<stop stop-color="white"/>
<stop offset="1" stop-color="white"/>
</linearGradient>
<linearGradient id="paint2_linear_25_8569" x1="26.728" y1="19.8487" x2="24.8289" y2="14.9487" gradientUnits="userSpaceOnUse">
<stop stop-color="white"/>
<stop offset="1"/>
</linearGradient>
<linearGradient id="paint3_linear_25_8569" x1="26.728" y1="19.8487" x2="24.8289" y2="14.9487" gradientUnits="userSpaceOnUse">
<stop stop-color="white"/>
<stop offset="1" stop-color="white"/>
</linearGradient>
</defs>
</svg>
