<svg width="723" height="813" viewBox="0 0 723 813" fill="none" xmlns="http://www.w3.org/2000/svg">
<g clip-path="url(#clip0_19_9)">
<path d="M7.09924 760.285L18.8004 782.336H7.09924V760.285Z" fill="#EC1C24"/>
<path d="M7.09924 757.564L20.2595 782.336H18.8004L7.09924 760.285V757.564Z" fill="#EC1C24"/>
<path d="M7.09924 754.814L21.7186 782.336H20.2595L7.09924 757.564V754.814Z" fill="#EC1C24"/>
<path d="M7.09924 752.065L23.1778 782.336H21.7186L7.09924 754.814V752.065Z" fill="#EC1C24"/>
<path d="M7.09924 749.344L24.6369 782.336H23.1778L7.09924 752.065V749.344Z" fill="#EC1C24"/>
<path d="M7.09924 746.594L26.096 782.336H24.6369L7.09924 749.344V746.594Z" fill="#EC1C24"/>
<path d="M7.09924 743.845L27.5552 782.336H26.096L7.09924 746.594V743.845Z" fill="#EC1C24"/>
<path d="M7.09924 741.096L29.0143 782.336H27.5552L7.09924 743.845V741.096Z" fill="#EC1D24"/>
<path d="M7.09924 738.374L30.4734 782.336H29.0143L7.09924 741.096V738.374Z" fill="#EC1D24"/>
<path d="M7.09924 735.625L31.9326 782.336H30.4734L7.09924 738.374V735.625Z" fill="#EC1D24"/>
<path d="M7.09924 732.876L33.3917 782.336H31.9326L7.09924 735.625V732.876Z" fill="#EC1D24"/>
<path d="M7.09924 730.126L34.8508 782.336H33.3917L7.09924 732.876V730.126Z" fill="#EC1D24"/>
<path d="M7.09924 727.405L36.3099 782.336H34.8508L7.09924 730.126V727.405Z" fill="#EC1E24"/>
<path d="M7.09924 724.655L37.7691 782.336H36.3099L7.09924 727.405V724.655Z" fill="#EC1E24"/>
<path d="M7.09924 721.906L39.2282 782.336H37.7691L7.09924 724.655V721.906Z" fill="#EC1E24"/>
<path d="M7.09924 719.185L40.6873 782.336H39.2282L7.09924 721.906V719.185Z" fill="#EC1F24"/>
<path d="M7.09924 716.435L42.1465 782.336H40.6873L7.09924 719.185V716.435Z" fill="#EC1F24"/>
<path d="M7.09924 713.686L43.6056 782.336H42.1465L7.09924 716.435V713.686Z" fill="#EC1F24"/>
<path d="M7.09924 710.937L45.0647 782.336H43.6056L7.09924 713.686V710.937Z" fill="#EC2024"/>
<path d="M7.09924 708.215L46.5239 782.336H45.0647L7.09924 710.937V708.215Z" fill="#EC2024"/>
<path d="M7.09924 705.466L47.983 782.336H46.5239L7.09924 708.215V705.466Z" fill="#EC2024"/>
<path d="M7.09924 702.717L49.4421 782.336H47.983L7.09924 705.466V702.717Z" fill="#ED2124"/>
<path d="M7.09924 699.967L50.9013 782.336H49.4421L7.09924 702.717V699.967Z" fill="#ED2124"/>
<path d="M7.09924 697.246L52.3604 782.336H50.9013L7.09924 699.967V697.246Z" fill="#ED2124"/>
<path d="M7.09924 696.629L7.96911 696.18L53.8195 782.336H52.3604L7.09924 697.246V696.629Z" fill="#ED2224"/>
<path d="M7.96912 696.18L9.11959 695.563L55.2787 782.336H53.8195L7.96912 696.18Z" fill="#ED2224"/>
<path d="M9.11957 695.563L10.242 694.973L56.7378 782.336H55.2787L9.11957 695.563Z" fill="#ED2324"/>
<path d="M10.242 694.973L11.3925 694.356L58.1969 782.336H56.7378L10.242 694.973Z" fill="#ED2324"/>
<path d="M11.3925 694.356L12.5149 693.739L59.6561 782.336H58.1969L11.3925 694.356Z" fill="#ED2424"/>
<path d="M12.5149 693.739L13.6654 693.15L61.0872 782.336H59.6561L12.5149 693.739Z" fill="#ED2424"/>
<path d="M13.6653 693.15L14.7878 692.533L62.5463 782.336H61.0871L13.6653 693.15Z" fill="#ED2524"/>
<path d="M14.7877 692.533L15.9382 691.944L64.0054 782.336H62.5462L14.7877 692.533Z" fill="#ED2524"/>
<path d="M15.9382 691.944L17.0606 691.326L65.4645 782.336H64.0054L15.9382 691.944Z" fill="#ED2624"/>
<path d="M17.0606 691.326L18.2111 690.737L66.9236 782.336H65.4645L17.0606 691.326Z" fill="#ED2624"/>
<path d="M18.2111 690.737L19.3335 690.12L68.3828 782.336H66.9237L18.2111 690.737Z" fill="#ED2724"/>
<path d="M19.3335 690.12L20.484 689.531L69.8419 782.336H68.3828L19.3335 690.12Z" fill="#ED2724"/>
<path d="M20.4839 689.531L21.6064 688.914L71.301 782.336H69.8419L20.4839 689.531Z" fill="#ED2824"/>
<path d="M21.6064 688.914L22.7569 688.324L72.7602 782.336H71.3011L21.6064 688.914Z" fill="#ED2824"/>
<path d="M22.7568 688.324L23.9073 687.707L74.2193 782.336H72.7602L22.7568 688.324Z" fill="#ED2924"/>
<path d="M23.9073 687.707L25.0298 687.09L75.6785 782.336H74.2193L23.9073 687.707Z" fill="#ED2A24"/>
<path d="M25.0297 687.09L26.1802 686.501L77.1376 782.336H75.6785L25.0297 687.09Z" fill="#EE2A24"/>
<path d="M26.1802 686.501L27.3026 685.884L78.5967 782.336H77.1376L26.1802 686.501Z" fill="#EE2B24"/>
<path d="M27.3026 685.884L28.4531 685.295L80.0558 782.336H78.5967L27.3026 685.884Z" fill="#EE2B24"/>
<path d="M28.4531 685.295L29.5755 684.677L81.515 782.336H80.0558L28.4531 685.295Z" fill="#EE2C24"/>
<path d="M29.5755 684.677L30.726 684.088L82.9741 782.336H81.515L29.5755 684.677Z" fill="#EE2D24"/>
<path d="M30.726 684.088L31.8484 683.471L84.4332 782.336H82.9741L30.726 684.088Z" fill="#EE2D24"/>
<path d="M31.8484 683.471L32.9989 682.882L85.8924 782.336H84.4333L31.8484 683.471Z" fill="#EE2E24"/>
<path d="M32.9988 682.882L34.1212 682.265L87.3515 782.336H85.8924L32.9988 682.882Z" fill="#EE2F24"/>
<path d="M34.1213 682.265L35.2717 681.676L88.8107 782.336H87.3515L34.1213 682.265Z" fill="#EE2F24"/>
<path d="M35.2717 681.676L36.3941 681.058L90.2698 782.336H88.8107L35.2717 681.676Z" fill="#EE3024"/>
<path d="M36.3941 681.058L37.5446 680.441L91.7289 782.336H90.2698L36.3941 681.058Z" fill="#EE3124"/>
<path d="M37.5446 680.441L38.667 679.852L93.1881 782.336H91.7289L37.5446 680.441Z" fill="#EE3224"/>
<path d="M38.667 679.852L39.8175 679.235L94.6472 782.336H93.188L38.667 679.852Z" fill="#EE3225"/>
<path d="M39.8175 679.235L40.9399 678.646L96.1063 782.336H94.6472L39.8175 679.235Z" fill="#EF3325"/>
<path d="M40.9399 678.646L42.0904 678.028L97.5654 782.336H96.1063L40.9399 678.646Z" fill="#EF3425"/>
<path d="M42.0903 678.028L43.2127 677.439L99.0245 782.336H97.5654L42.0903 678.028Z" fill="#EF3525"/>
<path d="M43.2128 677.439L44.3632 676.822L100.484 782.336H99.0246L43.2128 677.439Z" fill="#EF3525"/>
<path d="M44.3632 676.822L45.4856 676.233L101.943 782.336H100.484L44.3632 676.822Z" fill="#EF3625"/>
<path d="M45.4857 676.233L46.6361 675.616L103.402 782.336H101.943L45.4857 676.233Z" fill="#EF3725"/>
<path d="M46.6361 675.616L47.7585 675.027L104.833 782.336H103.402L46.6361 675.616Z" fill="#EF3825"/>
<path d="M47.7585 675.027L48.909 674.409L106.292 782.336H104.833L47.7585 675.027Z" fill="#EF3925"/>
<path d="M48.909 674.409L50.0314 673.82L107.751 782.336H106.292L48.909 674.409Z" fill="#EF3925"/>
<path d="M50.0314 673.82L51.1818 673.203L109.21 782.336H107.751L50.0314 673.82Z" fill="#EF3A25"/>
<path d="M51.1819 673.203L52.3043 672.586L110.67 782.336H109.21L51.1819 673.203Z" fill="#EF3B25"/>
<path d="M52.3043 672.586L53.4547 671.997L112.129 782.336H110.67L52.3043 672.586Z" fill="#EF3C25"/>
<path d="M53.4548 671.997L54.5772 671.379L113.588 782.336H112.129L53.4548 671.997Z" fill="#F03D25"/>
<path d="M54.5771 671.379L55.7276 670.79L115.047 782.336H113.588L54.5771 671.379Z" fill="#F03E25"/>
<path d="M55.7276 670.79L56.85 670.173L116.506 782.336H115.047L55.7276 670.79Z" fill="#F03E25"/>
<path d="M56.85 670.173L58.0005 669.584L117.965 782.336H116.506L56.85 670.173Z" fill="#F03F25"/>
<path d="M58.0005 669.584L59.1229 668.967L119.424 782.336H117.965L58.0005 669.584Z" fill="#F04025"/>
<path d="M59.1229 668.967L60.2734 668.377L120.883 782.336H119.424L59.1229 668.967Z" fill="#F04125"/>
<path d="M60.2734 668.377L61.3958 667.76L122.343 782.336H120.883L60.2734 668.377Z" fill="#F04225"/>
<path d="M61.3958 667.76L62.5463 667.171L123.802 782.336H122.343L61.3958 667.76Z" fill="#F04325"/>
<path d="M62.5463 667.171L63.6687 666.554L125.261 782.336H123.802L62.5463 667.171Z" fill="#F04425"/>
<path d="M63.6687 666.554L64.8192 665.937L126.72 782.336H125.261L63.6687 666.554Z" fill="#F04525"/>
<path d="M64.8192 665.937L65.9416 665.348L128.179 782.336H126.72L64.8192 665.937Z" fill="#F14625"/>
<path d="M65.9415 665.348L67.092 664.73L129.638 782.336H128.179L65.9415 665.348Z" fill="#F14725"/>
<path d="M67.092 664.73L68.2145 664.141L131.097 782.336H129.638L67.092 664.73Z" fill="#F14825"/>
<path d="M68.2144 664.141L69.3649 663.524L132.557 782.336H131.097L68.2144 664.141Z" fill="#F14925"/>
<path d="M69.3649 663.524L70.5153 662.935L134.016 782.336H132.557L69.3649 663.524Z" fill="#F14A25"/>
<path d="M70.5154 662.935L71.6378 662.318L135.475 782.336H134.016L70.5154 662.935Z" fill="#F14B25"/>
<path d="M71.6378 662.318L72.7882 661.729L136.934 782.336H135.475L71.6378 662.318Z" fill="#F14C25"/>
<path d="M72.7883 661.729L73.9107 661.111L138.393 782.336H136.934L72.7883 661.729Z" fill="#F14D25"/>
<path d="M73.9106 661.111L75.0611 660.522L139.852 782.336H138.393L73.9106 661.111Z" fill="#F14E25"/>
<path d="M75.0612 660.522L76.1836 659.905L141.311 782.336H139.852L75.0612 660.522Z" fill="#F24F25"/>
<path d="M76.1835 659.905L77.334 659.288L142.77 782.336H141.311L76.1835 659.905Z" fill="#F25025"/>
<path d="M77.334 659.288L78.4564 658.699L144.23 782.336H142.77L77.334 659.288Z" fill="#F25125"/>
<path d="M78.4564 658.699L79.6069 658.081L145.689 782.336H144.23L78.4564 658.699Z" fill="#F25225"/>
<path d="M79.6069 658.081L80.7293 657.492L146.811 781.747L145.717 782.336H145.689L79.6069 658.081Z" fill="#F25325"/>
<path d="M81.8648 656.848L80.7252 657.454L146.807 781.698L147.947 781.093L81.8648 656.848Z" fill="#F25425"/>
<path d="M83.0096 656.259L81.8699 656.865L147.952 781.11L149.092 780.504L83.0096 656.259Z" fill="#F25525"/>
<path d="M84.1388 655.642L82.9992 656.248L149.081 780.492L150.221 779.886L84.1388 655.642Z" fill="#F25625"/>
<path d="M85.2851 655.052L84.1454 655.658L150.228 779.902L151.367 779.296L85.2851 655.052Z" fill="#F25725"/>
<path d="M86.4002 654.445L85.2606 655.051L151.343 779.296L152.482 778.69L86.4002 654.445Z" fill="#F35825"/>
<path d="M87.5629 653.843L86.4233 654.449L152.505 778.693L153.645 778.087L87.5629 653.843Z" fill="#F35925"/>
<path d="M88.6757 653.238L87.5361 653.844L153.618 778.088L154.758 777.482L88.6757 653.238Z" fill="#F35A25"/>
<path d="M89.8428 652.632L88.7032 653.238L154.785 777.482L155.925 776.876L89.8428 652.632Z" fill="#F35C25"/>
<path d="M90.9497 652.032L89.8101 652.638L155.892 776.882L157.032 776.276L90.9497 652.032Z" fill="#F35D25"/>
<path d="M92.1057 651.434L90.9661 652.04L157.048 776.284L158.188 775.679L92.1057 651.434Z" fill="#F35E26"/>
<path d="M93.2348 650.817L92.0952 651.423L158.177 775.667L159.317 775.061L93.2348 650.817Z" fill="#F35F26"/>
<path d="M94.3666 650.203L93.227 650.809L159.309 775.054L160.449 774.448L94.3666 650.203Z" fill="#F36026"/>
<path d="M95.5102 649.609L94.3706 650.215L160.453 774.46L161.592 773.854L95.5102 649.609Z" fill="#F46126"/>
<path d="M96.6407 648.997L95.501 649.603L161.583 773.847L162.723 773.241L96.6407 648.997Z" fill="#F46226"/>
<path d="M97.7719 648.413L96.6323 649.019L162.714 773.263L163.854 772.657L97.7719 648.413Z" fill="#F46426"/>
<path d="M98.9256 647.782L97.7859 648.388L163.868 772.632L165.008 772.026L98.9256 647.782Z" fill="#F46526"/>
<path d="M100.046 647.207L98.9062 647.813L164.988 772.057L166.128 771.451L100.046 647.207Z" fill="#F46626"/>
<path d="M101.2 646.576L100.06 647.182L166.142 771.426L167.282 770.82L101.2 646.576Z" fill="#F46726"/>
<path d="M102.32 646L101.18 646.606L167.263 770.851L168.402 770.245L102.32 646Z" fill="#F46826"/>
<path d="M103.463 645.378L102.323 645.984L168.405 770.228L169.545 769.623L103.463 645.378Z" fill="#F46A26"/>
<path d="M104.605 644.786L103.465 645.391L169.547 769.636L170.687 769.03L104.605 644.786Z" fill="#F56B26"/>
<path d="M105.737 644.172L104.597 644.778L170.679 769.022L171.819 768.416L105.737 644.172Z" fill="#F56C26"/>
<path d="M106.879 643.579L105.739 644.185L171.821 768.429L172.961 767.823L106.879 643.579Z" fill="#F56D26"/>
<path d="M108.011 642.966L106.871 643.572L172.953 767.816L174.093 767.21L108.011 642.966Z" fill="#F56F26"/>
<path d="M109.129 642.357L107.989 642.963L174.071 767.207L175.211 766.601L109.129 642.357Z" fill="#F57026"/>
<path d="M110.296 641.751L109.156 642.357L175.238 766.601L176.378 765.995L110.296 641.751Z" fill="#F57126"/>
<path d="M111.403 641.151L110.263 641.757L176.345 766.001L177.485 765.395L111.403 641.151Z" fill="#F57226"/>
<path d="M112.57 640.544L111.43 641.15L177.512 765.395L178.652 764.789L112.57 640.544Z" fill="#F67426"/>
<path d="M113.677 639.944L112.537 640.55L178.62 764.794L179.759 764.189L113.677 639.944Z" fill="#F67526"/>
<path d="M114.833 639.347L113.693 639.953L179.776 764.197L180.915 763.591L114.833 639.347Z" fill="#F67626"/>
<path d="M115.962 638.729L114.822 639.335L180.904 763.579L182.044 762.974L115.962 638.729Z" fill="#F67726"/>
<path d="M117.107 638.141L115.967 638.747L182.05 762.991L183.189 762.385L117.107 638.141Z" fill="#F67926"/>
<path d="M118.236 637.523L117.096 638.129L183.178 762.373L184.318 761.767L118.236 637.523Z" fill="#F67A26"/>
<path d="M119.381 636.935L118.241 637.54L184.324 761.785L185.463 761.179L119.381 636.935Z" fill="#F67B26"/>
<path d="M120.499 636.326L119.359 636.931L185.442 761.176L186.581 760.57L120.499 636.326Z" fill="#F77D26"/>
<path d="M121.652 635.695L120.513 636.3L186.595 760.545L187.735 759.939L121.652 635.695Z" fill="#F77E26"/>
<path d="M122.773 635.119L121.633 635.725L187.716 759.969L188.855 759.364L122.773 635.119Z" fill="#F77F26"/>
<path d="M123.926 634.488L122.787 635.094L188.869 759.338L190.009 758.732L123.926 634.488Z" fill="#F78126"/>
<path d="M125.072 633.9L123.932 634.506L190.014 758.75L191.154 758.144L125.072 633.9Z" fill="#F78226"/>
<path d="M126.19 633.291L125.05 633.897L191.133 758.141L192.272 757.535L126.19 633.291Z" fill="#F78426"/>
<path d="M127.356 632.685L126.217 633.291L192.299 757.535L193.439 756.929L127.356 632.685Z" fill="#F78526"/>
<path d="M128.464 632.085L127.324 632.691L193.407 756.935L194.546 756.329L128.464 632.085Z" fill="#F88626"/>
<path d="M129.63 631.478L128.491 632.084L194.573 756.328L195.712 755.723L129.63 631.478Z" fill="#F88826"/>
<path d="M130.738 630.878L129.598 631.484L195.681 755.729L196.82 755.123L130.738 630.878Z" fill="#F88927"/>
<path d="M131.894 630.281L130.754 630.887L196.837 755.131L197.976 754.525L131.894 630.281Z" fill="#F88A27"/>
<path d="M133.022 629.663L131.883 630.269L197.965 754.513L199.105 753.907L133.022 629.663Z" fill="#F88C27"/>
<path d="M134.155 629.05L133.015 629.656L199.097 753.9L200.237 753.294L134.155 629.05Z" fill="#F88D27"/>
<path d="M135.296 628.457L134.157 629.063L200.239 753.307L201.379 752.701L135.296 628.457Z" fill="#F98F27"/>
<path d="M136.429 627.844L135.289 628.45L201.372 752.694L202.511 752.088L136.429 627.844Z" fill="#F99027"/>
<path d="M137.56 627.26L136.421 627.866L202.503 752.11L203.642 751.504L137.56 627.26Z" fill="#F99227"/>
<path d="M138.713 626.628L137.573 627.234L203.656 751.479L204.795 750.873L138.713 626.628Z" fill="#F99327"/>
<path d="M139.834 626.053L138.695 626.659L204.777 750.904L205.916 750.298L139.834 626.053Z" fill="#F99427"/>
<path d="M140.987 625.422L139.848 626.028L205.93 750.272L207.069 749.666L140.987 625.422Z" fill="#F99627"/>
<path d="M142.108 624.847L140.969 625.453L207.051 749.697L208.19 749.091L142.108 624.847Z" fill="#F99727"/>
<path d="M143.261 624.216L142.121 624.822L208.204 749.066L209.343 748.46L143.261 624.216Z" fill="#FA9927"/>
<path d="M144.382 623.641L143.243 624.247L209.325 748.491L210.464 747.885L144.382 623.641Z" fill="#FA9A27"/>
<path d="M145.525 623.019L144.385 623.625L210.468 747.869L211.607 747.263L145.525 623.019Z" fill="#FA9C27"/>
<path d="M146.666 622.425L145.527 623.031L211.609 747.276L212.748 746.67L146.666 622.425Z" fill="#FA9D27"/>
<path d="M147.799 621.812L146.659 622.418L212.742 746.663L213.881 746.057L147.799 621.812Z" fill="#FA9F27"/>
<path d="M148.927 621.194L147.787 621.8L213.87 746.044L215.009 745.439L148.927 621.194Z" fill="#FAA027"/>
<path d="M150.073 620.606L148.933 621.212L215.016 745.456L216.155 744.85L150.073 620.606Z" fill="#FBA227"/>
<path d="M151.191 619.997L150.052 620.603L216.134 744.847L217.273 744.242L151.191 619.997Z" fill="#FBA327"/>
<path d="M151.217 620.011L151.974 619.618H152.451L218.449 743.677L217.298 744.266L151.217 620.011Z" fill="#FBA527"/>
<path d="M153.91 619.618L219.571 743.059L218.449 743.677L152.451 619.618H153.91Z" fill="#FBA627"/>
<path d="M155.37 619.618L220.722 742.47L219.571 743.059L153.91 619.618H155.37Z" fill="#FBA827"/>
<path d="M156.829 619.618L221.844 741.853L220.722 742.47L155.37 619.618H156.829Z" fill="#FBAA27"/>
<path d="M158.288 619.618L222.995 741.264L221.844 741.853L156.829 619.618H158.288Z" fill="#FCAB27"/>
<path d="M159.747 619.618L224.117 740.647L222.995 741.264L158.288 619.618H159.747Z" fill="#FCAD27"/>
<path d="M161.206 619.618L225.268 740.058L224.117 740.647L159.747 619.618H161.206Z" fill="#FCAE27"/>
<path d="M162.665 619.618L226.39 739.44L225.268 740.058L161.206 619.618H162.665Z" fill="#FCB027"/>
<path d="M164.124 619.618L227.54 738.823L226.39 739.44L162.665 619.618H164.124Z" fill="#FCB127"/>
<path d="M165.583 619.618L228.102 737.168V738.543L227.54 738.823L164.124 619.618H165.583Z" fill="#FCB327"/>
<path d="M167.043 619.618L228.102 734.419V737.168L165.583 619.618H167.043Z" fill="#FDB528"/>
<path d="M168.502 619.618L228.102 731.697V734.419L167.043 619.618H168.502Z" fill="#FDB628"/>
<path d="M169.961 619.618L228.102 728.948V731.697L168.502 619.618H169.961Z" fill="#FDB828"/>
<path d="M171.42 619.618L228.102 726.198V728.948L169.961 619.618H171.42Z" fill="#FDB928"/>
<path d="M172.879 619.618L228.102 723.449V726.198L171.42 619.618H172.879Z" fill="#FDBB28"/>
<path d="M174.338 619.618L228.102 720.728V723.449L172.879 619.618H174.338Z" fill="#FEBD28"/>
<path d="M175.797 619.618L228.102 717.978V720.728L174.338 619.618H175.797Z" fill="#FEBE28"/>
<path d="M177.256 619.618L228.102 715.229V717.978L175.797 619.618H177.256Z" fill="#FEC028"/>
<path d="M178.716 619.618L228.102 712.48V715.229L177.256 619.618H178.716Z" fill="#FEC228"/>
<path d="M180.175 619.618L228.102 709.758V712.48L178.716 619.618H180.175Z" fill="#FEC328"/>
<path d="M181.606 619.618L228.102 707.009V709.758L180.175 619.618H181.606Z" fill="#FEC528"/>
<path d="M183.065 619.618L228.102 704.26V707.009L181.606 619.618H183.065Z" fill="#FFC728"/>
<path d="M184.524 619.618L228.102 701.538V704.26L183.065 619.618H184.524Z" fill="#FFC828"/>
<path d="M185.983 619.618L228.102 698.789V701.538L184.524 619.618H185.983Z" fill="#FFCA28"/>
<path d="M228.102 698.789L185.983 619.618H228.102V698.789Z" fill="#FFCA28"/>
<g opacity="0.5">
<path d="M46.5519 748.783C85.9766 714.584 80.0839 674.634 123.325 655.865C177.453 632.383 213.791 685.379 213.791 685.379C213.791 685.379 215.054 691.102 215.334 699.743C216.793 684.453 214.184 672.614 214.184 672.614C214.184 672.614 177.846 619.59 123.718 643.1C69.5894 666.582 92.4585 723.253 7.09924 760.285C21.8309 753.917 34.8228 750.382 46.5519 748.783Z" fill="white"/>
</g>
<g opacity="0.3">
<path d="M213.174 712.536C206.86 722.551 197.235 731.725 182.644 738.066C137.86 757.508 111.399 720.447 55.2786 727.994C44.4474 739.468 29.4913 750.55 7.07117 760.285C92.4304 723.253 119.817 782.336 173.945 758.826C198.358 748.278 208.908 729.733 213.174 712.536Z" fill="#0B3D91"/>
</g>
<path d="M74.6964 732.258C124.391 710.684 158.035 745.079 189.547 731.389C221.059 717.726 209.666 673.624 209.666 673.624C209.666 673.624 185.226 635.189 153.714 648.851C122.202 662.514 124.391 710.712 74.6964 732.258Z" fill="#FFD553"/>
<path d="M146.727 769.263C133.398 769.263 120.94 765.672 108.06 761.94C81.992 754.422 52.4446 745.865 6.45385 765.84C4.12485 766.85 1.40301 765.784 0.392843 763.455C0.140301 762.866 0 762.249 0 761.632C0 759.864 1.03823 758.153 2.77796 757.395C48.8529 737.392 63.2197 710.965 75.9029 687.651C86.4536 668.237 96.415 649.917 121.894 638.892C145.52 628.652 169.68 630.812 191.764 645.204C208.179 655.893 217.579 669.444 217.972 670.033C218.309 670.51 218.533 671.071 218.673 671.632C218.814 672.305 222.321 688.437 218.898 707.738C214.324 733.689 199.396 752.822 175.769 763.091C165.415 767.579 155.875 769.263 146.727 769.263ZM60.6662 744.21C79.8594 744.21 95.7696 748.811 110.613 753.103C131.574 759.163 149.645 764.381 172.121 754.618C218.87 734.334 211.181 681.844 209.862 674.465C205.204 668.097 172.711 626.856 125.57 647.308C103.037 657.1 94.2263 673.287 84.0123 692.028C74.528 709.45 64.1738 728.499 41.5853 745.697C48.2917 744.659 54.6333 744.21 60.6662 744.21Z" fill="#0B3D91"/>
<path d="M493.103 396.19C493.103 396.19 552.955 421.327 563.085 436.869C573.243 452.412 536.035 452.804 536.035 452.804" fill="white"/>
<path d="M536.035 458.107C534.379 458.107 532.808 457.321 531.797 456.003L488.865 399.388C487.406 397.48 487.434 394.815 488.893 392.935C490.381 391.028 492.934 390.354 495.151 391.308C501.436 393.945 556.799 417.568 567.518 433.98C571.278 439.759 570.324 444.248 568.837 446.997C563.449 457.041 542.404 458.051 536.063 458.107H536.035ZM509.882 409.544L538.588 447.39C548.521 446.913 558.118 444.5 559.465 441.975C559.605 441.723 559.325 440.881 558.623 439.759C553.544 431.988 530.563 419.363 509.882 409.544Z" fill="#0B3D91"/>
<path d="M241.879 264.36C218.645 281.782 197.32 364.712 202.707 414.173C208.095 463.606 295.502 467.309 345.506 465.71C395.509 464.111 395.313 351.106 394.667 320.835C393.629 273.534 276.309 238.55 241.879 264.36Z" fill="white"/>
<g opacity="0.25">
<path d="M345.506 465.71C295.502 467.309 208.095 463.606 202.707 414.173C202.006 407.692 201.753 400.651 201.921 393.244C215.727 404.101 234.976 394.45 237.277 381.181C251.588 299.261 282.118 267.839 296.877 257.066C341.858 263.378 393.994 289.385 394.667 320.835C395.313 351.078 395.481 464.111 345.506 465.71Z" fill="#0B3D91"/>
</g>
<path d="M328.08 471.293C267.667 471.293 202.427 460.491 197.432 414.734C192.213 366.901 212.051 280.071 238.68 260.096C262.307 242.393 316.8 250.838 353.755 268.821C383.134 283.129 399.55 301.533 399.971 320.694C401.177 376.131 395.705 469.413 345.674 471.012C339.894 471.208 334.001 471.293 328.08 471.293ZM277.347 260.854C263.598 260.854 252.065 263.378 245.078 268.625C223.612 284.7 202.819 366.003 208.011 413.612C212.837 458.023 296.148 462.006 345.337 460.407C388.943 459.005 390.065 353.294 389.364 320.947C389.055 306.19 374.38 290.676 349.125 278.388C325.667 266.969 298.813 260.854 277.347 260.854Z" fill="#0B3D91"/>
<path d="M246.79 347.318L224.594 338.481C219.571 336.489 213.931 339.323 212.584 344.541C207.926 362.524 200.743 399.781 218.842 407.412C240.757 416.642 248.53 391.364 252.402 356.633C252.823 352.621 250.522 348.805 246.79 347.318Z" fill="white"/>
<g opacity="0.25">
<path d="M252.346 356.548C248.586 391.308 240.869 416.614 218.926 407.412C209.919 403.652 207.141 392.515 207.225 380.058C209.049 383.621 211.686 386.371 215.334 387.914C234.976 396.134 243.226 376.72 247.435 347.599C250.774 349.226 252.767 352.817 252.346 356.548Z" fill="#0B3D91"/>
</g>
<path d="M227.372 414.229C224.117 414.229 220.666 413.472 217.018 411.929C196.955 403.54 200.911 369.987 207.758 343.335C208.74 339.491 211.35 336.237 214.885 334.441C218.449 332.618 222.602 332.449 226.306 333.908L248.501 342.689C254.282 344.99 257.874 350.909 257.2 357.081C253.721 389.008 247.716 405.308 237.053 411.592C234.107 413.359 230.852 414.229 227.372 414.229ZM221.199 342.745C220.553 342.745 219.936 342.886 219.347 343.194C218.73 343.503 217.663 344.26 217.27 345.775C211.041 370.043 208.684 397.789 220.806 402.867C225.408 404.803 229.112 404.887 232.086 403.119C243.058 396.667 246.369 366.059 247.463 356.015C247.66 354.22 246.621 352.509 244.91 351.835L222.714 343.054C222.209 342.858 221.704 342.745 221.199 342.745Z" fill="#0B3D91"/>
<path d="M238.624 264.473L264.776 276.536C273.475 280.632 282.146 284.672 290.788 289.049C292.107 289.722 292.612 291.321 291.967 292.612C291.349 293.846 289.89 294.379 288.628 293.874L288.571 293.846C279.761 290.339 270.725 287.113 261.746 283.858L234.696 274.292L234.64 274.264C231.862 273.282 230.431 270.252 231.413 267.474C232.395 264.697 235.425 263.266 238.203 264.248C238.316 264.332 238.484 264.388 238.624 264.473Z" fill="#0B3D91"/>
<path d="M640.25 248.481C631.636 277.883 566.171 332.337 472.254 335.058C463.162 335.339 453.818 335.115 444.222 334.329L435.831 298.531L429.125 269.887C429.125 269.887 443.716 267.222 463.639 261.92C479.381 257.739 498.49 251.932 516.364 244.498C533.229 237.484 549.055 229.039 559.97 219.136C559.97 219.136 560.559 189.678 568.921 186.677C579.135 183.001 586.683 203.734 586.683 203.734C586.683 203.734 609.861 179.859 623.414 182.188C643.533 185.611 649.707 216.246 640.25 248.481Z" fill="white"/>
<g opacity="0.35">
<path d="M644.459 224.438C644.066 232.069 642.664 240.205 640.222 248.481C630.766 280.716 552.955 343.11 444.193 334.329L429.125 269.887C429.125 269.887 433.643 269.074 441.107 267.418L458.729 301.561C548.578 328.634 629.7 257.599 644.459 224.438Z" fill="#0B3D91"/>
</g>
<path d="M464.846 340.473C457.943 340.473 450.956 340.192 443.801 339.631C440.882 339.407 438.694 336.826 438.918 333.908C439.143 330.99 441.724 328.802 444.642 329.027C551.889 337.668 626.781 275.414 635.143 246.966C641.092 226.655 640.531 206.427 633.656 195.43C630.822 190.885 627.062 188.192 622.516 187.406C615.108 186.144 599.31 198.347 590.5 207.437L584.607 213.497L581.717 205.557C579.388 199.189 574 190.688 570.829 191.642C568.192 193.522 565.582 206.596 565.301 219.22L565.245 221.521L563.562 223.064C525.709 257.319 433.98 274.404 430.107 275.105C427.217 275.638 424.467 273.731 423.934 270.841C423.401 267.951 425.309 265.202 428.199 264.669C429.097 264.501 518.048 247.948 554.751 216.695C555.172 205.81 557.276 185.274 567.153 181.711C577.171 178.092 584.467 187.518 588.423 194.756C596.925 187.041 612.443 174.95 624.34 176.97C631.888 178.26 638.258 182.693 642.692 189.819C651.222 203.481 652.232 226.514 645.357 249.968C635.705 282.82 564.628 340.473 464.846 340.473Z" fill="#0B3D91"/>
<path d="M542.741 461.614C542.741 461.614 411.223 512.449 365.092 508.83C318.961 505.183 269.266 497.889 266.544 410.386C264.861 355.987 291.77 302.487 312.395 269.775C324.937 249.856 335.151 237.652 335.151 237.652L462.124 244.133C462.124 244.133 462.629 250.838 463.639 261.92C464.285 268.849 465.126 277.49 466.193 287.309C467.736 301.393 469.728 317.833 472.226 335.03C476.042 361.374 481.065 389.457 487.378 413.331C490.1 423.684 533.453 426.489 542.741 461.614Z" fill="white"/>
<path d="M469.364 299.625C474.106 315.112 476.828 330.766 479.577 346.421C482.355 362.047 484.853 377.702 488.08 393.188C488.893 397.06 489.763 400.903 490.689 404.747L492.092 410.498L492.457 411.929L492.485 412.013V411.985V411.957C492.485 411.929 492.485 411.901 492.457 411.901C492.457 411.872 492.429 411.872 492.401 411.844C492.429 411.844 492.429 411.844 492.429 411.872C492.457 411.901 492.429 411.901 492.457 411.957C492.541 412.013 492.597 412.097 492.654 412.153C492.71 412.293 493.046 412.49 493.243 412.686C494.225 413.5 495.824 414.369 497.424 415.211C499.051 416.053 500.819 416.866 502.615 417.68C506.207 419.307 509.939 420.99 513.643 422.842C521.022 426.573 528.43 431.118 534.632 437.43C537.718 440.573 540.468 444.107 542.713 447.979C544.958 451.851 546.641 456.031 547.792 460.323L549.027 464.952L544.565 466.635C523.66 474.603 502.671 481.981 481.429 488.911C460.216 495.812 438.806 502.237 416.947 507.399C406.004 509.952 394.976 512.225 383.555 513.515C377.859 514.16 372.079 514.581 366.018 514.244C364.474 514.216 363.127 514.048 361.724 513.964L357.543 513.599C354.737 513.347 351.931 513.066 349.125 512.729C337.901 511.411 326.453 509.419 315.425 505.351C309.925 503.331 304.51 500.75 299.487 497.524C294.436 494.298 289.778 490.426 285.681 486.049C281.584 481.645 278.133 476.707 275.243 471.517C272.381 466.327 269.996 460.884 268.228 455.329L267.526 453.253L266.937 451.149L265.787 446.941L264.832 442.705L264.355 440.601L263.991 438.468L263.261 434.204C263.037 432.773 262.868 431.371 262.7 429.94C262.279 427.106 262.055 424.245 261.802 421.411C260.848 410.105 260.876 398.518 262.111 387.156C263.289 375.794 265.506 364.572 268.48 353.603C274.429 331.664 283.38 310.763 293.931 290.872C299.206 280.913 304.482 270.925 310.879 261.639C317.277 252.381 324.376 243.516 333.72 236.558C334.534 235.969 335.657 236.109 336.274 236.923C336.695 237.484 336.723 238.185 336.47 238.746L336.442 238.802C331.784 249.099 326.088 258.441 320.308 267.755C314.611 277.097 308.494 286.187 303.331 295.866C293.033 315.168 284.419 335.395 278.722 356.352C275.888 366.845 273.784 377.477 272.661 388.222C271.511 398.967 271.483 409.684 272.381 420.513C272.605 423.207 272.83 425.9 273.222 428.565C273.391 429.884 273.559 431.23 273.756 432.549L274.457 436.505L274.794 438.468L275.243 440.404L276.113 444.304L277.179 448.119L277.712 450.027L278.358 451.907C279.957 456.929 282.061 461.726 284.559 466.243C287.056 470.76 290.031 474.996 293.51 478.727C300.441 486.218 309.336 491.716 319.157 495.307C328.978 498.927 339.613 500.834 350.416 502.097C353.11 502.433 355.832 502.686 358.582 502.938L362.679 503.303C364.025 503.415 365.485 503.556 366.691 503.584C367.982 503.612 369.217 503.752 370.535 503.696L374.464 503.612C377.13 503.415 379.767 503.275 382.433 502.91C393.124 501.704 403.899 499.488 414.562 497.019C435.944 491.969 457.157 485.601 478.174 478.783C499.192 471.91 520.124 464.559 540.749 456.704L537.522 463.016C535.698 456.143 532.106 449.971 527.055 444.893C522.033 439.759 515.691 435.775 508.844 432.324C505.421 430.585 501.857 429.014 498.209 427.331C496.386 426.489 494.505 425.647 492.597 424.665C490.661 423.656 488.725 422.646 486.592 420.962C486.031 420.485 485.526 420.121 484.965 419.475L484.151 418.578C483.871 418.213 483.618 417.82 483.366 417.427C482.86 416.754 482.412 415.435 482.159 414.65L481.766 413.191L480.251 407.328C479.269 403.4 478.315 399.5 477.445 395.573C475.649 387.717 473.937 379.862 472.422 371.951C470.907 364.067 469.644 356.128 468.522 348.188C466.333 332.281 464.818 316.29 465.8 300.102C465.856 299.12 466.726 298.363 467.708 298.419C468.522 298.391 469.167 298.924 469.364 299.625Z" fill="#0B3D91"/>
<path d="M279.283 728.948L256.527 732.483C246.229 734.082 235.874 729.902 229.589 721.598C210.845 696.881 199.256 667.48 196.029 636.648C194.934 626.295 199.649 616.168 208.263 610.304L227.288 597.343" fill="#00AAFF"/>
<g opacity="0.6">
<path d="M231.329 610.388L212.472 623.237C207.73 626.464 204.054 630.896 201.697 635.946C199.368 640.996 198.358 646.663 198.975 652.386C199.424 656.819 200.069 661.195 200.827 665.572C198.554 657.043 196.955 648.318 196.029 639.481C195.496 634.319 196.394 629.185 198.498 624.612C200.603 620.067 203.942 616.083 208.235 613.138L227.26 600.176L231.329 610.388Z" fill="white"/>
</g>
<g opacity="0.35">
<path d="M210.368 684.004C214.997 693.262 220.497 702.099 226.783 710.404C233.068 718.708 243.423 722.888 253.721 721.289L274.934 717.978L227.26 597.343L223.191 600.12L258.519 689.559L235.762 693.094C226.278 694.553 216.737 691.074 210.368 684.004ZM254.226 678.561L223.219 600.092L224.51 599.222L255.769 678.309L254.226 678.561Z" fill="#0B3D91"/>
</g>
<path d="M283.324 562.386C271.483 539.213 230.964 508.549 151.217 559.132C150.178 559.805 150.487 561.405 151.694 561.629C164.966 563.986 227.372 574.618 238.821 607.078" fill="#EC1C24"/>
<g opacity="0.6">
<path d="M164.629 562.723C158.905 561.489 154.331 560.703 151.694 560.226C150.459 560.002 150.15 558.403 151.217 557.729C230.964 507.147 271.511 537.811 283.324 560.984L278.498 565.809C263.205 546.059 227.26 528.047 164.629 562.723Z" fill="white"/>
</g>
<path d="M238.821 612.38C236.632 612.38 234.584 611.005 233.798 608.817C229.982 597.96 214.184 578.097 151.385 566.931L150.768 566.819C148.046 566.342 145.941 564.266 145.38 561.545C144.847 558.824 145.997 556.102 148.354 554.615C187.106 530.011 220.918 521.426 248.81 529.029C273.419 535.762 284.447 552.876 288.038 559.918C289.385 562.527 288.347 565.725 285.709 567.072C283.1 568.39 279.901 567.38 278.554 564.743C275.608 558.936 266.516 544.88 245.976 539.269C223.444 533.125 194.822 539.69 162.721 558.29C219.936 570.13 238.456 590.161 243.787 605.282C244.769 608.06 243.31 611.09 240.532 612.043C239.999 612.296 239.41 612.38 238.821 612.38Z" fill="#0B3D91"/>
<path d="M343.092 713.658C350.304 738.655 342.195 790.107 249.399 807.642C248.193 807.866 247.323 806.491 248.052 805.481C256.134 794.68 293.847 742.835 280.013 711.329" fill="#D25658"/>
<path d="M249.399 807.67C248.193 807.894 247.323 806.491 248.052 805.509C252.177 799.983 264.103 783.683 272.886 764.858C281.192 747.071 286.691 727.04 280.153 711.694C280.097 711.582 280.041 711.47 280.013 711.357H280.406L343.092 713.658C345.113 720.672 345.927 729.789 343.99 739.637C339.08 764.858 316.155 795.017 249.399 807.67Z" fill="#EC1C24"/>
<g opacity="0.35">
<path d="M272.886 764.83C281.192 747.043 286.691 727.012 280.153 711.666C280.238 711.554 280.322 711.442 280.378 711.329L343.064 713.63C345.085 720.644 345.898 729.761 343.962 739.609C329.034 752.317 306.362 762.277 272.886 764.83Z" fill="#0B3D91"/>
</g>
<path d="M249.119 813C246.846 813 244.713 811.85 243.479 809.858C242.019 807.501 242.132 804.556 243.787 802.339C254.198 788.424 287.168 740.927 275.131 713.518C273.952 710.824 275.159 707.71 277.852 706.504C280.546 705.326 283.661 706.532 284.867 709.225C297.13 737.112 273.924 777.763 258.294 800.375C293.959 792.099 319.129 777.314 331.391 757.367C343.233 738.122 339.417 720.195 337.985 715.145C337.172 712.339 338.799 709.394 341.633 708.58C344.439 707.766 347.386 709.394 348.199 712.227C350.444 720.026 354.204 740.619 340.455 762.95C325.246 787.667 294.941 804.471 250.409 812.916C249.961 812.944 249.54 813 249.119 813Z" fill="#0B3D91"/>
<path d="M717.977 479.008C717.977 479.008 697.128 611.623 525.316 693.543C378.953 763.315 277.74 728.948 277.74 728.948C257.172 706.027 242.244 678.898 233.77 649.749C228.859 632.804 226.109 615.214 225.745 597.315C225.745 597.315 248.221 555.233 309.224 512.701C311.328 511.243 313.461 509.756 315.678 508.297C339.501 492.39 368.796 476.595 404.376 463.129C412.766 459.93 421.521 456.9 430.64 454.011C431.005 453.899 431.37 453.786 431.707 453.674C468.466 442.088 502.11 436.252 532.387 434.316C533.369 434.26 534.323 434.204 535.277 434.148C652.12 427.639 717.977 479.008 717.977 479.008Z" fill="white"/>
<path d="M630.373 624.584C618.953 556.327 593.249 491.24 554.919 433.615C660.426 432.914 719.521 479.008 719.521 479.008C719.521 479.008 707.876 553.016 630.373 624.584Z" fill="#EC1C24"/>
<g opacity="0.6">
<path d="M717.304 487.228C718.931 481.056 719.492 477.605 719.492 477.605C719.492 477.605 660.398 431.511 554.891 432.212C557.36 435.944 559.774 439.675 562.159 443.462C651.615 444.697 706.052 479.344 717.304 487.228Z" fill="white"/>
</g>
<path d="M626.753 635.161L625.126 625.454C613.762 557.505 588.648 493.933 550.486 436.561L545.042 428.369L554.863 428.313C638.511 427.723 693.733 456.339 713.6 468.627C721.092 473.256 724.571 482.094 722.27 490.594C716.181 513.15 695.361 571.757 633.937 628.484L626.753 635.161ZM564.74 439.001C598.918 492.642 622.151 551.417 633.853 613.923C687.756 561.264 706.388 508.605 712.028 487.817C713.095 483.889 711.467 479.793 708.016 477.661C689.721 466.327 640.082 440.629 564.74 439.001Z" fill="#0B3D91"/>
<path d="M347.217 742.723C303.836 742.723 278.638 734.334 277.572 733.97L276.253 733.521L275.327 732.483C258.715 713.967 245.667 692.869 236.548 669.724C227.4 646.607 222.518 622.283 221.984 597.427L221.956 596.024L222.602 594.79C223.135 593.808 235.987 570.102 268.172 540.139C297.691 512.673 349.827 474.547 430.584 448.905C472.927 435.467 514.737 428.509 554.863 428.257L557.725 428.228L559.325 430.613C598.216 489.107 623.863 553.886 635.508 623.153L636.574 626.015L633.965 628.427C604.502 655.669 569.202 679.151 529.104 698.284C452.612 734.755 388.494 742.554 348.171 742.667C347.863 742.723 347.554 742.723 347.217 742.723ZM282.286 724.319C287.898 725.974 311.749 732.314 348.761 732.118C387.877 731.95 450.142 724.263 524.586 688.773C562.776 670.566 596.42 648.346 624.677 622.648C613.256 556.691 588.844 494.943 552.113 438.973C513.923 439.535 474.162 446.296 433.839 459.089C292.303 504.033 239.045 587.832 232.675 598.661C233.321 621.75 237.979 644.335 246.453 665.825C254.927 687.343 266.965 707.009 282.286 724.319Z" fill="#0B3D91"/>
<path d="M252.149 738.15C241.711 738.15 231.778 733.296 225.352 724.824C206.018 699.322 194.065 669.023 190.725 637.209C189.435 624.893 194.991 612.885 205.233 605.928L224.257 592.966C226.671 591.311 229.982 591.928 231.637 594.369C233.293 596.782 232.675 600.092 230.234 601.747L211.209 614.709C204.194 619.478 200.406 627.67 201.276 636.114C204.391 665.993 215.643 694.469 233.798 718.427C238.905 725.189 247.295 728.583 255.685 727.265L278.442 723.73C281.332 723.281 284.054 725.273 284.503 728.162C284.952 731.052 282.959 733.773 280.069 734.222L257.312 737.757C255.629 738.01 253.889 738.15 252.149 738.15Z" fill="#0B3D91"/>
<g opacity="0.35">
<path d="M555.732 624.14C584.267 595.61 584.267 549.355 555.732 520.826C527.197 492.296 480.933 492.296 452.398 520.826C423.863 549.355 423.863 595.61 452.398 624.14C480.933 652.669 527.197 652.669 555.732 624.14Z" fill="#0B3D91"/>
</g>
<path d="M505.673 629.157C541.968 629.157 571.391 599.74 571.391 563.453C571.391 527.165 541.968 497.748 505.673 497.748C469.379 497.748 439.956 527.165 439.956 563.453C439.956 599.74 469.379 629.157 505.673 629.157Z" fill="#EC1C24"/>
<g opacity="0.6">
<path d="M570.324 552.932C569.875 551.501 569.37 550.099 568.809 548.696C555.48 514.946 517.29 498.394 483.534 511.72C453.762 523.475 437.375 554.531 443.071 584.83C432.605 552.147 449.16 516.517 481.514 503.752C515.27 490.426 553.46 506.978 566.789 540.728C568.388 544.74 569.567 548.836 570.324 552.932Z" fill="white"/>
</g>
<g opacity="0.35">
<path d="M529.833 624.556C496.077 637.882 457.915 621.358 444.558 587.608C440.377 577.003 439.143 565.949 440.461 555.373C441.191 560.17 442.482 564.967 444.334 569.681C457.662 603.431 495.852 619.983 529.609 606.657C552.759 597.511 567.799 576.694 570.661 553.633C575.207 583.203 558.876 613.081 529.833 624.556Z" fill="#0B3D91"/>
</g>
<path d="M505.673 634.515C496.077 634.515 486.508 632.551 477.445 628.624C460.047 621.077 446.607 607.218 439.648 589.572C432.689 571.925 432.997 552.623 440.546 535.229C448.094 517.835 461.956 504.397 479.605 497.44C497.255 490.482 516.561 490.791 533.958 498.337C551.356 505.884 564.796 519.743 571.755 537.39C578.714 555.036 578.406 574.338 570.857 591.732C563.309 609.126 549.447 622.564 531.798 629.522C523.323 632.86 514.484 634.515 505.673 634.515ZM505.701 503.022C498.209 503.022 490.689 504.453 483.506 507.287C468.494 513.206 456.708 524.625 450.283 539.438C443.857 554.251 443.604 570.663 449.525 585.644C455.446 600.653 466.866 612.436 481.682 618.861C496.498 625.285 512.913 625.538 527.897 619.618C542.909 613.699 554.695 602.28 561.12 587.467C567.546 572.655 567.799 556.242 561.878 541.261C555.957 526.252 544.537 514.469 529.721 508.044C522.005 504.706 513.867 503.022 505.701 503.022Z" fill="#0B3D91"/>
<path d="M535.68 592.002C552.007 575.678 552.007 549.211 535.68 532.886C519.352 516.562 492.88 516.562 476.552 532.886C460.225 549.211 460.225 575.678 476.552 592.002C492.88 608.326 519.352 608.326 535.68 592.002Z" fill="#6BD6F0"/>
<g opacity="0.3">
<path d="M521.5 601.327C500.033 609.799 475.733 599.279 467.259 577.789C465.407 573.131 464.481 568.362 464.341 563.621C464.481 564.07 464.649 564.491 464.818 564.939C473.292 586.401 497.592 596.95 519.058 588.477C535.894 581.829 545.996 565.501 545.491 548.415C553.067 569.54 542.517 593.022 521.5 601.327Z" fill="white"/>
</g>
<g opacity="0.35">
<path d="M548.381 564.603C548.157 563.929 547.904 563.256 547.624 562.583C539.149 541.121 514.849 530.572 493.383 539.045C477.22 545.413 467.259 560.759 466.95 577.115C459.879 556.158 470.43 533.125 491.222 524.905C512.689 516.433 536.989 526.953 545.463 548.415C547.567 553.746 548.493 559.216 548.381 564.603Z" fill="#0B3D91"/>
</g>
<path d="M506.122 609.575C499.753 609.575 493.411 608.256 487.378 605.647C475.817 600.653 466.922 591.451 462.292 579.724C452.752 555.569 464.649 528.132 488.809 518.593C512.969 509.054 540.412 520.95 549.952 545.105C559.493 569.26 547.595 596.697 523.436 606.236C517.824 608.48 511.959 609.575 506.122 609.575ZM506.094 525.943C501.633 525.943 497.115 526.757 492.738 528.496C474.021 535.903 464.818 557.14 472.198 575.853C475.789 584.915 482.664 592.04 491.615 595.912C500.566 599.784 510.472 599.952 519.535 596.361C538.251 588.954 547.455 567.717 540.075 549.004C534.407 534.724 520.63 525.943 506.094 525.943Z" fill="#0B3D91"/>
<g opacity="0.2">
<path d="M642.579 472.808C642.271 462.82 621.534 455.021 609.805 455.105C597.655 455.189 590.331 457.293 590.303 463.185C590.219 471.405 599.703 474.294 610.955 474.715C618.868 475.024 642.972 485.124 642.579 472.808Z" fill="white"/>
</g>
<g opacity="0.2">
<path d="M673.025 485.432C672.379 476.791 661.913 468.712 656.217 468.066C650.324 467.393 646.872 468.74 647.153 473.818C647.518 480.915 652.26 484.001 657.76 485.067C661.632 485.853 673.838 496.093 673.025 485.432Z" fill="white"/>
</g>
<g opacity="0.35">
<path d="M276.477 719.129C276.477 719.129 377.663 753.524 524.025 683.723C672.66 612.857 708.296 504.061 715.227 475.978C715.929 476.455 716.546 476.875 717.079 477.24C714.919 475.753 711.355 473.369 706.388 470.479C686.213 516.32 638.174 590.105 527.532 642.876C458.42 675.812 399.381 685.547 356.309 686.641C301.311 688.044 251.841 652.751 236.267 599.98C236.183 599.699 236.099 599.391 236.015 599.11C235.397 597.006 234.836 594.902 234.303 592.798C234.022 591.928 233.742 591.058 233.461 590.161C233.377 589.88 233.293 589.572 233.209 589.291C233.124 588.982 233.04 588.674 232.956 588.365C233.012 588.281 233.096 588.169 233.152 588.085C229.14 593.948 227.316 597.343 227.316 597.343C227.653 613.138 229.841 628.708 233.714 643.801C242.328 671.492 256.835 697.218 276.477 719.129Z" fill="#0B3D91"/>
</g>
<path d="M269.322 683.078C239.185 694.973 200.098 682.854 200.098 682.854C200.098 682.854 200.182 682.713 200.322 682.489C202.595 678.646 222.181 646.579 250.466 635.385C277.628 624.668 307.175 635.666 312.451 637.826C312.984 638.05 313.264 638.162 313.264 638.162C313.264 638.162 299.234 671.267 269.322 683.078Z" fill="#EC1C24"/>
<g opacity="0.6">
<path d="M314.667 639.537C314.667 639.537 313.798 641.557 312.086 644.755C302.012 641.277 277.067 634.572 253.889 643.745C231.132 652.751 214.015 675.223 207 685.687C203.521 684.874 201.472 684.228 201.472 684.228C201.472 684.228 201.557 684.088 201.697 683.836C203.97 679.992 223.556 647.926 251.841 636.732C278.975 625.987 308.55 637.012 313.826 639.144C314.387 639.425 314.667 639.537 314.667 639.537Z" fill="white"/>
</g>
<g opacity="0.35">
<path d="M269.322 683.078C239.185 694.974 200.098 682.854 200.098 682.854C200.098 682.854 200.182 682.714 200.322 682.489L312.451 637.826C312.984 638.05 313.264 638.163 313.264 638.163C313.264 638.163 299.234 671.267 269.322 683.078Z" fill="#0B3D91"/>
</g>
<path d="M238.287 693.627C217.326 693.627 199.62 688.24 198.526 687.904L192.213 685.94L195.468 680.189C196.337 678.674 216.99 642.848 248.501 630.391C280.125 617.879 313.994 632.608 315.397 633.253L320.167 635.385L318.147 640.182C317.53 641.613 302.91 675.503 271.258 687.988C260.595 692.224 249.007 693.627 238.287 693.627ZM208.516 679.487C220.638 682.209 246.593 686.333 267.358 678.113C288.151 669.921 300.834 650.282 305.885 641.052C295.867 637.742 273.138 632.103 252.43 640.295C231.581 648.543 215.503 669.247 208.516 679.487Z" fill="#0B3D91"/>
<g opacity="0.25">
<path d="M419.023 574.703C423.204 580.706 452.107 629.466 428.845 648.823C408.473 665.796 370.9 663.019 351.118 636.339C338.042 618.692 335.376 598.353 336.134 582.782C337.003 564.603 340.258 547.265 331.195 533.658C326.369 526.392 318.399 519.912 309.252 512.729C311.356 511.271 313.489 509.784 315.706 508.325C339.529 492.418 368.824 476.623 404.404 463.157C411.363 466.495 418.013 470.816 423.597 476.342C445.653 498.225 446.27 542.103 431.286 559.918C425.365 566.903 419.023 574.703 419.023 574.703Z" fill="#0B3D91"/>
</g>
<path d="M432.296 561.433C436.477 567.436 465.379 616.196 442.117 635.553C421.745 652.527 384.173 649.749 364.39 623.069C351.314 605.423 348.648 585.083 349.406 569.512C350.276 551.333 353.531 533.995 344.467 520.388C334.141 504.874 293.875 499.095 273.84 476.118C262.026 462.596 255.713 438.048 256.779 407.973C257.116 398.827 258.126 389.176 259.866 379.161C267.302 336.63 288.094 287.73 326.397 244.413C326.397 244.413 341.605 305.292 357.572 359.382C368.683 397.088 380.16 431.483 387.063 439.619C387.989 440.713 388.803 441.33 389.56 441.414C398.624 442.677 407.519 445.202 415.965 449.073C423.513 452.524 430.809 457.069 436.842 463.044C458.897 484.927 459.514 528.805 444.53 546.62C438.666 553.633 432.296 561.433 432.296 561.433Z" fill="white"/>
<g opacity="0.25">
<path d="M449.553 624.444C448.178 628.708 445.821 632.495 442.117 635.553C421.745 652.527 384.173 649.749 364.39 623.069C351.314 605.423 348.648 585.083 349.406 569.512C350.276 551.333 353.531 533.995 344.467 520.388C334.141 504.874 293.875 499.067 273.84 476.118C262.055 462.596 255.713 438.02 256.807 407.945C256.807 407.805 256.807 407.664 256.807 407.524C256.835 406.514 256.891 405.504 256.948 404.494C257.004 403.568 257.06 402.614 257.116 401.661C257.144 401.24 257.172 400.791 257.2 400.37C257.368 398.126 257.565 395.853 257.817 393.553C257.93 392.459 258.07 391.364 258.21 390.242C258.294 389.485 258.407 388.699 258.519 387.914C258.603 387.268 258.687 386.623 258.771 385.95C258.912 384.94 259.08 383.902 259.249 382.864C259.445 381.686 259.641 380.507 259.838 379.329C259.838 379.273 259.866 379.189 259.866 379.133C261.044 377.814 261.886 377.056 261.886 377.056C261.886 377.056 265.899 378.88 274.457 381.096C288.066 384.631 313.18 389.204 351.988 389.148L351.37 369.033C351.23 364.74 353.812 360.953 357.572 359.354C358.47 358.961 359.424 358.709 360.462 358.596L384.566 356.015L419.416 440.376L387.063 439.591L362.735 439.001C357.515 438.665 353.363 434.4 353.222 429.154L352.914 419.055C331.616 423.824 296.372 425.058 273.587 417.568C275.299 438.581 281.135 455.554 290.227 465.962C310.262 488.911 340.286 476.595 360.602 500.301C373.313 515.114 366.663 541.177 365.793 559.357C365.036 574.927 359.031 597.736 372.107 615.382C389.392 638.696 426.796 636.648 449.553 624.444Z" fill="#0B3D91"/>
</g>
<g opacity="0.25">
<path d="M516.364 244.526C503.316 262.453 486.116 277.209 466.193 287.337C456.652 292.191 446.466 295.978 435.804 298.559C424.832 301.224 413.355 302.599 401.542 302.515C380.553 302.375 360.658 297.633 342.84 289.273C325.05 280.913 303.808 288.88 295.699 306.779C284.054 332.534 277.207 358.007 274.457 381.124C265.899 378.908 261.886 377.085 261.886 377.085C261.886 377.085 261.044 377.842 259.866 379.161C267.302 336.63 288.094 287.73 326.397 244.413L326.79 248.481C331.868 241.524 335.123 237.652 335.123 237.652L462.096 244.133C462.096 244.133 462.601 250.838 463.611 261.92C479.381 257.767 498.49 251.96 516.364 244.526Z" fill="#0B3D91"/>
</g>
<path d="M392.142 440.011C399.045 439.927 405.975 441.049 412.654 443.069C419.332 445.117 425.842 447.979 431.819 451.963C434.793 453.955 437.684 456.199 440.349 458.696C443.043 461.249 445.456 464.111 447.589 467.084C451.826 473.116 454.772 479.821 456.821 486.695C458.785 493.596 459.907 500.666 460.132 507.764C460.412 514.862 459.879 522.016 458.28 529.029C456.652 536.043 454.099 543.113 449.216 549.313L436.449 564.771L436.673 558.375C437.74 559.946 438.581 561.32 439.423 562.779C440.265 564.21 441.079 565.641 441.865 567.1C443.436 569.989 444.923 572.935 446.326 575.937C449.104 581.913 451.545 588.113 453.397 594.593C455.221 601.074 456.54 607.863 456.372 615.045C456.287 618.636 455.839 622.312 454.66 625.931C453.51 629.55 451.629 633.085 449.076 636.086L448.122 637.209C447.785 637.573 447.42 637.882 447.084 638.219C446.382 638.864 445.653 639.621 444.923 640.098C443.464 641.136 442.061 642.287 440.546 643.24C439.002 644.11 437.459 645.036 435.86 645.85L430.977 647.954C424.327 650.394 417.312 651.489 410.353 651.432C403.394 651.376 396.463 650.198 389.869 647.954C383.247 645.765 377.101 642.258 371.63 637.966C370.255 636.9 368.852 635.834 367.645 634.571C366.411 633.337 365.092 632.187 363.969 630.868L360.63 626.856C359.536 625.51 358.638 624.079 357.628 622.676C353.896 616.953 350.893 610.725 348.705 604.3C346.572 597.848 345.141 591.171 344.495 584.466C344.131 581.099 343.99 577.761 343.99 574.394C343.962 572.711 344.047 571.027 344.103 569.372L344.383 564.519C344.804 558.066 345.365 551.81 345.365 545.75C345.365 539.718 344.804 533.911 342.84 528.861C342.615 528.216 342.363 527.599 342.054 527.009C341.746 526.42 341.521 525.775 341.156 525.214L340.118 523.503C339.753 522.998 339.473 522.577 339.052 522.1C337.48 520.276 335.32 518.565 332.907 516.994C328.024 513.88 322.328 511.243 316.604 508.633C305.099 503.415 292.949 498.281 281.865 490.398C276.365 486.414 271.146 481.813 266.937 475.978C262.784 470.226 259.894 463.914 257.705 457.546C255.545 451.149 254.057 444.584 253.019 438.048C252.093 431.483 251.56 424.89 251.392 418.325C251.139 405.167 252.318 392.094 254.478 379.245C258.94 353.519 267.442 328.69 278.975 305.405C284.868 293.846 290.872 282.259 298.308 271.57C305.772 260.966 314.275 250.922 325.078 243.319C325.892 242.73 327.042 242.927 327.603 243.768C327.996 244.357 328.024 245.059 327.715 245.648V245.676C321.683 257.234 314.499 267.39 307.68 277.911C300.834 288.347 293.959 298.84 288.459 310.118C277.319 332.534 269.182 356.436 264.917 381.012C262.868 393.3 261.746 405.729 261.97 418.101C262.111 424.273 262.616 430.417 263.486 436.477C264.44 442.508 265.787 448.456 267.695 454.123C269.631 459.79 272.128 465.177 275.467 469.806C278.722 474.351 283.156 478.334 287.982 481.813C297.747 488.771 309.252 493.736 320.925 499.011C326.761 501.676 332.738 504.369 338.631 508.128C341.549 510.036 344.495 512.253 347.105 515.282C347.75 516.012 348.368 516.91 348.929 517.695L350.36 520.08C350.837 520.865 351.202 521.735 351.623 522.549C352.044 523.362 352.38 524.232 352.689 525.102C354.008 528.524 354.85 532.059 355.299 535.538C355.748 539.017 355.944 542.468 355.916 545.806C355.888 552.511 355.299 558.964 354.906 565.248L354.625 569.933C354.569 571.448 354.513 572.963 354.541 574.45C354.541 577.452 354.681 580.482 354.99 583.456C355.551 589.431 356.842 595.323 358.694 600.962C362.566 612.156 368.964 622.704 378.112 629.718C382.657 633.253 387.736 636.199 393.264 638.022C398.764 639.874 404.544 640.884 410.325 640.912C416.105 640.94 421.886 640.042 427.217 638.078L431.117 636.395C432.352 635.75 433.559 635.02 434.793 634.347C435.972 633.59 437.038 632.72 438.189 631.906C438.806 631.513 439.143 631.065 439.62 630.644C439.844 630.419 440.097 630.223 440.293 629.999L440.882 629.297C444.081 625.594 445.597 620.46 445.653 614.849C445.793 609.266 444.699 603.375 443.071 597.595C441.387 591.816 439.171 586.093 436.589 580.51C435.298 577.732 433.895 574.955 432.436 572.262C431.707 570.915 430.949 569.569 430.163 568.25C429.406 566.959 428.564 565.613 427.834 564.547L425.562 561.208L428.087 558.15L440.77 542.776C444.165 538.484 446.438 532.733 447.729 526.785C450.311 514.806 449.469 501.788 445.793 490.061C443.941 484.198 441.416 478.587 438.048 473.621C436.393 471.124 434.513 468.852 432.436 466.72C430.332 464.559 428.031 462.568 425.533 460.744C420.595 457.069 415.123 453.842 409.399 451.037C403.675 448.232 397.642 445.847 391.384 443.602C390.458 443.266 389.953 442.228 390.29 441.302C390.711 440.488 391.412 440.04 392.142 440.011Z" fill="#0B3D91"/>
<path d="M349.883 538.596C347.919 538.596 346.207 537.137 345.927 535.145C339.725 489.304 366.888 467.645 378.841 460.435C398.68 448.512 422.559 447.39 436.954 457.742C438.75 459.033 439.143 461.501 437.88 463.297C436.589 465.092 434.12 465.485 432.324 464.223C420.623 455.834 399.886 457.125 382.966 467.281C372.359 473.649 348.284 492.923 353.84 534.079C354.12 536.267 352.605 538.259 350.416 538.568C350.248 538.596 350.051 538.596 349.883 538.596Z" fill="#0B3D91"/>
<path d="M439.62 560.759C439.058 561.292 438.666 561.601 438.217 561.994C437.768 562.386 437.319 562.723 436.87 563.06C435.972 563.761 435.018 564.378 434.064 564.996C432.156 566.23 430.163 567.268 428.087 568.222C423.962 570.073 419.5 571.392 414.899 571.925C410.325 572.43 405.554 572.234 401.177 570.719C396.8 569.26 392.899 566.679 390.177 563.228C394.527 563.986 398.427 564.575 402.243 564.378C404.123 564.35 405.975 564.154 407.799 563.901C409.623 563.649 411.391 563.284 413.159 562.723C416.666 561.685 420.062 560.226 423.345 558.459C425 557.617 426.6 556.635 428.199 555.681L430.556 554.166L432.717 552.708L433.054 552.483C435.495 550.856 438.778 551.501 440.433 553.914C441.836 556.13 441.472 558.992 439.62 560.759Z" fill="#0B3D91"/>
<path d="M541.31 181.29C539.739 181.402 538.364 180.196 538.28 178.625L533.004 96.256C532.892 94.6849 534.099 93.3102 535.67 93.2261C552.225 92.16 566.536 104.729 567.602 121.309L569.398 149.392C570.437 165.944 557.866 180.224 541.31 181.29Z" fill="white"/>
<path d="M541.114 181.879C539.318 181.879 537.802 180.476 537.69 178.653L532.415 96.284C532.303 94.4044 533.734 92.7491 535.614 92.6369C552.478 91.5708 567.069 104.392 568.136 121.253L569.931 149.336C570.465 157.5 567.771 165.383 562.355 171.527C556.939 177.671 549.475 181.346 541.31 181.851C541.282 181.851 541.198 181.879 541.114 181.879ZM537.634 93.731C536.989 93.731 536.343 93.7591 535.698 93.7871C535.081 93.8152 534.519 94.0957 534.127 94.5727C533.734 95.0216 533.509 95.6107 533.565 96.2279L538.841 178.597C538.925 179.859 540.019 180.841 541.282 180.729C549.139 180.224 556.35 176.689 561.541 170.77C566.733 164.85 569.342 157.275 568.837 149.42L567.041 121.337C566.536 113.482 563.001 106.272 557.08 101.081C551.636 96.284 544.817 93.731 537.634 93.731Z" fill="#0B3D91"/>
<g opacity="0.35">
<path d="M568.556 136.206L569.398 149.364C570.465 165.916 557.894 180.224 541.31 181.29C539.739 181.402 538.364 180.196 538.279 178.597L536.876 156.714C537.382 157.696 538.42 158.313 539.598 158.257L541.563 158.117C554.611 157.275 565.217 148.185 568.556 136.206Z" fill="#0B3D91"/>
</g>
<path d="M541.114 186.62C536.848 186.62 533.229 183.282 532.948 178.962L527.673 96.5926C527.392 92.1039 530.815 88.2043 535.305 87.9237C544.733 87.3065 553.825 90.4206 560.924 96.6768C568.023 102.905 572.26 111.546 572.85 120.972L574.646 149.055C575.235 158.482 572.148 167.571 565.891 174.669C559.661 181.767 551.019 186.003 541.591 186.592C541.478 186.592 541.282 186.62 541.114 186.62ZM538.476 98.4723L543.414 175.707C555.817 173.687 564.909 162.493 564.095 149.7L562.299 121.618C561.878 115.025 558.904 108.993 553.937 104.616C549.588 100.801 544.172 98.6687 538.476 98.4723Z" fill="#0B3D91"/>
<path d="M263.794 110.592C265.366 110.48 266.741 111.686 266.825 113.257L272.1 195.626C272.212 197.197 271.006 198.572 269.434 198.656C252.879 199.722 238.568 187.154 237.502 170.573L235.706 142.518C234.64 125.938 247.211 111.658 263.794 110.592Z" fill="white"/>
<path d="M267.442 199.301C260.006 199.301 252.879 196.636 247.239 191.67C241.094 186.256 237.418 178.793 236.913 170.629L235.117 142.546C234.584 134.383 237.277 126.499 242.693 120.355C248.109 114.211 255.573 110.536 263.738 110.031C265.646 109.947 267.274 111.35 267.386 113.229L272.661 195.598C272.717 196.524 272.409 197.394 271.819 198.095C271.202 198.796 270.388 199.189 269.462 199.245C268.789 199.273 268.116 199.301 267.442 199.301ZM263.822 111.153C255.965 111.658 248.754 115.193 243.563 121.113C238.372 127.032 235.762 134.607 236.267 142.462L238.063 170.545C238.568 178.4 242.104 185.611 248.024 190.801C253.945 195.991 261.521 198.6 269.378 198.095C269.996 198.067 270.557 197.786 270.95 197.309C271.342 196.861 271.567 196.271 271.511 195.654L266.235 113.285C266.179 112.051 265.085 111.069 263.822 111.153Z" fill="#0B3D91"/>
<g opacity="0.35">
<path d="M270.641 172.79L272.1 195.626C272.212 197.197 271.006 198.572 269.406 198.656C260.708 199.217 252.626 196.019 246.762 190.436C241.458 185.414 237.979 178.429 237.474 170.573L236.716 158.734C242.076 168.806 253.019 175.371 265.169 174.613L268.172 174.417C269.294 174.361 270.192 173.715 270.641 172.79Z" fill="#0B3D91"/>
</g>
<path d="M267.47 204.043C248.978 204.043 233.377 189.622 232.198 170.938L230.403 142.855C229.813 133.429 232.9 124.339 239.157 117.241C245.387 110.143 254.029 105.907 263.458 105.318C267.975 105.037 271.848 108.46 272.128 112.949L277.403 195.318C277.544 197.506 276.814 199.61 275.383 201.237C273.952 202.864 271.932 203.846 269.771 203.986C268.985 204.014 268.228 204.043 267.47 204.043ZM261.69 116.175C249.287 118.195 240.196 129.389 241.009 142.182L242.805 170.265C243.226 176.857 246.201 182.889 251.167 187.266C255.517 191.081 260.932 193.241 266.656 193.41L261.69 116.175Z" fill="#0B3D91"/>
<path d="M502.015 245.395C556.948 190.473 556.948 101.426 502.015 46.5041C447.083 -8.41819 358.019 -8.41819 303.086 46.5041C248.153 101.426 248.153 190.473 303.086 245.395C358.019 300.318 447.083 300.318 502.015 245.395Z" fill="white"/>
<path d="M402.58 287.141C402.243 287.141 401.907 287.141 401.542 287.141C323.675 286.58 260.764 222.783 261.325 144.931C261.886 67.4156 325.134 4.74121 402.524 4.74121C402.861 4.74121 403.197 4.74121 403.562 4.74121C441.275 5.02176 476.631 19.9469 503.12 46.8234C529.609 73.6999 544.032 109.245 543.779 146.951C543.218 224.466 479.97 287.141 402.58 287.141ZM402.524 5.89146C365.485 5.89146 330.606 20.1713 304.201 46.2062C277.544 72.4655 262.728 107.534 262.475 144.959C262.195 182.356 276.534 217.649 302.798 244.301C329.062 270.953 364.138 285.766 401.57 286.019C438.946 286.271 474.274 271.963 500.931 245.704C527.589 219.445 542.404 184.376 542.657 146.951C542.937 109.554 528.599 74.261 502.334 47.6089C476.07 20.9569 440.995 6.14395 403.562 5.89146C403.226 5.89146 402.889 5.89146 402.524 5.89146Z" fill="#0B3D91"/>
<g opacity="0.35">
<path d="M542.011 127.481C542.853 133.849 543.274 140.358 543.218 146.951C542.657 224.607 479.241 287.113 401.542 286.58C323.871 286.019 261.353 222.615 261.886 144.931C261.914 142.687 261.97 140.47 262.083 138.254C271.062 206.764 329.455 259.9 400.532 260.405C475.986 260.966 537.971 202.023 542.011 127.481Z" fill="#0B3D91"/>
</g>
<path d="M402.58 291.882C402.215 291.882 401.879 291.882 401.514 291.882C362.538 291.602 325.976 276.171 298.617 248.397C271.258 220.623 256.33 183.871 256.611 144.903C256.891 105.935 272.325 69.3795 300.104 42.0261C327.856 14.6446 364.643 -0.28057 403.618 -2.19673e-05C442.594 0.280526 479.157 15.7107 506.515 43.4849C533.874 71.2592 548.802 108.011 548.521 146.979C548.241 185.947 532.808 222.503 505.028 249.856C477.529 276.985 441.191 291.882 402.58 291.882ZM402.524 10.6327C366.747 10.6327 333.047 24.4357 307.54 49.5728C281.781 74.9343 267.47 108.825 267.218 144.959C266.965 181.094 280.799 215.18 306.165 240.935C331.532 266.689 365.428 280.997 401.57 281.249C437.768 281.474 471.805 267.671 497.564 242.309C523.323 216.948 537.634 183.058 537.887 146.923C538.139 110.788 524.305 76.7018 498.939 50.9475C473.573 25.1932 439.676 10.8852 403.534 10.6327C403.197 10.6327 402.861 10.6327 402.524 10.6327Z" fill="#0B3D91"/>
<path d="M542.741 150.57C542.965 178.092 534.239 203.706 519.114 224.971C507.778 240.907 460.917 269.017 402.777 269.999C348.873 270.925 299.571 242.562 287.982 226.795C272.521 205.782 263.401 180.308 263.177 152.786C262.616 79.9561 324.937 49.2642 402.131 48.647C479.353 48.0298 542.152 77.7398 542.741 150.57Z" fill="#0B3D91"/>
<path d="M400.167 273.17C345.562 273.17 297.354 244.862 285.429 228.675C269.013 206.343 260.231 180.112 260.006 152.814C259.725 117.269 273.756 89.7473 301.732 71.0067C326.172 54.6507 360.883 45.8135 402.103 45.4768C443.352 45.1401 478.174 53.4163 502.895 69.4075C531.152 87.6993 545.631 114.969 545.912 150.542C546.136 177.839 537.746 204.211 521.696 226.795C510.556 242.45 464.285 272.132 402.833 273.17C401.935 273.17 401.037 273.17 400.167 273.17ZM404.236 51.8172C403.534 51.8172 402.833 51.8172 402.159 51.8172C361.079 52.1538 265.618 62.6463 266.348 152.758C266.544 178.709 274.906 203.678 290.536 224.915C301.451 239.784 348.424 266.829 400.195 266.829C401.037 266.829 401.851 266.829 402.692 266.801C461.17 265.819 506.347 237.372 516.505 223.092C531.769 201.602 539.739 176.521 539.542 150.57C538.869 61.973 446.382 51.8172 404.236 51.8172Z" fill="#0B3D91"/>
<g opacity="0.7">
<path d="M515.04 144.093C517.384 130.551 511.323 118.195 501.504 116.496C491.685 114.798 481.825 124.399 479.481 137.942C477.137 151.485 483.198 163.84 493.017 165.539C502.836 167.238 512.696 157.636 515.04 144.093Z" fill="white"/>
</g>
<g opacity="0.7">
<path d="M484.869 193.458C486.793 187.452 484.176 181.246 479.025 179.597C473.874 177.948 468.139 181.48 466.215 187.486C464.291 193.492 466.908 199.698 472.059 201.347C477.21 202.996 482.945 199.464 484.869 193.458Z" fill="white"/>
</g>
<g opacity="0.35">
<path d="M515.018 82.8458C532.247 99.0054 542.517 121.309 542.741 150.57C542.966 178.092 534.211 203.706 519.114 224.971C507.778 240.907 460.917 269.017 402.749 269.999C382.208 270.364 362.37 266.464 345.001 260.629C416.442 257.88 473.545 223.4 487.603 203.622C506.796 176.633 517.852 144.118 517.571 109.189C517.515 99.847 516.617 91.0659 515.018 82.8458Z" fill="#111A28"/>
</g>
<path d="M277.403 93.8714L269.07 87.2785L272.998 90.4206L268.817 87.6432C293.51 50.667 341.774 29.205 401.205 28.7281C460.272 28.2792 508.732 48.2542 534.435 83.5752C535.922 85.5391 535.894 88.3165 534.239 90.2523C532.331 92.4686 528.991 92.7492 526.747 90.8414C526.438 90.5609 526.129 90.2523 525.877 89.9156C502.278 57.3159 456.821 38.8839 401.289 39.3328C345.421 39.7817 300.357 59.5323 277.656 93.5347C277.572 93.6469 277.488 93.7591 277.403 93.8714Z" fill="#0B3D91"/>
<g opacity="0.7">
<path d="M294.913 195.851C294.913 195.851 271.791 124.199 310.29 95.246C348.789 66.2935 404.488 65.9849 403.226 69.5759C403.226 69.5759 341.661 85.006 317.922 133.934C299.599 171.667 294.913 195.851 294.913 195.851Z" fill="white"/>
</g>
<path d="M491.307 352.06L495.123 381.433L498.097 404.27C498.911 410.47 494.786 416.249 488.641 417.483C484.684 418.297 479.774 419.223 474.134 420.205C454.043 423.684 424.439 427.555 394.723 427.106C388.326 426.994 383.163 421.86 382.994 415.464L381.451 354.837C381.282 348.02 386.866 342.437 393.685 342.605C414.337 343.138 455.502 343.812 478.427 341.707C484.797 341.09 490.493 345.691 491.307 352.06Z" fill="white"/>
<path d="M392.759 342.605L368.655 345.186C363.38 345.747 359.423 350.292 359.564 355.595L361.388 415.744C361.556 420.99 365.681 425.255 370.9 425.563L393.18 426.966" fill="white"/>
<g opacity="0.25">
<path d="M392.759 342.605L368.655 345.186C363.38 345.747 359.423 350.292 359.564 355.595L361.388 415.744C361.556 420.99 365.681 425.255 370.9 425.563L393.18 426.966" fill="#0B3D91"/>
</g>
<path d="M399.606 431.819C397.95 431.819 396.295 431.819 394.639 431.791C385.716 431.651 378.533 424.525 378.308 415.576L376.765 354.949C376.652 350.348 378.364 346.028 381.619 342.774C384.874 339.519 389.195 337.808 393.797 337.92C415.628 338.481 455.558 339.098 477.978 337.05C486.901 336.237 494.786 342.577 495.965 351.471L502.727 403.68C503.85 412.293 498.069 420.373 489.567 422.112C471.328 425.788 436.028 431.819 399.606 431.819ZM393.376 347.262C391.44 347.262 389.644 348.02 388.269 349.394C386.838 350.825 386.109 352.705 386.137 354.697L387.68 415.323C387.792 419.223 390.907 422.337 394.779 422.393C432.043 422.954 468.999 416.67 487.715 412.854C491.419 412.097 493.944 408.562 493.439 404.831L486.677 352.621C486.172 348.749 482.748 345.972 478.876 346.336C455.979 348.441 415.6 347.823 393.573 347.262C393.489 347.29 393.433 347.262 393.376 347.262Z" fill="#0B3D91"/>
<path d="M393.208 431.651C393.096 431.651 393.012 431.651 392.899 431.651L370.62 430.248C362.931 429.771 356.926 423.599 356.702 415.884L354.878 355.735C354.653 348.02 360.462 341.343 368.15 340.501L392.254 337.92C394.836 337.64 397.136 339.519 397.417 342.072C397.698 344.653 395.818 346.954 393.264 347.234L369.16 349.815C366.326 350.124 364.194 352.593 364.278 355.426L366.102 415.576C366.186 418.409 368.403 420.682 371.237 420.878L393.517 422.281C396.098 422.449 398.062 424.666 397.894 427.247C397.726 429.743 395.677 431.651 393.208 431.651Z" fill="#0B3D91"/>
<path d="M444.053 429.603C441.584 429.603 439.507 427.667 439.367 425.198L437.571 394.478L422.026 383.986C420.819 383.172 420.062 381.854 419.977 380.423L417.424 343.419C417.256 340.838 419.192 338.593 421.773 338.425C424.355 338.257 426.6 340.192 426.768 342.774L429.153 377.477L444.727 387.998C445.933 388.811 446.691 390.158 446.775 391.617L448.711 424.665C448.851 427.246 446.887 429.463 444.306 429.631C444.25 429.603 444.137 429.603 444.053 429.603Z" fill="#0B3D91"/>
<path d="M487.799 380.086C487.996 381.938 486.929 397.228 486.929 397.228C486.929 397.228 482.159 397.733 476.322 398.322C469.027 399.08 462.32 392.15 461.338 382.808C460.356 373.494 465.491 365.302 472.787 364.544C477.725 364.039 483.394 363.45 483.394 363.45C483.394 363.45 487.49 377.057 487.799 380.086Z" fill="#22A7F0"/>
<path d="M487.799 380.086C487.996 381.938 486.957 397.228 486.957 397.228C486.957 397.228 486.845 397.228 486.621 397.256C486.901 392.851 487.182 387.605 487.07 386.567C486.761 383.537 482.692 369.959 482.692 369.959C482.692 369.959 477.024 370.548 472.085 371.053C466.978 371.586 462.938 375.738 461.282 381.377C460.946 372.652 465.912 365.273 472.843 364.572C477.754 364.067 483.45 363.478 483.45 363.478C483.45 363.478 487.491 377.057 487.799 380.086Z" fill="white"/>
<path d="M475.284 402.39C466.417 402.39 458.56 394.142 457.41 383.257C456.203 371.754 462.938 361.626 472.422 360.616L479.83 359.859C483.618 359.466 487.126 361.823 488.192 365.47C491.503 376.888 491.728 378.992 491.784 379.666C491.84 380.227 491.98 381.517 491.138 394.226C490.886 398.041 487.939 401.127 484.123 401.52L476.771 402.278C476.266 402.362 475.761 402.39 475.284 402.39ZM480.56 367.798L473.264 368.556C468.241 369.089 464.621 375.429 465.351 382.443C466.081 389.457 470.935 394.899 475.958 394.394L483.225 393.637C483.787 385.136 483.927 381.265 483.871 380.479C483.73 379.441 482.804 375.57 480.56 367.798Z" fill="#0B3D91"/>
<path d="M486.949 397.212C494.255 396.452 499.391 388.278 498.42 378.954C497.45 369.631 490.741 362.689 483.435 363.449C476.129 364.209 470.992 372.384 471.963 381.707C472.933 391.03 479.643 397.972 486.949 397.212Z" fill="#22A7F0"/>
<path d="M498.406 378.992C498.518 380.114 498.546 381.237 498.49 382.303C496.47 374.7 490.549 369.426 484.123 370.099C477.697 370.772 472.955 377.169 472.562 385.024C472.282 383.958 472.057 382.864 471.945 381.714C470.963 372.399 476.126 364.207 483.422 363.478C490.745 362.72 497.424 369.678 498.406 378.992Z" fill="white"/>
<path d="M485.835 401.296C481.598 401.296 477.529 399.472 474.218 396.05C470.767 392.487 468.578 387.549 468.017 382.162C467.455 376.776 468.606 371.502 471.244 367.293C474.078 362.777 478.259 360.027 483.029 359.522C487.799 359.017 492.457 360.869 496.161 364.684C499.612 368.247 501.801 373.185 502.362 378.571C502.924 383.958 501.773 389.232 499.135 393.44C496.301 397.957 492.12 400.707 487.35 401.212C486.845 401.268 486.34 401.296 485.835 401.296ZM484.516 367.406C484.292 367.406 484.067 367.406 483.843 367.434C481.57 367.658 479.465 369.117 477.978 371.502C476.294 374.195 475.565 377.674 475.93 381.321C476.294 384.968 477.726 388.194 479.942 390.495C481.907 392.515 484.236 393.525 486.536 393.272C488.809 393.048 490.914 391.589 492.401 389.204C494.085 386.511 494.814 383.032 494.449 379.385C494.085 375.766 492.654 372.512 490.437 370.211C488.669 368.388 486.593 367.406 484.516 367.406Z" fill="#0B3D91"/>
<path d="M261.886 363.787C261.886 363.787 293.594 378.151 369.048 375.542C369.048 375.542 382.882 388.783 369.048 399.725C355.214 410.666 277.46 416.95 256.667 394.535C243.507 380.367 261.886 363.787 261.886 363.787Z" fill="white"/>
<g opacity="0.25">
<path d="M369.048 399.753C355.243 410.694 277.46 416.978 256.667 394.563C250.41 387.83 251.279 380.535 253.945 374.756C254.647 375.99 255.545 377.253 256.667 378.459C277.46 400.875 355.243 394.591 369.048 383.649C370.507 382.471 371.686 381.293 372.556 380.114C375.446 384.912 377.831 392.795 369.048 399.753Z" fill="#0B3D91"/>
</g>
<path d="M314.275 414.341C296.653 414.341 266.516 412.097 253.216 397.733C249.007 393.188 246.986 387.97 247.239 382.219C247.772 370.323 258.294 360.701 258.743 360.308L261.016 358.26L263.794 359.522C264.271 359.747 295.951 373.381 368.852 370.884L370.816 370.828L372.247 372.203C373.061 372.989 380.244 380.142 379.823 389.457C379.655 393.132 378.14 398.546 371.91 403.456C362.65 410.778 336.134 414.257 315.453 414.397C315.088 414.341 314.696 414.341 314.275 414.341ZM263.093 369.313C260.68 372.063 256.863 377.225 256.611 382.695C256.471 385.866 257.621 388.699 260.09 391.364C279.115 411.901 354.457 405.28 366.102 396.05C368.908 393.833 370.339 391.505 370.451 388.952C370.62 385.641 368.543 382.247 366.972 380.283C305.043 382.191 272.774 372.792 263.093 369.313Z" fill="#0B3D91"/>
<g opacity="0.25">
<path d="M533.453 475.164C522.089 488.883 485.667 502.125 466.08 489.837C449.693 479.597 449.188 464.896 437.571 456.452C436.898 455.947 434.849 455.077 431.735 453.702C468.494 442.116 502.138 436.28 532.415 434.344C545.435 450.392 542.853 463.802 533.453 475.164Z" fill="#0B3D91"/>
</g>
<path d="M375.193 301.589C416.274 352.817 484.039 384.239 524.53 420.766C546.726 440.769 543.218 450.42 532.162 463.802C520.826 477.521 494.169 490.763 474.555 478.475C458.167 468.207 457.157 458.471 445.54 450.027C440.967 446.688 367.308 427.162 326.425 363.45" fill="white"/>
<g opacity="0.25">
<path d="M532.162 463.802C520.826 477.521 494.169 490.763 474.555 478.475C458.167 468.235 457.157 458.472 445.54 450.027C440.967 446.688 367.308 427.162 326.453 363.45L327.295 362.384C372.892 410.301 420.426 413.191 451.994 437.458C463.359 446.212 464.369 449.101 480.728 459.369C500.342 471.657 526.999 458.415 538.336 444.697C539.065 443.827 539.767 442.957 540.412 442.116C542.264 449.831 538.42 456.199 532.162 463.802Z" fill="#0B3D91"/>
</g>
<path d="M376.568 300.467C385.295 306.611 392.479 313.625 400.167 320.33C407.715 327.119 415.488 333.74 423.317 340.305C431.286 346.757 439.564 352.845 448.01 358.737C456.428 364.684 465.014 370.464 473.573 376.299C482.159 382.162 490.774 387.942 499.276 394.086C501.408 395.573 503.541 397.144 505.617 398.715C507.722 400.286 509.826 401.829 511.931 403.428C516.056 406.71 520.237 409.909 524.221 413.444C528.262 416.838 532.247 420.513 535.979 424.637C536.876 425.703 537.802 426.77 538.7 427.864C539.542 429.042 540.44 430.164 541.254 431.399L542.404 433.334L542.994 434.316C543.162 434.653 543.33 435.018 543.499 435.382L544.481 437.515C544.761 438.272 544.986 439.058 545.238 439.843C546.136 442.985 546.501 446.632 545.744 449.971C545.07 453.309 543.751 456.311 542.236 458.864C540.693 461.417 539.009 463.718 537.297 465.822C536.484 466.888 535.502 467.954 534.519 469.048C533.565 470.17 532.499 471.096 531.461 472.106C527.252 475.978 522.594 479.176 517.627 481.813C512.632 484.422 507.301 486.442 501.633 487.592C495.993 488.743 489.988 488.995 484.095 487.817L481.878 487.312C481.149 487.144 480.419 486.975 479.718 486.667C478.315 486.105 476.856 485.685 475.481 484.983C474.162 484.282 472.787 483.553 471.496 482.823C470.346 482.038 469.139 481.308 468.017 480.466C465.744 478.811 463.527 477.044 461.451 475.08C459.402 473.116 457.466 471.04 455.726 468.908C452.219 464.644 449.441 460.548 446.158 457.462C445.765 457.041 445.316 456.704 444.895 456.311C444.474 455.947 444.053 455.554 443.604 455.217L442.931 454.684L442.594 454.432L442.426 454.291C442.342 454.235 442.426 454.291 442.426 454.291C442.454 454.319 442.482 454.347 442.51 454.347L442.229 454.235C442.005 454.151 441.836 454.039 441.528 453.927C439.339 453.029 436.842 452.103 434.429 451.149C429.546 449.27 424.664 447.278 419.809 445.174C400.476 436.701 381.9 426.18 365.148 413.051C360.939 409.796 356.898 406.318 352.942 402.783C349.041 399.164 345.029 395.629 341.325 391.757C339.445 389.849 337.677 387.858 336.021 385.753C335.18 384.715 334.338 383.677 333.58 382.555C332.794 381.461 332.037 380.367 331.307 379.245C329.82 377.028 328.613 374.588 327.463 372.147C326.397 369.65 325.471 367.069 324.881 364.348C324.657 363.338 325.302 362.328 326.341 362.103C326.874 361.991 327.379 362.103 327.8 362.384L327.884 362.44C330.213 363.983 332.093 365.778 334.029 367.518C335.993 369.229 337.705 371.109 339.473 372.904C340.343 373.802 341.212 374.728 342.054 375.682C342.896 376.636 343.766 377.505 344.608 378.459C345.478 379.385 346.291 380.311 347.105 381.265C347.947 382.191 348.817 383.116 349.631 384.042C352.942 387.83 356.393 391.505 360.097 394.927C363.829 398.294 367.673 401.604 371.686 404.69C387.596 417.175 405.414 427.303 424.046 435.467C428.704 437.515 433.446 439.422 438.217 441.274C440.63 442.228 442.987 443.069 445.625 444.164C445.933 444.276 446.354 444.472 446.719 444.641C446.915 444.725 447.056 444.781 447.308 444.921C447.617 445.089 447.954 445.286 448.234 445.454C448.375 445.538 448.599 445.679 448.627 445.707L448.852 445.875L449.272 446.212L450.142 446.885C451.293 447.783 452.387 448.765 453.453 449.775C457.719 453.842 460.777 458.415 463.864 462.119C466.922 465.878 470.261 469.048 474.134 471.798C475.088 472.499 476.126 473.116 477.108 473.789L479.97 475.332C480.924 475.837 481.991 476.09 482.973 476.511C483.478 476.735 483.983 476.847 484.516 476.96L486.116 477.324C490.381 478.166 494.954 478.026 499.472 477.1C508.48 475.248 517.319 470.535 524.193 464.251C525.007 463.437 525.905 462.68 526.635 461.81C527.392 460.968 528.15 460.127 528.935 459.145C530.507 457.237 531.854 455.329 533.004 453.422C534.155 451.542 534.856 449.69 535.249 447.951C535.67 446.212 535.445 444.528 534.968 442.733C533.93 439.114 531.236 435.242 528.009 431.707C524.754 428.144 521.135 424.75 517.234 421.495C513.474 418.129 509.406 415.015 505.421 411.844C503.401 410.273 501.324 408.786 499.276 407.243C497.227 405.7 495.179 404.185 493.046 402.699C484.713 396.695 476.126 390.916 467.596 385.08C459.009 379.245 450.395 373.437 441.865 367.406C433.306 361.458 424.944 355.146 416.498 348.917C408.192 342.493 399.886 335.956 392.535 328.297C384.958 320.919 378.336 312.39 373.762 302.655C373.341 301.757 373.734 300.663 374.632 300.242C375.25 299.962 375.951 300.046 376.456 300.411L376.568 300.467Z" fill="#0B3D91"/>
<path d="M378.392 420.906C378.027 420.906 377.663 420.85 377.27 420.766C374.744 420.149 373.201 417.624 373.818 415.099C374.464 412.49 389.869 351.358 432.464 351.358C432.689 351.358 432.913 351.358 433.166 351.358C435.747 351.386 437.824 353.519 437.796 356.128C437.768 358.709 435.635 360.841 433.026 360.757C432.857 360.757 432.689 360.757 432.492 360.757C397.165 360.757 383.078 416.782 382.938 417.343C382.405 419.475 380.497 420.906 378.392 420.906Z" fill="#0B3D91"/>
<path d="M552.057 324.005C551.271 324.005 550.486 323.808 549.756 323.416C526.101 310.146 524.39 246.209 524.249 238.971C524.193 236.39 526.27 234.258 528.851 234.201C528.879 234.201 528.907 234.201 528.935 234.201C531.489 234.201 533.593 236.249 533.621 238.802C533.93 256.982 538.251 306.19 554.33 315.224C556.575 316.486 557.389 319.348 556.126 321.62C555.284 323.135 553.685 324.005 552.057 324.005Z" fill="#0B3D91"/>
<path d="M590.892 204.071C590.949 204.351 590.948 204.912 591.005 205.361L591.089 206.792C591.173 207.746 591.201 208.728 591.313 209.71C591.454 211.673 591.678 213.637 591.959 215.629C592.239 217.621 592.632 219.585 593.025 221.661C593.334 223.793 593.867 225.841 594.119 228.366C591.874 227.328 589.966 225.757 588.451 223.905C587.637 223.008 587.02 221.998 586.375 220.96C585.813 219.922 585.224 218.855 584.803 217.733C583.849 215.545 583.176 213.216 582.755 210.86C582.587 209.682 582.39 208.475 582.362 207.269C582.334 206.652 582.306 206.062 582.334 205.445C582.334 204.8 582.39 204.267 582.502 203.453C582.811 201.153 584.916 199.554 587.188 199.862C589.068 200.115 590.5 201.574 590.78 203.341L590.892 204.071Z" fill="#0B3D91"/>
</g>
<defs>
<clipPath id="clip0_19_9">
<rect width="723" height="813" fill="white"/>
</clipPath>
</defs>
</svg>
