<svg width="140" height="178" viewBox="0 0 140 178" fill="none" xmlns="http://www.w3.org/2000/svg">
<path d="M87.5614 132.175H54.6368C46.8384 132.175 40.522 125.852 40.522 118.059V87.9369C40.522 80.1377 46.8445 73.8206 54.6368 73.8206H87.5614C95.3598 73.8206 101.676 80.1438 101.676 87.9369V118.059C101.676 125.852 95.3537 132.175 87.5614 132.175Z" fill="white"/>
<path d="M87.5615 73.8206C95.3598 73.8206 101.676 80.1439 101.676 87.937V118.059C101.676 125.858 95.3538 132.175 87.5615 132.175H54.6369C46.8385 132.175 40.5221 125.852 40.5221 118.059V87.937C40.5221 80.1378 46.8446 73.8206 54.6369 73.8206H87.5615ZM87.5615 71.7129H54.6369C45.6906 71.7129 38.4146 78.9898 38.4146 87.937V118.059C38.4146 127.006 45.6906 134.283 54.6369 134.283H87.5615C96.5077 134.283 103.784 127.006 103.784 118.059V87.937C103.784 78.9898 96.5077 71.7129 87.5615 71.7129Z" fill="#0B3D91"/>
<path d="M106.256 169.951C106.244 170.108 106.22 170.26 106.195 170.412C105.363 175.168 99.5387 176.863 89.0497 175.557C84.3063 174.968 77.7469 174.263 76.0159 170.661C72.5844 163.518 76.0341 149.128 75.6879 139.798C75.6879 139.725 75.6819 139.646 75.6758 139.567C75.6758 139.567 73.7687 139.792 71.4061 139.792C69.0435 139.792 67.1364 139.567 67.1364 139.567C67.1304 139.646 67.1304 139.725 67.1243 139.798C66.772 149.134 70.2218 163.524 66.7963 170.661C65.0654 174.263 58.506 174.968 53.7626 175.557C43.2675 176.863 37.4491 175.168 36.617 170.412C36.5927 170.26 36.5684 170.108 36.5502 169.951C35.9429 164.162 44.4154 161.471 44.4154 161.471C44.4154 161.471 42.8363 149.146 41.3483 138.085C37.7102 110.958 43.9356 88.1374 47.2274 78.5402C48.3025 75.3999 49.0616 73.6748 49.0616 73.6748H93.7445C93.7445 73.6748 94.3033 74.9322 95.1354 77.2586C98.2571 85.975 105.278 109.664 101.464 138.085C99.982 149.146 98.3968 161.471 98.3968 161.471C98.3968 161.471 106.863 164.162 106.256 169.951Z" fill="white"/>
<path d="M95.1534 177.033C93.2828 177.033 91.2056 176.893 88.9099 176.608L88.4483 176.553C83.3404 175.921 76.9815 175.132 75.0562 171.123C72.6996 166.221 73.392 158.397 74.054 150.829C74.3759 147.184 74.6796 143.728 74.6432 140.722C73.8415 140.782 72.6875 140.849 71.3938 140.849C70.1002 140.849 68.9462 140.782 68.1445 140.722C68.1081 143.722 68.4117 147.185 68.7336 150.823C69.4017 158.391 70.088 166.215 67.7315 171.117C65.8062 175.126 59.4472 175.909 54.3394 176.547L53.8778 176.602C42.6661 177.993 36.5015 175.976 35.5601 170.594C35.5297 170.424 35.4993 170.236 35.4811 170.054C34.9102 164.599 40.9655 161.671 43.2431 160.766C42.8605 157.808 41.5303 147.512 40.2853 138.225C37.7708 119.474 40.018 102.825 42.3442 92.1524C44.8708 80.5811 47.9501 73.5412 48.0776 73.2435C48.3145 72.709 48.934 72.4721 49.4684 72.7029C50.0029 72.9398 50.2398 73.5594 50.009 74.0939C49.8875 74.3733 37.6433 102.673 42.3746 137.94C43.8444 148.873 45.4235 161.21 45.4417 161.331L45.551 162.206L44.7129 162.473C44.64 162.497 37.0663 164.976 37.5765 169.841C37.5886 169.975 37.6069 170.096 37.6312 170.218C38.3418 174.3 43.7229 175.739 53.6106 174.512L54.0722 174.458C58.4329 173.917 64.3971 173.176 65.8244 170.212C67.9319 165.832 67.2638 158.3 66.6261 151.017C66.2678 146.942 65.9277 143.097 66.0552 139.762V139.731C66.0552 139.659 66.0613 139.58 66.0674 139.507L66.1402 138.401L67.2395 138.529C67.2578 138.529 69.1163 138.747 71.3878 138.747C73.6593 138.747 75.5178 138.535 75.536 138.529L76.6353 138.401L76.7082 139.507C76.7142 139.592 76.7203 139.683 76.7203 139.768C76.8479 143.091 76.5077 146.942 76.1494 151.017C75.5056 158.3 74.8436 165.832 76.9511 170.212C78.3784 173.182 84.3426 173.923 88.7034 174.458L89.1649 174.512C99.0526 175.739 104.434 174.3 105.144 170.23C105.169 170.09 105.187 169.969 105.199 169.847C105.709 164.976 98.1355 162.497 98.0626 162.473L97.2245 162.206L97.3338 161.337C97.352 161.216 98.9312 148.885 100.401 137.946C105.138 102.649 92.888 74.3794 92.7665 74.1C92.5297 73.5655 92.7726 72.9459 93.3071 72.709C93.8416 72.4721 94.461 72.7151 94.6979 73.2496C94.8255 73.5412 97.9047 80.5811 100.431 92.1585C102.757 102.825 105.011 119.48 102.49 138.231C101.245 147.519 99.9151 157.814 99.5324 160.772C101.81 161.677 107.865 164.605 107.294 170.066C107.276 170.236 107.252 170.424 107.215 170.613C106.481 174.883 102.423 177.033 95.1534 177.033Z" fill="#0B3D91"/>
<g opacity="0.35">
<path d="M66.7843 170.667C65.0533 174.269 58.4939 174.974 53.7505 175.563C43.2555 176.869 37.4371 175.174 36.605 170.418C45.1929 173.674 60.3342 171.815 62.9276 167.685C66.2802 162.334 66.8268 156.988 61.6097 150.325C56.3986 143.662 55.9916 134.963 55.9916 134.963C58.4818 136.713 63.6078 138.614 67.1183 139.804C66.7661 149.134 70.2158 163.524 66.7843 170.667Z" fill="#0B3D91"/>
</g>
<g opacity="0.35">
<path d="M106.183 170.43C105.345 175.174 99.5207 176.863 89.0439 175.557C84.3005 174.968 77.735 174.269 76.004 170.661C72.5482 163.469 76.0769 148.91 75.6639 139.586C78.5671 138.717 83.9421 136.944 86.7785 134.957C86.7785 134.957 88.2057 141.214 82.1322 149.76C77.2309 156.66 76.8786 162.145 80.2312 167.491C82.612 171.293 96.7451 172.848 106.183 170.43Z" fill="#0B3D91"/>
</g>
<path d="M89.6872 154.285C86.0371 154.285 81.2876 153.593 75.1776 151.601C74.7768 151.473 74.5642 151.042 74.6917 150.641C74.8193 150.24 75.2505 150.027 75.6513 150.155C93.9569 156.126 99.3138 149.906 99.3684 149.839C99.6296 149.517 100.109 149.463 100.431 149.724C100.753 149.985 100.814 150.459 100.553 150.781C100.389 150.993 97.6618 154.285 89.6872 154.285Z" fill="#0B3D91"/>
<path d="M52.305 154.729C48.4909 154.729 44.8285 154.048 42.4842 151.977C42.1683 151.698 42.138 151.218 42.4174 150.908C42.6967 150.592 43.1765 150.562 43.4863 150.841C49.6145 156.247 67.1305 150.744 67.3066 150.689C67.7075 150.562 68.1326 150.78 68.2602 151.181C68.3877 151.582 68.1691 152.007 67.7682 152.135C67.2763 152.293 59.5143 154.729 52.305 154.729Z" fill="#0B3D91"/>
<path d="M66.9543 140.612C66.3955 140.491 65.9097 140.357 65.3995 140.205C64.8954 140.054 64.4034 139.896 63.9115 139.726C62.9276 139.385 61.9679 138.991 61.0265 138.559C60.5528 138.353 60.0912 138.11 59.6296 137.879C59.1741 137.624 58.7125 137.393 58.2752 137.12C57.3764 136.603 56.5261 136.008 55.694 135.395C55.4571 135.225 55.4085 134.891 55.5786 134.66C55.7426 134.441 56.0463 134.38 56.2771 134.52L56.2953 134.532C57.1395 135.048 57.9959 135.54 58.8947 135.96C59.332 136.184 59.7936 136.367 60.2431 136.567C60.7047 136.743 61.1602 136.938 61.6278 137.095C62.5571 137.43 63.4985 137.721 64.452 137.964C64.9257 138.086 65.4056 138.195 65.8854 138.292C66.3591 138.389 66.8571 138.474 67.2944 138.535H67.3126C67.8896 138.608 68.3026 139.136 68.2297 139.713C68.1569 140.29 67.6285 140.704 67.0515 140.631C67.015 140.625 66.9847 140.618 66.9543 140.612Z" fill="#0B3D91"/>
<path d="M75.4816 138.529C75.9189 138.474 76.4169 138.383 76.8907 138.286C77.3705 138.189 77.8503 138.079 78.324 137.958C79.2776 137.715 80.219 137.423 81.1482 137.089C81.6159 136.931 82.0714 136.737 82.533 136.561C82.9824 136.36 83.444 136.178 83.8813 135.953C84.7802 135.54 85.6365 135.042 86.4808 134.526L86.499 134.514C86.748 134.362 87.0699 134.441 87.2217 134.69C87.3614 134.927 87.3007 135.231 87.082 135.388C86.25 136.002 85.3997 136.597 84.5008 137.114C84.0574 137.387 83.5958 137.618 83.1464 137.873C82.6848 138.104 82.2232 138.347 81.7495 138.553C80.8081 138.99 79.8424 139.379 78.8646 139.719C78.3726 139.889 77.8746 140.053 77.3766 140.199C76.8664 140.345 76.3805 140.485 75.8217 140.606C75.2508 140.728 74.6921 140.369 74.5645 139.798C74.437 139.227 74.8014 138.668 75.3723 138.541C75.4027 138.535 75.433 138.529 75.4634 138.523L75.4816 138.529Z" fill="#0B3D91"/>
<path d="M44.2273 160.432C44.9318 160.365 45.5696 160.335 46.2376 160.323C46.8997 160.311 47.5556 160.317 48.2115 160.341C49.5234 160.39 50.8353 160.517 52.129 160.724C53.4226 160.943 54.6981 161.258 55.931 161.678C57.1578 162.127 58.33 162.698 59.3929 163.421C58.2328 162.856 57.0242 162.455 55.7852 162.188C54.5401 161.951 53.2829 161.817 52.0257 161.775C50.7624 161.75 49.5052 161.805 48.2601 161.927C47.6345 161.987 47.0151 162.066 46.3956 162.163C45.7821 162.261 45.1505 162.376 44.5856 162.51L44.5674 162.516C43.9965 162.649 43.4317 162.297 43.292 161.732C43.1584 161.161 43.5106 160.596 44.0755 160.457C44.1301 160.444 44.1787 160.438 44.2273 160.432Z" fill="#0B3D91"/>
<path d="M98.2086 162.51C97.6438 162.376 97.0121 162.261 96.3987 162.163C95.7792 162.066 95.1597 161.987 94.5341 161.927C93.283 161.805 92.0258 161.75 90.7685 161.775C89.5113 161.817 88.2541 161.945 87.009 162.188C85.77 162.455 84.5614 162.856 83.4014 163.421C84.4642 162.704 85.6364 162.127 86.8633 161.678C88.0962 161.258 89.3716 160.943 90.6653 160.724C91.959 160.517 93.2648 160.396 94.5827 160.341C95.2387 160.317 95.9007 160.311 96.5566 160.323C97.2247 160.335 97.8624 160.365 98.5669 160.432C99.15 160.487 99.5751 161.003 99.5205 161.586C99.4658 162.17 98.9496 162.595 98.3665 162.54C98.3179 162.534 98.2754 162.528 98.2268 162.516L98.2086 162.51Z" fill="#0B3D91"/>
<g opacity="0.35">
<path d="M55.9915 134.964C55.9915 134.964 55.8579 132.686 56.8357 132.965C59.5567 133.743 61.1844 136.482 70.9931 136.579C80.8079 136.676 84.0329 132.261 85.9886 133.093C86.8146 133.445 86.7842 134.964 86.7842 134.964C86.7842 134.964 80.4617 139.768 71.1267 139.574C61.5609 139.373 55.9915 134.964 55.9915 134.964Z" fill="#0B3D91"/>
</g>
<path d="M57.1027 120.331C53.3492 121.849 47.5429 121.534 43.583 121.054C41.2083 120.768 39.5441 118.575 39.8903 116.206C40.2122 114.044 42.1132 112.477 44.2936 112.58C47.9985 112.756 53.5496 112.835 57.0723 112.052" fill="white"/>
<g opacity="0.35">
<path d="M57.1027 120.331C53.3492 121.849 47.5369 121.533 43.583 121.054C41.2083 120.768 39.5441 118.575 39.8903 116.206C39.9632 115.702 40.1211 115.228 40.358 114.803C40.9896 115.976 42.1618 116.826 43.583 117.002C47.5369 117.482 53.3371 117.798 57.0905 116.285L57.1027 120.331Z" fill="#0B3D91"/>
</g>
<path d="M49.6446 122.36C47.4764 122.36 45.3202 122.183 43.4739 121.959C42.0831 121.789 40.8441 121.084 39.9938 119.966C39.1435 118.849 38.7851 117.464 38.9916 116.073C39.3803 113.437 41.6761 111.548 44.3363 111.669C48.1991 111.851 53.5134 111.912 56.8721 111.165C57.3762 111.056 58.6213 111.056 59.3683 113.461C60.1396 115.945 60.0607 120.118 57.443 121.175L57.1029 120.331L57.443 121.175C55.2565 122.062 52.4384 122.36 49.6446 122.36ZM44.0873 113.485C42.4353 113.485 41.0323 114.688 40.7894 116.34C40.6558 117.239 40.8866 118.138 41.4393 118.861C41.992 119.584 42.7876 120.039 43.6925 120.149C47.7071 120.635 53.234 120.914 56.7628 119.487C57.6677 119.122 57.8924 117.652 57.941 117.039C58.1111 115.077 57.4916 113.333 57.1332 112.969C53.5742 113.728 48.1748 113.674 44.2452 113.485C44.1966 113.485 44.142 113.485 44.0873 113.485Z" fill="#0B3D91"/>
<g opacity="0.35">
<path d="M101.944 124.316C98.1476 124.765 92.8211 125.081 88.8187 124.03V125.974C88.8187 128.665 86.6201 130.864 83.9295 130.864H57.2486C54.558 130.864 52.3594 128.665 52.3594 125.974V111.481C52.3594 108.796 54.558 106.597 57.2486 106.597H83.9295C86.0795 106.597 87.9137 108 88.5697 109.938C88.7337 110.424 88.8187 110.946 88.8187 111.487V114.755C92.6086 115.301 97.6921 115.216 101.233 115.052C101.275 115.052 101.324 115.052 101.367 115.052C101.652 118.096 101.859 121.199 101.944 124.316Z" fill="#0B3D91"/>
</g>
<path d="M85.8062 120.331C89.5596 121.849 95.3659 121.534 99.3258 121.054C101.701 120.768 103.365 118.575 103.018 116.206C102.697 114.044 100.796 112.477 98.6152 112.58C94.9103 112.756 89.3592 112.835 85.8365 112.052" fill="white"/>
<g opacity="0.35">
<path d="M99.3258 121.054C95.3659 121.533 89.5535 121.849 85.8062 120.331L85.8244 116.297C89.5778 117.81 95.3719 117.494 99.3319 117.014C100.753 116.844 101.925 115.982 102.557 114.809C102.788 115.235 102.946 115.702 103.018 116.206C103.371 118.569 101.701 120.762 99.3258 121.054Z" fill="#0B3D91"/>
</g>
<path d="M93.2642 122.36C90.4704 122.36 87.6523 122.062 85.4597 121.175C82.842 120.112 82.7631 115.945 83.5344 113.461C84.2815 111.056 85.5326 111.056 86.0306 111.165C89.3893 111.912 94.7036 111.851 98.5664 111.669C101.227 111.542 103.522 113.437 103.911 116.073C104.118 117.464 103.759 118.849 102.909 119.966C102.059 121.084 100.82 121.789 99.4288 121.959C97.5885 122.177 95.4324 122.36 93.2642 122.36ZM85.7755 112.969C85.4172 113.333 84.7977 115.077 84.9678 117.039C85.0224 117.652 85.2411 119.116 86.146 119.487C89.6747 120.914 95.2016 120.635 99.2162 120.149C100.115 120.039 100.917 119.584 101.47 118.861C102.022 118.138 102.253 117.245 102.119 116.34C101.864 114.633 100.37 113.406 98.6635 113.491C94.734 113.674 89.3346 113.728 85.7755 112.969Z" fill="#0B3D91"/>
<path d="M87.2575 109.319V122.585C87.2575 125.045 85.2411 127.061 82.7874 127.061H58.3598C55.9 127.061 53.8896 125.045 53.8896 122.585V109.319C53.8896 106.858 55.9 104.848 58.3598 104.848H82.7814C84.7431 104.848 86.4255 106.136 87.0207 107.903C87.1725 108.347 87.2575 108.82 87.2575 109.319Z" fill="white"/>
<g opacity="0.35">
<path d="M87.2575 109.318V122.584C87.2575 125.044 85.2411 127.061 82.7874 127.061H58.3598C55.9 127.061 53.8896 125.044 53.8896 122.584V118.12C58.1047 120.452 66.4558 123.957 74.8311 121.066C78.9247 119.65 83.6195 114.809 83.6195 114.809C83.6195 114.809 83.8017 119.893 84.5548 119.808C86.6502 119.583 86.6381 109.306 87.0328 107.903C87.1725 108.346 87.2575 108.82 87.2575 109.318Z" fill="#0B3D91"/>
</g>
<path d="M82.781 128.112H58.3594C55.3105 128.112 52.8325 125.634 52.8325 122.584V109.318C52.8325 106.269 55.3105 103.791 58.3594 103.791H82.781C85.8299 103.791 88.3079 106.269 88.3079 109.318V122.584C88.3079 125.627 85.8299 128.112 82.781 128.112ZM58.3594 105.899C56.4766 105.899 54.94 107.429 54.94 109.318V122.584C54.94 124.467 56.4706 126.004 58.3594 126.004H82.781C84.6638 126.004 86.2004 124.473 86.2004 122.584V109.318C86.2004 107.435 84.6699 105.899 82.781 105.899H58.3594Z" fill="#0B3D91"/>
<path d="M79.2219 119.808C81.3519 119.808 83.0786 118.081 83.0786 115.951C83.0786 113.821 81.3519 112.094 79.2219 112.094C77.0919 112.094 75.3652 113.821 75.3652 115.951C75.3652 118.081 77.0919 119.808 79.2219 119.808Z" fill="#22A7F0"/>
<path d="M83.0794 115.951C83.0794 116.212 83.0551 116.467 83.0065 116.716C82.6481 114.949 81.0933 113.619 79.2227 113.619C77.352 113.619 75.7972 114.949 75.4449 116.716C75.3964 116.467 75.3721 116.212 75.3721 115.951C75.3721 113.819 77.0969 112.094 79.2288 112.094C81.3545 112.088 83.0794 113.819 83.0794 115.951Z" fill="white"/>
<g opacity="0.35">
<path d="M83.0786 115.951C83.0786 118.083 81.3476 119.808 79.2219 119.808C77.0962 119.808 75.3652 118.083 75.3652 115.951C75.3652 115.593 75.4138 115.247 75.5049 114.919C75.9604 116.547 77.4545 117.743 79.2219 117.743C80.9893 117.743 82.4834 116.547 82.9389 114.919C83.03 115.241 83.0786 115.593 83.0786 115.951Z" fill="#0B3D91"/>
</g>
<path d="M79.2219 120.598C76.6589 120.598 74.5757 118.514 74.5757 115.951C74.5757 113.388 76.6589 111.304 79.2219 111.304C81.7849 111.304 83.8682 113.388 83.8682 115.951C83.8682 118.514 81.7849 120.598 79.2219 120.598ZM79.2219 112.884C77.5335 112.884 76.1548 114.256 76.1548 115.951C76.1548 117.64 77.5335 119.019 79.2219 119.019C80.9104 119.019 82.2891 117.646 82.2891 115.951C82.2891 114.256 80.9164 112.884 79.2219 112.884Z" fill="#0B3D91"/>
<path d="M68.29 128.112C67.7069 128.112 67.2332 127.638 67.2332 127.055V120.264C67.2332 118.922 66.5955 117.64 65.5205 116.832L64.901 116.364C63.3036 115.162 62.3501 113.248 62.3501 111.25V104.842C62.3501 104.258 62.8238 103.785 63.4069 103.785C63.9899 103.785 64.4637 104.258 64.4637 104.842V111.25C64.4637 112.592 65.1014 113.874 66.1764 114.682L66.7959 115.149C68.3933 116.352 69.3468 118.266 69.3468 120.264V127.055C69.3468 127.638 68.8731 128.112 68.29 128.112Z" fill="#0B3D91"/>
<path d="M52.5717 82.8774C52.5717 82.8774 55.0193 91.4117 63.4008 102.418C69.2071 110.035 75.6268 113.418 73.6772 121.965C72.4868 127.182 67.3182 129.217 60.1758 126.836C50.1119 123.483 47.1724 112.398 47.1724 109.883" fill="white"/>
<g opacity="0.35">
<path d="M73.6772 121.959C72.4868 127.176 67.3182 129.211 60.1758 126.83C50.1119 123.477 47.1724 112.392 47.1724 109.877C47.3303 109.087 48.4114 108.978 48.7333 109.719C50.5128 113.831 54.0051 118.8 60.1758 120.859C67.2575 123.216 72.3957 121.242 73.6407 116.127C74.1206 117.822 74.1874 119.711 73.6772 121.959Z" fill="#0B3D91"/>
</g>
<path d="M52.9121 82.78C53.9385 84.2499 54.7402 85.7806 55.5055 87.3295L56.6655 89.6499L57.2425 90.81L57.8438 91.9641C58.2386 92.7355 58.6819 93.4827 59.1131 94.2359C59.5747 94.9708 60.012 95.724 60.4979 96.4469C60.9777 97.1758 61.4454 97.9047 61.9495 98.6093L62.6965 99.6783L63.4679 100.729C64.4882 102.151 65.5632 103.469 66.7172 104.775C67.8651 106.081 69.0676 107.356 70.252 108.698C71.4302 110.041 72.6024 111.462 73.5195 113.12C73.975 113.947 74.3638 114.833 74.631 115.769C74.8982 116.698 75.0501 117.67 75.0743 118.636C75.0986 119.602 75.0136 120.555 74.8436 121.485L74.7039 122.177L74.5034 122.888L74.4002 123.24L74.2605 123.586C74.1633 123.817 74.0722 124.048 73.9629 124.273C73.5074 125.172 72.8818 125.992 72.1287 126.684C71.3574 127.352 70.4646 127.856 69.5353 128.221C67.6586 128.889 65.6847 128.974 63.8262 128.755C63.3646 128.683 62.903 128.616 62.4414 128.531C61.992 128.421 61.5365 128.33 61.087 128.209C60.6437 128.075 60.2064 127.948 59.763 127.808C59.3257 127.644 58.8824 127.498 58.4572 127.304C56.7323 126.581 55.135 125.573 53.7138 124.37C52.2987 123.161 51.0597 121.758 50.0211 120.233C49.4988 119.474 49.025 118.684 48.5938 117.87C48.1687 117.057 47.7374 116.243 47.3791 115.392C47.0208 114.542 46.7535 113.655 46.6078 112.738C46.5349 112.276 46.5045 111.808 46.5227 111.329C46.5531 110.849 46.6078 110.363 46.8082 109.877C46.8872 109.683 47.1119 109.591 47.3002 109.67C47.3852 109.707 47.452 109.768 47.4884 109.84L47.5067 109.877C47.9197 110.66 48.2719 111.432 48.5817 112.215C48.8793 112.999 49.1829 113.783 49.4684 114.572C49.7539 115.362 50.0636 116.145 50.4584 116.893C50.8532 117.64 51.2844 118.356 51.7581 119.049C52.6995 120.434 53.817 121.691 55.0803 122.772C56.3436 123.847 57.7587 124.734 59.2832 125.372C59.6598 125.548 60.0545 125.67 60.4432 125.816L61.6458 126.18C62.0467 126.289 62.4536 126.368 62.8605 126.472C63.2674 126.55 63.6744 126.605 64.0813 126.672C65.709 126.866 67.3488 126.769 68.7943 126.259C69.5049 125.973 70.1609 125.603 70.7257 125.117C71.2663 124.613 71.7218 124.018 72.068 123.343C72.6996 122.001 72.9911 120.276 72.9547 118.703C72.9182 117.111 72.4567 115.574 71.661 114.153C70.8715 112.726 69.7965 111.408 68.6546 110.108C67.5128 108.808 66.2981 107.526 65.1199 106.184C63.9477 104.854 62.7937 103.438 61.7612 101.999C59.6355 99.1377 57.7102 96.131 55.9306 93.0332C55.0196 91.4964 54.1815 89.9111 53.5012 88.2528C52.8149 86.6006 52.2501 84.8756 52.2258 82.9865C52.2258 82.786 52.3837 82.622 52.5841 82.616C52.7056 82.616 52.821 82.6767 52.8878 82.7678L52.9121 82.78Z" fill="#0B3D91"/>
<path d="M90.7138 82.8774C90.7138 82.8774 88.2661 91.4117 79.8847 102.418C74.0784 110.035 67.6587 113.418 69.6083 121.965C70.7987 127.182 75.9673 129.217 83.1097 126.836C93.1735 123.483 96.1131 112.398 96.1131 109.883" fill="white"/>
<g opacity="0.35">
<path d="M96.1133 109.877C96.1133 112.392 93.1738 123.477 83.1099 126.83C75.9675 129.211 70.7989 127.176 69.6085 121.959C69.1408 119.912 69.153 118.168 69.5296 116.583C69.5539 116.711 69.5842 116.832 69.6085 116.966C70.7989 122.189 75.9675 124.218 83.1099 121.837C89.7544 119.62 93.2892 114.038 94.929 109.774C95.1476 109.197 95.9919 109.264 96.1133 109.877Z" fill="#0B3D91"/>
</g>
<path d="M91.048 82.9745C91.0238 84.8636 90.4589 86.5887 89.7726 88.2408C89.0924 89.8991 88.2542 91.4844 87.3432 93.0212C85.5576 96.119 83.6384 99.1258 81.5126 101.987C80.4801 103.426 79.3262 104.842 78.154 106.172C76.9757 107.514 75.7671 108.796 74.6192 110.096C73.4774 111.396 72.4023 112.72 71.6128 114.141C70.8172 115.562 70.3556 117.099 70.3191 118.691C70.2888 120.264 70.5742 121.989 71.2059 123.331C71.5521 124.006 72.0076 124.595 72.5481 125.105C73.1129 125.585 73.7689 125.961 74.4795 126.247C75.925 126.763 77.5648 126.854 79.1925 126.66C79.5995 126.593 80.0064 126.539 80.4133 126.46C80.8202 126.362 81.2272 126.277 81.628 126.168L82.8306 125.804C83.2193 125.658 83.6141 125.53 83.9906 125.36C85.5151 124.722 86.9302 123.829 88.1935 122.76C89.4568 121.685 90.5682 120.428 91.5157 119.037C91.9894 118.344 92.4267 117.628 92.8154 116.881C93.2102 116.133 93.5139 115.35 93.8054 114.56C94.0909 113.771 94.3946 112.993 94.6922 112.203C95.0019 111.42 95.3542 110.655 95.7672 109.865L95.7854 109.835C95.8826 109.652 96.1134 109.579 96.2956 109.677C96.3745 109.719 96.4353 109.786 96.4717 109.865C96.6721 110.351 96.7268 110.837 96.7572 111.317C96.7754 111.79 96.745 112.264 96.6721 112.726C96.5203 113.643 96.2591 114.536 95.9008 115.38C95.5424 116.231 95.1112 117.045 94.6861 117.859C94.2549 118.672 93.7811 119.462 93.2588 120.221C92.2202 121.746 90.9812 123.149 89.5661 124.358C88.1449 125.561 86.5476 126.569 84.8227 127.292C84.3975 127.486 83.9542 127.632 83.5169 127.796C83.0735 127.936 82.6362 128.063 82.1929 128.197C81.7495 128.318 81.2879 128.409 80.8385 128.519C80.3829 128.604 79.9153 128.671 79.4537 128.743C77.5952 128.962 75.6274 128.877 73.7446 128.209C72.8153 127.844 71.9286 127.34 71.1512 126.672C70.3981 125.98 69.7786 125.16 69.317 124.261C69.2077 124.036 69.1226 123.799 69.0194 123.574L68.8797 123.228L68.7765 122.876L68.576 122.165L68.4363 121.473C68.2724 120.543 68.1813 119.59 68.2055 118.624C68.2298 117.658 68.3817 116.692 68.6489 115.757C68.9162 114.828 69.3049 113.935 69.7604 113.109C70.6835 111.45 71.8557 110.035 73.0279 108.687C74.2123 107.344 75.4148 106.069 76.5627 104.763C77.7167 103.451 78.7917 102.139 79.812 100.717L80.5834 99.6664L81.3304 98.5973C81.8345 97.8866 82.3083 97.1577 82.782 96.4349C83.2679 95.7121 83.7052 94.9649 84.1668 94.2239C84.598 93.4707 85.0413 92.7236 85.4361 91.9522L86.0374 90.7981L86.6144 89.6379L87.7805 87.3176C88.5458 85.7686 89.3414 84.2379 90.3739 82.768L90.386 82.7498C90.5014 82.5858 90.7261 82.5433 90.8901 82.6587C90.9995 82.7437 91.048 82.8591 91.048 82.9745Z" fill="#0B3D91"/>
<path d="M109.736 52.555C109.28 52.5732 108.904 52.2149 108.886 51.7654L108.035 28.149C108.017 27.6934 108.375 27.3168 108.825 27.2986C113.574 27.1285 117.565 30.8398 117.735 35.5898L118.026 43.6442C118.196 48.3942 114.485 52.3849 109.736 52.555Z" fill="white"/>
<path d="M109.706 52.7434C109.165 52.7434 108.716 52.3121 108.698 51.7715L107.847 28.1551C107.835 27.8878 107.932 27.6267 108.114 27.4323C108.297 27.2318 108.546 27.1225 108.819 27.1104C113.666 26.9463 117.753 30.7366 117.923 35.5838L118.215 43.6382C118.3 45.9889 117.462 48.2242 115.864 49.9493C114.261 51.6683 112.087 52.6644 109.742 52.7495C109.73 52.7434 109.718 52.7434 109.706 52.7434ZM109.141 27.4809C109.038 27.4809 108.94 27.4809 108.837 27.487C108.667 27.493 108.515 27.5659 108.4 27.6874C108.285 27.8089 108.224 27.9729 108.23 28.1369L109.08 51.7533C109.092 52.0995 109.39 52.3789 109.736 52.3607C111.983 52.2817 114.066 51.3281 115.597 49.682C117.128 48.0359 117.929 45.8917 117.844 43.6443L117.553 35.5899C117.389 31.0586 113.647 27.4809 109.141 27.4809Z" fill="#0B3D91"/>
<g opacity="0.35">
<path d="M117.893 39.866L118.027 43.6441C118.197 48.3941 114.486 52.3848 109.73 52.5549C109.275 52.5731 108.898 52.2148 108.88 51.7653L108.655 45.4846C108.795 45.764 109.086 45.9523 109.421 45.9462L109.979 45.9219C113.739 45.7883 116.842 43.2675 117.893 39.866Z" fill="#0B3D91"/>
</g>
<path d="M109.706 53.6059C108.704 53.6059 107.872 52.8102 107.835 51.7958L106.985 28.1794C106.967 27.6813 107.143 27.2014 107.489 26.837C107.829 26.4725 108.291 26.2599 108.795 26.2417C114.115 26.0534 118.604 30.2264 118.798 35.5534L119.09 43.6078C119.181 46.1893 118.264 48.6494 116.508 50.5384C114.747 52.4275 112.36 53.5209 109.785 53.612C109.749 53.6059 109.73 53.6059 109.706 53.6059ZM109.099 28.3434L109.931 51.486C111.856 51.3585 113.636 50.5141 114.954 49.0928C116.326 47.6168 117.043 45.6912 116.97 43.6746L116.679 35.6203C116.533 31.5506 113.174 28.3373 109.135 28.3373C109.129 28.3434 109.117 28.3434 109.099 28.3434Z" fill="#0B3D91"/>
<path d="M30.878 30.0927C31.3335 30.0745 31.7101 30.4329 31.7283 30.8823L32.5786 54.4988C32.5968 54.9543 32.2385 55.3309 31.789 55.3491C27.0395 55.5192 23.0492 51.8079 22.8792 47.0579L22.5877 39.0035C22.4176 34.2535 26.1285 30.2689 30.878 30.0927Z" fill="white"/>
<path d="M31.4669 55.5495C29.2379 55.5495 27.1244 54.7174 25.4845 53.1928C23.7657 51.5892 22.7696 49.4146 22.6846 47.07L22.3931 39.0156C22.217 34.1684 26.019 30.0805 30.8656 29.9104C31.1329 29.9044 31.394 29.9955 31.5884 30.1777C31.7888 30.3599 31.8981 30.609 31.9103 30.8823L32.7606 54.4987C32.7727 54.766 32.6756 55.0272 32.4933 55.2215C32.3111 55.4159 32.0621 55.5313 31.7888 55.5435C31.6856 55.5495 31.5762 55.5495 31.4669 55.5495ZM30.9082 30.287C30.9021 30.287 30.8899 30.287 30.8839 30.287C26.2437 30.451 22.6057 34.3628 22.7757 39.0035L23.0672 47.0578C23.1462 49.3053 24.0997 51.3887 25.7457 52.9194C27.3916 54.4501 29.5295 55.2519 31.7827 55.1669C31.9528 55.1608 32.1046 55.0879 32.22 54.9664C32.3354 54.8449 32.3962 54.6809 32.3901 54.5109L31.5398 30.8945C31.5277 30.5543 31.2422 30.287 30.9082 30.287Z" fill="#0B3D91"/>
<g opacity="0.35">
<path d="M32.3418 47.951L32.5787 54.505C32.5969 54.9606 32.2386 55.3372 31.7891 55.3554C29.2929 55.4465 27.0093 54.4625 25.3755 52.8225C23.8996 51.3404 22.9582 49.3177 22.8793 47.0642L22.7578 43.6687C24.2155 46.5965 27.2947 48.5645 30.7749 48.4369L31.6373 48.4066C31.947 48.3944 32.2082 48.2122 32.3418 47.951Z" fill="#0B3D91"/>
</g>
<path d="M31.4668 56.4121C29.0192 56.4121 26.693 55.5009 24.8953 53.8245C23.0064 52.069 21.9132 49.6758 21.8221 47.1003L21.5305 39.046C21.3423 33.7189 25.5148 29.2362 30.8412 29.0418C31.3514 29.0236 31.8191 29.1997 32.1835 29.546C32.5479 29.8861 32.7605 30.3478 32.7787 30.8519L33.629 54.4683C33.6472 54.9664 33.4711 55.4463 33.131 55.8107C32.7908 56.1752 32.3232 56.3878 31.8252 56.406C31.7037 56.4121 31.5883 56.4121 31.4668 56.4121ZM30.6833 31.1617C26.6323 31.429 23.4923 34.8852 23.6381 38.967L23.9296 47.0214C24.0025 49.038 24.8528 50.9028 26.3347 52.2816C27.7438 53.5936 29.5597 54.3043 31.4729 54.3043C31.485 54.3043 31.5033 54.3043 31.5154 54.3043L30.6833 31.1617Z" fill="#0B3D91"/>
<g opacity="0.35">
<path d="M95.1293 77.2586C87.9261 82.9076 78.7612 86.139 68.8978 85.7928C60.8139 85.5073 53.3739 82.865 47.2153 78.5402C48.2903 75.3999 49.0495 73.6748 49.0495 73.6748H93.7324C93.7385 73.6748 94.2972 74.9382 95.1293 77.2586Z" fill="#0B3D91"/>
</g>
<path d="M70.3128 81.5956C92.5519 81.5956 110.58 63.5653 110.58 41.3238C110.58 19.0823 92.5519 1.052 70.3128 1.052C48.0737 1.052 30.0454 19.0823 30.0454 41.3238C30.0454 63.5653 48.0737 81.5956 70.3128 81.5956Z" fill="white"/>
<path d="M70.3493 81.7901C69.8634 81.7901 69.3836 81.784 68.8917 81.7658C46.5958 80.9822 29.0919 62.2069 29.8754 39.9086C30.6589 17.6042 49.4261 0.104544 71.728 0.888113C94.0239 1.67168 111.528 20.447 110.744 42.7453C110.368 53.5452 105.8 63.5554 97.8988 70.9234C90.3494 77.9573 80.6136 81.7901 70.3493 81.7901ZM70.2947 1.24042C48.8369 1.24042 31.0172 18.3089 30.258 39.9208C29.4806 62.0126 46.8205 80.6117 68.9099 81.3892C79.6114 81.7658 89.8149 77.9512 97.6437 70.65C105.472 63.3489 109.997 53.4358 110.368 42.7331C111.145 20.6413 93.8053 2.04221 71.7159 1.26471C71.2421 1.24649 70.7684 1.24042 70.2947 1.24042Z" fill="#0B3D91"/>
<g opacity="0.35">
<path d="M110.368 37.1511C110.563 38.9795 110.623 40.8442 110.556 42.7394C109.773 64.9709 91.1212 82.3552 68.8982 81.5777C46.6692 80.7941 29.2867 62.1403 30.0642 39.9149C30.0884 39.2771 30.1249 38.6393 30.1735 38.0076C32.202 57.694 48.4791 73.3714 68.8193 74.0882C90.4045 74.8353 108.619 58.4593 110.368 37.1511Z" fill="#0B3D91"/>
</g>
<path d="M70.3496 82.6526C69.8576 82.6526 69.3596 82.6465 68.8616 82.6283C46.092 81.8265 28.2115 62.6503 29.0132 39.8782C29.8149 17.1062 48.9951 -0.77015 71.7587 0.0255673C94.5283 0.827359 112.409 20.0035 111.607 42.7756C111.218 53.8063 106.56 64.0292 98.4882 71.5551C90.7809 78.7408 80.8325 82.6526 70.3496 82.6526ZM70.2949 2.10294C49.2988 2.10294 31.8617 18.8009 31.1208 39.9451C30.3616 61.557 47.3249 79.7552 68.9345 80.5145C79.4052 80.8789 89.3901 77.1494 97.0488 70.0062C104.714 62.8629 109.135 53.1625 109.499 42.6906C110.259 21.0787 93.2953 2.88043 71.6858 2.12116C71.2242 2.11508 70.7565 2.10294 70.2949 2.10294Z" fill="#0B3D91"/>
<path d="M110.392 43.7658C110.234 51.644 107.532 58.9087 103.037 64.8736C99.6665 69.3442 86.0314 77.0158 69.3779 76.8336C53.939 76.6635 40.061 68.1536 36.8724 63.5494C32.6209 57.4145 30.2097 50.0465 30.3677 42.1683C30.7867 21.3156 48.8676 13.0304 70.9691 13.4739C93.0706 13.9112 110.811 22.9131 110.392 43.7658Z" fill="#0B3D91"/>
<g opacity="0.5">
<path d="M102.503 41.6978C103.282 37.8407 101.647 34.2564 98.8527 33.6921C96.058 33.1278 93.1612 35.7971 92.3825 39.6542C91.6039 43.5114 93.2382 47.0956 96.0329 47.66C98.8276 48.2243 101.724 45.5549 102.503 41.6978Z" fill="white"/>
</g>
<g opacity="0.5">
<path d="M93.4899 55.5953C94.0893 53.8893 93.3898 52.0898 91.9277 51.576C90.4656 51.0622 88.7944 52.0287 88.1951 53.7347C87.5957 55.4407 88.2952 57.2402 89.7573 57.754C91.2194 58.2678 92.8906 57.3013 93.4899 55.5953Z" fill="white"/>
</g>
<g opacity="0.35">
<path d="M103 24.1582C107.799 28.9264 110.562 35.3894 110.392 43.7656C110.234 51.6439 107.531 58.9086 103.037 64.8734C99.6661 69.344 86.025 77.0157 69.3775 76.8335C63.4983 76.7727 57.8499 75.4972 52.9243 73.6871C73.3921 73.4745 90.0092 64.0534 94.1878 58.5077C99.8908 50.9393 103.322 41.7187 103.523 31.7145C103.577 29.0479 103.395 26.5271 103 24.1582Z" fill="#111A28"/>
</g>
<path d="M107.313 26.4664C107.064 26.4664 106.815 26.3814 106.614 26.1992L106.517 26.1141L106.438 26.0048C99.8483 16.3651 86.8631 10.6553 70.8047 10.3334C54.6553 10.0115 41.4636 15.375 34.6005 25.0572L34.5215 25.1544C34.1328 25.5917 33.4708 25.6282 33.0335 25.2394C32.6145 24.8689 32.5659 24.2433 32.8999 23.812C40.176 13.5709 54.0054 7.89158 70.8473 8.23173C87.5859 8.56581 101.184 14.6035 108.163 24.8021C108.442 25.1969 108.43 25.7436 108.096 26.1202C107.89 26.3449 107.604 26.4664 107.313 26.4664ZM33.6895 24.4012L33.7381 24.4437L33.6895 24.4012Z" fill="#0B3D91"/>
<g opacity="0.5">
<path d="M39.1074 54.7539C39.1074 54.7539 33.0582 34.0531 44.3063 26.0777C55.5545 18.1023 71.5035 18.4546 71.1087 19.469C71.1087 19.469 53.368 23.3929 46.183 37.2117C40.644 47.8658 39.1074 54.7539 39.1074 54.7539Z" fill="white"/>
</g>
<path d="M114.521 32.808C114.163 33.1178 113.617 32.7897 113.72 32.3281C114.297 29.8559 115.785 25.1059 118.949 23.6542C123.182 21.7104 126.395 24.2737 125.502 27.1104C124.209 31.2044 119.842 28.228 114.521 32.808Z" fill="#37DBFF"/>
<g opacity="0.3">
<path d="M125.63 25.8043C124.513 24.5895 122.308 24.0914 119.715 25.2819C117.091 26.4846 115.615 29.9651 114.862 32.5284C114.753 32.6196 114.637 32.7107 114.522 32.8139C114.163 33.1237 113.611 32.8018 113.72 32.3401C114.297 29.8679 115.785 25.1119 118.949 23.6662C122.515 22.0201 125.357 23.5812 125.63 25.8043Z" fill="white"/>
</g>
<g opacity="0.35">
<path d="M125.503 27.1105C124.209 31.2045 119.842 28.2281 114.522 32.8081C114.163 33.1179 113.611 32.7959 113.72 32.3343C113.769 32.1217 113.823 31.8909 113.896 31.6479C118.196 27.0983 122.606 28.9267 123.171 24.863C123.262 24.2131 123.158 23.6118 122.897 23.0955C124.932 23.5449 126.086 25.27 125.503 27.1105Z" fill="#0B3D91"/>
</g>
<path d="M114.2 33.8405C113.951 33.8405 113.696 33.7737 113.471 33.634C112.955 33.3181 112.7 32.7107 112.833 32.1215C113.483 29.3334 115.093 24.4194 118.567 22.8219C121.555 21.4491 123.966 22.1477 125.223 23.2593C126.42 24.3162 126.845 25.859 126.365 27.3836C125.545 29.9894 123.62 30.3296 121.591 30.688C119.697 31.0221 117.547 31.4047 115.111 33.5003C114.856 33.7251 114.528 33.8405 114.2 33.8405ZM121.81 23.8849C121.093 23.8849 120.261 24.055 119.332 24.4802C116.939 25.5796 115.579 29.054 114.923 31.3318C117.352 29.5886 119.587 29.1937 121.276 28.8961C123.316 28.5377 124.161 28.3312 124.634 26.8369C124.895 26.0048 124.677 25.203 124.027 24.6259C123.547 24.2068 122.788 23.8849 121.81 23.8849Z" fill="#0B3D91"/>
<path d="M125.619 37.4424C125.157 37.5639 124.811 37.0293 125.114 36.6588C126.724 34.6908 130.155 31.0888 133.636 31.1799C138.294 31.3014 140.043 35.0249 137.99 37.1691C135.02 40.273 132.409 35.6748 125.619 37.4424Z" fill="#37DBFF"/>
<g opacity="0.3">
<path d="M138.676 36.0516C138.209 34.4663 136.447 33.0449 133.599 32.972C130.714 32.8931 127.853 35.3713 126.049 37.3333C125.91 37.3636 125.764 37.4001 125.618 37.4365C125.157 37.558 124.81 37.0235 125.108 36.653C126.717 34.6849 130.149 31.0829 133.629 31.1741C137.553 31.2834 139.411 33.9378 138.676 36.0516Z" fill="white"/>
</g>
<g opacity="0.35">
<path d="M137.984 37.1692C135.02 40.2731 132.408 35.6688 125.618 37.4364C125.157 37.5579 124.81 37.0234 125.108 36.6529C125.248 36.4828 125.399 36.3006 125.57 36.1123C131.43 33.9256 134.589 37.5154 136.884 34.1199C137.249 33.5793 137.425 32.9901 137.413 32.4131C139.047 33.719 139.32 35.7782 137.984 37.1692Z" fill="#0B3D91"/>
</g>
<path d="M135.627 39.192C134.735 39.192 133.83 38.9308 132.9 38.6635C131.048 38.129 128.953 37.5216 125.849 38.3294C125.254 38.4813 124.64 38.2383 124.312 37.7281C123.984 37.2179 124.021 36.5618 124.41 36.0881C126.219 33.871 129.839 30.1779 133.659 30.2751C136.951 30.3601 138.804 32.0487 139.441 33.6037C140.049 35.0797 139.751 36.653 138.646 37.8071C137.638 38.8518 136.642 39.192 135.627 39.192ZM128.752 36.1124C130.659 36.1124 132.184 36.5497 133.404 36.9081C135.397 37.4851 136.247 37.6734 137.322 36.5436C137.923 35.9119 138.081 35.0919 137.747 34.2901C137.328 33.2696 136.016 32.152 133.599 32.0913C130.969 32.0184 128.218 34.5391 126.62 36.2946C127.386 36.167 128.096 36.1124 128.752 36.1124Z" fill="#0B3D91"/>
<path d="M116.824 44.3246C116.381 44.1606 116.405 43.5228 116.861 43.3953C119.308 42.715 124.191 41.7431 126.979 43.8205C130.714 46.6024 130.004 50.6539 127.094 51.2249C122.879 52.0571 123.396 46.7907 116.824 44.3246Z" fill="#37DBFF"/>
<g opacity="0.3">
<path d="M128.297 50.7086C128.831 49.1475 128.206 46.9669 125.916 45.2661C123.602 43.5411 119.837 43.9177 117.231 44.4886C117.097 44.434 116.958 44.3793 116.818 44.3246C116.375 44.1546 116.393 43.5228 116.854 43.3953C119.302 42.715 124.185 41.7431 126.973 43.8205C130.125 46.159 130.119 49.4026 128.297 50.7086Z" fill="white"/>
</g>
<g opacity="0.35">
<path d="M127.094 51.225C122.885 52.0572 123.395 46.7909 116.83 44.3247C116.386 44.1547 116.405 43.5229 116.866 43.3954C117.079 43.3346 117.303 43.2739 117.552 43.2192C123.608 44.8046 124.118 49.5607 127.956 48.1029C128.57 47.8721 129.044 47.4894 129.372 47.0156C129.949 49.014 128.983 50.8484 127.094 51.225Z" fill="#0B3D91"/>
</g>
<path d="M126.238 52.227C124.252 52.227 123.189 50.9028 122.078 49.5179C120.875 48.0115 119.508 46.3107 116.502 45.1809C115.931 44.9683 115.567 44.4156 115.591 43.8021C115.615 43.1947 116.028 42.6783 116.611 42.5143C119.369 41.749 124.452 40.8014 127.519 43.0853C130.161 45.0533 130.702 47.5012 130.331 49.1352C129.979 50.6902 128.831 51.8078 127.258 52.1176C126.9 52.1905 126.56 52.227 126.238 52.227ZM118.312 43.9721C121.009 45.2659 122.43 47.0396 123.499 48.3759C124.792 49.9917 125.382 50.6355 126.912 50.3318C127.768 50.1617 128.364 49.5847 128.558 48.7343C128.801 47.6592 128.37 45.9888 126.432 44.5492C124.325 42.976 120.626 43.4498 118.312 43.9721Z" fill="#0B3D91"/>
<path d="M25.2289 32.808C25.5872 33.1178 26.1339 32.7897 26.0306 32.3281C25.4536 29.8559 23.9656 25.1059 20.8013 23.6542C16.5681 21.7104 13.3552 24.2737 14.248 27.1104C15.5356 31.2044 19.9085 28.228 25.2289 32.808Z" fill="#37DBFF"/>
<g opacity="0.3">
<path d="M14.1206 25.8043C15.2381 24.5895 17.4428 24.0914 20.0362 25.2819C22.66 26.4846 24.1358 29.9651 24.889 32.5284C24.9983 32.6196 25.1137 32.7107 25.2291 32.8139C25.5874 33.1237 26.1401 32.8018 26.0308 32.3401C25.4538 29.8679 23.9658 25.1119 20.8015 23.6662C17.2363 22.0201 14.3939 23.5812 14.1206 25.8043Z" fill="white"/>
</g>
<g opacity="0.35">
<path d="M14.2482 27.1105C15.5419 31.2045 19.9088 28.2281 25.2292 32.8081C25.5875 33.1179 26.1402 32.7959 26.0309 32.3343C25.9823 32.1217 25.9276 31.8909 25.8547 31.6479C21.5547 27.0983 17.1453 28.9267 16.5805 24.863C16.4894 24.2131 16.5926 23.6118 16.8538 23.0955C14.8131 23.5449 13.6652 25.27 14.2482 27.1105Z" fill="#0B3D91"/>
</g>
<path d="M25.5512 33.8405C25.2232 33.8405 24.8953 33.7251 24.6341 33.5003C22.2047 31.4047 20.0547 31.0281 18.1537 30.688C16.119 30.3296 14.1998 29.9894 13.3799 27.3836C12.9001 25.859 13.3252 24.3162 14.5217 23.2593C15.7789 22.1477 18.1901 21.4491 21.1783 22.8219C24.6523 24.4194 26.2618 29.3334 26.9117 32.1215C27.0514 32.7107 26.7963 33.3181 26.274 33.634C26.0492 33.7737 25.8002 33.8405 25.5512 33.8405ZM17.9411 23.8849C16.9633 23.8849 16.2041 24.2068 15.7243 24.6259C15.0744 25.1969 14.8557 26.0048 15.1169 26.8369C15.5906 28.3251 16.4349 28.5316 18.4756 28.8961C20.164 29.1937 22.3991 29.5886 24.8285 31.3318C24.1725 29.054 22.8121 25.5796 20.4191 24.4802C19.4898 24.055 18.6578 23.8849 17.9411 23.8849Z" fill="#0B3D91"/>
<path d="M14.1326 37.4424C14.5942 37.5639 14.9404 37.0293 14.6367 36.6588C13.0272 34.6908 9.59569 31.0888 6.11556 31.1799C1.46325 31.3014 -0.291997 35.0249 1.76085 37.1691C4.7308 40.273 7.33634 35.6748 14.1326 37.4424Z" fill="#37DBFF"/>
<g opacity="0.3">
<path d="M1.07469 36.0516C1.54235 34.4663 3.30367 33.0449 6.15215 32.972C9.03707 32.8931 11.8977 35.3713 13.7015 37.3333C13.8412 37.3636 13.987 37.4001 14.1327 37.4365C14.5943 37.558 14.9405 37.0235 14.6429 36.653C13.0334 34.6849 9.6019 31.0829 6.12178 31.1741C2.19829 31.2834 0.333717 33.9378 1.07469 36.0516Z" fill="white"/>
</g>
<g opacity="0.35">
<path d="M1.76122 37.1692C4.7251 40.2731 7.33671 35.6688 14.1269 37.4364C14.5885 37.5579 14.9347 37.0234 14.6371 36.6529C14.4974 36.4828 14.3456 36.3006 14.1755 36.1123C8.31455 33.9256 5.15632 37.5154 2.86053 34.1199C2.49612 33.5793 2.31999 32.9901 2.33213 32.4131C0.698358 33.719 0.431123 35.7782 1.76122 37.1692Z" fill="#0B3D91"/>
</g>
<path d="M4.12366 39.1917C3.10938 39.1917 2.10725 38.8515 1.10512 37.8068C-0.000260415 36.6405 -0.297863 35.0734 0.309489 33.5974C0.947208 32.0484 2.8057 30.3598 6.09148 30.2687C9.91779 30.1655 13.5255 33.8707 15.3414 36.0817C15.7241 36.5494 15.7666 37.2115 15.4386 37.7217C15.1107 38.232 14.4912 38.4749 13.902 38.3231C10.7985 37.5152 8.70309 38.1226 6.85067 38.6572C5.92142 38.9244 5.01646 39.1917 4.12366 39.1917ZM6.24939 32.091C6.21295 32.091 6.17651 32.091 6.14007 32.091C3.72281 32.1578 2.41093 33.2694 1.99185 34.2898C1.66388 35.0916 1.81572 35.9116 2.417 36.5433C3.49809 37.6731 4.34838 37.4848 6.33442 36.9078C7.98034 36.434 10.1607 35.8023 13.1125 36.2943C11.5455 34.5632 8.84885 32.091 6.24939 32.091Z" fill="#0B3D91"/>
<path d="M22.9275 44.3246C23.3709 44.1606 23.3466 43.5228 22.8911 43.3953C20.4434 42.715 15.5603 41.7431 12.7726 43.8205C9.03738 46.6024 9.74798 50.6539 12.6572 51.2249C16.8661 52.0571 16.356 46.7907 22.9275 44.3246Z" fill="#37DBFF"/>
<g opacity="0.3">
<path d="M11.4484 50.7086C10.9139 49.1475 11.5395 46.9669 13.8292 45.2661C16.1432 43.5411 19.9088 43.9177 22.5143 44.4886C22.648 44.434 22.7876 44.3793 22.9273 44.3246C23.3707 44.1546 23.3525 43.5228 22.8909 43.3953C20.4433 42.715 15.5602 41.7431 12.7724 43.8205C9.62633 46.159 9.62633 49.4026 11.4484 50.7086Z" fill="white"/>
</g>
<g opacity="0.35">
<path d="M12.6572 51.225C16.8661 52.0572 16.3559 46.7909 22.9214 44.3247C23.3648 44.1547 23.3466 43.5229 22.885 43.3954C22.6724 43.3346 22.4477 43.2739 22.1987 43.2192C16.1434 44.8046 15.6332 49.5607 11.7947 48.1029C11.1813 47.8721 10.7076 47.4894 10.3796 47.0156C9.80261 49.014 10.7622 50.8484 12.6572 51.225Z" fill="#0B3D91"/>
</g>
<path d="M13.5072 52.227C13.1914 52.227 12.8452 52.1905 12.4808 52.1176C10.9077 51.8078 9.76592 50.6963 9.41366 49.1352C9.04317 47.5012 9.58979 45.0473 12.2257 43.0853C15.2928 40.8014 20.3764 41.749 23.1337 42.5143C23.7168 42.6783 24.1298 43.1947 24.1541 43.8021C24.1784 44.4095 23.814 44.9622 23.2431 45.1809C20.2427 46.3107 18.8762 48.0115 17.6676 49.5179C16.5561 50.9028 15.4932 52.227 13.5072 52.227ZM17.4125 43.4741C15.8941 43.4741 14.3939 43.7413 13.3129 44.5492C11.3754 45.9948 10.9442 47.6592 11.1871 48.7343C11.3754 49.5786 11.9767 50.1617 12.833 50.3318C14.3696 50.6355 14.9527 49.9917 16.2464 48.3759C17.3214 47.0396 18.7365 45.2659 21.4331 43.9721C20.3095 43.717 18.8519 43.4741 17.4125 43.4741Z" fill="#0B3D91"/>
<path d="M95.2995 114.487C95.2812 114.487 95.263 114.487 95.2448 114.487C94.8257 114.457 94.5099 114.093 94.5403 113.673C95.2995 103.086 82.5937 99.2959 82.4661 99.2534C82.0653 99.138 81.8284 98.7188 81.9499 98.3119C82.0653 97.911 82.4843 97.6741 82.8913 97.7895C83.031 97.832 96.9029 101.956 96.0586 113.777C96.0283 114.178 95.6942 114.487 95.2995 114.487Z" fill="#0B3D91"/>
<path d="M48.1263 114.487C47.7315 114.487 47.3975 114.184 47.3671 113.783C46.5229 101.962 60.3948 97.8381 60.5345 97.7956C60.9353 97.6802 61.3544 97.911 61.4759 98.3179C61.5913 98.7188 61.3605 99.144 60.9596 99.2594C60.8321 99.2959 48.1324 103.092 48.8855 113.68C48.9158 114.099 48.6 114.463 48.181 114.493C48.1627 114.487 48.1445 114.487 48.1263 114.487Z" fill="#0B3D91"/>
</svg>
